<svg width="32" height="33" viewBox="0 0 32 33" fill="none" xmlns="http://www.w3.org/2000/svg">
<path opacity="0.13" d="M25.3337 19.1667C25.3337 24.3213 21.155 28.5 16.0003 28.5C10.8457 28.5 6.66699 24.3213 6.66699 19.1667C6.66699 14.012 16.0003 3.16666 16.0003 3.16666C16.0003 3.16666 25.3337 14.012 25.3337 19.1667Z" fill="#FFB92E"/>
<path d="M16.6406 2.42069C16.2757 2.07742 15.7236 2.07742 15.3587 2.42069C13.0554 4.58748 5.33301 12.3597 5.33301 19.1667C5.33301 25.0573 10.109 29.8333 15.9997 29.8333C21.8903 29.8333 26.6663 25.0573 26.6663 19.1667C26.6663 12.3597 18.9439 4.58749 16.6406 2.42069ZM15.9997 27.1667C11.589 27.1667 7.99967 23.5773 7.99967 19.1667C7.99967 14.9095 12.1444 9.56548 15.3008 6.23185C15.6833 5.82787 16.3217 5.8276 16.7044 6.23132C19.8591 9.55859 23.9997 14.895 23.9997 19.1667C23.9997 23.5773 20.4103 27.1667 15.9997 27.1667Z" fill="#FFB92E"/>
<path d="M16 27.1667C13.7907 27.1667 12 25.376 12 23.1667C12 20.2057 14.1918 17.2448 15.3305 15.9063C15.6884 15.4856 16.3116 15.4856 16.6695 15.9063C17.8082 17.2448 20 20.2057 20 23.1667C20 25.376 18.2093 27.1667 16 27.1667Z" fill="#FFB92E"/>
</svg>
