<svg width="32" height="33" viewBox="0 0 32 33" fill="none" xmlns="http://www.w3.org/2000/svg">
<path opacity="0.3" d="M16 4.5C14.4241 4.5 12.8637 4.81039 11.4078 5.41345C9.95189 6.0165 8.62902 6.90042 7.51472 8.01472C6.40042 9.12902 5.5165 10.4519 4.91345 11.9078C4.31039 13.3637 4 14.9241 4 16.5C4 18.0759 4.31039 19.6363 4.91345 21.0922C5.5165 22.5481 6.40042 23.871 7.51472 24.9853C8.62902 26.0996 9.95189 26.9835 11.4078 27.5866C12.8637 28.1896 14.4241 28.5 16 28.5C17.5759 28.5 19.1363 28.1896 20.5922 27.5866C22.0481 26.9835 23.371 26.0996 24.4853 24.9853C25.5996 23.871 26.4835 22.5481 27.0866 21.0922C27.6896 19.6363 28 18.0759 28 16.5C28 14.9241 27.6896 13.3637 27.0866 11.9078C26.4835 10.4519 25.5996 9.12902 24.4853 8.01472C23.371 6.90042 22.0481 6.0165 20.5922 5.41345C19.1363 4.81039 17.5759 4.5 16 4.5Z" fill="#5F369D"/>
<path d="M5.33366 16.5H2.66699C2.66699 9.16666 8.66699 3.16666 16.0003 3.16666V5.83332C10.1337 5.83332 5.33366 10.6333 5.33366 16.5Z" fill="#5F369D"/>
<path d="M16.0003 29.8333C8.66699 29.8333 2.66699 23.8333 2.66699 16.5H5.33366C5.33366 22.3667 10.1337 27.1667 16.0003 27.1667C21.867 27.1667 26.667 22.3667 26.667 16.5C26.667 10.6333 21.867 5.83332 16.0003 5.83332V3.16666C23.3337 3.16666 29.3337 9.16666 29.3337 16.5C29.3337 23.8333 23.3337 29.8333 16.0003 29.8333Z" fill="#5F369D"/>
<path d="M15.3995 23.182C13.8599 23.2601 12.5612 21.8212 13.8875 21.0355C14.4288 20.7149 15.1198 20.5 16 20.5C16.8802 20.5 17.5712 20.7149 18.1125 21.0355C19.4388 21.8212 18.1401 23.2601 16.6005 23.182C16.4053 23.1721 16.2048 23.1667 16 23.1667C15.7952 23.1667 15.5947 23.1721 15.3995 23.182ZM24 17.7667C24 18.5399 23.3711 19.1888 22.6017 19.1123C21.2394 18.9767 19.4886 18.5035 18.1904 16.8513C17.7257 16.2599 18.0121 15.4273 18.6848 15.0909V15.0909C19.3433 14.7617 20.1203 15.0554 20.6857 15.5267C21.2426 15.9908 21.9025 16.2009 22.6028 16.2944C23.3692 16.3968 24 16.9935 24 17.7667V17.7667ZM9.33349 19.1495C8.5977 19.1789 8 18.5697 8 17.8333V17.8333C8 17.097 8.59844 16.5148 9.33418 16.4842C10.3282 16.4428 10.9138 16.2929 11.4159 15.7501C11.9151 15.2104 12.6663 14.8998 13.3238 15.2286V15.2286C13.9887 15.561 14.2658 16.3863 13.8264 16.9859C12.5457 18.7332 11.0631 19.0805 9.33349 19.1495Z" fill="#5F369D"/>
</svg>
