<svg width="20" height="26" viewBox="0 0 20 26" fill="none" xmlns="http://www.w3.org/2000/svg">
<path opacity="0.3" d="M1.25 3H18.75V24.25H1.25V3Z" fill="#160523"/>
<path d="M0 23V4.25C0 2.875 1.125 1.75 2.5 1.75H17.5C18.875 1.75 20 2.875 20 4.25V23C20 24.375 18.875 25.5 17.5 25.5H2.5C1.125 25.5 0 24.375 0 23ZM17.5 5C17.5 4.58579 17.1642 4.25 16.75 4.25H3.25C2.83579 4.25 2.5 4.58579 2.5 5V22.25C2.5 22.6642 2.83579 23 3.25 23H16.75C17.1642 23 17.5 22.6642 17.5 22.25V5Z" fill="#160523"/>
<path d="M8.75 1.75C8.75 1.05964 9.30964 0.5 10 0.5C10.6904 0.5 11.25 1.05964 11.25 1.75V4.25C11.25 4.94036 10.6904 5.5 10 5.5C9.30964 5.5 8.75 4.94036 8.75 4.25V1.75ZM8.75 13H13.75C14.4404 13 15 13.5596 15 14.25C15 14.9404 14.4404 15.5 13.75 15.5H8.75V13Z" fill="#160523"/>
<path d="M9.99948 10.7589C9.99948 10.2021 9.32627 9.92327 8.93254 10.317L5.70659 13.543C5.31606 13.9335 5.31607 14.5666 5.70659 14.9572L8.93254 18.1831C9.32627 18.5768 9.99948 18.298 9.99948 17.7412V10.7589Z" fill="#160523"/>
</svg>
