<svg width="32" height="33" viewBox="0 0 32 33" fill="none" xmlns="http://www.w3.org/2000/svg">
<path opacity="0.3" d="M15.9997 7.16666C13.1707 7.16666 10.4576 8.29046 8.4572 10.2909C6.45681 12.2912 5.33301 15.0043 5.33301 17.8333C5.33301 20.6623 6.45681 23.3754 8.4572 25.3758C10.4576 27.3762 13.1707 28.5 15.9997 28.5C18.8287 28.5 21.5418 27.3762 23.5421 25.3758C25.5425 23.3754 26.6663 20.6623 26.6663 17.8333C26.6663 15.0043 25.5425 12.2912 23.5421 10.2909C21.5418 8.29046 18.8287 7.16666 15.9997 7.16666Z" fill="#0135EE"/>
<path d="M16 5.83334C9.384 5.83334 4 11.2173 4 17.8333C4 24.4493 9.384 29.8333 16 29.8333C22.616 29.8333 28 24.4493 28 17.8333C28 11.2173 22.616 5.83334 16 5.83334ZM16 27.1667C10.8533 27.1667 6.66667 22.98 6.66667 17.8333C6.66667 12.6867 10.8533 8.50001 16 8.50001C21.1467 8.50001 25.3333 12.6867 25.3333 17.8333C25.3333 22.98 21.1467 27.1667 16 27.1667Z" fill="#0135EE"/>
<path d="M14.6667 12.5C14.6667 11.7636 15.2636 11.1667 16 11.1667V11.1667C16.7364 11.1667 17.3333 11.7636 17.3333 12.5V17.8333C17.3333 18.5697 16.7364 19.1667 16 19.1667V19.1667C15.2636 19.1667 14.6667 18.5697 14.6667 17.8333V12.5ZM12 3.16668C12 2.4303 12.597 1.83334 13.3333 1.83334H18.6667C19.403 1.83334 20 2.4303 20 3.16668V3.16668C20 3.90306 19.403 4.50001 18.6667 4.50001H13.3333C12.597 4.50001 12 3.90306 12 3.16668V3.16668Z" fill="#0135EE"/>
<path d="M24.5715 7.12003C24.0099 6.64367 23.9409 5.80228 24.4172 5.24074V5.24074C24.8936 4.67919 25.735 4.61013 26.2965 5.08649L28.1949 6.69684C28.7564 7.1732 28.8255 8.01459 28.3491 8.57613V8.57613C27.8727 9.13768 27.0313 9.20674 26.4698 8.73038L24.5715 7.12003Z" fill="#0135EE"/>
</svg>
