<svg width="120" height="120" viewBox="0 0 120 120" fill="none" xmlns="http://www.w3.org/2000/svg">
<rect width="120" height="120" rx="18" fill="white"/>
<path fill-rule="evenodd" clip-rule="evenodd" d="M26.2643 52.7372C30.5522 45.5217 36.8172 45.4868 36.9024 45.4868C37.0342 45.4756 37.1669 45.4923 37.2919 45.5356C37.4169 45.579 37.5314 45.6482 37.6279 45.7386C37.7245 45.829 37.8009 45.9387 37.8524 46.0606C37.9038 46.1824 37.929 46.3137 37.9265 46.446C37.9265 47.2229 37.0565 47.4331 35.7876 47.7398C33.646 48.2574 30.3679 49.0497 28.2186 53.305C28.2639 53.3353 28.3193 53.3701 28.3828 53.41C29.0686 53.8407 30.6995 54.8648 30.6995 57.2402C30.6995 60.3814 27.7057 61.0452 27.2182 61.0452C25.8864 61.0452 24.8455 59.9025 24.8455 57.8816C24.8998 56.8453 25.0853 55.82 25.3975 54.8303C24.087 55.2381 21.5544 56.2084 21.5544 61.5045C21.5544 63.2343 21.8407 63.812 22.0389 64.2118C22.1438 64.4236 22.224 64.5855 22.224 64.8422C22.2102 65.06 22.1133 65.2642 21.9534 65.4128C21.7935 65.5614 21.5826 65.643 21.3643 65.6409C20.4571 65.6409 19.6716 64.0427 19.6716 61.3211C19.6729 53.271 25.2302 52.823 26.1455 52.7492C26.2073 52.7443 26.2479 52.741 26.2643 52.7372ZM27.0853 59.0469C26.9055 58.6493 26.8138 58.2175 26.8166 57.7811C26.8166 57.1173 27.0084 56.468 27.2018 55.8134C27.2594 55.6184 27.3172 55.423 27.37 55.2265C27.7746 55.3709 28.1228 55.6402 28.3641 55.9955C28.6055 56.3508 28.7274 56.7736 28.7123 57.2028C28.7123 58.2764 28.1066 58.8498 27.0853 59.0469Z" fill="#290568"/>
<path d="M90.7285 58.1972C90.5257 57.6711 90.4344 57.3891 90.5069 57.1532C90.6926 56.549 96.0869 53.5348 98.1141 46.9398C101.902 34.6178 92.1179 23.6321 81.4174 20.3429C65.9685 15.5942 54.2038 24.2818 51.4789 33.1464C47.6408 45.633 57.5535 56.5381 68.1363 59.7911C75.139 61.9436 81.1448 60.6475 82.5669 60.4728C82.8399 60.8192 84.7954 63.6198 88.1636 64.6552C90.8482 65.4804 94.4285 64.9939 94.7557 63.9296C95.1646 62.6017 92.2602 62.1538 90.7285 58.1972ZM88.7822 62.7903C84.6492 61.5199 84.2248 58.5966 83.4168 58.3483C82.6239 58.1046 77.0216 60.4461 68.9474 57.9642C56.2481 54.0606 50.5279 42.8372 53.3373 33.6975C56.3657 23.8453 68.6994 18.4638 80.8525 22.1995C91.6752 25.5262 99.4301 36.0514 96.2677 46.3398C94.9983 50.4692 91.573 54.1339 90.183 54.4583C89.8388 54.5185 89.5193 54.6781 89.2635 54.9176C89.0078 55.1571 88.8269 55.4661 88.743 55.8067C88.1718 57.6652 88.7123 59.5718 91.6314 63.0675C90.6728 63.2125 89.694 63.1173 88.7822 62.7903Z" fill="#290568"/>
<path d="M77.0817 35.1686C77.542 34.8734 80.4149 32.7569 83.8151 33.8021C88.5547 35.259 87.2328 39.7959 87.1224 40.155L87.1161 40.1755C86.4157 42.4542 83.8947 45.1759 81.3227 46.4395C74.518 49.7781 74.5223 49.8467 73.6374 49.5746C70.4315 48.5892 63.9998 40.5999 66.0923 33.7927C67.067 30.6216 69.6516 30.1148 71.5925 30.7114C74.3295 31.5527 75.9518 33.801 77.0817 35.1686Z" fill="#290568"/>
<path d="M88.7822 62.7903C84.6492 61.5199 84.2248 58.5966 83.4168 58.3483C82.6239 58.1046 77.0216 60.4461 68.9474 57.9642C56.2481 54.0606 50.5279 42.8372 53.3373 33.6975C56.3657 23.8453 68.6994 18.4638 80.8525 22.1995C91.6752 25.5262 99.4301 36.0514 96.2677 46.3398C94.9983 50.4693 91.573 54.1339 90.183 54.4583C89.8388 54.5185 89.5193 54.6781 89.2635 54.9176C89.0078 55.1571 88.8269 55.4661 88.743 55.8067C88.1718 57.6652 88.7123 59.5718 91.6314 63.0675C90.6728 63.2125 89.694 63.1173 88.7822 62.7903Z" fill="#EBCFE4"/>
<path d="M77.0817 35.1686C77.542 34.8734 80.4149 32.7569 83.8151 33.8021C88.5547 35.259 87.2328 39.7959 87.1224 40.155L87.1161 40.1755C86.4157 42.4542 83.8947 45.1759 81.3227 46.4395C74.518 49.7781 74.5223 49.8467 73.6374 49.5746C70.4315 48.5892 63.9998 40.5999 66.0923 33.7927C67.067 30.6216 69.6516 30.1148 71.5925 30.7114C74.3295 31.5527 75.9518 33.801 77.0817 35.1686Z" fill="#EBCFE4"/>
<path d="M77.081 35.1685C77.5412 34.8733 80.4141 32.7568 83.8143 33.8019C88.554 35.2588 87.2321 39.7958 87.1217 40.1549L87.1154 40.1754C86.415 42.4541 83.8939 45.1758 81.322 46.4394C74.5173 49.778 74.5216 49.8465 73.6367 49.5745C70.4308 48.5891 63.9991 40.5998 66.0915 33.7926C67.0663 30.6215 69.6509 30.1146 71.5918 30.7112C74.3287 31.5525 75.9511 33.8009 77.081 35.1685Z" fill="#290568"/>
<path d="M43.2178 72.5079C44.7245 71.087 46.0359 70.5535 46.8353 70.1625L47.947 73.8547L44.4595 77.1437L40.6953 75.9303C41.1505 75.1381 41.7352 73.9062 43.2178 72.5079ZM45.6566 78.9181L49.6664 75.1366C49.802 75.0881 51.919 74.3504 54.7551 74.1708C57.6729 73.9937 61.0327 74.4656 63.2631 76.8307C65.0803 78.7575 65.3915 80.29 64.7209 82.2607C64.0506 84.2197 62.1304 86.6091 59.1591 89.4113C56.1878 92.2134 53.6901 93.9905 51.6892 94.5506C49.6887 95.0991 48.177 94.6987 46.3598 92.7719C44.1407 90.4189 43.9082 86.9976 44.2983 84.0439C44.6859 81.1719 45.5942 79.0564 45.6566 78.9181ZM49.0147 78.6546C48.5903 79.0548 48.5707 79.7232 48.9709 80.1475L49.6955 80.9159L48.9272 81.6405C47.6607 82.8349 47.6015 84.8527 48.796 86.1193C49.9905 87.3858 52.0083 87.4449 53.2748 86.2505L56.3481 83.3521C56.7803 82.9445 57.4335 82.9636 57.8411 83.3958C58.2487 83.828 58.2295 84.4812 57.7974 84.8887L53.4679 88.8977C53.0355 89.2981 53.0126 89.9742 53.4169 90.4029C53.8138 90.8237 54.4749 90.8486 54.9024 90.4588L56.9416 88.5992C57.3417 89.0236 58.0102 89.0431 58.4345 88.6429C58.8588 88.2428 58.8784 87.5743 58.4782 87.15L59.2466 86.4254C60.5131 85.2309 60.5722 83.2131 59.3777 81.9466C58.1833 80.6801 56.1655 80.6209 54.8989 81.8154L51.8256 84.7138C51.3934 85.1214 50.7403 85.1023 50.3327 84.6701C49.9251 84.2379 49.9442 83.5847 50.3764 83.1771L53.4497 80.2787C53.8741 79.8786 53.8937 79.2101 53.4935 78.7858C53.0933 78.3615 52.4249 78.3419 52.0005 78.7421L51.2322 79.4667L50.5076 78.6983C50.1074 78.274 49.439 78.2544 49.0147 78.6546Z" fill="#EBCFE4"/>
<path d="M41.7687 70.9715C39.4637 73.1453 38.0486 76.0222 38.0486 76.0222C37.7586 76.5998 38.0519 77.3 38.6669 77.4984L43.3658 79.0147C43.0042 80.0021 42.5039 81.5401 42.2114 83.7553C41.7651 87.0342 41.9644 91.19 44.8232 94.2213C47.0026 96.5323 49.6238 97.3153 52.266 96.5814C54.8965 95.8472 57.541 93.8409 60.6083 90.9481C63.6757 88.0554 65.8333 85.5329 66.7202 82.9498C67.6076 80.3551 66.9793 77.6926 64.7998 75.3816C61.9467 72.3563 57.8637 71.8632 54.6184 72.0658C53.9342 72.11 53.3013 72.1965 52.6917 72.2837L54.3847 70.3181C54.7435 69.9016 54.7295 69.2812 54.3523 68.8813C53.927 68.4302 53.209 68.4323 52.7863 68.8858L49.6638 72.2359L48.4571 68.2182C48.2756 67.6139 47.6077 67.3031 47.0285 67.5534C47.0285 67.5534 44.0737 68.7977 41.7687 70.9715ZM43.2179 72.5081C44.7245 71.0872 46.0359 70.5537 46.8353 70.1627L47.9471 73.8549L44.4596 77.1439L40.6954 75.9305C41.1505 75.1383 41.7352 73.9064 43.2179 72.5081ZM45.6567 78.9183L49.6664 75.1368C49.8021 75.0882 51.9191 74.3506 54.7552 74.171C57.6729 73.9939 61.0328 74.4658 63.2632 76.8308C65.0803 78.7577 65.3915 80.2902 64.7209 82.2609C64.0507 84.2199 62.1304 86.6093 59.1591 89.4115C56.1878 92.2136 53.6902 93.9907 51.6893 94.5508C49.6887 95.0993 48.177 94.6989 46.3598 92.7721C44.1407 90.4191 43.9083 86.9978 44.2983 84.0441C44.6859 81.1721 45.5942 79.0566 45.6567 78.9183ZM49.0147 78.6548C48.5904 79.055 48.5708 79.7234 48.971 80.1477L49.6956 80.9161L48.9272 81.6407C47.6607 82.8351 47.6016 84.8529 48.796 86.1195C49.9905 87.386 52.0083 87.4451 53.2748 86.2507L56.3482 83.3523C56.7804 82.9447 57.4335 82.9638 57.8411 83.396C58.2487 83.8282 58.2296 84.4813 57.7974 84.8889L53.4679 88.8979C53.0355 89.2983 53.0126 89.9744 53.4169 90.403C53.8138 90.8239 54.4749 90.8488 54.9024 90.459L56.9416 88.5994C57.3418 89.0237 58.0102 89.0433 58.4345 88.6431C58.8589 88.243 58.8784 87.5745 58.4782 87.1502L59.2466 86.4256C60.5131 85.2311 60.5722 83.2133 59.3778 81.9468C58.1833 80.6802 56.1655 80.6211 54.899 81.8156L51.8256 84.714C51.3934 85.1216 50.7403 85.1025 50.3327 84.6703C49.9251 84.2381 49.9442 83.5849 50.3764 83.1773L53.4498 80.2789C53.8741 79.8787 53.8937 79.2103 53.4935 78.786C53.0933 78.3617 52.4249 78.3421 52.0006 78.7423L51.2322 79.4669L50.5076 78.6985C50.1074 78.2742 49.439 78.2546 49.0147 78.6548Z" fill="#290568"/>
<rect x="0.375" y="0.375" width="119.25" height="119.25" rx="17.625" stroke="#EDEDF0" stroke-opacity="0.5" stroke-width="0.75"/>
</svg>
