<svg width="120" height="120" viewBox="0 0 120 120" fill="none" xmlns="http://www.w3.org/2000/svg">
<rect width="120" height="120" rx="18" fill="white"/>
<path d="M37.4536 28.309C35.86 37.2005 36.0955 40.5517 22.8523 55.0575C23.5896 55.3264 46.9911 62.6696 47.286 62.6696C47.4304 62.6645 47.5712 62.6238 47.696 62.5511C47.8208 62.4783 47.9257 62.3759 48.0013 62.2528C52.9246 55.95 58.326 50.5353 58.326 33.203C58.326 30.9539 58.2318 30.6299 58.1983 30.3401L37.4536 28.309Z" fill="#EBCFE4"/>
<path d="M36.963 25.8671C37.0572 25.8671 37.2107 25.9198 41.9763 26.5996C42.3382 26.0917 43.1627 23 47.6988 23C50.1873 23 53.4955 24.4168 54.0457 27.6993C60.384 28.3791 60.466 26.9449 60.466 34.5472C60.466 54.8241 48.733 65.1244 47.8048 65.1244C47.7717 65.1244 19.0002 56.8098 19.0002 55.3895C18.996 55.1601 19.0654 54.9353 19.1982 54.7481C19.3311 54.5609 19.5204 54.4212 19.7385 54.3494C25.4166 51.8419 35.4158 36.5703 35.4158 27.4667C35.4158 27.3097 35.4134 27.2351 35.4134 27.1974C35.4134 26.2822 36.166 25.8695 36.8893 25.8695C36.9302 25.8688 36.9455 25.8671 36.963 25.8671ZM37.4536 28.3087C35.86 37.2002 36.0955 40.5514 22.8523 55.0571C23.5896 55.326 46.9911 62.6693 47.286 62.6693C47.4303 62.6642 47.5712 62.6235 47.696 62.5507C47.8208 62.478 47.9257 62.3755 48.0013 62.2524C52.9246 55.9497 58.326 50.535 58.326 33.2026C58.326 30.9536 58.2318 30.6296 58.1983 30.3397L37.4536 28.3087ZM51.6518 27.482C51.1699 26.0739 49.5031 25.2285 47.5477 25.2285C46.0822 25.2285 44.9464 25.7698 44.4583 26.7754L51.6518 27.482Z" fill="#290568"/>
<path d="M44.0402 47.754C46.0201 48.146 47.1883 48.1635 47.1883 49.259C47.191 49.5442 47.0803 49.8187 46.8805 50.0223C46.6807 50.2258 46.4082 50.3417 46.123 50.3445C46.0967 50.3447 46.0704 50.344 46.0441 50.3424C45.7968 50.3308 45.5506 50.3004 45.3079 50.2514C38.7439 49.0494 37.897 49.1572 37.897 47.9657C37.8997 47.6773 38.0164 47.4017 38.2217 47.1991C38.427 46.9965 38.7042 46.8834 38.9927 46.8844C39.4089 46.8844 40.2104 47.1021 41.7715 47.3257C42.8078 44.9169 43.6679 42.4641 44.5458 39.9434H44.0898C44.0102 39.9434 43.9356 39.9434 43.8606 39.941C43.6131 39.9358 43.3774 39.8346 43.2033 39.6589C43.0292 39.4831 42.9303 39.2466 42.9275 38.9992C42.9377 38.7548 43.0341 38.5218 43.1997 38.3417C43.2213 38.3152 45.9995 36.3086 46.5145 36.3086C46.5462 36.3086 47.4695 36.3229 47.4695 37.4296C47.4706 38.3578 44.0525 47.7212 44.0402 47.754Z" fill="#290568"/>
<path fill-rule="evenodd" clip-rule="evenodd" d="M39.2643 81.7372C43.5523 74.5217 49.8173 74.4868 49.9024 74.4868C50.0342 74.4756 50.1669 74.4923 50.2919 74.5356C50.4169 74.579 50.5314 74.6482 50.6279 74.7386C50.7245 74.829 50.801 74.9387 50.8524 75.0606C50.9038 75.1824 50.9291 75.3137 50.9265 75.446C50.9265 76.2229 50.0565 76.4331 48.7877 76.7398C46.646 77.2574 43.3679 78.0497 41.2186 82.305C41.2639 82.3353 41.3193 82.3701 41.3829 82.41C42.0687 82.8407 43.6995 83.8648 43.6995 86.2402C43.6995 89.3814 40.7057 90.0452 40.2183 90.0452C38.8864 90.0452 37.8456 88.9025 37.8456 86.8816C37.8999 85.8453 38.0853 84.82 38.3976 83.8303C37.087 84.2381 34.5545 85.2084 34.5545 90.5045C34.5545 92.2343 34.8407 92.812 35.0389 93.2118C35.1438 93.4236 35.2241 93.5855 35.2241 93.8422C35.2102 94.06 35.1134 94.2642 34.9534 94.4128C34.7935 94.5614 34.5826 94.643 34.3643 94.6409C33.4571 94.6409 32.6717 93.0427 32.6717 90.3211C32.673 82.271 38.2303 81.823 39.1455 81.7492C39.2073 81.7443 39.248 81.741 39.2643 81.7372ZM40.0853 88.0469C39.9055 87.6493 39.8138 87.2175 39.8166 86.7811C39.8166 86.1173 40.0085 85.468 40.2019 84.8134C40.2595 84.6184 40.3172 84.423 40.37 84.2265C40.7747 84.3709 41.1228 84.6402 41.3642 84.9955C41.6055 85.3508 41.7274 85.7736 41.7124 86.2028C41.7124 87.2764 41.1066 87.8498 40.0853 88.0469Z" fill="#290568"/>
<path fill-rule="evenodd" clip-rule="evenodd" d="M65.5581 56.1401H64.0089C62.8514 56.1401 62.4296 56.1345 62.1306 56.1305C61.9134 56.1276 61.7609 56.1256 61.438 56.1272C59.6038 56.1272 59.5659 56.6332 59.5075 57.4138C59.4907 57.6377 59.4723 57.8842 59.4093 58.1478C58.5935 61.5197 58.1847 64.9772 58.1916 68.4463C58.1916 87.6147 70.449 97.4159 71.3011 97.4159C71.3339 97.4159 101.279 88.2325 101.279 86.853C101.279 86.7475 100.879 86.4865 100.204 86.0455C96.5151 83.636 84.5949 75.8503 84.5949 58.6511C84.5949 58.2779 84.6238 58.0709 84.6488 57.8919C84.6678 57.7555 84.6846 57.6354 84.6846 57.4704C84.6846 56.3393 83.7543 56.2901 82.8353 56.2901H82.0055C81.9529 56.2901 81.894 56.2898 81.813 56.2895C81.634 56.2888 81.3467 56.2876 80.7794 56.2876H79.1628C78.7454 54.7984 77.8403 53.4921 76.5923 52.5779C75.3443 51.6638 73.8255 51.1946 72.2792 51.2454C67.153 51.2454 65.9372 54.9869 65.6252 55.9472C65.5955 56.0385 65.574 56.1047 65.5581 56.1401ZM60.3929 68.3591C60.3929 70.5405 60.4704 85.7762 71.717 95.042L96.9584 86.6709C96.9201 86.4549 96.4977 86.1614 95.8169 85.6884C92.7207 83.5373 84.281 77.6736 82.3248 58.5004L61.7164 58.3699C61.3054 59.003 60.3933 63.7969 60.3933 68.2757L60.3929 68.3591ZM72.2362 53.4631C73.7555 53.4631 76.0971 54.2315 76.7827 56.2085H67.9978C67.9931 56.1646 67.9908 56.1204 67.9909 56.0763C67.9909 55.3686 69.2704 53.4631 72.2362 53.4631Z" fill="#290568"/>
<path d="M80.5033 78.997C79.9311 78.997 79.8128 79.1407 74.0255 80.9467C74.7488 77.5303 76.3497 74.6792 76.3497 71.8536C76.3497 67.5701 74.2418 67.0884 73.3772 67.0884C72.27 67.0884 69.2578 68.0301 69.2578 71.1016C69.2701 71.6437 69.3322 72.1834 69.443 72.7141C69.4855 72.9233 69.6013 73.1104 69.7695 73.2418C69.9377 73.3733 70.1474 73.4403 70.3607 73.4309C70.4928 73.4343 70.6242 73.4096 70.7461 73.3586C70.868 73.3075 70.9777 73.2312 71.0679 73.1346C71.1582 73.0381 71.2269 72.9235 71.2696 72.7985C71.3123 72.6735 71.3281 72.5408 71.3157 72.4093C71.3157 72.1288 71.2529 71.7431 71.2529 71.3943C71.2529 69.4675 73.1947 69.3123 73.2565 69.3123C73.6274 69.3123 73.8154 69.5561 73.9463 70.1334C74.0861 70.7296 74.1589 71.3396 74.1633 71.952C74.1633 74.0343 71.4333 80.7036 71.4333 82.343C71.4333 83.1396 71.8859 83.5986 72.6368 83.5986C73.2226 83.5986 80.6527 81.1895 81.0662 80.9199C81.2108 80.8281 81.3296 80.701 81.4114 80.5506C81.4932 80.4001 81.5353 80.2313 81.5337 80.0601V80.043C81.5348 79.9067 81.509 79.7715 81.4578 79.6452C81.4065 79.5188 81.3309 79.4038 81.2353 79.3067C81.1396 79.2095 81.0257 79.1322 80.9001 79.0791C80.7745 79.0259 80.6397 78.998 80.5033 78.997Z" fill="#290568"/>
<rect x="0.375" y="0.375" width="119.25" height="119.25" rx="17.625" stroke="#EDEDF0" stroke-opacity="0.5" stroke-width="0.75"/>
</svg>
