<svg width="32" height="32" viewBox="0 0 32 32" fill="none" xmlns="http://www.w3.org/2000/svg">
<circle cx="16" cy="16" r="16" fill="#EF3770"/>
<path d="M21.305 10.8024C21.0898 10.4083 20.7724 10.0792 20.3861 9.85006C20 9.62075 19.559 9.49989 19.11 9.49989H18.5V8.99994C18.5 8.7347 18.3946 8.48043 18.207 8.29279C18.0195 8.10533 17.7651 8 17.5 8H14.4999C14.2348 8 13.9804 8.10533 13.7929 8.29279C13.6053 8.48043 13.5 8.73469 13.5 8.99994V9.49989H12.89C12.4409 9.49989 11.9999 9.62074 11.6138 9.85006C11.2275 10.0792 10.9101 10.4083 10.695 10.8024L8.49996 14.8499C8.17542 15.4364 8.00366 16.0948 8 16.765V21.9998C8 22.5303 8.21066 23.0389 8.58576 23.4141C8.96086 23.7892 9.46955 23.9998 10 23.9998H12.0001H11.9999C12.5304 23.9998 13.0391 23.7892 13.4142 23.4141C13.7893 23.039 14 22.5303 14 21.9998H18C18 22.5303 18.2107 23.0389 18.5858 23.4141C18.9609 23.7892 19.4696 23.9998 20.0001 23.9998H22.0001H22C22.5304 23.9998 23.0391 23.7892 23.4142 23.4141C23.7894 23.039 24 22.5303 24 21.9998V16.765C23.9958 16.0948 23.824 15.4365 23.5 14.8499L21.305 10.8024ZM21.9999 21.9997H20V19.9998H12V21.9999L10.0001 21.9997V16.7649C10.0019 16.4297 10.0878 16.1005 10.25 15.8073L12.4525 11.7499C12.543 11.5929 12.7115 11.4974 12.8925 11.4998H19.1099C19.2911 11.4974 19.4594 11.5929 19.5499 11.7499L21.7499 15.8073C21.9121 16.1005 21.9981 16.4297 21.9998 16.7649L21.9999 21.9997Z" fill="white"/>
<path d="M14 17.0002C14 17.5524 13.5524 18.0002 13.0001 18.0002C12.4478 18.0002 12 17.5524 12 17.0002C12 16.4479 12.4478 16.0002 13.0001 16.0002C13.5524 16.0002 14 16.4479 14 17.0002Z" fill="white"/>
<path d="M20 17.0002C20 17.5524 19.5522 18.0002 18.9999 18.0002C18.4476 18.0002 18 17.5524 18 17.0002C18 16.4479 18.4476 16.0002 18.9999 16.0002C19.5522 16.0002 20 16.4479 20 17.0002Z" fill="white"/>
</svg>