<?xml version="1.0" encoding="UTF-8" standalone="no"?>
<svg
   width="32"
   height="32"
   viewBox="0 0 32 32"
   fill="none"
   version="1.1"
   id="svg6"
   sodipodi:docname="Donation_g.svg"
   inkscape:version="1.1.2 (0a00cf5339, 2022-02-04)"
   xmlns:inkscape="http://www.inkscape.org/namespaces/inkscape"
   xmlns:sodipodi="http://sodipodi.sourceforge.net/DTD/sodipodi-0.dtd"
   xmlns="http://www.w3.org/2000/svg"
   xmlns:svg="http://www.w3.org/2000/svg">
  <defs
     id="defs10" />
  <sodipodi:namedview
     id="namedview8"
     pagecolor="#ffffff"
     bordercolor="#666666"
     borderopacity="1.0"
     inkscape:pageshadow="2"
     inkscape:pageopacity="0.0"
     inkscape:pagecheckerboard="0"
     showgrid="false"
     inkscape:zoom="20.125"
     inkscape:cx="16"
     inkscape:cy="16"
     inkscape:window-width="1920"
     inkscape:window-height="1007"
     inkscape:window-x="0"
     inkscape:window-y="0"
     inkscape:window-maximized="1"
     inkscape:current-layer="svg6" />
  <circle
     cx="16"
     cy="16"
     r="16"
     fill="#EF3770"
     id="circle2"
     style="fill:#807896;fill-opacity:1" />
  <path
     d="M9.84286 15.002L10.7842 14.0607C11.187 13.656 11.7345 13.4287 12.3056 13.4296H15.4184C15.7556 13.4296 16.0674 13.6095 16.2359 13.9015C16.4045 14.1937 16.4045 14.5536 16.2359 14.8457C16.0674 15.1377 15.7556 15.3177 15.4184 15.3177H13.1149C12.7293 15.3177 12.3732 15.5234 12.1805 15.8572C11.9877 16.1909 11.9877 16.6023 12.1805 16.936C12.3732 17.27 12.7294 17.4756 13.1149 17.4756H16.2789C16.565 17.4758 16.8398 17.3622 17.0422 17.1599L20.7242 13.4753C20.9187 13.2777 21.1821 13.1628 21.4595 13.1543C21.7366 13.1457 22.0066 13.2443 22.2131 13.4296C22.4291 13.6407 22.5508 13.9299 22.5508 14.232C22.5508 14.534 22.4291 14.8232 22.2131 15.0345L17.935 19.3178C17.73 19.5227 17.4509 19.6366 17.161 19.6334H10.9571C10.6709 19.6332 10.3962 19.7468 10.1937 19.9491L8.84503 21.2978C8.57221 21.5704 8.46572 21.968 8.56562 22.3405C8.66535 22.713 8.95642 23.0039 9.32898 23.1038C9.70152 23.2036 10.0991 23.0971 10.3717 22.8244L11.4156 21.7913H16.7939C17.8948 21.7909 18.9504 21.3535 19.7288 20.5749L23.7127 16.5907C24.3171 15.9988 24.6708 15.1971 24.7003 14.3515C24.73 13.506 24.4333 12.6813 23.8719 12.0486C23.2751 11.3979 22.4385 11.0196 21.5559 11.0007C20.6733 10.9819 19.8213 11.3244 19.1972 11.9487L18.1803 12.9656H18.1805C17.9208 12.4561 17.5255 12.0282 17.0382 11.7293C16.5507 11.4303 15.9902 11.2721 15.4184 11.2717H12.3056C11.1614 11.2696 10.0639 11.7251 9.25749 12.5366L8.31616 13.478V13.4782C8.04353 13.7508 7.93703 14.1484 8.03675 14.5209C8.13666 14.8934 8.42755 15.1843 8.80011 15.2842C9.17265 15.384 9.5702 15.2775 9.84283 15.0048L9.84286 15.002Z"
     fill="white"
     id="path4" />
</svg>
