<?xml version="1.0" encoding="UTF-8" standalone="no"?>
<svg
   width="32"
   height="32"
   viewBox="0 0 32 32"
   fill="none"
   version="1.1"
   id="svg8"
   sodipodi:docname="Family Care_g.svg"
   inkscape:version="1.1.2 (0a00cf5339, 2022-02-04)"
   xmlns:inkscape="http://www.inkscape.org/namespaces/inkscape"
   xmlns:sodipodi="http://sodipodi.sourceforge.net/DTD/sodipodi-0.dtd"
   xmlns="http://www.w3.org/2000/svg"
   xmlns:svg="http://www.w3.org/2000/svg">
  <defs
     id="defs12" />
  <sodipodi:namedview
     id="namedview10"
     pagecolor="#ffffff"
     bordercolor="#666666"
     borderopacity="1.0"
     inkscape:pageshadow="2"
     inkscape:pageopacity="0.0"
     inkscape:pagecheckerboard="0"
     showgrid="false"
     inkscape:zoom="20.125"
     inkscape:cx="16"
     inkscape:cy="16"
     inkscape:window-width="1920"
     inkscape:window-height="1007"
     inkscape:window-x="0"
     inkscape:window-y="0"
     inkscape:window-maximized="1"
     inkscape:current-layer="svg8" />
  <circle
     cx="16"
     cy="16"
     r="16"
     fill="#EF3770"
     id="circle2"
     style="fill:#807896;fill-opacity:1" />
  <path
     d="M22.3925 19.0531C22.8433 18.4565 23.055 17.7129 22.986 16.9683C22.9171 16.2236 22.5727 15.5317 22.02 15.0279C21.4674 14.5241 20.7467 14.2449 19.9987 14.2449C19.2509 14.2449 18.5302 14.5241 17.9776 15.0279C17.4249 15.5317 17.0805 16.2236 17.0115 16.9683C16.9426 17.7129 17.1543 18.4565 17.6051 19.0531C16.9027 19.5766 16.3915 20.316 16.15 21.1581C16.1209 21.2148 16.0624 21.2505 15.9988 21.2505C15.935 21.2505 15.8765 21.2148 15.8476 21.1581C15.6061 20.316 15.095 19.5766 14.3925 19.0531C14.8433 18.4565 15.0548 17.7129 14.9859 16.9683C14.917 16.2236 14.5725 15.5317 14.02 15.0279C13.4674 14.5241 12.7465 14.2449 11.9987 14.2449C11.2509 14.2449 10.5301 14.5241 9.97756 15.0279C9.42492 15.5317 9.08032 16.2236 9.01143 16.9683C8.94255 17.7129 9.15426 18.4565 9.60505 19.0531C8.59657 19.807 8.00192 20.9916 8 22.2506V23.0007C8 23.358 8.1906 23.6881 8.49996 23.8667C8.80931 24.0452 9.19054 24.0452 9.49987 23.8667C9.80941 23.6881 10 23.358 10 23.0007V22.2506C9.99827 21.6005 10.3127 20.9904 10.843 20.6142C11.3733 20.2382 12.0532 20.1433 12.6662 20.3599C13.2792 20.5765 13.7486 21.0774 13.9249 21.7031C14.1035 22.3031 14.5332 22.7965 15.1031 23.056C15.6729 23.3153 16.3271 23.3153 16.8969 23.056C17.4668 22.7965 17.8965 22.3032 18.0751 21.7031C18.2514 21.0774 18.7208 20.5765 19.3338 20.3599C19.9467 20.1433 20.6267 20.2382 21.157 20.6142C21.6873 20.9903 22.0017 21.6005 22 22.2506V23.0007C22 23.358 22.1906 23.6881 22.5001 23.8667C22.8095 24.0452 23.1907 24.0452 23.5 23.8667C23.8094 23.6881 24 23.358 24 23.0007V22.2506C23.9976 20.9912 23.4019 19.8064 22.3925 19.0531H22.3925ZM12 18.2505C11.735 18.2505 11.4805 18.1452 11.2931 17.9577C11.1054 17.7701 11.0001 17.5158 11.0001 17.2506C11.0001 16.9853 11.1054 16.7311 11.2931 16.5434C11.4805 16.356 11.735 16.2506 12 16.2506C12.2653 16.2506 12.5197 16.356 12.7072 16.5434C12.8948 16.7311 13.0002 16.9853 13.0002 17.2506C13.0002 17.5158 12.8948 17.7701 12.7072 17.9577C12.5197 18.1452 12.2653 18.2505 12 18.2505ZM20.0001 18.2505H20.0003C19.735 18.2505 19.4806 18.1452 19.2931 17.9577C19.1055 17.7701 19.0001 17.5158 19.0001 17.2506C19.0001 16.9853 19.1055 16.7311 19.2931 16.5434C19.4806 16.356 19.735 16.2506 20.0003 16.2506C20.2653 16.2506 20.5198 16.356 20.7072 16.5434C20.8949 16.7311 21.0002 16.9853 21.0002 17.2506C21.0002 17.5158 20.8949 17.7701 20.7072 17.9577C20.5198 18.1452 20.2653 18.2505 20.0003 18.2505H20.0001Z"
     fill="white"
     id="path4" />
  <path
     d="M11.2501 8C10.9848 8 10.7304 8.10533 10.5429 8.2928C10.3553 8.48044 10.2499 8.73469 10.2499 8.99994V10.94L8.71743 11.905C8.48794 12.0439 8.32384 12.2692 8.26212 12.5302C8.20038 12.7911 8.2459 13.0661 8.38889 13.2932C8.53172 13.5202 8.75982 13.6803 9.02193 13.7375C9.28386 13.7947 9.55801 13.7443 9.78243 13.5975L15.0003 10.3075C15.2999 10.1194 15.6464 10.0194 16.0002 10.0194C16.354 10.0194 16.7006 10.1194 17.0001 10.3075L22.218 13.5951C22.4425 13.7419 22.7166 13.7923 22.9785 13.7351C23.2406 13.6777 23.4687 13.5176 23.6116 13.2906C23.7546 13.0635 23.8001 12.7887 23.7383 12.5276C23.6766 12.2666 23.5125 12.0414 23.283 11.9025L18.0629 8.61753C17.4449 8.23092 16.7306 8.02601 16.0017 8.02601C15.2727 8.02601 14.5584 8.23092 13.9404 8.61753L12.2504 9.68009V8.99999C12.2504 8.73475 12.1451 8.48048 11.9575 8.29285C11.77 8.10538 11.5156 8.00005 11.2505 8.00005L11.2501 8Z"
     fill="white"
     id="path6" />
</svg>
