<svg width="24" height="24" viewBox="0 0 24 24" fill="none" xmlns="http://www.w3.org/2000/svg">
<g clip-path="url(#clip0_2847_775)">
<circle cx="12" cy="12" r="12" fill="#EF3770"/>
<path d="M16.7944 14.2897C17.1325 13.8423 17.2913 13.2846 17.2395 12.7262C17.1878 12.1677 16.9295 11.6487 16.515 11.2708C16.1005 10.893 15.56 10.6836 14.999 10.6836C14.4382 10.6836 13.8976 10.893 13.4832 11.2708C13.0687 11.6487 12.8104 12.1677 12.7586 12.7262C12.7069 13.2846 12.8657 13.8423 13.2038 14.2897C12.677 14.6824 12.2936 15.2369 12.1125 15.8685C12.0906 15.911 12.0468 15.9378 11.9991 15.9378C11.9512 15.9378 11.9074 15.911 11.8857 15.8685C11.7045 15.2369 11.3212 14.6824 10.7944 14.2897C11.1325 13.8423 11.2911 13.2846 11.2394 12.7262C11.1878 12.1677 10.9293 11.6487 10.515 11.2708C10.1005 10.893 9.55984 10.6836 8.99901 10.6836C8.43818 10.6836 7.89761 10.893 7.48317 11.2708C7.06869 11.6487 6.81024 12.1677 6.75858 12.7262C6.70691 13.2846 6.86569 13.8423 7.20379 14.2897C6.44742 14.8552 6.00144 15.7436 6 16.6879V17.2505C6 17.5184 6.14295 17.766 6.37497 17.8999C6.60698 18.0339 6.89291 18.0339 7.12491 17.8999C7.35706 17.766 7.50001 17.5184 7.50001 17.2505V16.6879C7.4987 16.2003 7.73452 15.7427 8.13226 15.4606C8.52999 15.1786 9.03993 15.1074 9.49967 15.2699C9.95939 15.4323 10.3115 15.808 10.4437 16.2772C10.5776 16.7273 10.8999 17.0973 11.3273 17.2919C11.7546 17.4864 12.2454 17.4864 12.6727 17.2919C13.1001 17.0973 13.4224 16.7273 13.5563 16.2772C13.6885 15.808 14.0406 15.4323 14.5003 15.2699C14.96 15.1075 15.47 15.1786 15.8677 15.4606C16.2655 15.7427 16.5013 16.2003 16.5 16.6879V17.2505C16.5 17.5184 16.6429 17.766 16.8751 17.8999C17.1071 18.0339 17.393 18.0339 17.625 17.8999C17.857 17.766 18 17.5184 18 17.2505V16.6879C17.9982 15.7433 17.5514 14.8548 16.7944 14.2897H16.7944ZM9.00003 13.6878C8.80123 13.6878 8.6104 13.6088 8.4698 13.4682C8.32907 13.3275 8.25008 13.1368 8.25008 12.9379C8.25008 12.7389 8.32907 12.5482 8.4698 12.4075C8.6104 12.2669 8.80123 12.1879 9.00003 12.1879C9.19896 12.1879 9.3898 12.2669 9.53039 12.4075C9.67112 12.5482 9.75012 12.7389 9.75012 12.9379C9.75012 13.1368 9.67112 13.3275 9.53039 13.4682C9.38979 13.6088 9.19897 13.6878 9.00003 13.6878ZM15.0001 13.6878H15.0002C14.8013 13.6878 14.6104 13.6088 14.4698 13.4682C14.3291 13.3275 14.2501 13.1368 14.2501 12.9379C14.2501 12.7389 14.3291 12.5482 14.4698 12.4075C14.6104 12.2669 14.8013 12.1879 15.0002 12.1879C15.199 12.1879 15.3898 12.2669 15.5304 12.4075C15.6712 12.5482 15.7502 12.7389 15.7502 12.9379C15.7502 13.1368 15.6712 13.3275 15.5304 13.4682C15.3898 13.6088 15.199 13.6878 15.0002 13.6878H15.0001Z" fill="white"/>
<path d="M8.43751 6C8.23858 6 8.04775 6.079 7.90715 6.2196C7.76642 6.36033 7.68743 6.55102 7.68743 6.74996V8.205L6.53804 8.92879C6.36592 9.0329 6.24285 9.20188 6.19656 9.39767C6.15026 9.59334 6.18439 9.7996 6.29164 9.96989C6.39876 10.1402 6.56983 10.2602 6.76642 10.3031C6.96287 10.346 7.16848 10.3082 7.33679 10.1981L11.2502 7.73064C11.4749 7.58951 11.7348 7.51457 12.0001 7.51457C12.2655 7.51457 12.5254 7.58951 12.7501 7.73064L16.6635 10.1963C16.8318 10.3064 17.0374 10.3442 17.2339 10.3013C17.4304 10.2583 17.6015 10.1382 17.7086 9.96795C17.8159 9.79766 17.85 9.59154 17.8037 9.39574C17.7574 9.19993 17.6344 9.03108 17.4622 8.92685L13.5472 6.46315C13.0836 6.17319 12.5479 6.01951 12.0012 6.01951C11.4545 6.01951 10.9188 6.17319 10.4553 6.46315L9.18779 7.26006V6.74999C9.18779 6.55106 9.10879 6.36036 8.96806 6.21963C8.82746 6.07904 8.63664 6.00004 8.43783 6.00004L8.43751 6Z" fill="white"/>
</g>
<defs>
<clipPath id="clip0_2847_775">
<rect width="24" height="24" fill="white"/>
</clipPath>
</defs>
</svg>
