<?xml version="1.0" encoding="UTF-8" standalone="no"?>
<svg
   width="32"
   height="32"
   viewBox="0 0 32 32"
   fill="none"
   version="1.1"
   id="svg6"
   sodipodi:docname="Food &amp; Groceries_g.svg"
   inkscape:version="1.1.2 (0a00cf5339, 2022-02-04)"
   xmlns:inkscape="http://www.inkscape.org/namespaces/inkscape"
   xmlns:sodipodi="http://sodipodi.sourceforge.net/DTD/sodipodi-0.dtd"
   xmlns="http://www.w3.org/2000/svg"
   xmlns:svg="http://www.w3.org/2000/svg">
  <defs
     id="defs10" />
  <sodipodi:namedview
     id="namedview8"
     pagecolor="#ffffff"
     bordercolor="#666666"
     borderopacity="1.0"
     inkscape:pageshadow="2"
     inkscape:pageopacity="0.0"
     inkscape:pagecheckerboard="0"
     showgrid="false"
     inkscape:zoom="20.125"
     inkscape:cx="16"
     inkscape:cy="16"
     inkscape:window-width="1920"
     inkscape:window-height="1007"
     inkscape:window-x="0"
     inkscape:window-y="0"
     inkscape:window-maximized="1"
     inkscape:current-layer="svg6" />
  <circle
     cx="16"
     cy="16"
     r="16"
     fill="#EF3770"
     id="circle2"
     style="fill:#807896;fill-opacity:1" />
  <path
     d="M14.0002 23.9983C14.7013 23.9831 15.3881 23.796 16 23.4534C16.6119 23.796 17.2987 23.9831 17.9998 23.9983C19.7496 23.9983 21.1495 22.6785 21.4145 22.4135C22.2366 21.5957 22.8885 20.6229 23.332 19.5514C23.7758 18.4801 24.0025 17.3313 23.9991 16.1716V15.4792C24.0176 14.4623 23.7369 13.4621 23.1922 12.6031C22.6473 11.7442 21.8623 11.064 20.9345 10.6473C19.6764 10.1062 18.249 10.1181 16.9998 10.6797V8.99981C16.9998 8.64253 16.8092 8.31247 16.4999 8.13391C16.1906 7.95536 15.8094 7.95536 15.5001 8.13391C15.1908 8.31247 15.0002 8.64257 15.0002 8.99981V10.6797C13.751 10.118 12.3236 10.1062 11.0655 10.6473C10.1377 11.064 9.35273 11.7442 8.80783 12.6031C8.26311 13.4621 7.98238 14.4622 8.00086 15.4792V16.1716C7.9965 17.3326 8.22283 18.4827 8.66659 19.5556C9.11019 20.6283 9.76251 21.6023 10.5855 22.421C10.8505 22.6785 12.2504 23.9983 14.0002 23.9983ZM10.0007 15.4791C10.0007 14.2118 10.688 12.9793 11.853 12.4794C12.2157 12.3253 12.6061 12.247 13.0003 12.2494C13.9816 12.2813 14.898 12.7487 15.5 13.5243C15.6235 13.673 15.8068 13.759 16 13.759C16.1931 13.759 16.3764 13.673 16.4999 13.5243C17.1019 12.7487 18.0183 12.2814 18.9996 12.2494C19.3942 12.2486 19.7846 12.3286 20.1469 12.4845C21.3119 12.9844 21.9993 14.2094 21.9993 15.4841V16.1766C21.9979 17.9853 21.2786 19.7196 19.9996 20.9984C19.9996 20.9984 18.9998 21.9982 17.9998 21.9982C17.4597 21.9567 16.9441 21.7567 16.5174 21.4233C16.3664 21.3168 16.186 21.2594 16.0012 21.2594C15.8163 21.2594 15.636 21.3168 15.4851 21.4233C15.0577 21.7572 14.541 21.9572 14.0001 21.9982C13.0003 21.9982 12.0003 20.9984 12.0003 20.9984C10.72 19.7182 10.0006 17.982 10.0006 16.1712L10.0007 15.4791Z"
     fill="white"
     id="path4" />
</svg>
