<?xml version="1.0" encoding="UTF-8" standalone="no"?>
<svg
   width="32"
   height="32"
   viewBox="0 0 32 32"
   fill="none"
   version="1.1"
   id="svg14"
   sodipodi:docname="Health &amp; Wellness_g.svg"
   inkscape:version="1.1.2 (0a00cf5339, 2022-02-04)"
   xmlns:inkscape="http://www.inkscape.org/namespaces/inkscape"
   xmlns:sodipodi="http://sodipodi.sourceforge.net/DTD/sodipodi-0.dtd"
   xmlns="http://www.w3.org/2000/svg"
   xmlns:svg="http://www.w3.org/2000/svg">
  <defs
     id="defs18" />
  <sodipodi:namedview
     id="namedview16"
     pagecolor="#ffffff"
     bordercolor="#666666"
     borderopacity="1.0"
     inkscape:pageshadow="2"
     inkscape:pageopacity="0.0"
     inkscape:pagecheckerboard="0"
     showgrid="false"
     inkscape:zoom="20.125"
     inkscape:cx="16"
     inkscape:cy="16"
     inkscape:window-width="1920"
     inkscape:window-height="1007"
     inkscape:window-x="0"
     inkscape:window-y="0"
     inkscape:window-maximized="1"
     inkscape:current-layer="svg14" />
  <circle
     cx="16"
     cy="16"
     r="16"
     fill="#EF3770"
     id="circle2"
     style="fill:#807896;fill-opacity:1" />
  <path
     d="M22.1872 7.00023H21.1102C20.8238 6.99454 20.5454 7.09518 20.3288 7.28273C20.1122 7.47008 19.9727 7.7312 19.9372 8.01548C19.9062 8.33231 20.011 8.64758 20.2254 8.88282C20.4398 9.11824 20.7439 9.25164 21.0623 9.25027H22.1872C22.3365 9.25027 22.4795 9.30951 22.5851 9.41486C22.6904 9.52041 22.7497 9.66342 22.7497 9.81272V10.9376C22.7483 11.256 22.8817 11.5601 23.1171 11.7745C23.3523 11.9889 23.6676 12.0937 23.9845 12.0627C24.2687 12.0272 24.5298 11.8877 24.7172 11.6711C24.9048 11.4545 25.0054 11.1762 24.9997 10.8897V9.81269C24.9997 9.06678 24.7035 8.35131 24.176 7.82398C23.6486 7.29644 22.9331 7.00023 22.1872 7.00023Z"
     fill="white"
     id="path4" />
  <path
     d="M23.9842 19.9375C23.6674 19.9065 23.3521 20.0112 23.1169 20.2257C22.8815 20.4401 22.7481 20.7442 22.7495 21.0626V22.1875C22.7495 22.3368 22.6902 22.4798 22.5849 22.5853C22.4793 22.6907 22.3363 22.7499 22.187 22.7499H21.11C20.8236 22.7442 20.5452 22.8449 20.3286 23.0324C20.112 23.22 19.9725 23.4811 19.937 23.7654C19.906 24.0822 20.0108 24.3973 20.2252 24.6327C20.4396 24.8681 20.7437 25.0015 21.0621 25H22.187C22.9329 25 23.6483 24.7037 24.1757 24.1762C24.7032 23.6489 24.9994 22.9334 24.9994 22.1875V21.1105C25.0051 20.824 24.9045 20.5457 24.7169 20.3291C24.5296 20.1125 24.2685 19.973 23.9842 19.9375L23.9842 19.9375Z"
     fill="white"
     id="path6" />
  <path
     d="M9.81258 25H10.8898H10.8896C11.176 25.0057 11.4544 24.905 11.671 24.7175C11.8876 24.5301 12.0271 24.269 12.0626 23.9847C12.0936 23.6679 11.9888 23.3526 11.7744 23.1174C11.56 22.882 11.2559 22.7486 10.9375 22.7499H9.81262C9.50187 22.7499 9.25018 22.4982 9.25018 22.1875V21.1105C9.25587 20.824 9.15523 20.5457 8.96768 20.3291C8.78013 20.1125 8.51901 19.973 8.23473 19.9375C7.9179 19.9065 7.60283 20.0112 7.36739 20.2257C7.13194 20.4401 6.99856 20.7442 7.00014 21.0626V22.1875C7.00014 22.9334 7.29637 23.6488 7.82388 24.1762C8.35122 24.7037 9.06669 24.9999 9.81259 24.9999L9.81258 25Z"
     fill="white"
     id="path8" />
  <path
     d="M8.23455 12.0625C8.51882 12.027 8.77991 11.8875 8.96749 11.6709C9.15505 11.4543 9.25569 11.176 9.25 10.8895V9.8125C9.25 9.50175 9.5017 9.25006 9.81244 9.25006H10.8897H10.8895C11.1759 9.25574 11.4543 9.15511 11.6709 8.96755C11.8875 8.78 12.0269 8.51889 12.0625 8.23461C12.0935 7.91777 11.9887 7.60271 11.7743 7.36727C11.5598 7.13182 11.2558 6.99844 10.9374 7.00001H9.81247C9.06657 7.00001 8.3511 7.29625 7.82376 7.82376C7.29623 8.3511 7.00001 9.06657 7.00001 9.81247V10.9374C6.99844 11.2558 7.13185 11.5599 7.36727 11.7743C7.60268 11.9887 7.91775 12.0935 8.23461 12.0625L8.23455 12.0625Z"
     fill="white"
     id="path10" />
  <path
     d="M21.5967 14.8418C21.4988 14.0718 21.1478 13.3563 20.5991 12.8074C20.0502 12.2586 19.3347 11.9077 18.5647 11.8098C18.4146 11.791 18.2634 11.7815 18.1119 11.7817C17.3494 11.7806 16.6074 12.0295 15.9998 12.4905C15.3922 12.0295 14.6503 11.7805 13.8877 11.7817C12.8937 11.7814 11.9459 12.2022 11.2797 12.9398C10.6132 13.6775 10.2907 14.6629 10.3917 15.6516C10.4804 16.4667 10.8469 17.2264 11.4295 17.8032L14.242 20.6156C14.7077 21.0808 15.3389 21.3421 15.997 21.3421C16.655 21.3421 17.2863 21.0808 17.7518 20.6156L20.5924 17.7751H20.5926C21.3661 17.0072 21.7375 15.9225 21.5966 14.8418L21.5967 14.8418ZM19.0065 16.1862L16.166 19.0268H16.1658C16.0748 19.1172 15.9278 19.1172 15.8368 19.0268L13.0243 16.2143C12.8066 16.0085 12.6655 15.7346 12.6249 15.438C12.5839 15.0804 12.6975 14.7225 12.937 14.454C13.1766 14.1854 13.5193 14.0318 13.8793 14.0318H14.0312C14.3307 14.0677 14.6087 14.2058 14.8186 14.4228L15.9999 15.6236L17.2205 14.4029C17.4562 14.1652 17.7773 14.0316 18.112 14.0318C18.1673 14.0282 18.2226 14.0282 18.278 14.0318C18.5903 14.0737 18.8757 14.2313 19.078 14.473C19.2803 14.7147 19.3846 15.0235 19.3709 15.3383C19.3572 15.6532 19.2261 15.9516 19.0036 16.1748L19.0065 16.1862Z"
     fill="white"
     id="path12" />
</svg>
