<svg width="32" height="32" viewBox="0 0 32 32" fill="none" xmlns="http://www.w3.org/2000/svg">
<g clip-path="url(#clip0_2847_1713)">
<circle cx="16" cy="16" r="16" fill="#EF3770"/>
<path d="M22.1875 7.00023H21.1105C20.824 6.99454 20.5457 7.09518 20.3291 7.28273C20.1125 7.47008 19.973 7.7312 19.9375 8.01548C19.9065 8.33231 20.0112 8.64758 20.2257 8.88282C20.4401 9.11824 20.7442 9.25164 21.0626 9.25027H22.1875C22.3368 9.25027 22.4798 9.30951 22.5853 9.41486C22.6907 9.52041 22.7499 9.66342 22.7499 9.81272V10.9376C22.7485 11.256 22.8819 11.5601 23.1174 11.7745C23.3526 11.9889 23.6678 12.0937 23.9847 12.0627C24.269 12.0272 24.5301 11.8877 24.7174 11.6711C24.905 11.4545 25.0056 11.1762 24.9999 10.8897V9.81269C24.9999 9.06678 24.7037 8.35131 24.1762 7.82398C23.6489 7.29644 22.9334 7.00023 22.1875 7.00023Z" fill="white"/>
<path d="M23.9842 19.937C23.6674 19.906 23.3521 20.0108 23.1169 20.2252C22.8815 20.4396 22.7481 20.7437 22.7495 21.0621V22.187C22.7495 22.3363 22.6902 22.4793 22.5849 22.5848C22.4793 22.6902 22.3363 22.7494 22.187 22.7494H21.11C20.8236 22.7437 20.5452 22.8444 20.3286 23.0319C20.112 23.2195 19.9725 23.4806 19.937 23.7649C19.906 24.0817 20.0108 24.3968 20.2252 24.6322C20.4396 24.8677 20.7437 25.001 21.0621 24.9995H22.187C22.9329 24.9995 23.6483 24.7032 24.1757 24.1757C24.7032 23.6484 24.9994 22.9329 24.9994 22.187V21.11C25.0051 20.8236 24.9045 20.5452 24.7169 20.3286C24.5296 20.112 24.2685 19.9725 23.9842 19.937L23.9842 19.937Z" fill="white"/>
<path d="M9.81246 24.9995H10.8897H10.8895C11.1759 25.0052 11.4543 24.9045 11.6709 24.717C11.8875 24.5296 12.027 24.2685 12.0625 23.9842C12.0935 23.6674 11.9887 23.3521 11.7743 23.1169C11.5599 22.8815 11.2558 22.7481 10.9374 22.7494H9.8125C9.50174 22.7494 9.25006 22.4977 9.25006 22.187V21.11C9.25574 20.8236 9.1551 20.5452 8.96755 20.3286C8.78 20.112 8.51889 19.9725 8.23461 19.937C7.91777 19.906 7.60271 20.0108 7.36727 20.2252C7.13182 20.4396 6.99844 20.7437 7.00001 21.0621V22.187C7.00001 22.9329 7.29625 23.6483 7.82376 24.1757C8.3511 24.7032 9.06657 24.9994 9.81247 24.9994L9.81246 24.9995Z" fill="white"/>
<path d="M8.23455 12.0625C8.51882 12.027 8.77991 11.8875 8.96749 11.6709C9.15505 11.4543 9.25569 11.176 9.25 10.8895V9.8125C9.25 9.50175 9.5017 9.25006 9.81244 9.25006H10.8897H10.8895C11.1759 9.25574 11.4543 9.15511 11.6709 8.96755C11.8875 8.78 12.0269 8.51889 12.0625 8.23461C12.0935 7.91777 11.9887 7.60271 11.7743 7.36727C11.5598 7.13182 11.2558 6.99844 10.9374 7.00001H9.81247C9.06657 7.00001 8.3511 7.29625 7.82376 7.82376C7.29623 8.3511 7.00001 9.06657 7.00001 9.81247V10.9374C6.99844 11.2558 7.13185 11.5599 7.36727 11.7743C7.60268 11.9887 7.91775 12.0935 8.23461 12.0625L8.23455 12.0625Z" fill="white"/>
<path d="M21.5967 14.8413C21.4988 14.0713 21.1478 13.3558 20.5991 12.8069C20.0502 12.2581 19.3347 11.9072 18.5647 11.8093C18.4146 11.7905 18.2634 11.7811 18.1119 11.7813C17.3494 11.7801 16.6074 12.029 15.9998 12.49C15.3922 12.029 14.6503 11.78 13.8877 11.7813C12.8937 11.7809 11.9459 12.2017 11.2797 12.9393C10.6132 13.677 10.2907 14.6624 10.3917 15.6511C10.4804 16.4663 10.8469 17.2259 11.4295 17.8027L14.242 20.6151C14.7077 21.0803 15.3389 21.3416 15.997 21.3416C16.655 21.3416 17.2863 21.0803 17.7518 20.6151L20.5924 17.7746H20.5926C21.3661 17.0068 21.7375 15.922 21.5966 14.8413L21.5967 14.8413ZM19.0065 16.1857L16.166 19.0263H16.1658C16.0748 19.1167 15.9278 19.1167 15.8368 19.0263L13.0243 16.2138C12.8066 16.008 12.6655 15.7342 12.6249 15.4375C12.5839 15.0799 12.6975 14.7221 12.937 14.4535C13.1766 14.1849 13.5193 14.0313 13.8793 14.0313H14.0312C14.3307 14.0672 14.6087 14.2053 14.8186 14.4223L15.9999 15.6231L17.2205 14.4024C17.4562 14.1647 17.7773 14.0311 18.112 14.0313C18.1673 14.0277 18.2226 14.0277 18.278 14.0313C18.5903 14.0733 18.8757 14.2308 19.078 14.4725C19.2803 14.7142 19.3846 15.023 19.3709 15.3378C19.3572 15.6527 19.2261 15.9511 19.0036 16.1743L19.0065 16.1857Z" fill="white"/>
</g>
<defs>
<clipPath id="clip0_2847_1713">
<rect width="32" height="32" fill="white"/>
</clipPath>
</defs>
</svg>
