<svg width="32" height="32" viewBox="0 0 32 32" fill="none" xmlns="http://www.w3.org/2000/svg">
<circle cx="16" cy="16" r="16" fill="#EF3770"/>
<path d="M24.8897 13.4596C24.7608 13.0638 24.5246 12.7116 24.2072 12.4418C23.8901 12.1723 23.5042 11.996 23.0927 11.9326L19.6003 11.3928L18.0087 8.23769C17.7576 7.73907 17.3298 7.3515 16.809 7.15064C16.2881 6.94979 15.711 6.94979 15.19 7.15064C14.669 7.3515 14.2414 7.73911 13.9903 8.23769L12.4015 11.3928L8.90903 11.9298C8.35707 12.0144 7.85628 12.3011 7.50402 12.7344C7.15174 13.1677 6.97326 13.7165 7.00325 14.2742C7.03324 14.8318 7.26943 15.3583 7.66603 15.7514L10.1744 18.24L9.61205 21.7269C9.52201 22.2779 9.64029 22.8426 9.94354 23.3114C10.2468 23.7802 10.7136 24.1194 11.2532 24.2632C11.7926 24.4067 12.3664 24.3448 12.8627 24.089L16.0009 22.4692L19.1418 24.086V24.0862C19.6383 24.3418 20.2119 24.404 20.7515 24.2602C21.2909 24.1166 21.7577 23.7773 22.061 23.3087C22.3644 22.8399 22.4825 22.2752 22.3927 21.724L21.8303 18.237L24.3387 15.7484H24.3385C24.6329 15.4552 24.8402 15.0858 24.9375 14.682C25.0348 14.2779 25.0182 13.8548 24.8897 13.4595L24.8897 13.4596ZM20.2415 16.6428C19.7227 17.1569 19.4857 17.8909 19.606 18.6112L20.1683 22.0981L17.0301 20.4701C16.3834 20.1366 15.6155 20.1366 14.969 20.4701L11.8308 22.0897L12.3931 18.6027C12.5134 17.8824 12.2764 17.1485 11.7576 16.6344L9.25214 14.1542L12.7446 13.6172C13.4637 13.5065 14.0849 13.055 14.4121 12.4051L16.0009 9.25006L17.5925 12.4051C17.9197 13.055 18.5409 13.5066 19.26 13.6172L22.7497 14.1542L20.2415 16.6428Z" fill="white"/>
</svg>
