<?xml version="1.0" encoding="UTF-8" standalone="no"?>
<svg
   width="32"
   height="32"
   viewBox="0 0 32 32"
   fill="none"
   version="1.1"
   id="svg10"
   sodipodi:docname="Student Loans_g.svg"
   inkscape:version="1.1.2 (0a00cf5339, 2022-02-04)"
   xmlns:inkscape="http://www.inkscape.org/namespaces/inkscape"
   xmlns:sodipodi="http://sodipodi.sourceforge.net/DTD/sodipodi-0.dtd"
   xmlns="http://www.w3.org/2000/svg"
   xmlns:svg="http://www.w3.org/2000/svg">
  <defs
     id="defs14" />
  <sodipodi:namedview
     id="namedview12"
     pagecolor="#ffffff"
     bordercolor="#666666"
     borderopacity="1.0"
     inkscape:pageshadow="2"
     inkscape:pageopacity="0.0"
     inkscape:pagecheckerboard="0"
     showgrid="false"
     inkscape:zoom="20.125"
     inkscape:cx="16"
     inkscape:cy="16"
     inkscape:window-width="1920"
     inkscape:window-height="1007"
     inkscape:window-x="0"
     inkscape:window-y="0"
     inkscape:window-maximized="1"
     inkscape:current-layer="svg10" />
  <circle
     cx="16"
     cy="16"
     r="16"
     fill="#EF3770"
     id="circle2"
     style="fill:#807896;fill-opacity:1" />
  <path
     d="M8.65746 22.1751C8.89062 22.7161 9.27671 23.177 9.7685 23.5014C10.2603 23.8256 10.8359 23.9989 11.425 24.0001H16.5001C16.6991 24.0001 16.8898 23.9211 17.0304 23.7806C17.1711 23.6398 17.2501 23.4491 17.2501 23.2501V22.7501C17.2501 22.5513 17.1711 22.3605 17.0304 22.2198C16.8898 22.0792 16.6991 22.0001 16.5001 22.0001H11.425C11.2271 21.9971 11.0344 21.9366 10.8703 21.826C10.706 21.7156 10.5775 21.5597 10.5 21.3777C10.1711 20.6281 10.0009 19.8186 10.0001 19C10.0001 18.6242 10.0351 18.2493 10.105 17.8801C10.53 15.6326 12.5901 14 15.0002 14C16.6226 13.9871 18.1521 14.7556 19.1102 16.0651C19.297 16.3342 19.6027 16.4962 19.9302 16.5H19.9527C20.194 16.4939 20.4249 16.4006 20.6028 16.2376C20.7806 16.0743 20.8936 15.8525 20.9207 15.6125C20.9479 15.3728 20.8872 15.1312 20.7501 14.9326C20.0773 13.9869 19.1771 13.226 18.1327 12.72C18.69 12.0685 18.9975 11.24 19.0001 10.3825V10.0001C19.0001 9.46958 18.7895 8.96091 18.4144 8.58577C18.0393 8.21063 17.5306 8 17.0001 8H13.0001C12.4696 8 11.9609 8.21066 11.5858 8.58577C11.2106 8.96087 11 9.46958 11 10.0001V10.3825C10.9993 11.2407 11.3041 12.0711 11.8601 12.7251C9.93588 13.6405 8.55684 15.4105 8.14005 17.5002C8.04658 17.9945 7.99967 18.4968 8.00002 19.0001C7.99775 20.0925 8.22166 21.1735 8.65748 22.1752L8.65746 22.1751ZM13.0001 9.99996H17V10.3824C16.9999 10.6332 16.9416 10.8804 16.8302 11.1049C16.6966 11.3745 16.4901 11.6012 16.2343 11.7594C15.9785 11.9176 15.6834 12.0009 15.3826 11.9999H14.6175C14.3167 12.0009 14.0216 11.9175 13.7658 11.7594C13.51 11.6012 13.3037 11.3745 13.1701 11.1049C13.0585 10.8805 13.0002 10.6332 13.0001 10.3824L13.0001 9.99996Z"
     fill="white"
     id="path4" />
  <path
     d="M23.0001 22H20.0001C19.6428 22 19.3127 22.1906 19.1339 22.5001C18.9554 22.8095 18.9554 23.1907 19.1339 23.5001C19.3127 23.8094 19.6428 24 20.0001 24H23.0001C23.3574 24 23.6875 23.8094 23.8661 23.5001C24.0447 23.1907 24.0447 22.8095 23.8661 22.5001C23.6875 22.1906 23.3574 22 23.0001 22Z"
     fill="white"
     id="path6" />
  <path
     d="M23.0001 18.2505H20.0001C19.6428 18.2505 19.3127 18.4411 19.1339 18.7506C18.9554 19.06 18.9554 19.4412 19.1339 19.7506C19.3127 20.0599 19.6428 20.2505 20.0001 20.2505H23.0001C23.3574 20.2505 23.6875 20.0599 23.8661 19.7506C24.0447 19.4412 24.0447 19.06 23.8661 18.7506C23.6875 18.4411 23.3574 18.2505 23.0001 18.2505Z"
     fill="white"
     id="path8" />
</svg>
