<svg width="24" height="24" viewBox="0 0 24 24" fill="none" xmlns="http://www.w3.org/2000/svg">
<g clip-path="url(#clip0_2847_549)">
<circle cx="12" cy="12" r="12" fill="#EF3770"/>
<path d="M6.49309 16.6314C6.66796 17.0371 6.95753 17.3827 7.32637 17.626C7.69522 17.8692 8.12694 17.9992 8.56875 18.0001H12.3751C12.5243 18.0001 12.6674 17.9408 12.7728 17.8354C12.8783 17.7299 12.9376 17.5868 12.9376 17.4376V17.0626C12.9376 16.9135 12.8783 16.7704 12.7728 16.6648C12.6674 16.5594 12.5243 16.5 12.3751 16.5H8.56875C8.4203 16.4978 8.27577 16.4524 8.15269 16.3695C8.02949 16.2867 7.93309 16.1698 7.87502 16.0332C7.62835 15.4711 7.50069 14.864 7.50005 14.25C7.50005 13.9682 7.52634 13.687 7.57879 13.4101C7.89752 11.7244 9.44256 10.5 11.2502 10.5C12.4669 10.4903 13.6141 11.0667 14.3326 12.0488C14.4727 12.2506 14.702 12.3721 14.9476 12.375H14.9645C15.1455 12.3704 15.3187 12.3005 15.4521 12.1782C15.5855 12.0557 15.6702 11.8894 15.6905 11.7094C15.7109 11.5296 15.6654 11.3484 15.5626 11.1995C15.058 10.4902 14.3829 9.91953 13.5995 9.54C14.0175 9.05135 14.2481 8.42998 14.2501 7.78688V7.50006C14.2501 7.10218 14.0921 6.72068 13.8108 6.43933C13.5294 6.15797 13.1479 6 12.75 6H9.75006C9.35219 6 8.97068 6.158 8.68933 6.43933C8.40797 6.72065 8.25 7.10218 8.25 7.50006V7.78688C8.24948 8.43052 8.4781 9.05333 8.89508 9.54382C7.45191 10.2303 6.41763 11.5579 6.10504 13.1251C6.03493 13.4959 5.99975 13.8726 6.00001 14.2501C5.99831 15.0694 6.16625 15.8801 6.49311 16.6314L6.49309 16.6314ZM9.75005 7.49997H12.75V7.7868C12.7499 7.97487 12.7062 8.16033 12.6226 8.32868C12.5225 8.53088 12.3676 8.70091 12.1757 8.81953C11.9838 8.93816 11.7625 9.00068 11.5369 8.9999H10.9631C10.7375 9.00068 10.5162 8.93816 10.3244 8.81953C10.1325 8.70091 9.97774 8.53088 9.87756 8.32868C9.79386 8.16035 9.75017 7.9749 9.75004 7.7868L9.75005 7.49997Z" fill="white"/>
<path d="M17.2501 16.5H15.0001C14.7321 16.5 14.4845 16.643 14.3504 16.8751C14.2165 17.1071 14.2165 17.3931 14.3504 17.6251C14.4845 17.8571 14.7321 18 15.0001 18H17.2501C17.5181 18 17.7656 17.8571 17.8996 17.6251C18.0335 17.393 18.0335 17.1071 17.8996 16.8751C17.7656 16.643 17.518 16.5 17.2501 16.5Z" fill="white"/>
<path d="M17.2501 13.6875H15.0001C14.7321 13.6875 14.4845 13.8305 14.3504 14.0626C14.2165 14.2946 14.2165 14.5805 14.3504 14.8126C14.4845 15.0446 14.7321 15.1875 15.0001 15.1875H17.2501C17.5181 15.1875 17.7656 15.0446 17.8996 14.8126C18.0335 14.5805 18.0335 14.2946 17.8996 14.0626C17.7656 13.8305 17.518 13.6875 17.2501 13.6875Z" fill="white"/>
</g>
<defs>
<clipPath id="clip0_2847_549">
<rect width="24" height="24" fill="white"/>
</clipPath>
</defs>
</svg>
