<svg width="32" height="32" viewBox="0 0 32 32" fill="none" xmlns="http://www.w3.org/2000/svg">
<g clip-path="url(#clip0_2847_1750)">
<circle cx="16" cy="16" r="16" fill="#EF3770"/>
<path d="M22.7368 18.4992V10.9972C22.7368 10.4675 22.5264 9.95954 22.1519 9.58493C21.7773 9.21033 21.2693 9 20.7396 9H11.2529C10.7232 9 10.2153 9.21036 9.84065 9.58493C9.46604 9.95951 9.25571 10.4675 9.25571 10.9972V18.5018L8.25721 20.4991H8.25704C7.88089 21.247 7.91973 22.1365 8.35943 22.8489C8.79914 23.5615 9.57687 23.9949 10.4141 23.9941H21.5734C22.4157 23.9993 23.1999 23.5647 23.6418 22.8472C24.0836 22.1299 24.119 21.2339 23.7353 20.4841L22.7368 18.4992ZM11.253 10.9972H20.7396V17.7377H11.253V10.9972ZM21.5733 21.9818H18.1006L17.8984 21.2777C17.854 21.1213 17.7598 20.9836 17.63 20.8854C17.5003 20.7871 17.3422 20.7339 17.1794 20.7335H14.8128C14.65 20.7339 14.4919 20.7871 14.3621 20.8854C14.2324 20.9836 14.1382 21.1213 14.0938 21.2777L13.8916 21.9818H10.4189C10.2746 21.9826 10.1401 21.9081 10.0642 21.7853C9.98828 21.6626 9.98183 21.509 10.047 21.3801L10.8708 19.735H21.1215L21.9454 21.3801C21.9745 21.4383 21.99 21.5023 21.9903 21.5673C21.9889 21.7966 21.8026 21.9818 21.5734 21.9818L21.5733 21.9818Z" fill="white"/>
</g>
<defs>
<clipPath id="clip0_2847_1750">
<rect width="32" height="32" fill="white"/>
</clipPath>
</defs>
</svg>
