<svg width="530" height="461" viewBox="0 0 530 461" fill="none" xmlns="http://www.w3.org/2000/svg">
<g clip-path="url(#clip0_490_11144)">
<path d="M216.9 191.171C216.9 216.792 192.385 233.658 178.226 233.658C173.575 233.658 135.37 230.83 135.37 189.373C135.37 166.77 156.663 147.994 179.235 147.994C196.568 147.994 216.9 167.997 216.9 191.171ZM46.0143 209.018C50.9141 199.233 46.3613 178.326 56.7018 178.326C66.5523 178.326 61.505 202.567 67.1909 202.567C69.4305 202.567 70.7345 197.796 73.1326 191.897C75.8131 185.303 81.9563 181.844 85.098 181.844C96.0073 181.844 92.7684 207.659 95.9871 207.659C97.1182 207.659 98.4445 205.649 100.841 205.649C102.466 205.649 103.848 206.699 104.637 208.778C107.388 216.027 108.228 235.182 108.228 239.372C108.228 243.526 107.825 246.715 103.603 247.334C103.538 247.345 32.662 251.925 32.5941 251.925C30.6097 251.925 30.459 250.693 30.459 250.408C30.5357 249.87 30.5806 249.328 30.5933 248.785C30.5933 247.158 26.2878 218.48 26.2878 216.699C26.2878 215.294 28.8894 195.737 37.443 195.737C42.9508 195.741 41.5966 203.063 46.0143 209.018Z" fill="#290568"/>
<path d="M10.6444 154.811C10.5081 155.689 10.3235 156.565 10.2458 157.448C10.2301 157.993 9.99901 158.509 9.60297 158.884C9.20693 159.259 8.67817 159.463 8.13223 159.45C7.68171 159.487 7.23502 159.344 6.8904 159.052C6.54578 158.76 6.33145 158.344 6.29455 157.894C6.2902 157.842 6.28824 157.789 6.28868 157.736C6.29055 157.503 6.3239 157.271 6.38784 157.047C9.44345 146.016 9.57718 145.73 10.9269 145.73C13.2057 146.159 15.2369 147.434 16.6121 149.297C18.4466 152.134 20.3547 153.521 20.3547 154.945C20.339 155.39 20.1519 155.813 19.8324 156.125C19.5128 156.436 19.0853 156.613 18.6384 156.619C17.4641 156.619 17.061 155.694 14.8051 152.965L14.4842 153.091L30.0956 253.506L113.092 248.44C112.742 247.935 112.522 247.351 112.454 246.74C112.482 246.332 112.662 245.948 112.959 245.665C113.255 245.382 113.648 245.221 114.058 245.212C114.7 245.31 115.313 245.548 115.852 245.909C120 248.819 120.94 249.419 120.94 250.584C120.94 251.27 120.461 251.922 119.513 252.411C112.207 256.181 111.411 256.364 111.058 256.364H110.953C110.505 256.365 110.074 256.188 109.756 255.874C109.437 255.559 109.257 255.132 109.253 254.684C109.253 253.33 110.565 253.111 110.964 252.194C104.528 252.492 31.3429 257.113 30.2306 257.113C23.9374 257.113 14.5938 167.64 11.0345 154.867L10.6444 154.811ZM227.641 265.607C225.177 267.652 223.553 269.624 220.6 269.624C219.803 269.606 219.018 269.431 218.29 269.109C217.561 268.788 216.903 268.326 216.353 267.751C215.803 267.176 215.372 266.498 215.085 265.757C214.797 265.016 214.659 264.225 214.678 263.43C214.679 263.387 214.68 263.344 214.682 263.3C214.682 259.585 217.304 256.854 220.783 256.854C222.77 256.854 224.371 257.734 226.887 259.158C226.887 258.647 226.913 258.214 226.913 257.816C226.913 249.57 216.044 242.671 209.406 242.671C208.558 242.671 207.682 242.73 206.774 242.73C206.942 245.352 208.457 248.573 208.457 249.271C208.437 249.671 208.261 250.048 207.968 250.322C207.674 250.596 207.286 250.746 206.884 250.74C205.66 250.74 205.079 249.141 205.069 249.113C203.067 242.609 202.982 241.97 202.982 241.592V241.492C202.977 241.035 203.088 240.583 203.305 240.18C203.522 239.777 203.837 239.435 204.221 239.186C213.061 232.982 213.377 232.807 213.937 232.807H214.04C214.481 232.824 214.9 233.009 215.209 233.324C215.518 233.638 215.695 234.059 215.703 234.499C215.703 235.871 214.504 236.224 210.236 238.885C230.318 243.294 230.558 257.458 230.558 257.805C230.558 260.244 229.873 261.141 229.873 261.746C229.873 263.195 233.322 265.865 233.322 275.037C233.322 287.479 226.151 300.362 223.845 300.362C223.459 300.364 223.088 300.213 222.812 299.943C222.537 299.673 222.38 299.306 222.374 298.92C222.374 296.943 229.705 288.284 229.705 275.165C229.712 268.664 227.7 265.697 227.641 265.607ZM225.179 262.502C225.041 262.4 222.647 260.44 220.829 260.44C219.412 260.44 218.297 261.503 218.297 263.274C218.297 265.165 219.531 266.015 220.605 266.015C222.455 266.013 224.493 263.543 225.179 262.498V262.502ZM251.733 112.936C249.86 112.936 250.146 111.343 248.268 106.084C245.702 98.8998 240.067 101.482 240.067 98.111C240.067 96.1527 242.31 96.2965 244.651 94.685C249.876 91.0866 248.982 86.3901 251.27 86.3901C254.693 86.3901 250.66 90.4305 255.616 96.5998C256.108 97.2122 257.993 97.634 257.993 99.1563C257.988 99.3852 257.933 99.6104 257.833 99.8166C257.733 100.023 257.59 100.205 257.413 100.351C252.218 105.033 255.163 112.936 251.733 112.936ZM251.108 103.621L253.11 99.4778C252.054 97.8032 251.016 96.1585 250.105 94.7117L246.374 98.1611C248.512 99.4309 249.907 101.36 251.109 103.618L251.108 103.621ZM485.411 133.958V133.997C485.187 134.473 484.879 134.904 484.502 135.271C480.724 138.084 480.621 143.438 480.621 144.224V144.695C480.621 145.31 480.541 147.27 478.698 147.27C476.319 147.27 477.067 143.768 474.319 138.249C472.356 134.301 468.374 136.512 468.374 133.628C468.375 133.238 468.507 132.86 468.748 132.553C468.99 132.247 469.327 132.03 469.706 131.936C478.611 129.211 474.632 119.63 477.974 119.63C480.457 119.63 479.237 122.474 482.179 129.015C483.797 132.609 485.411 131.379 485.411 133.958ZM475.065 133.344L478.258 137.538L480.627 133.649L478.235 129.252C477.178 130.615 476.121 131.979 475.065 133.344ZM512.944 297.491C512.522 297.5 512.112 297.352 511.793 297.076C511.474 296.8 511.269 296.417 511.218 295.999C510.789 294.307 510.405 287.435 506.56 287.435C505.838 287.435 505.205 287.716 504.196 287.716C503.702 287.747 503.216 287.58 502.846 287.254C502.475 286.927 502.25 286.467 502.219 285.974C502.216 285.928 502.215 285.881 502.216 285.835C502.216 283.6 508.478 282.335 509.363 274.901C509.576 273.108 511.683 272.192 512.146 272.192C512.936 272.192 513.677 272.998 513.925 274.09C516.304 284.545 518.639 280.786 518.639 283.434C518.617 283.915 518.455 284.379 518.172 284.769C513.245 292.21 516.372 297.491 512.944 297.491ZM512.748 287.41L514.18 284.233L511.56 279.887L508.99 283.934L512.748 287.41ZM123.313 179.578C124 179.578 124.688 179.563 125.374 179.563C125.526 179.563 125.719 179.557 125.938 179.557C127.01 179.557 128.667 179.695 128.667 181.332C128.666 181.763 128.5 182.178 128.202 182.491C127.905 182.804 127.498 182.991 127.066 183.014C124.625 183.203 119.586 183.297 119.518 183.297C119.038 183.253 118.59 183.037 118.258 182.688C117.925 182.34 117.731 181.883 117.71 181.402C117.71 179.707 119.203 179.618 120.474 179.618H120.908C121.709 179.618 122.512 179.643 123.313 179.643V179.578ZM172.24 133.776V133.641C172.24 132.526 172.795 131.749 173.984 131.749C176.005 131.844 178.013 132.114 179.986 132.557C180.364 132.633 180.702 132.841 180.941 133.143C181.179 133.444 181.303 133.821 181.291 134.205C181.291 136.204 178.864 135.942 177.597 136.049C174.074 136.347 174.673 136.419 173.944 136.419C172.366 136.419 172.411 135.126 172.24 133.776ZM227.735 185.734C228.388 185.873 230.486 185.943 230.486 187.747C230.495 188.132 230.373 188.509 230.14 188.817C229.907 189.124 229.577 189.343 229.203 189.44C227.898 189.843 223.303 190.572 223.248 190.572C222.809 190.571 222.387 190.404 222.066 190.105C221.745 189.806 221.549 189.397 221.518 188.961C221.518 185.993 224.971 186.111 227.735 185.734ZM9.38539 183.806C10.3731 183.806 10.9758 184.595 10.9758 185.892C11.0004 186.116 10.9773 186.343 10.9079 186.557C10.8385 186.771 10.7244 186.968 10.5732 187.135C10.422 187.302 10.237 187.435 10.0305 187.526C9.82397 187.617 9.60056 187.663 9.37496 187.661C8.87759 187.64 8.4062 187.434 8.05457 187.082C7.70294 186.731 7.49683 186.26 7.47726 185.764C7.49151 185.258 7.69553 184.776 8.04892 184.414C8.4023 184.051 8.87929 183.834 9.38539 183.806ZM7.64753 174.571C6.47329 174.571 5.23383 173.586 5.23383 172.585C5.25475 172.163 5.43952 171.764 5.74914 171.475C6.05877 171.185 6.46904 171.027 6.89341 171.033C7.70754 171.033 9.20208 171.79 9.20208 173.076C9.2026 173.272 9.16443 173.466 9.08977 173.647C9.0151 173.829 8.9054 173.993 8.76692 174.132C8.62844 174.271 8.4639 174.381 8.28269 174.457C8.10149 174.532 7.90716 174.571 7.71081 174.572C7.6895 174.572 7.6684 174.571 7.64753 174.571ZM19.9809 257.984C19.5198 257.978 19.0782 257.798 18.7446 257.48C18.411 257.163 18.2101 256.731 18.1824 256.272C18.1975 255.815 18.3861 255.381 18.7098 255.058C19.0336 254.735 19.4684 254.547 19.9261 254.532C20.3853 254.535 20.8245 254.719 21.1484 255.044C21.4723 255.369 21.6548 255.808 21.6561 256.266C21.6596 256.488 21.6191 256.709 21.5371 256.916C21.455 257.122 21.3329 257.311 21.1779 257.47C21.0228 257.63 20.8377 257.757 20.6332 257.846C20.4287 257.934 20.2089 257.981 19.9861 257.984H19.9809ZM16.5554 235.797C16.9253 235.797 18.3931 236.039 18.3931 237.424C18.3796 237.869 18.1922 238.292 17.8709 238.601C17.5496 238.91 17.1198 239.082 16.6735 239.079C16.2055 239.095 15.7504 238.925 15.4079 238.606C15.0655 238.287 14.8637 237.846 14.8469 237.379C14.8465 237.171 14.8873 236.965 14.9668 236.773C15.0462 236.581 15.1629 236.406 15.3101 236.259C15.4573 236.111 15.6321 235.994 15.8247 235.914C16.0172 235.834 16.2236 235.793 16.4321 235.793C16.4734 235.793 16.5145 235.794 16.5554 235.797ZM15.3564 219.999C14.8973 220.032 14.4437 219.882 14.0955 219.582C13.7472 219.282 13.5327 218.856 13.4991 218.398L13.4959 218.34C13.4975 218.133 13.5399 217.928 13.6208 217.738C13.7017 217.547 13.8194 217.374 13.9672 217.229C14.115 217.084 14.29 216.969 14.4823 216.892C14.6745 216.814 14.8802 216.775 15.0876 216.777C15.1028 216.777 15.1178 216.777 15.1326 216.778C15.6034 216.771 16.0594 216.942 16.41 217.255C16.7605 217.569 16.9799 218.002 17.0244 218.47C17.0199 218.676 16.9747 218.879 16.8916 219.067C16.8085 219.255 16.689 219.425 16.54 219.567C16.3909 219.71 16.2153 219.821 16.0231 219.896C15.8309 219.97 15.6258 220.006 15.4196 220.001C15.3988 220.001 15.3777 220.001 15.3564 219.999ZM10.6177 200.133C10.6174 199.839 10.7045 199.551 10.8679 199.307C11.0312 199.062 11.2636 198.871 11.5356 198.758C11.8076 198.646 12.1071 198.616 12.3962 198.672C12.6852 198.729 12.951 198.87 13.1598 199.077C13.3686 199.285 13.5112 199.549 13.5695 199.837C13.6278 200.125 13.5992 200.424 13.4873 200.696C13.3754 200.968 13.1852 201.201 12.9409 201.365C12.6965 201.529 12.4088 201.617 12.1142 201.619C11.9237 201.625 11.734 201.593 11.5557 201.526C11.3774 201.459 11.2141 201.358 11.0752 201.228C10.9362 201.098 10.8243 200.941 10.7458 200.768C10.6673 200.595 10.6238 200.408 10.6177 200.218C10.6168 200.19 10.6168 200.161 10.6177 200.133Z" fill="#290568"/>
<path d="M396.649 402.441C395.858 402.863 395.191 403.163 395.062 404.045C395.351 404.334 395.739 404.506 396.148 404.527C396.673 404.481 397.161 404.241 397.518 403.855C397.24 403.41 396.959 402.953 396.649 402.441ZM218.296 263.273C218.296 265.165 219.529 266.015 220.603 266.015C222.454 266.015 224.49 263.542 225.178 262.5C225.04 262.399 222.646 260.439 220.828 260.439C219.412 260.44 218.296 261.503 218.296 263.273ZM475.065 133.345L478.258 137.538L480.627 133.649L478.235 129.251C477.152 130.648 476.079 132.033 475.065 133.345Z" fill="#EBCFE4"/>
<path d="M589 337.058C589 248.74 540.696 320.386 502.201 128.363C479.278 14.0092 357.139 0 307.092 0C201.411 0 184.743 69.7221 138.36 110.213C95.3607 147.75 57.1251 123.503 19.4315 184.912L30.0955 253.506L113.092 248.44C112.742 247.935 112.522 247.351 112.454 246.74C112.482 246.332 112.662 245.948 112.959 245.665C113.255 245.382 113.647 245.22 114.058 245.211C114.7 245.309 115.313 245.548 115.852 245.909C119.999 248.818 120.94 249.419 120.94 250.584C120.94 251.27 120.461 251.922 119.513 252.411C112.207 256.181 111.411 256.363 111.058 256.363H110.953C110.504 256.364 110.074 256.188 109.756 255.874C109.437 255.559 109.257 255.131 109.253 254.684C109.253 253.33 110.565 253.111 110.964 252.194C104.528 252.492 31.3428 257.113 30.2312 257.113C26.1579 257.113 20.808 219.641 16.5742 189.735C14.9616 192.556 13.3497 195.542 11.7384 198.693C11.8579 198.664 11.9805 198.648 12.1037 198.647C12.4936 198.654 12.8654 198.813 13.1392 199.09C13.413 199.367 13.5671 199.74 13.5684 200.129C13.5697 200.519 13.418 200.893 13.1461 201.171C12.8741 201.45 12.5034 201.612 12.1135 201.621C11.8132 201.638 11.5155 201.558 11.2654 201.391C11.0152 201.225 10.8263 200.981 10.7272 200.698C8.8006 204.56 6.87508 208.682 4.95064 213.064C1.70258 221.03 0.0217739 229.546 -6.10352e-05 238.146C-6.10352e-05 265.827 28.609 293.278 91.9999 326C155.391 358.722 123.757 493 230.558 493C321.558 441 211.84 289.201 211.84 290.239C211.84 290.537 211.73 290.914 211.73 291.954C211.73 292.433 217.182 341.835 217.884 343.902C239.961 308.838 282.441 327.907 302.355 304.933C301.942 304.821 301.521 304.741 301.095 304.694C300.302 304.694 277.958 304.958 277.265 304.958C276.639 304.958 276.104 305.073 275.639 305.073C272.752 305.073 272.573 300.635 270.003 236.605C269.771 230.835 263.887 238.883 263.887 217.06C263.887 200.94 336 306.807 336 305.073C336 303.907 335.044 304.496 335.044 293.865C335.044 249.486 292.55 257.808 346.5 257.808C435.054 257.808 409.5 217.683 409.5 288.467C409.5 308.112 453.257 279.091 453.257 295.076C453.257 298.42 452.144 298.662 449.676 298.662C449.311 298.662 442.028 298.642 427.374 298.642C418.139 298.642 408.491 298.649 400.669 298.649H399.69C404.587 305.396 427.382 307.993 430.147 307.993L400.669 528C446.731 528 449.676 519.5 469.706 493L506.56 485.5C505.802 492.154 527.677 461.705 523.515 466.959C556.746 462.764 589 392.813 589 337.058ZM103.603 247.334C103.538 247.344 32.6619 251.924 32.594 251.924C30.6096 251.924 30.4589 250.693 30.4589 250.408C30.5356 249.87 30.5805 249.328 30.5933 248.784C30.5933 247.157 26.2878 218.479 26.2878 216.698C26.2878 215.293 28.8893 195.737 37.443 195.737C42.9482 195.737 41.5939 203.059 46.0116 209.014C50.9114 199.229 46.3587 178.322 56.6991 178.322C66.5496 178.322 61.5024 202.563 67.1883 202.563C69.4278 202.563 70.7312 197.792 73.1292 191.892C75.8104 185.298 81.9536 181.84 85.0953 181.84C96.0046 181.84 92.7657 207.654 95.9844 207.654C97.1156 207.654 98.4418 205.645 100.839 205.645C102.463 205.645 103.845 206.694 104.634 208.773C107.385 216.023 108.226 235.177 108.226 239.368C108.228 243.526 107.825 246.715 103.603 247.334ZM13.4958 218.342C13.4974 218.135 13.5399 217.93 13.6207 217.74C13.7016 217.549 13.8193 217.376 13.9671 217.231C14.1149 217.086 14.29 216.971 14.4822 216.894C14.6744 216.816 14.8801 216.777 15.0875 216.778C15.1027 216.778 15.1178 216.779 15.1325 216.78C15.6033 216.773 16.0593 216.943 16.4099 217.257C16.7604 217.57 16.9798 218.004 17.0244 218.472C17.0195 218.678 16.974 218.88 16.8905 219.068C16.8071 219.257 16.6873 219.426 16.5381 219.568C16.3888 219.71 16.213 219.822 16.0206 219.896C15.8282 219.97 15.6231 220.006 15.417 220.001L15.3583 219.998C15.1309 220.015 14.9024 219.987 14.6859 219.915C14.4695 219.844 14.2692 219.731 14.0965 219.582C13.9239 219.434 13.7822 219.253 13.6797 219.05C13.5772 218.846 13.5158 218.625 13.4991 218.398L13.4958 218.342ZM16.6734 239.08C16.2054 239.096 15.7503 238.926 15.4079 238.607C15.0654 238.288 14.8636 237.847 14.8468 237.381C14.8463 237.173 14.8869 236.966 14.9662 236.774C15.0455 236.582 15.162 236.407 15.3091 236.259C15.4562 236.112 15.6309 235.995 15.8234 235.915C16.0158 235.835 16.2222 235.793 16.4307 235.792C16.4729 235.792 16.5153 235.794 16.5579 235.797C16.9278 235.797 18.3956 236.039 18.3956 237.424C18.3825 237.87 18.1949 238.293 17.873 238.602C17.551 238.912 17.1204 239.083 16.6734 239.08ZM19.9828 257.984C19.5217 257.978 19.0801 257.798 18.7465 257.48C18.4129 257.163 18.212 256.731 18.1842 256.272C18.1995 255.815 18.3881 255.381 18.7119 255.058C19.0356 254.735 19.4703 254.547 19.928 254.531C20.3872 254.535 20.8264 254.719 21.1503 255.044C21.4742 255.369 21.6567 255.808 21.658 256.266C21.6615 256.488 21.621 256.709 21.5389 256.915C21.4569 257.122 21.3348 257.311 21.1797 257.47C21.0247 257.63 20.8396 257.757 20.6351 257.845C20.4306 257.934 20.2107 257.981 19.988 257.984H19.9808H19.9828ZM227.735 185.733C228.388 185.873 230.485 185.943 230.485 187.747C230.494 188.132 230.373 188.509 230.14 188.816C229.907 189.124 229.577 189.343 229.203 189.439C227.898 189.843 223.303 190.572 223.248 190.572C222.809 190.57 222.387 190.403 222.066 190.105C221.745 189.806 221.549 189.397 221.518 188.96C221.518 185.993 224.971 186.11 227.735 185.733ZM173.982 131.749C176.002 131.843 178.01 132.113 179.983 132.556C180.361 132.633 180.699 132.841 180.938 133.142C181.177 133.444 181.301 133.821 181.288 134.205C181.288 136.204 178.861 135.941 177.594 136.049C174.072 136.347 174.67 136.419 173.941 136.419C172.362 136.419 172.408 135.126 172.235 133.776V133.641C172.236 132.526 172.791 131.749 173.98 131.749H173.982ZM127.068 183.014C124.627 183.202 119.588 183.297 119.52 183.297C119.04 183.253 118.592 183.037 118.259 182.688C117.927 182.34 117.733 181.883 117.712 181.402C117.712 179.707 119.205 179.618 120.476 179.618H120.91C121.711 179.618 122.514 179.642 123.315 179.642V179.577C124.002 179.577 124.69 179.563 125.376 179.563C125.527 179.563 125.721 179.557 125.94 179.557C127.012 179.557 128.669 179.695 128.669 181.332C128.668 181.763 128.502 182.178 128.204 182.491C127.906 182.804 127.499 182.991 127.067 183.014H127.068ZM135.371 189.373C135.371 166.77 156.664 147.994 179.236 147.994C196.569 147.994 216.901 167.996 216.901 191.171C216.901 216.792 192.386 233.658 178.227 233.658C173.574 233.658 135.37 230.83 135.37 189.373H135.371ZM223.851 300.363C223.464 300.364 223.093 300.214 222.818 299.944C222.542 299.674 222.385 299.306 222.38 298.921C222.38 296.944 229.71 288.284 229.71 275.165C229.71 268.666 227.7 265.7 227.641 265.609C225.177 267.654 223.552 269.627 220.6 269.627C219.803 269.608 219.018 269.433 218.29 269.112C217.561 268.79 216.903 268.329 216.353 267.753C215.803 267.178 215.372 266.501 215.085 265.759C214.797 265.018 214.659 264.227 214.678 263.433C214.679 263.389 214.68 263.346 214.682 263.303C214.682 259.588 217.304 256.856 220.783 256.856C222.77 256.856 224.371 257.737 226.887 259.161C226.887 258.649 226.913 258.216 226.913 257.818C226.913 249.572 216.044 242.674 209.406 242.674C208.558 242.674 207.682 242.732 206.774 242.732C206.942 245.355 208.457 248.576 208.457 249.273C208.437 249.674 208.261 250.051 207.968 250.325C207.674 250.599 207.285 250.748 206.884 250.742C205.66 250.742 205.079 249.143 205.069 249.115C203.067 242.611 202.982 241.972 202.982 241.594V241.494C202.977 241.037 203.088 240.586 203.305 240.183C203.522 239.779 203.837 239.437 204.221 239.188C213.061 232.984 213.377 232.81 213.937 232.81H214.04C214.481 232.827 214.899 233.011 215.209 233.326C215.518 233.641 215.695 234.061 215.703 234.502C215.703 235.873 214.504 236.226 210.236 238.888C230.318 243.296 230.558 257.461 230.558 257.808C230.558 260.246 229.872 261.143 229.872 261.748C229.872 263.197 233.322 265.868 233.322 275.04C233.327 287.479 226.157 300.363 223.851 300.363ZM257.413 100.348C252.217 105.034 255.163 112.934 251.733 112.934C249.86 112.934 250.146 111.34 248.268 106.082C245.702 98.8971 240.067 101.48 240.067 98.1083C240.067 96.1499 242.31 96.2937 244.651 94.6823C249.876 91.0838 248.982 86.3874 251.27 86.3874C254.693 86.3874 250.66 90.4277 255.616 96.597C256.108 97.2094 257.993 97.6312 257.993 99.1535C257.988 99.3824 257.933 99.6076 257.833 99.8138C257.733 100.02 257.59 100.202 257.413 100.348ZM485.41 133.997C485.187 134.472 484.879 134.904 484.502 135.271C480.723 138.084 480.62 143.438 480.62 144.224V144.694C480.62 145.31 480.541 147.27 478.697 147.27C476.318 147.27 477.066 143.768 474.319 138.249C472.355 134.301 468.373 136.511 468.373 133.628C468.374 133.238 468.506 132.86 468.747 132.553C468.989 132.247 469.326 132.029 469.706 131.936C478.61 129.211 474.631 119.63 477.974 119.63C480.456 119.63 479.237 122.474 482.179 129.015C483.795 132.609 485.409 131.379 485.409 133.961L485.41 133.997ZM518.171 284.767C513.243 292.21 516.371 297.49 512.943 297.49C512.521 297.499 512.111 297.351 511.792 297.075C511.473 296.799 511.268 296.416 511.217 295.998C510.788 294.306 510.404 287.434 506.56 287.434C505.837 287.434 505.204 287.716 504.195 287.716C503.701 287.746 503.216 287.58 502.845 287.253C502.474 286.926 502.249 286.466 502.218 285.973C502.216 285.927 502.215 285.881 502.215 285.835C502.215 283.6 508.477 282.334 509.362 274.901C509.575 273.107 511.682 272.191 512.145 272.191C512.935 272.191 513.676 272.998 513.924 274.09C516.303 284.544 518.638 280.785 518.638 283.433C518.616 283.914 518.453 284.377 518.171 284.767Z" fill="#EBCFE4"/>
<path d="M508.991 283.934L512.749 287.41L514.181 284.233L511.561 279.886L508.991 283.934ZM246.374 98.1625C248.512 99.4323 249.907 101.361 251.108 103.62L253.11 99.4765L250.105 94.7104L246.374 98.1625Z" fill="#EBCFE4"/>
<path d="M394.37 55.0441C394.37 55.0441 402.74 11.6062 432.046 30.9744C461.352 50.3304 447.214 95.3394 454.541 138.776C459.386 167.487 476.568 187.047 487.671 197.013C490.885 199.903 488.751 205.228 484.434 205.144C459.038 204.653 405.15 196.461 402.752 136.162C399.599 57.1419 394.37 55.0441 394.37 55.0441Z" fill="#290568"/>
<path d="M362.235 190.225V162.234H323.516V188.042C319.799 189.877 316.19 191.544 316.19 191.544L301.537 233.41L313.576 270.036L346.803 267.158L374.274 218.492C374.274 218.48 375.317 195.19 362.235 190.225ZM298.491 106.924C298.491 106.924 290.948 100.219 288.154 109.503C285.36 118.785 284.185 124.361 298.491 138.668C312.795 152.976 298.491 106.924 298.491 106.924Z" fill="#E4BEB2"/>
<path d="M295.697 81.4639C295.445 83.539 292.555 134.843 297.435 148.095C302.316 161.347 319.414 178.797 336.154 180.883C352.893 182.97 373.65 172.68 382.199 164.141C390.749 155.602 394.753 146.704 394.753 146.704C394.753 146.704 401.733 149.15 408.711 146.357C415.69 143.562 423.568 123.678 418.687 114.611C413.807 105.545 406.96 107.272 399.802 114.42L397.896 68.2115L353.254 37.8584L312.436 51.1103C312.449 51.1103 298.838 54.9478 295.697 81.4639Z" fill="#EBCFCF"/>
<path d="M304.677 209.582L322.471 242.549L371.167 223.972L388.134 263.476L337.916 417.067L345.183 538.049C345.183 538.049 274.076 537.521 247.912 511.365L262.565 319.218C262.565 319.207 270.935 186.819 304.677 209.582Z" fill="white"/>
<path d="M362.451 186.903C362.451 186.903 308.827 448.296 308.827 570.753C308.827 570.753 362.451 597.173 423.844 570.657V438.785C423.844 438.785 467.095 436.447 471.976 421.215C476.856 405.985 466.256 259.051 442.669 235.462C442.682 235.462 393.843 186.903 362.451 186.903ZM324.775 186.903C324.775 186.903 274.185 389.364 265.815 554.718C265.815 554.718 245.874 552.103 224.951 538.049L242.458 378.079L211.761 354.356C211.761 354.356 237.577 222.485 268.274 206.439C298.97 190.392 324.775 186.903 324.775 186.903Z" fill="#5F369D"/>
<path d="M287.988 333.094C287.436 333.094 286.991 332.65 286.98 332.11C286.968 331.391 285.913 260.155 283.575 247.91C281.332 236.145 297.879 229.118 302.113 227.523L295.35 207.326C295.217 206.931 295.337 206.499 295.661 206.235L311.25 193.463C311.681 193.115 312.305 193.175 312.665 193.607C313.012 194.039 312.953 194.662 312.521 195.023L297.46 207.35L304.319 227.822C304.499 228.35 304.211 228.914 303.683 229.094C303.479 229.165 283.347 236.062 285.529 247.538C287.891 259.963 288.922 329.149 288.97 332.086C288.982 332.638 288.538 333.094 287.988 333.106C287.999 333.094 287.999 333.094 287.988 333.094Z" fill="#290568"/>
<path d="M253.959 364.851C251.583 363.293 250.924 360.09 252.496 357.728L312.006 267.423C313.564 265.048 316.767 264.388 319.128 265.96C321.502 267.518 322.162 270.721 320.591 273.083L261.081 363.388C259.521 365.762 256.32 366.411 253.959 364.851Z" fill="#FEB00E"/>
<path d="M335.77 356.708C335.77 356.708 309.69 329.725 292.219 337.832C246.282 359.142 281.355 404.355 281.355 404.355C281.355 404.355 321.716 429.191 329.019 421.888C336.309 414.572 354.464 375.392 335.77 356.708Z" fill="#EBCFCF"/>
<path d="M277.59 365.583C276.99 365.583 276.402 365.306 276.019 364.779C275.395 363.915 275.587 362.704 276.451 362.08C276.858 361.78 286.726 354.765 301.547 354.765C302.615 354.765 303.477 355.628 303.477 356.696C303.477 357.762 302.615 358.626 301.547 358.626C287.962 358.626 278.812 365.138 278.728 365.21C278.381 365.462 277.974 365.583 277.59 365.583ZM298.778 384.218C298.479 384.218 298.178 384.147 297.891 384.003C285.828 377.766 274.7 379.338 274.592 379.362C273.537 379.53 272.554 378.797 272.398 377.742C272.242 376.687 272.962 375.703 274.017 375.548C274.521 375.476 286.5 373.773 299.665 380.585C300.613 381.077 300.984 382.24 300.492 383.187C300.145 383.835 299.474 384.218 298.778 384.218ZM296.62 400.804C296.32 400.804 296.021 400.733 295.733 400.589C283.67 394.353 272.542 395.935 272.435 395.947C271.38 396.115 270.396 395.384 270.24 394.328C270.084 393.273 270.804 392.289 271.859 392.134C272.362 392.061 284.341 390.359 297.508 397.17C298.455 397.662 298.827 398.825 298.335 399.773C297.987 400.421 297.316 400.804 296.62 400.804Z" fill="#E4BEB2"/>
<path d="M277.687 437.646L209.519 438.269C201.029 438.353 193.738 432.238 192.335 423.854L169.241 285.59C167.49 275.133 175.5 265.587 186.1 265.491L254.269 264.868C262.758 264.783 270.048 270.9 271.451 279.283L294.534 417.559C296.285 428.004 288.287 437.55 277.687 437.646Z" fill="#290568"/>
<path d="M169.337 372.861C169.816 359.238 174.409 346.058 182.647 335.204C188.558 327.409 194.961 321.365 198.019 326.342C200.957 331.139 197.419 332.83 195.141 342.328C192.863 351.826 195.405 355.988 204.17 353.949C212.936 351.91 238.069 343.167 238.069 343.167C238.069 343.167 252.697 335.157 253.453 341.837C254.208 348.517 245.155 355.508 245.155 355.508C245.155 355.508 249.352 363.903 243.212 371.002C243.212 371.002 245.071 375.583 240.742 382.528C240.742 382.528 244.748 385.322 238.812 392.289C232.888 399.257 217.792 401.848 203.391 404.007C203.247 404.031 203.103 404.055 202.959 404.067C184.649 406.573 168.677 391.342 169.337 372.861Z" fill="#EBCFCF"/>
<path d="M227.253 363.099C226.629 363.099 226.041 362.715 225.813 362.104C225.514 361.312 225.922 360.424 226.713 360.125L239.603 355.268C240.394 354.968 241.283 355.376 241.582 356.168C241.882 356.959 241.474 357.846 240.682 358.146L227.792 363.003C227.624 363.063 227.433 363.099 227.253 363.099ZM227.985 378.222C227.385 378.222 226.809 377.874 226.569 377.287C226.234 376.507 226.606 375.596 227.385 375.26L238.765 370.415C239.556 370.078 240.455 370.45 240.791 371.23C241.126 372.01 240.755 372.921 239.975 373.256L228.595 378.101C228.38 378.174 228.176 378.222 227.985 378.222ZM227.59 390.023C227.038 390.023 226.499 389.723 226.223 389.207C225.827 388.452 226.104 387.529 226.858 387.121L236.763 381.868C237.518 381.472 238.454 381.76 238.85 382.503C239.245 383.259 238.97 384.183 238.214 384.59L228.31 389.843C228.081 389.963 227.829 390.023 227.59 390.023Z" fill="#E4BEB2"/>
<path d="M297.412 84.0177C297.412 84.0177 319.895 81.9663 337.917 63.9414C337.917 63.9414 353.589 97.0887 390.977 104.585V127.779L403.219 111.42C403.219 111.42 413.64 106.947 417.045 112.044C417.045 112.044 429.407 28.3472 351.982 28.3472C286.416 28.3472 284.714 88.5148 289.726 106.323L294.618 104.8L297.412 84.0177Z" fill="#290568"/>
<path d="M311.896 117.586C314.539 117.586 316.681 113.968 316.681 109.503C316.681 105.039 314.539 101.42 311.896 101.42C309.255 101.42 307.112 105.039 307.112 109.503C307.112 113.968 309.255 117.586 311.896 117.586ZM360.737 120.752C363.379 120.752 365.521 117.133 365.521 112.669C365.521 108.205 363.379 104.586 360.737 104.586C358.094 104.586 355.952 108.205 355.952 112.669C355.952 117.133 358.094 120.752 360.737 120.752ZM352.883 97.6065L353.986 93.8528C353.986 93.8528 364.969 94.3798 370.377 100.484C370.389 100.484 359.97 97.1747 352.883 97.6065ZM317.172 94.7278L316.393 90.9741C316.393 90.9741 308.659 91.5023 304.846 97.6065C304.846 97.6065 312.184 94.296 317.172 94.7278Z" fill="#290568"/>
<path d="M328.792 136.486C328.528 136.486 328.264 136.402 328.049 136.234C326.01 134.638 324.943 132.743 324.872 130.609C324.751 127.155 327.353 124.204 328.277 123.269C329.392 116.686 331.011 107.007 331.071 106.336C331.13 105.7 331.694 105.184 332.33 105.232C332.977 105.268 333.48 105.773 333.48 106.42C333.48 106.551 333.48 106.959 330.591 124.061C330.543 124.325 330.412 124.576 330.208 124.756C330.171 124.78 327.174 127.551 327.282 130.537C327.329 131.952 328.073 133.187 329.536 134.339C330.064 134.747 330.148 135.514 329.74 136.03C329.499 136.329 329.153 136.486 328.792 136.486ZM337.952 151.801C336.657 151.801 335.842 151.668 335.734 151.644C335.075 151.537 334.643 150.913 334.751 150.254C334.858 149.594 335.482 149.173 336.141 149.257C336.501 149.317 344.764 150.589 352.03 143.322C352.498 142.854 353.265 142.854 353.733 143.322C354.2 143.789 354.2 144.556 353.733 145.024C347.832 150.924 341.297 151.801 337.952 151.801Z" fill="#290568"/>
<path opacity="0.46" d="M376.349 150.194C384.475 150.194 391.062 143.112 391.062 134.376C391.062 125.639 384.475 118.558 376.349 118.558C368.224 118.558 361.636 125.639 361.636 134.376C361.636 143.112 368.224 150.194 376.349 150.194ZM306.741 147.904C312.502 147.904 317.173 141.332 317.173 133.225C317.173 125.118 312.502 118.545 306.741 118.545C300.98 118.545 296.309 125.118 296.309 133.225C296.309 141.332 300.98 147.904 306.741 147.904Z" fill="#F6A6C2"/>
<path d="M424.78 368.749C424.612 368.749 424.432 368.701 424.264 368.605L406.087 357.703L355.952 357.799C355.401 357.799 354.945 357.356 354.945 356.804C354.945 356.252 355.389 355.797 355.941 355.797L406.35 355.7C406.53 355.7 406.71 355.749 406.865 355.844L425.284 366.89C425.764 367.178 425.908 367.79 425.632 368.269C425.452 368.581 425.117 368.749 424.78 368.749ZM400.426 346.766C399.875 346.766 399.418 346.322 399.418 345.759C399.418 345.543 399.467 324.04 403.603 306.314C407.728 288.625 423.688 247.766 423.844 247.347C424.048 246.831 424.635 246.58 425.139 246.782C425.655 246.986 425.906 247.562 425.702 248.078C425.547 248.486 409.635 289.213 405.546 306.77C401.457 324.279 401.409 345.543 401.409 345.759C401.422 346.31 400.977 346.766 400.426 346.766ZM412.597 439.29C412.585 439.29 412.573 439.29 412.55 439.29C406.614 439.026 334.633 433.618 331.563 430.547C331.167 430.152 331.167 429.516 331.563 429.132C331.946 428.76 332.545 428.749 332.942 429.095C336.575 431.351 399.959 436.723 412.645 437.287C413.197 437.311 413.628 437.778 413.605 438.33C413.581 438.87 413.137 439.29 412.597 439.29ZM344.418 340.817C344.261 340.817 344.106 340.782 343.962 340.709C343.47 340.458 343.266 339.858 343.518 339.366C343.782 338.839 369.899 286.935 376.265 274.007C382.344 261.666 363.615 239.072 363.424 238.844C363.099 238.46 363.111 237.884 363.459 237.513C364.047 236.889 377.8 222.042 380.714 219.127C382.02 217.821 377.837 206.632 371.564 194.687C371.313 194.195 371.493 193.595 371.985 193.332C372.477 193.079 373.076 193.26 373.339 193.751C377.021 200.767 385.259 217.425 382.129 220.543C379.575 223.097 368.255 235.294 365.521 238.232C368.771 242.274 384.168 262.505 378.076 274.882C371.708 287.81 345.593 339.727 345.329 340.254C345.137 340.626 344.777 340.817 344.418 340.817Z" fill="#290568"/>
</g>
<defs>
<clipPath id="clip0_490_11144">
<rect width="589" height="481" fill="white"/>
</clipPath>
</defs>
</svg>
