<svg width="19" height="18" viewBox="0 0 19 18" fill="none" xmlns="http://www.w3.org/2000/svg">
<path d="M18.3245 7.23716H17.5995V7.19981H9.49976V10.7997H14.586C13.8439 12.8953 11.85 14.3996 9.49976 14.3996C6.51769 14.3996 4.0999 11.9818 4.0999 8.99976C4.0999 6.01769 6.51769 3.5999 9.49976 3.5999C10.8763 3.5999 12.1286 4.11919 13.0821 4.96742L15.6277 2.42184C14.0203 0.923826 11.8703 0 9.49976 0C4.52964 0 0.5 4.02964 0.5 8.99976C0.5 13.9699 4.52964 17.9995 9.49976 17.9995C14.4699 17.9995 18.4995 13.9699 18.4995 8.99976C18.4995 8.39633 18.4374 7.80729 18.3245 7.23716Z" fill="#FFC107"/>
<path d="M1.53906 4.81082L4.49593 6.97931C5.29601 4.99847 7.23366 3.5999 9.50115 3.5999C10.8777 3.5999 12.13 4.11919 13.0835 4.96742L15.6291 2.42184C14.0217 0.923826 11.8717 0 9.50115 0C6.04434 0 3.04652 1.9516 1.53906 4.81082Z" fill="#FF3D00"/>
<path d="M9.50032 17.9997C11.825 17.9997 13.9372 17.1101 15.5342 15.6634L12.7488 13.3064C11.8452 13.9908 10.722 14.3998 9.50032 14.3998C7.15948 14.3998 5.17188 12.9072 4.4231 10.8242L1.48828 13.0854C2.97774 16 6.00256 17.9997 9.50032 17.9997Z" fill="#4CAF50"/>
<path d="M18.3247 7.23266H17.5998V7.19531H9.5V10.7952H14.5862C14.2298 11.8018 13.5823 12.6699 12.7471 13.3021C12.7476 13.3017 12.748 13.3017 12.7485 13.3012L15.5339 15.6582C15.3368 15.8373 18.4998 13.4951 18.4998 8.99526C18.4998 8.39183 18.4377 7.8028 18.3247 7.23266Z" fill="#1976D2"/>
</svg>
