<svg width="655" height="825" viewBox="0 0 655 825" fill="none" xmlns="http://www.w3.org/2000/svg">
<g opacity="0.5">
<path d="M69.3533 -219.77C69.5928 -220.348 70.0416 -220.814 70.6097 -221.075C71.1778 -221.336 71.8232 -221.372 72.4163 -221.176C72.9845 -220.927 73.4369 -220.471 73.6818 -219.901C73.9267 -219.331 73.9459 -218.688 73.7355 -218.104C73.5003 -217.527 73.0475 -217.066 72.4752 -216.821C71.903 -216.576 71.2575 -216.567 70.679 -216.795C70.397 -216.903 70.1389 -217.065 69.9195 -217.272C69.7001 -217.479 69.5238 -217.728 69.4004 -218.004C69.2771 -218.279 69.2092 -218.576 69.2006 -218.878C69.1921 -219.18 69.2431 -219.481 69.3507 -219.764L69.3543 -219.773L69.3533 -219.77ZM151.22 37.7453C150.087 40.2439 148.737 42.6387 147.188 44.9025C146.901 45.3398 146.469 45.6616 145.969 45.8109C145.468 45.9602 144.931 45.9272 144.453 45.7178C141.932 44.7131 143.482 41.787 143.983 40.1365C145.376 35.5476 144.984 36.2659 145.35 35.3469C146.143 33.3575 147.751 34.0652 149.541 34.5259L149.711 34.5939C151.116 35.1549 151.818 36.245 151.22 37.7436L151.22 37.7453ZM-8.02865 429.058C-8.51622 428.537 -8.90601 427.932 -9.17948 427.272C-10.8295 421.097 -17.531 418.275 -18.5217 417.881L-19.1152 417.644C-19.8917 417.335 -22.3234 416.249 -21.3974 413.926C-20.2025 410.928 -16.1621 413.631 -7.82158 412.944C-1.85524 412.454 -2.64343 406.324 0.992961 407.774C1.48422 407.971 1.89521 408.327 2.16064 408.786C2.42608 409.244 2.53069 409.779 2.45783 410.304C1.42244 422.895 15.5049 422.696 13.8261 426.908C12.5794 430.036 9.60462 427.07 -0.122655 427.49C-5.46732 427.72 -4.72652 430.372 -7.98367 429.074L-8.02865 429.058ZM-214.639 394.551C-221.552 384.6 -229.783 385.887 -228.061 381.567C-227.86 381.031 -227.467 380.589 -226.959 380.326C-226.452 380.063 -225.865 379.997 -225.312 380.142C-222.962 380.452 -214.103 383.422 -212.172 378.578C-211.809 377.667 -211.846 376.728 -211.339 375.457C-211.129 374.819 -210.675 374.291 -210.077 373.988C-209.479 373.685 -208.785 373.633 -208.149 373.842C-208.089 373.862 -208.03 373.884 -207.972 373.907C-205.153 375.031 -206.703 383.559 -197.771 388.41C-195.617 389.58 -195.519 392.695 -195.752 393.279C-196.149 394.274 -197.538 394.803 -199.04 394.567C-213.42 392.309 -209.852 397.142 -213.192 395.811C-213.787 395.541 -214.289 395.103 -214.639 394.551Z" fill="#EBCFE4"/>
<path fill-rule="evenodd" clip-rule="evenodd" d="M-316.164 457.519C-204.774 501.915 -270.877 405.03 -9.35645 453.049C146.384 481.646 225.396 334.777 250.532 271.711C303.61 138.538 224.046 82.486 196.273 3.68306C170.526 -69.3709 215.663 -111.389 157.143 -189.758C154.396 -193.208 151.439 -196.74 148.274 -200.355C148.251 -200.189 148.209 -200.027 148.148 -199.871C147.944 -199.383 147.557 -198.995 147.07 -198.789C146.583 -198.583 146.035 -198.577 145.543 -198.771C145.052 -198.965 144.656 -199.344 144.441 -199.827C144.226 -200.31 144.209 -200.858 144.393 -201.354C144.521 -201.741 144.773 -202.076 145.108 -202.307C145.444 -202.539 145.846 -202.654 146.253 -202.637C142.35 -207.006 138.118 -211.504 133.558 -216.132C125.142 -224.23 115.246 -230.628 104.41 -234.979C69.4975 -248.894 -420.646 298.341 -447.111 309.7C-458.509 353.685 -386.485 429.492 -316.164 457.519ZM147.188 44.9025C148.737 42.6387 150.087 40.2439 151.22 37.7453L151.22 37.7436C151.818 36.245 151.116 35.1549 149.711 34.5939L149.541 34.5259C147.751 34.0652 146.143 33.3575 145.35 35.3469C144.984 36.2659 145.376 35.5476 143.983 40.1365C143.482 41.787 141.932 44.7131 144.453 45.7178C144.931 45.9272 145.468 45.9602 145.969 45.8109C146.469 45.6616 146.901 45.3398 147.188 44.9025ZM-9.17948 427.272C-8.90601 427.932 -8.51622 428.537 -8.02865 429.058L-7.98367 429.074C-4.72652 430.372 -5.46732 427.72 -0.122655 427.49C9.60462 427.07 12.5794 430.036 13.8261 426.908C15.5049 422.696 1.42244 422.895 2.45783 410.304C2.53069 409.779 2.42608 409.244 2.16064 408.786C1.89521 408.327 1.48422 407.971 0.992961 407.774C-2.64343 406.324 -1.85524 412.454 -7.82158 412.944C-16.1621 413.631 -20.2025 410.928 -21.3974 413.926C-22.3234 416.249 -19.8917 417.335 -19.1152 417.644L-18.5217 417.881C-17.531 418.275 -10.8295 421.097 -9.17948 427.272ZM-228.061 381.567C-229.783 385.887 -221.552 384.6 -214.639 394.551C-214.289 395.103 -213.787 395.541 -213.192 395.811C-209.852 397.142 -213.42 392.309 -199.04 394.567C-197.538 394.803 -196.149 394.274 -195.752 393.279C-195.519 392.695 -195.617 389.58 -197.771 388.41C-206.703 383.559 -205.153 375.031 -207.972 373.907C-208.03 373.884 -208.089 373.862 -208.149 373.842C-208.785 373.633 -209.479 373.685 -210.077 373.988C-210.675 374.291 -211.129 374.819 -211.339 375.457C-211.846 376.728 -211.809 377.667 -212.172 378.578C-214.103 383.422 -222.962 380.452 -225.312 380.142C-225.865 379.997 -226.452 380.063 -226.959 380.326C-227.467 380.589 -227.86 381.031 -228.061 381.567Z" fill="#EBCFE4"/>
</g>
<path d="M117.982 166.325C116.418 166.435 104.542 169.158 102.245 158.388C99.9782 147.756 109.622 131.708 118.792 129.753C125.821 128.254 128.376 138.443 128.751 140.204C130.582 148.791 127.71 162.885 125.173 163.76C122.749 164.597 120.341 165.48 117.982 166.325ZM153.35 30.3075C152.895 28.672 152.28 28.2962 150.749 28.6225C149.445 28.9006 30.2387 58.4901 27.3023 59.282C25.7275 59.7061 25.3832 60.2225 25.7056 61.7347C26.8078 66.9038 35.9518 100.304 36.1053 100.856C36.5542 102.446 37.2065 102.792 38.8051 102.451C38.9302 102.425 48.408 100.08 48.9922 99.9556C49.2618 99.8981 49.5336 99.8449 49.807 99.7866C64.5394 124.344 63.9609 125.381 65.8607 124.975C67.8526 124.551 67.231 124.446 66.1279 95.6595C66.6657 95.5448 67.1348 95.4529 67.5759 95.3588C68.0396 95.26 161.998 72.1405 162.444 71.9719C163.778 71.4684 163.925 70.6936 163.64 69.3574C163.534 68.8622 153.876 32.191 153.35 30.3075ZM63.5369 92.984C62.546 100.832 63.559 108.527 63.6193 116.484C61.9702 114.536 52.1217 97.0245 52.0848 96.9649C51.5425 96.0814 51.2717 95.9248 50.4457 96.1009C49.6196 96.277 42.981 98.0856 41.062 98.4947C40.3881 98.6384 39.6895 98.7739 38.9312 98.9356L29.0928 62.2064L150.459 32.0579C153.717 44.4914 156.936 56.7607 160.197 69.1934L63.5369 92.984Z" fill="#290568"/>
<path fill-rule="evenodd" clip-rule="evenodd" d="M198.742 222.613C203.443 214.948 203.08 211.646 202.578 209.291C202.173 207.391 197.594 189.098 169.52 195.084C145.048 200.302 123.342 217.927 98.9714 223.124C90.3819 224.955 86.4719 224.472 85.7804 224.435C137.859 172.658 117.455 173.205 135.602 161.834C166.052 142.756 213.373 82.8389 268.74 71.0335C280.746 68.4735 281.719 71.833 283.628 71.4261C283.979 71.3332 284.282 71.1129 284.479 70.8083C284.676 70.5036 284.752 70.1365 284.693 69.7786C284.65 69.58 282.444 64.771 268.241 67.7994C209.974 80.2229 160.526 144.334 130.502 161.048C131.595 156.057 133.804 148.201 131.969 139.594L131.922 139.376C131.522 137.496 128.383 124.403 117.817 126.656C107.644 128.825 96.3387 146.337 99.0512 159.059C99.4143 160.762 102.462 172.802 118.345 169.415C120.489 168.923 122.604 168.31 124.678 167.577C116.398 188.699 76.3919 241.237 37.2324 249.587C31.8685 250.731 31.0082 249.627 29.6186 249.923C29.2168 249.994 28.8595 250.221 28.6251 250.554C28.3907 250.888 28.2984 251.301 28.3686 251.703L28.3797 251.762C28.8894 254.152 37.5517 252.833 38.9472 252.535C61.0515 247.822 81.1434 227.929 82.6201 227.614C83.341 227.46 88.9768 228.654 99.5137 226.407C125.04 220.964 145.489 203.553 170.187 198.287C193.186 193.383 198.459 205.893 199.267 209.682C200.17 213.916 198.181 217.765 195.443 221.998C195.195 222.417 194.859 222.778 194.458 223.054C194.058 223.33 193.602 223.517 193.122 223.6C192.961 223.634 197.844 222.752 198.742 222.613ZM102.245 158.388C104.542 169.158 116.418 166.435 117.982 166.325C120.341 165.48 122.749 164.597 125.173 163.76C127.71 162.885 130.582 148.791 128.751 140.204C128.376 138.443 125.821 128.254 118.792 129.753C109.622 131.708 99.9782 147.756 102.245 158.388Z" fill="#290568"/>
<path d="M250.565 122.979C249.414 123.224 251.832 123.007 241.649 125.178C233.337 126.95 225.025 128.72 216.713 130.487C215.504 130.745 214.442 130.956 213.527 131.151C210.367 131.824 208.969 132.308 209.307 133.892C209.415 134.398 209.865 135.399 210.083 136.418C212.081 145.792 217.232 174.24 217.245 174.3C217.498 175.486 218.121 175.968 219.294 175.718C219.354 175.705 248.036 168.413 248.096 168.397C249.318 168.079 249.888 167.317 249.689 166.383C249.379 164.927 247.924 165.097 247.34 165.221C247.211 165.249 247.12 165.275 247.101 165.28C246.017 165.511 224.228 171.042 223.873 171.118C223.558 171.185 223.219 171.184 222.798 171.228L236.407 150.419C254.991 160.713 256.133 162.673 257.949 162.286C259.744 161.904 259.485 160.007 259.356 159.402C259.333 159.293 259.314 159.226 259.312 159.216L259.229 158.829C252.135 125.559 252.344 124.599 252.517 124.562L252.543 124.557C252.577 124.55 252.587 124.501 252.492 124.053C252.391 123.662 252.14 123.327 251.793 123.122C251.446 122.916 251.031 122.857 250.64 122.958C250.615 122.964 250.59 122.971 250.565 122.979ZM219.707 169.171L213.559 137.389L213.839 137.222L233.201 148.514L219.707 169.171ZM235.185 145.887L215.235 134.249L247.109 127.453L235.185 145.887ZM255.574 157.45C254.409 157.168 239.951 148.858 238.259 147.556L249.727 130.029L255.574 157.45ZM287.555 50.1497L287.339 50.1957C286.072 50.4659 285.713 51.1883 289.893 75.135C290.521 78.7313 273.395 90.3832 274.046 93.4385C274.075 93.5728 274.118 93.7037 274.174 93.8293C274.176 94.0078 274.195 94.1856 274.231 94.3604C274.609 96.1319 335.925 109.702 335.986 109.689C337.082 109.455 337.909 108.647 337.716 107.743C337.706 107.681 289.547 49.7249 287.555 50.1497ZM278.095 92.8477L292.441 78.7324L326.723 103.783C325.595 103.916 281.745 94.0365 278.095 92.8477ZM325.906 99.0008C325.019 98.5407 328.653 101.156 294.963 76.4788C293.928 75.7912 293.202 74.7281 292.937 73.5144C292.924 73.4538 290.608 58.2939 290.552 57.573L290.825 57.403L326.016 98.8195L325.906 99.0008ZM461.078 58.1159C461.023 57.8579 460.247 54.19 458.4 45.5264L456.282 35.5956L456.239 35.6049C451.697 15.4778 451.684 15.451 451.08 12.6194L451.009 12.2886C450.968 11.8889 450.787 11.5165 450.499 11.2363C450.211 10.9562 449.834 10.7861 449.433 10.7559C448.513 10.6559 447.583 10.6849 446.671 10.842C436.047 13.1071 408.018 19.1927 407.292 19.3474C406.858 19.4401 406.419 19.5188 405.984 19.6115C403.891 20.0578 402.625 20.53 403.14 22.9449C413.205 70.1483 414.319 72.4956 415.672 72.207C415.83 72.1733 415.991 72.1032 416.171 72.0649C416.182 72.0637 416.194 72.0613 416.205 72.0577C416.205 72.0577 416.166 72.0591 416.165 72.052C416.153 71.9959 418.37 71.2934 458.459 62.1686C461.63 61.4465 461.306 59.1802 461.162 58.5038L461.128 58.3464L461.078 58.1159ZM417.26 68.3102C416.726 67.3346 409.571 36.6759 407.367 26.3389C406.981 24.5301 406.747 23.3436 406.726 23.0467C407.381 22.7176 423.85 19.0503 435.836 16.4947C442.13 15.1527 447.188 14.1168 448.07 14.0325L458.017 58.871L417.26 68.3102ZM207.268 10.0839C199.637 11.6854 192.954 16.2526 188.69 22.781C184.426 29.3093 182.93 37.264 184.531 44.8955C188.624 64.0934 205.008 70.54 219.385 67.4746C233.802 64.4007 246.201 51.7617 242.163 32.8242C240.556 25.1845 235.98 18.4961 229.442 14.2302C222.904 9.96434 214.938 8.47049 207.299 10.0773L207.268 10.0839ZM218.883 64.4703C213.822 65.5636 208.55 65.1315 203.734 63.2286C198.919 61.3258 194.775 58.0377 191.829 53.7801C188.882 49.5226 187.263 44.4867 187.179 39.3095C187.094 34.1322 188.546 29.0461 191.352 24.6942C194.157 20.3423 198.191 16.9202 202.941 14.8605C207.692 12.8009 212.947 12.1962 218.041 13.1229C223.135 14.0497 227.841 16.4663 231.561 20.0672C235.282 23.668 237.852 28.2913 238.945 33.3525L238.956 33.4048C240.421 40.1753 239.136 47.2502 235.384 53.0733C231.632 58.8964 225.721 62.9906 218.95 64.4552L218.883 64.4703ZM79.5621 166.34C79.0817 164.087 78.1148 164.257 76.5504 164.591L73.3526 165.273C64.9372 167.067 40.1327 171.742 39.5343 171.869C38.7901 172.028 38.1417 171.978 37.6355 172.086C35.403 172.562 36.0582 176.125 44.262 214.601C44.3797 215.153 44.5081 215.736 44.6509 216.406L47.643 215.768C50.2269 215.217 85.626 207.804 85.6873 207.791C86.06 207.711 86.3893 207.681 86.6665 207.622C88.1104 207.314 88.1221 206.227 85.3741 193.339C84.0852 187.307 82.194 178.684 79.5621 166.34ZM84.1468 204.629L47.176 212.512C44.6757 200.046 42.3399 187.681 39.9011 175.186L76.5881 167.971C79.1224 180.255 81.6262 192.402 84.1468 204.629ZM66.5985 160.912L63.5226 161.568C55.8251 146.262 41.907 145.185 22.0008 145.855C-6.98867 146.832 -7.45329 139.714 -11.3285 123.244C-15.0387 107.471 -21.0703 106.093 -21.4891 104.129C-21.5567 103.762 -21.4805 103.383 -21.2763 103.07C-21.0721 102.758 -20.7555 102.536 -20.3921 102.451C-20.0757 102.387 -19.747 102.451 -19.4777 102.629C-9.76607 108.653 -7.83594 124.374 -6.39334 130.008C0.562611 157.158 56.4303 126.692 66.5985 160.912ZM362.177 28.7632L361.941 27.654C351.606 28.3744 342.925 22.2027 340.666 11.6084C340.105 8.97416 341.724 8.60989 341.87 8.57881L341.878 8.57716C342.105 8.52583 342.341 8.52325 342.569 8.56959C342.797 8.61592 343.013 8.71011 343.202 8.84596C343.392 8.98181 343.55 9.15624 343.667 9.35772C343.784 9.55921 343.857 9.78319 343.881 10.0149C344.035 10.7365 344.124 11.4744 344.278 12.1941C345.689 18.8142 353.187 26.2858 363.357 24.1174C369.218 22.8677 370.727 19.6827 372.198 19.3691C372.608 19.2966 373.03 19.3801 373.382 19.6032C373.733 19.8264 373.988 20.173 374.097 20.5748C374.738 23.5811 365.241 27.1358 365.187 27.1628L369.377 46.8154C376.097 78.3321 376.386 80.1305 375.139 80.3964C374.98 80.4302 374.796 80.4398 374.598 80.482C373.158 80.7892 372.722 79.4772 372.409 78.0121C372.064 76.4037 363.899 36.8368 362.177 28.7632ZM301.88 21.0925C302.421 22.699 302.814 25.2479 304.882 24.8069C306.787 24.4007 310.455 21.3481 313.047 20.7955C315.398 20.294 318.946 20.9999 319.994 24.4716C321.72 30.1887 322.752 30.1945 322.992 31.3217C323.064 31.6987 322.987 32.0889 322.776 32.4096C322.565 32.7303 322.238 32.9563 321.863 33.0396C321.673 33.0786 321.477 33.0764 321.288 33.0329C321.098 32.9895 320.921 32.9059 320.767 32.7878C315.978 29.2968 318.59 23.0316 313.786 24.056C311.438 24.5564 308.301 27.4225 305.611 27.996L305.574 28.0038C304.728 28.1844 300.309 29.0705 298.799 21.9868C298.742 21.7179 298.695 21.4461 298.637 21.1772C298.419 20.1519 298.067 19.1744 296.745 19.4563C292.267 20.4112 290.769 23.2735 285.217 24.4572C279.329 25.7127 278.318 18.3776 275.036 19.0773C269.823 20.1889 268.508 25.3274 267.008 25.6473C266.658 25.6925 266.305 25.6092 266.012 25.4127C265.72 25.2163 265.509 24.9202 265.419 24.5797C265.029 22.7489 269.552 16.9224 274.584 15.8494C280.241 14.6433 280.814 22.119 284.986 21.2294C288.239 20.5358 292.01 17.093 295.72 16.302C300.419 15.3 301.561 19.1582 301.811 20.3292C301.864 20.5749 301.91 20.8212 301.962 21.0669L301.88 21.0925ZM176.265 163.105C163.183 158.007 163.906 158.284 162.888 157.351C162.688 157.137 162.439 156.975 162.164 156.878C161.888 156.781 161.593 156.752 161.303 156.793C159.64 157.148 160.025 157.622 158.769 176.114C158.719 176.636 158.74 177.162 158.833 177.678C159.184 179.325 160.856 178.803 162.553 178.599C164.214 177.536 178.846 166.423 178.922 166.354C179.176 166.165 179.374 165.911 179.494 165.618C179.615 165.325 179.653 165.005 179.605 164.692C179.249 163.016 177.62 163.634 176.265 163.105ZM162.167 174.92C162.394 170.293 162.776 165.969 163.078 161.425L174.162 165.803C170.206 168.954 166.269 171.77 162.167 174.92ZM272.08 211.523C267.939 212.406 262.516 216.761 264.017 223.799C264.382 225.51 267.602 233.743 276.325 231.883C279.018 231.299 281.373 229.678 282.88 227.372C284.387 225.065 284.925 222.257 284.378 219.557C284.008 217.824 280.805 209.663 272.08 211.523ZM275.734 228.677C274.044 229.037 268.437 228.892 267.228 223.223C266.986 222.087 266.6 216.035 272.659 214.743C278.791 213.436 280.927 219.06 281.163 220.163C281.568 222.011 281.224 223.944 280.207 225.539C279.191 227.134 277.584 228.262 275.738 228.675L275.734 228.677ZM426.385 111.817C423.901 112.411 421.749 113.957 420.392 116.121C419.036 118.285 418.582 120.895 419.128 123.39C420.84 131.417 429.061 131.061 430.601 130.732C432.228 130.385 439.832 127.432 438.085 119.239C436.341 111.057 427.961 111.48 426.385 111.817ZM429.933 127.541C429.626 127.607 423.539 128.494 422.29 122.635C421.939 120.955 422.27 119.204 423.209 117.768C424.149 116.332 425.621 115.327 427.301 114.976C428.365 114.749 433.791 114.546 434.934 119.906C436.101 125.381 430.905 127.333 429.93 127.541L429.933 127.541ZM225.908 223.007C225.861 222.156 225.797 221.268 225.769 220.38C225.511 211.968 237.048 215.457 236.529 208.189C235.74 197.139 244.755 200.57 245.221 196.609C245.359 195.433 245.642 194.275 245.835 193.107C246.526 188.926 251.005 187.517 251.136 187.489C251.431 187.414 251.741 187.43 252.026 187.534C252.311 187.638 252.559 187.825 252.736 188.071C252.857 188.241 252.942 188.434 252.985 188.638C253.519 191.14 249.326 190.491 248.937 194.26C248.837 195.24 248.542 196.199 248.434 197.18C247.746 203.567 239.91 200.413 239.728 205.927C239.503 212.775 240.55 213.572 230.549 217.65C226.709 219.214 230.833 224.505 227.961 225.118C226.505 225.427 226.097 223.551 225.908 223.007Z" fill="#290568"/>
<path d="M376.656 91.5798C383.971 79.638 386.756 72.8653 388.368 72.5215C388.766 72.4373 389.181 72.5108 389.526 72.7266C389.871 72.9423 390.119 73.2834 390.217 73.678C390.46 74.8181 379.216 94.9618 377.001 95.4341C375.547 95.7441 358.926 80.7947 358.77 80.0602C358.683 79.6478 358.763 79.2177 358.992 78.864C359.221 78.5102 359.581 78.2615 359.992 78.172C361.909 77.7653 371.317 87.7179 376.656 91.5798ZM358.523 6.69954C362.636 -0.510578 362.859 -1.25867 363.853 -1.47042C364.179 -1.52136 364.512 -1.45064 364.789 -1.27172C365.067 -1.09279 365.269 -0.818152 365.357 -0.500061C365.641 0.834143 363.854 2.64438 361.01 8.28891C367.397 12.3347 368.153 12.6264 368.357 13.5795C368.404 13.9077 368.332 14.2423 368.153 14.5216C367.974 14.8009 367.701 15.0062 367.382 15.0998C366.237 15.344 365.165 14.1481 359.618 10.83C356.96 14.5795 355.633 18.6809 354.216 18.983C353.87 19.0338 353.517 18.9568 353.222 18.7663C352.928 18.5758 352.714 18.2849 352.618 17.9478C352.39 16.8786 354.248 14.5759 357.055 9.19088C349.934 4.62074 349.448 4.50185 349.254 3.59325C349.213 3.26296 349.291 2.92884 349.473 2.6502C349.655 2.37157 349.93 2.16647 350.249 2.07135C351.184 1.87198 351.677 2.36684 358.523 6.69954ZM94.323 265.25C94.2295 265.27 94.1343 265.285 94.0414 265.305C87.146 266.775 87.4915 273.996 87.7585 275.248C88.2322 277.423 89.5412 279.326 91.4037 280.546C93.2661 281.765 95.5331 282.205 97.7166 281.77C99.1211 281.471 105.764 278.85 104.257 271.778C103.957 270.373 101.395 263.766 94.323 265.25ZM97.2686 279.252C92.1678 280.34 90.4232 275.629 90.2264 274.706C89.8923 273.183 90.177 271.589 91.0178 270.276C91.8585 268.963 93.1866 268.037 94.7097 267.703C94.79 267.685 94.8706 267.669 94.9516 267.655C99.7351 266.635 101.6 271.327 101.792 272.229C102 273.216 102.253 278.189 97.2686 279.252ZM300.572 146.151C300.177 146.258 299.756 146.203 299.401 145.998C299.047 145.794 298.788 145.458 298.682 145.062C298.674 145.034 298.667 145.005 298.66 144.976C298.62 144.771 298.625 144.56 298.675 144.357C298.725 144.154 298.818 143.965 298.949 143.802C299.898 142.532 315.505 134.744 315.833 134.674C316.028 134.623 316.231 134.61 316.43 134.638C316.63 134.665 316.822 134.731 316.995 134.833C317.169 134.934 317.321 135.069 317.443 135.229C317.565 135.389 317.654 135.572 317.705 135.767C317.717 135.815 317.727 135.864 317.735 135.913C317.792 136.171 317.778 136.438 317.694 136.688C317.611 136.938 317.462 137.161 317.262 137.333C316.577 137.983 301.704 145.637 300.572 146.151ZM77.1915 222.716L74.5909 225.064C70.625 223.035 67.0142 220.582 64.1839 216.901C64.7558 216.537 65.3776 216.258 66.0299 216.073C67.1436 215.836 68.1002 216.297 69.1136 217.411C71.358 219.877 74.483 221.336 77.1915 222.716ZM357.893 128.64C357.825 128.442 357.8 128.231 357.82 128.023C357.84 127.815 357.906 127.613 358.011 127.432C358.117 127.251 358.261 127.095 358.432 126.975C358.604 126.855 358.8 126.774 359.006 126.737C359.278 126.671 359.565 126.7 359.819 126.818C360.073 126.936 360.28 127.136 360.406 127.386C361.701 129.639 363.719 130.159 363.971 131.345C364.024 131.686 363.949 132.034 363.76 132.322C363.571 132.61 363.282 132.818 362.949 132.905C361.304 133.255 358.23 130.217 357.893 128.64ZM344.725 111.496C345.154 111.41 345.6 111.486 345.975 111.711C346.351 111.936 346.629 112.293 346.756 112.711C346.793 112.894 346.794 113.082 346.758 113.264C346.723 113.447 346.652 113.62 346.549 113.776C346.446 113.931 346.314 114.064 346.16 114.168C346.006 114.272 345.832 114.345 345.65 114.382L345.629 114.386C345.204 114.477 344.76 114.402 344.388 114.175C344.017 113.948 343.747 113.588 343.634 113.167C343.552 112.81 343.615 112.434 343.81 112.122C344.004 111.811 344.315 111.59 344.673 111.507L344.725 111.496ZM68.7223 77.0539C69.2601 76.7414 69.7702 76.3834 70.247 75.9839C78.084 68.2521 77.4002 68.8422 77.8046 67.7352C79.546 62.9764 83.4331 59.6687 84.9569 59.3438C85.448 59.2612 85.9521 59.3661 86.3694 59.6378C86.7867 59.9094 87.0867 60.328 87.2099 60.8104C87.7882 63.5227 80.1234 69.3112 80.4914 71.0375C80.5099 71.1223 80.5346 71.2056 80.5655 71.2867C80.9857 71.4871 81.4627 71.5344 81.914 71.4205C86.8794 70.3618 102.619 58.7486 104.067 58.4398C104.53 58.3415 105.013 58.4287 105.412 58.6827C105.812 58.9367 106.095 59.3371 106.203 59.798C106.409 60.7653 105.981 61.4545 104.25 65.7426C107.484 63.7917 111.247 59.7504 112.806 59.4181C113.285 59.3089 113.788 59.3945 114.204 59.656C114.62 59.9176 114.915 60.3336 115.024 60.8126C115.032 60.8499 115.04 60.8873 115.046 60.9246C115.118 61.5123 115.129 62.1059 115.077 62.6958C116.249 62.185 135.67 51.9003 139.43 51.0987C139.632 51.0404 139.845 51.0255 140.053 51.0552C140.262 51.0848 140.462 51.1583 140.64 51.2707C140.819 51.3831 140.971 51.532 141.088 51.7075C141.205 51.8831 141.283 52.0813 141.318 52.2892L141.32 52.2982C141.601 53.6202 140.83 54.2228 135.521 56.2394C124.755 60.3234 118.535 65.3988 115.097 66.1318C113.66 66.4383 112.762 65.9143 111.479 64.3413C111.425 64.3858 105.493 69.4639 103.548 69.8786C102.924 70.0116 102.273 69.8956 101.734 69.5554C101.195 69.2152 100.81 68.6777 100.661 68.0577C100.444 67.0401 100.815 66.0131 101.255 64.1389C98.795 65.6867 88.2707 73.3928 82.4657 74.6306C80.7375 74.9991 79.4295 74.6193 77.6818 73.4325C72.7496 78.1247 71.0309 79.9609 68.7436 80.4486C68.3668 80.5485 67.9729 80.5668 67.5884 80.5023C67.2039 80.4378 66.8376 80.292 66.514 80.0746C66.1903 79.8572 65.9168 79.5732 65.7117 79.2416C65.5066 78.9101 65.3747 78.5385 65.3246 78.1519C64.8858 76.0935 65.5242 74.0286 67.0878 68.4805C62.1596 72.2434 55.071 83.4663 48.8088 84.8015C46.0772 85.3839 43.8147 83.9578 43.1924 81.0392C42.0173 75.5282 45.82 65.7975 47.7294 65.3904C48.0816 65.324 48.4458 65.3967 48.7455 65.5933C49.0452 65.7899 49.2569 66.0951 49.3362 66.4446C49.6181 67.7666 45.1489 74.5322 46.3683 80.2514C46.7149 81.8771 47.6322 81.6957 47.9469 81.6286L47.9617 81.6254C53.7435 80.3926 63.905 64.506 68.5273 63.5204C69.0226 63.3744 69.5555 63.4312 70.009 63.6781C70.4624 63.9251 70.7992 64.342 70.9452 64.8372C70.9636 64.8981 70.9788 64.9598 70.9908 65.0224C71.4048 66.964 69.1079 72.1433 68.4133 76.803L68.7223 77.0539ZM432.926 49.2125C432.844 48.8256 432.772 48.4303 432.689 48.0408C430.774 38.3723 435.338 35.02 434.478 30.9871C434.367 30.4667 433.391 27.1536 429.761 27.9277C423.286 29.3083 426.794 36.2053 424.207 36.7571L424.187 36.7614C424.007 36.7997 422.788 37.017 422.455 35.452C422.37 35.0541 421.453 26.3902 429.319 24.7131C435.389 23.4188 437.43 29.1604 437.673 30.2992C438.257 33.0405 436.634 37.5738 436.504 37.9036C433.601 45.2644 438.224 50.5795 434.999 51.2671C433.576 51.5705 433.164 50.3256 432.926 49.2125ZM438.275 56.3981C438.279 56.6258 438.726 58.7453 437.088 59.0944C435.601 59.4116 434.6 57.2243 434.421 56.3873C433.927 54.0696 435.485 53.693 435.685 53.6503L435.701 53.6469C437.688 53.2231 437.987 55.3801 438.275 56.3981ZM213.125 36.4647C216.642 36.8333 222.36 36.6004 223.534 42.1061L223.548 42.1706C223.694 42.8535 224.693 48.3036 218.938 53.6976C219.399 55.1331 220.086 57.1857 220.206 57.7454C220.386 58.5941 220.375 59.775 219.098 60.0473C217.364 60.417 216.906 58.0754 215.903 55.1038C214.878 55.083 213.948 55.1021 213.019 55.0385C207.108 54.6275 204.617 48.1837 204.595 48.0799C204.501 47.6549 204.58 47.2102 204.815 46.8434C205.049 46.4767 205.419 46.2179 205.844 46.1241L205.889 46.1146C208.601 45.5362 208.164 52.4271 214.785 51.7571L210.877 40.1181C208.752 40.0272 201.745 40.8207 200.292 34.0065C199.063 28.2428 205.06 24.0234 205.342 23.7934C204.776 22.044 204.098 20.0237 203.959 19.3692C203.591 17.6455 204.82 17.3087 205.105 17.2478C206.846 16.8765 207.147 18.7763 208.499 22.7624C208.563 22.7662 214.111 22.871 214.492 24.6598C214.573 25.0243 214.508 25.4061 214.311 25.7233C214.114 26.0405 213.801 26.268 213.438 26.3569C212.928 26.4657 212.595 26.3344 209.602 25.7355C210.669 29.5799 211.962 33.0142 213.125 36.4647ZM217.697 50.1242C220.695 47.9984 220.495 43.5577 220.318 42.7259C219.745 40.0394 216.973 40.162 214.251 39.8517L217.697 50.1242ZM203.549 33.4112C203.612 33.7066 204.503 37.6431 209.459 36.5865L209.656 36.5444L206.44 26.9369C205.233 28.1448 202.948 30.5926 203.546 33.4003L203.549 33.4112ZM215.282 15.9947C215.361 16.0082 221.446 16.6416 222 19.2378C222.076 19.5882 222.016 19.9548 221.831 20.2619C221.645 20.5691 221.349 20.7935 221.003 20.8889C220.786 20.9332 220.561 20.9321 220.343 20.8857C220.126 20.8393 219.921 20.7485 219.74 20.619C217.345 18.6479 214.85 19.8185 214.377 17.6027C214.205 16.8243 214.742 16.6405 215.282 15.9947ZM55.823 186.089C55.5707 184.906 55.308 183.724 55.0555 182.54C54.9762 182.168 54.8821 181.762 54.7909 181.334C54.2349 178.726 53.7879 175.365 57.4184 174.591C61.8344 173.65 63.7609 181.973 64.0188 183.183L64.0495 183.327C64.9016 187.557 65.4033 191.851 65.5495 196.164C65.594 197.144 65.4432 200.108 63.2139 200.583C58.4613 201.596 56.9912 190.854 55.7456 186.109L55.823 186.089ZM61.9685 196.257L62.3427 196.241C62.0163 191.325 61.3395 186.439 60.3172 181.619C60.0589 180.15 59.3391 178.801 58.2623 177.768C57.6816 178.431 57.6449 178.439 57.693 178.892C57.7515 179.742 57.8559 180.589 58.0057 181.427C58.0191 181.491 60.9345 193.595 61.9718 196.256L61.9685 196.257ZM65.3854 203.568C65.5178 204.189 65.2594 205.288 63.7446 205.611C62.4498 205.887 61.425 205.407 61.2145 204.419C61.0179 203.497 61.9565 202.256 62.9154 202.051C63.439 201.979 63.9714 202.091 64.4217 202.368C64.8721 202.644 65.2127 203.068 65.3854 203.568Z" fill="#290568"/>
<path d="M448.501 243.821L449.126 243.525C448.858 243.567 448.584 243.543 448.327 243.454L448.501 243.821ZM118.792 129.753C109.622 131.708 99.9778 147.756 102.245 158.388C104.541 169.157 116.418 166.435 117.982 166.325C120.34 165.48 122.748 164.597 125.172 163.76C127.708 162.883 130.581 148.792 128.75 140.204C128.375 138.444 125.822 128.254 118.792 129.753Z" fill="#FAFAFC"/>
<path fill-rule="evenodd" clip-rule="evenodd" d="M445.872 67.0879C445.992 67.0622 446.393 67.0043 447.116 66.8502L447.531 66.7618C448.935 66.4623 450.197 66.138 449.943 64.9476C449.917 64.7971 449.858 64.654 449.772 64.5283C449.685 64.4026 449.572 64.2973 449.44 64.2196C418.028 71.3966 416.152 71.9954 416.163 72.0463C416.165 72.0534 416.202 72.0501 416.203 72.0527C416.192 72.0562 416.181 72.0586 416.169 72.0598C415.989 72.0982 415.828 72.1676 415.67 72.2013C414.316 72.49 413.203 70.1439 403.138 22.9399C402.624 20.5281 403.889 20.0528 405.982 19.6064C406.417 19.5138 406.856 19.435 407.291 19.3423C407.845 19.2241 424.461 15.6172 436.968 12.9201C418.039 -10.6234 365.355 -29.0673 221.514 1.60231C211.329 3.77405 150.087 27.0637 147.364 28.8869C147.614 29.023 147.861 29.1476 148.106 29.2682C149.712 28.8724 150.641 28.6453 150.75 28.6221C152.28 28.2959 152.896 28.6715 153.351 30.3071C153.876 32.1901 163.534 68.8619 163.639 69.3533C163.793 69.8734 163.799 70.4263 163.656 70.9495C163.674 71.0183 163.694 71.0869 163.709 71.1559C163.764 71.4138 164.151 71.7021 164.239 72.1161C164.676 74.1654 157.809 79.2675 67.3256 98.5603C66.9714 98.6419 66.6068 98.669 66.2444 98.6405C67.1414 121.129 67.6417 124.111 66.4851 124.777C66.5199 124.867 66.5467 124.96 66.5652 125.054C66.6183 125.302 66.6221 125.558 66.5763 125.808C66.5305 126.057 66.436 126.295 66.2983 126.508C66.1605 126.721 65.9821 126.905 65.7733 127.049C65.5646 127.193 65.3295 127.294 65.0815 127.347L65.0531 127.353C62.3931 127.92 61.2496 122.519 48.1946 102.81C28.9242 107.961 29.7947 107.997 29.0891 108.779C19.9577 118.864 11.4551 129.501 3.62936 140.63C22.0692 147.19 58.5714 133.897 66.5988 160.912L64.866 161.282C64.8707 161.739 64.716 162.184 64.4285 162.54C64.141 162.896 63.7385 163.14 63.2903 163.232C58.1889 164.319 63.271 147.626 18.8006 148.66C9.94095 148.864 6.10431 147.732 -0.310837 146.295C-29.5824 187.365 -40.1517 234.561 -35.3195 257.224C-34.3282 261.874 -28.4553 285.424 -0.800691 279.528C11.8539 276.829 28.7004 267.383 39.5501 265.07C53.8736 262.016 56.5416 267.822 57.3054 271.404C68.2223 286.378 94.086 327.934 158.771 275.1C225.765 220.379 241.776 276.279 344.724 275.1C475.753 273.6 448.994 157.861 445.872 133.73C443.373 114.424 445.257 78.3109 445.872 67.0879ZM87.7941 270.114C87.6372 270.071 87.4734 270.062 87.3127 270.086C86.3128 270.299 86.2352 272.144 86.1491 274.194C86.1365 274.493 86.1238 274.797 86.1079 275.1C88.4281 284.66 96.155 283.934 97.3744 283.674C98.7899 283.372 99.2853 282.9 99.1379 282.209C99.1173 282.054 99.057 281.906 98.9628 281.78C98.8686 281.655 98.7437 281.555 98.6 281.492C100.851 280.63 105.549 277.839 104.257 271.777C103.957 270.373 101.399 263.765 94.3232 265.25C94.2286 265.265 94.1345 265.285 94.0416 265.305C92.7065 265.534 91.4593 266.123 90.4342 267.009C89.4091 267.894 88.6452 269.043 88.2245 270.331C88.0974 270.23 87.9509 270.156 87.7941 270.114ZM77.0974 225.558C77.3683 225.123 77.4551 224.597 77.3386 224.097L77.3399 224.1C77.2515 223.717 77.0387 223.374 76.7347 223.124L77.1904 222.713C71.1126 219.614 69.7921 218.17 68.9849 217.287C68.5661 216.83 68.2854 216.523 67.5501 216.214C66.883 215.396 66.3047 214.929 65.3374 215.135L65.309 215.141C64.81 215.246 64.373 215.544 64.0941 215.971C63.8152 216.398 63.7172 216.918 63.8216 217.417C64.5257 220.719 73.1385 227.009 75.8636 226.428L75.8938 226.421C76.3935 226.304 76.8264 225.994 77.0974 225.558ZM85.6867 207.791C85.8868 207.748 86.0744 207.72 86.2482 207.693C86.398 207.67 86.5376 207.649 86.666 207.622L86.6673 207.625C88.1112 207.317 88.1203 206.231 85.3717 193.343C84.843 190.864 84.2122 187.947 83.4699 184.515L83.4695 184.513L83.4693 184.512L83.469 184.511L83.4687 184.509L83.4683 184.507L83.4678 184.505L83.4672 184.502L83.4665 184.499C82.4028 179.581 81.1104 173.605 79.5615 166.34C79.0811 164.087 78.1143 164.258 76.5499 164.591L73.352 165.273C66.7089 166.689 49.8503 169.902 42.7518 171.254C40.8588 171.615 39.6599 171.843 39.5339 171.87C39.1256 171.957 38.7453 171.981 38.4021 172.003C38.1197 172.021 37.8623 172.038 37.635 172.086C35.4025 172.562 36.0577 176.125 44.2615 214.601C44.2891 214.731 44.3173 214.862 44.3462 214.996C44.3754 215.131 44.4052 215.269 44.4358 215.41L44.4368 215.414C44.5043 215.726 44.5753 216.054 44.6503 216.406L47.6425 215.768C49.851 215.297 76.0323 209.813 83.6313 208.221C83.7207 208.203 83.8074 208.185 83.8916 208.167C83.9067 208.164 83.9217 208.161 83.9367 208.157C85.0412 207.926 85.6785 207.793 85.6867 207.791ZM184.531 44.8967C188.624 64.0953 205.009 70.5419 219.385 67.4765C233.802 64.4026 246.201 51.7629 242.161 32.826C240.503 25.2414 235.916 18.6187 229.399 14.3995C222.882 10.1802 214.962 8.70591 207.363 10.2975C199.764 11.8891 193.102 16.4177 188.826 22.8976C184.549 29.3776 183.006 37.2843 184.531 44.8967ZM162.555 178.599C164.216 177.536 178.848 166.423 178.923 166.354C179.178 166.165 179.376 165.911 179.496 165.618C179.617 165.325 179.655 165.004 179.607 164.691C179.367 163.561 178.548 163.474 177.626 163.375C177.179 163.328 176.708 163.277 176.267 163.105C163.88 158.279 163.87 158.27 163.039 157.49C162.992 157.446 162.943 157.4 162.889 157.35C162.689 157.137 162.441 156.975 162.165 156.878C161.889 156.781 161.594 156.752 161.305 156.794C159.977 157.077 159.954 157.436 159.36 166.981C159.21 169.391 159.024 172.386 158.771 176.114C158.72 176.635 158.742 177.161 158.834 177.677C159.136 179.094 160.416 178.906 161.848 178.696C162.08 178.662 162.317 178.627 162.555 178.599ZM252.512 124.568L252.538 124.562L252.54 124.562C252.572 124.555 252.583 124.506 252.481 124.064C252.475 124.04 252.468 124.016 252.46 123.991C252.402 123.8 252.306 123.623 252.179 123.469C252.051 123.315 251.895 123.188 251.718 123.094C251.542 123.001 251.348 122.943 251.15 122.924C250.951 122.906 250.75 122.926 250.559 122.985C249.408 123.23 251.826 123.012 241.643 125.183C233.331 126.951 225.019 128.72 216.707 130.493C215.498 130.751 214.436 130.962 213.52 131.157C212.444 131.344 211.39 131.641 210.375 132.044L208.33 132.424C206.702 132.771 206.602 133.305 207.068 135.491C210.108 149.75 212.087 159.32 213.453 165.723C216.112 178.196 216.443 178.66 217.754 178.38C217.874 178.355 217.996 178.324 218.131 178.295C249.531 171.6 251.204 170.59 250.925 169.285C250.889 169.115 250.82 168.942 250.779 168.748C250.607 168.064 250.229 167.45 249.695 166.99C249.729 166.791 249.725 166.587 249.682 166.39C249.372 164.934 247.917 165.103 247.333 165.227C247.202 165.255 247.113 165.282 247.094 165.286C246.164 165.484 230 169.582 225.202 170.791C227.758 166.93 232.32 159.164 236.885 152.29C253.951 162.296 256.245 164.094 256.912 163.952C257.031 163.925 257.144 163.873 257.243 163.801C257.398 163.687 257.51 163.526 257.563 163.342C257.615 163.158 257.605 162.961 257.534 162.783L257.438 162.332C257.607 162.341 257.777 162.328 257.943 162.292C259.741 161.908 259.479 160.012 259.35 159.406C259.327 159.298 259.308 159.231 259.306 159.221L259.224 158.834C252.13 125.565 252.339 124.605 252.512 124.568ZM378.2 97.0863C378.462 96.8795 378.677 96.6199 378.832 96.3244C381.315 92.1017 383.317 88.7051 384.929 85.9699C384.967 85.9053 385.005 85.8411 385.043 85.7773C385.046 85.7718 385.049 85.7662 385.052 85.7607C385.055 85.756 385.058 85.7514 385.061 85.7467C391.181 75.3614 391.572 74.698 391.5 74.3541C391.499 74.3508 391.498 74.3475 391.498 74.3441C391.497 74.3411 391.496 74.338 391.495 74.335C391.494 74.3308 391.493 74.3266 391.492 74.3224C391.49 74.3169 391.489 74.3115 391.487 74.3059C391.485 74.2984 391.482 74.2908 391.48 74.283C391.471 74.2557 391.462 74.2267 391.455 74.1926C391.383 73.9452 391.223 73.7322 391.007 73.5929C390.79 73.4536 390.53 73.3975 390.275 73.4348C390.233 73.4514 390.194 73.4773 390.163 73.5106C390.032 73.1587 389.778 72.8654 389.45 72.6838C389.121 72.5021 388.738 72.4442 388.37 72.5204C387.415 72.7238 386.05 75.1798 383.578 79.6266C381.874 82.6928 379.643 86.7056 376.658 91.5793C374.512 90.027 371.708 87.4907 368.998 85.0388C364.966 81.3906 361.14 77.9292 359.993 78.1737C359.581 78.2631 359.221 78.5119 358.992 78.8657C358.763 79.2194 358.683 79.6495 358.77 80.0619C358.819 80.1632 358.884 80.2557 358.963 80.3356C358.914 80.3316 358.865 80.3341 358.817 80.3432C358.586 80.3987 358.384 80.5373 358.25 80.7325C358.115 80.9276 358.057 81.1657 358.087 81.4009C358.249 81.8696 358.55 82.2777 358.95 82.5706C362.13 85.3654 364.716 87.6482 366.825 89.5109C366.842 89.5256 366.858 89.5402 366.875 89.5549L366.876 89.5557C366.886 89.5644 366.895 89.573 366.905 89.5817L366.91 89.5855C375.959 97.5764 376.175 97.7673 377.158 97.5577L377.313 97.5246C377.637 97.4424 377.939 97.2931 378.2 97.0863ZM300.266 146.724C300.339 147.064 300.516 147.412 301.198 147.267C301.389 147.226 319.289 138.692 319.062 137.637C318.979 137.245 318.638 137.11 318.356 136.999C318.273 136.966 318.195 136.935 318.13 136.9C318.11 136.908 317.801 137.058 317.281 137.311C317.474 137.139 317.617 136.919 317.697 136.674C317.777 136.428 317.79 136.165 317.735 135.913C317.727 135.864 317.717 135.815 317.704 135.767C317.653 135.572 317.564 135.389 317.442 135.229C317.321 135.069 317.169 134.934 316.995 134.833C316.821 134.731 316.629 134.665 316.43 134.638C316.23 134.61 316.028 134.623 315.833 134.674C315.504 134.744 299.898 142.532 298.949 143.802C298.818 143.965 298.724 144.154 298.674 144.357C298.624 144.56 298.62 144.771 298.66 144.976L298.665 145.002C298.756 145.398 299.001 145.742 299.345 145.958C299.689 146.174 300.105 146.245 300.502 146.154C300.304 146.311 300.195 146.43 300.209 146.497C300.224 146.565 300.248 146.638 300.266 146.724ZM337.108 109.564C337.029 109.478 336.932 109.41 336.824 109.365C337.129 109.228 337.382 108.995 337.544 108.703C337.706 108.41 337.769 108.073 337.723 107.742C337.711 107.682 289.552 49.7246 287.56 50.1493L287.344 50.1954C286.074 50.4661 285.715 51.1865 289.897 75.1346C290.222 76.9916 285.807 81.0005 281.554 84.8632C277.574 88.4768 273.736 91.9623 274.051 93.4382C274.08 93.5724 274.123 93.7032 274.179 93.8289C274.181 94.0074 274.2 94.1853 274.236 94.3601C274.315 94.7309 277.072 95.6195 281.372 96.7925C277.733 95.9875 275.245 95.4616 275.077 95.4974C274.731 95.5711 274.251 96.0484 274.312 96.3347C274.557 97.4826 336.574 110.903 336.683 110.879C337.299 110.748 337.325 110.07 337.281 109.864C337.246 109.752 337.187 109.65 337.108 109.564ZM322.94 32.9733C322.966 32.8386 322.965 32.7001 322.937 32.5658C322.916 32.4808 322.88 32.4005 322.829 32.3292C323.014 32.028 323.072 31.6658 322.991 31.322C322.911 30.9483 322.745 30.6979 322.495 30.3221C321.99 29.5637 321.147 28.2949 319.992 24.4719C318.945 21.0001 315.397 20.2949 313.045 20.7964C311.65 21.0939 309.943 22.116 308.366 23.0595C307.015 23.8684 305.76 24.6197 304.881 24.8071C303.109 25.185 302.567 23.3677 302.107 21.829C302.031 21.572 301.956 21.3227 301.879 21.0927L301.958 21.0657C301.932 20.9433 301.907 20.8204 301.883 20.6974C301.858 20.5742 301.833 20.451 301.807 20.3281C301.557 19.1577 300.415 15.2989 295.716 16.3008C293.8 16.7094 291.867 17.8253 289.998 18.9044C288.249 19.9147 286.555 20.8928 284.982 21.2282C283.054 21.6392 281.895 20.2647 280.648 18.7857C279.195 17.0636 277.623 15.2 274.58 15.8489C269.548 16.9219 265.024 22.7478 265.415 24.5792C265.495 24.8799 265.67 25.1471 265.912 25.342C266.155 25.537 266.453 25.6495 266.764 25.6634C266.769 25.742 266.779 25.8203 266.795 25.8976L266.798 25.9124C266.824 26.0336 267.017 26.7894 268.039 26.5713C268.438 26.4956 268.815 26.3344 269.145 26.0989C269.476 25.8633 269.751 25.559 269.952 25.2068C269.391 24.932 268.799 24.7273 268.188 24.5973C268.342 24.3934 268.504 24.168 268.676 23.9278C269.892 22.232 271.633 19.8035 275.028 19.0798C276.432 18.7804 277.42 19.9499 278.553 21.2889C279.907 22.8913 281.468 24.7364 284.19 24.5967C284.607 24.5861 285.022 24.5351 285.429 24.4445C287.53 23.9965 289.361 23.0568 291.028 22.2016C292.42 21.4871 293.697 20.8316 294.922 20.5704C296.717 20.1878 297.684 20.8768 298.767 21.8453L298.798 21.9891C300.308 29.0728 304.726 28.1867 305.573 28.0061L305.61 27.9983C305.701 27.9789 305.794 27.951 305.886 27.9259C305.893 27.9247 305.899 27.9238 305.905 27.9231C305.909 27.9225 305.913 27.9221 305.918 27.9216L305.919 27.9214C305.93 27.9202 305.941 27.9189 305.952 27.9166C306.869 27.721 308.191 27.1964 309.48 26.685C310.705 26.1989 311.9 25.7247 312.688 25.5566C313.499 25.4009 314.333 25.4295 315.131 25.6402C315.929 25.8509 316.669 26.2384 317.296 26.7739C317.597 28.0298 318.048 29.2449 318.64 30.393C318.42 30.5448 318.171 30.6478 317.908 30.6953C317.883 30.7006 317.863 30.7047 317.845 30.7082C317.822 30.7126 317.803 30.716 317.783 30.7195C317.742 30.727 317.697 30.735 317.608 30.7538L317.286 30.8226C319.244 34.3159 322.004 33.8253 322.122 33.8001L322.125 33.7994C322.259 33.7718 322.387 33.7179 322.5 33.6409C322.614 33.564 322.711 33.4654 322.786 33.3508C322.862 33.2363 322.914 33.108 322.94 32.9733ZM344.012 115.127C344.613 115.476 345.32 115.599 346.004 115.474C346.308 115.409 347.752 114.879 347.458 113.505C347.44 113.286 347.357 113.077 347.221 112.904C347.085 112.732 346.902 112.602 346.693 112.532C346.532 112.161 346.249 111.857 345.891 111.668C345.533 111.48 345.121 111.419 344.724 111.495C344.464 111.55 344.223 111.676 344.031 111.86C343.865 111.799 343.684 111.791 343.513 111.835C342.734 112.001 342.62 113.093 342.722 113.569C342.953 114.226 343.41 114.778 344.012 115.127ZM362.55 133.732C362.55 133.732 362.556 133.731 362.562 133.73C362.705 133.698 363.922 133.426 363.744 132.337C363.947 132.049 364.029 131.692 363.971 131.345C363.851 130.783 363.336 130.371 362.689 129.853C361.97 129.277 361.087 128.572 360.406 127.386C360.28 127.136 360.073 126.935 359.819 126.818C359.564 126.7 359.278 126.671 359.005 126.737C358.751 126.787 358.513 126.9 358.315 127.067C358.166 127.021 358.007 127.018 357.856 127.056L357.852 127.057C357.77 127.074 356.639 127.338 357.05 129.266C357.215 130.04 358.584 133.698 362.55 133.732ZM340.421 9.67114C340.507 9.65286 340.609 9.63979 340.712 9.62672C340.841 9.27195 341.085 8.97066 341.406 8.77088C343.108 -4.06421 349.302 -7.57062 356.343 -9.07192C366.814 -11.3046 375.687 -3.22402 377.553 5.52989C378.702 10.9151 376.798 18.0836 373.954 21.5909C372.794 24.2025 365.903 26.883 365.234 27.1434C365.202 27.1558 365.184 27.1627 365.182 27.1639L369.372 46.8158C376.092 78.3331 376.381 80.1315 375.134 80.3975C375.059 80.4134 374.978 80.424 374.893 80.4352C374.798 80.4476 374.698 80.4608 374.593 80.4831C374.349 80.554 374.09 80.5534 373.847 80.4814C373.604 80.4093 373.386 80.2689 373.22 80.0767C373.191 80.262 373.103 80.4328 372.968 80.5637C372.834 80.6946 372.661 80.7784 372.475 80.8026C371.534 81.0033 371.306 80.2428 371.148 79.5032L371.077 79.1704L360.627 30.1305L360.433 29.2213C346.679 29.2988 341.296 18.9863 339.865 12.2734C339.48 10.45 339.44 9.88053 340.421 9.67114Z" fill="#EBCFE4"/>
<path d="M3.62936 140.63C11.4551 129.501 19.9577 118.864 29.0891 108.779L18.8006 67.8008L-29 107.742L3.62936 140.63Z" fill="#EBCFE4"/>
<path d="M82.6092 199.143C81.9559 198.634 81.5131 198.429 81.1197 198.513C80.3362 198.68 79.8552 199.854 80.0475 200.756C80.0907 201.019 80.2284 201.256 80.4346 201.424C81.3306 202.088 81.3248 202.608 82.2454 205.035L84.1483 204.629L83.0401 199.254C83.0117 199.266 82.9883 199.28 82.9569 199.291C82.8344 199.259 82.7173 199.209 82.6092 199.143ZM41.5473 183.671C41.6639 183.848 41.8327 183.984 42.0302 184.06C42.2277 184.136 42.4441 184.149 42.6491 184.096C44.0988 183.787 43.525 182.494 42.1056 174.793C42.1711 174.765 42.2298 174.743 42.2915 174.717L39.8976 175.188C40.4533 178.022 41.0032 180.85 41.5473 183.671ZM162.168 174.92C162.332 174.794 162.492 174.675 162.656 174.55C162.498 174.491 162.346 174.419 162.201 174.335C162.191 174.531 162.177 174.721 162.168 174.92ZM274.289 228.788C274.156 228.701 274.013 228.602 273.851 228.485L275.594 228.7C275.639 228.69 275.693 228.685 275.735 228.676C276.801 228.472 277.804 228.021 278.664 227.359C279.524 226.696 280.217 225.842 280.687 224.864C281.157 223.885 281.391 222.81 281.37 221.725C281.349 220.64 281.075 219.575 280.568 218.615C280.541 218.621 280.509 218.621 280.483 218.627C277.821 219.194 280.19 223.08 277.879 223.948C277.508 224.087 277.251 224.528 276.962 224.812C275.929 224.393 275.429 224.191 274.889 224.306C274.122 224.591 273.413 225.012 272.794 225.547C268.95 224.874 270.083 222.14 268.435 222.492C267.988 222.628 267.573 222.851 267.214 223.149L267.229 223.222C268.191 227.743 271.947 228.748 274.289 228.788ZM235.185 145.887L245.789 129.494C242.867 130.097 235.719 131.604 217.397 135.51L235.185 145.887ZM213.75 138.375C215.743 148.67 217.735 158.964 219.71 169.174L232.5 149.593C227.552 146.74 217.707 141.012 213.75 138.375ZM376.688 95.3712L377.009 95.6453C377.02 95.622 377.075 95.522 377.161 95.3669C377.11 95.3956 377.057 95.4188 377.001 95.436C376.893 95.4401 376.786 95.4179 376.688 95.3712ZM347.447 196.049C346.834 195.666 346.221 195.292 345.613 194.931C346.202 195.339 346.814 195.712 347.447 196.049Z" fill="#FAFAFC"/>
<path d="M345.756 193.387C345.941 194.252 346.994 194.5 347.487 194.394C347.821 194.325 348.115 194.127 348.305 193.843C348.494 193.559 348.564 193.211 348.499 192.876L348.495 192.858C348.409 192.52 348.194 192.229 347.894 192.051C347.595 191.872 347.237 191.819 346.899 191.905C346.614 191.965 345.55 192.419 345.756 193.387Z" fill="#290568"/>
<path fill-rule="evenodd" clip-rule="evenodd" d="M344.296 198.103C345.784 198.285 373.292 200.113 374.057 199.95C374.339 199.89 374.492 199.814 374.633 199.745C374.753 199.685 374.864 199.63 375.041 199.593C376.05 199.378 376.825 200.283 377.002 201.112C377.062 201.343 377.071 201.586 377.028 201.821C376.986 202.057 376.893 202.281 376.757 202.478C376.62 202.674 376.442 202.839 376.236 202.961C376.03 203.083 375.799 203.158 375.561 203.183C374.611 203.385 366.184 202.83 357.822 202.278C349.586 201.735 341.413 201.196 340.506 201.39C340.091 201.478 339.018 202.162 337.343 203.23C331.364 207.042 317.71 215.747 298.86 219.766C280.746 223.628 279.223 217.895 278.914 216.444L278.886 216.315C277.341 209.066 288.431 201.721 301.107 199.018C311.351 196.834 326.028 197.458 333.851 197.791C336.693 197.912 338.631 197.994 339.122 197.89C339.768 197.752 340.714 196.999 341.632 196.268C342.501 195.576 343.345 194.904 343.891 194.788C344.073 194.75 344.261 194.749 344.443 194.784C344.626 194.819 344.8 194.89 344.955 194.992C345.11 195.094 345.244 195.226 345.348 195.38C345.453 195.534 345.526 195.707 345.563 195.889L345.564 195.891C345.722 196.633 345.184 197.185 344.622 197.762C344.512 197.874 344.402 197.987 344.296 198.103ZM334.226 200.98L334.28 201.361C327.707 205.68 313.525 213.308 298.026 216.611C293.353 217.607 282.845 219.124 282.084 215.555C281.406 212.372 287.183 205.335 301.934 202.19C309.846 200.503 317.721 200.661 328.24 200.871C330.144 200.91 332.134 200.949 334.226 200.98Z" fill="#290568"/>
</svg>
