<svg width="344" height="176" viewBox="0 0 344 176" fill="none" xmlns="http://www.w3.org/2000/svg">
<mask id="mask0_1772_35666" style="mask-type:alpha" maskUnits="userSpaceOnUse" x="0" y="0" width="344" height="176">
<rect width="344" height="176" rx="32" fill="#D9D9D9"/>
</mask>
<g mask="url(#mask0_1772_35666)">
<rect width="344" height="176" rx="20" fill="#E0F4E7"/>
<path d="M348.511 112.605C349.21 114.93 349.836 116.284 349.956 116.682C349.976 116.811 353.251 126.653 353.255 126.784C352.215 126.177 350.147 123.519 347.822 120.104C343.357 113.547 337.946 104.199 337.053 101.232C336.385 99.0116 337.01 96.8484 335.751 92.6645C335.052 90.2864 333.851 88.0859 332.229 86.2112C330.425 84.1309 329.817 82.9452 328.687 83.2852C327.451 83.6569 327.686 85.009 327.71 85.4122C325.061 86.3711 324.831 91.9286 325.936 95.6023C326.65 97.91 327.899 100.016 329.582 101.749C333.548 103.998 334.265 114.61 347.892 123.265C349.225 124.112 350.682 124.94 352.278 125.74C352.509 125.829 352.716 125.969 352.886 126.15C353.055 126.331 353.181 126.548 353.255 126.784C353.638 128.059 355.554 140.61 358.295 149.723C362.89 164.998 369.918 176.53 377.521 189.756C373.771 190.525 361.535 192.099 360.59 192.383C357.288 193.377 356.153 197.008 352.224 198.19C350.198 198.799 348.356 198.595 345.24 198.557C346.121 192.646 347.642 189.404 345.639 182.748C343.188 174.6 335.309 170.823 333.649 165.306C333.646 165.293 333.642 165.281 333.638 165.269C333.137 163.518 335.505 160.617 335.9 158.843C336.42 159.031 336.988 159.046 337.517 158.885C340.006 158.136 351.237 147.054 346.756 132.16C345.597 128.307 344.315 125.613 341.792 126.373C341.655 126.415 341.522 126.469 341.394 126.535C341.109 126.393 340.782 126.362 340.475 126.448C340.429 126.462 340.384 126.479 340.34 126.499C333.845 128.453 333.111 138.172 332.512 139.137C330.448 134.775 328.407 131.446 328.094 130.405C327.479 128.359 328.673 126.428 327.379 122.129C325.899 117.208 322.198 114.089 319.778 114.817C317.518 115.497 318.057 118.921 318.74 121.19C319.35 123.487 320.401 125.643 321.835 127.538C321.95 127.927 322.145 128.288 322.407 128.598C322.668 128.909 322.991 129.161 323.355 129.34C323.376 129.364 323.397 129.387 323.417 129.41C326.099 132.44 329.418 136.19 333.718 150.487C335.396 156.064 331.457 157.966 333.638 165.269C333.642 165.281 333.646 165.293 333.649 165.306C335.485 171.407 340.712 175.705 342.977 183.235C344.251 187.468 343.841 189.832 343.795 191.632L343.515 191.676C343.411 191.557 343.323 191.424 343.255 191.282C338.261 175.531 319.261 163.633 314.552 165.049C312.171 165.765 313.34 171.749 313.885 173.558C316.26 181.454 323.812 188.498 325.378 190.119C321.687 197.943 319.063 206.121 316.878 214.744C316.074 213.324 311.653 202.514 311.636 202.459C311.033 200.453 313.468 197.568 311.955 192.538C311.475 190.98 310.579 189.583 309.362 188.497C304.41 183.933 302.35 185.719 300.623 183.427C291.462 171.272 291.696 172.058 291.42 171.141C291.04 169.877 292.097 168.013 291.271 165.267C289.669 159.944 293.518 187.887 293.028 187.64C293.082 186.851 294.985 182.253 292.991 175.622C291.929 172.094 288.646 167.418 287.34 167.811C287.048 167.899 281.66 170.15 286.269 185.469C286.349 185.737 286.45 186.052 286.586 186.502C286.061 186.15 285.806 185.999 285.577 185.818C277.446 179.389 277.33 177.183 276.922 175.943C272.499 162.49 277.665 221.032 277.134 221.192C275.815 221.589 275.523 224.788 275.115 224.91C274.833 224.995 274.59 224.862 273.932 224.513C274.73 221.352 274.229 218.274 273.421 215.588C270.431 205.648 258.498 200.859 257.296 201.221C257.134 201.272 256.989 201.363 256.874 201.486C255.796 202.587 255.995 203.504 256.613 205.558L256.851 206.35C258.751 212.664 227.996 181.665 232.253 187.639C218.741 185.324 230.451 223.444 223.005 225.684C220.945 226.304 234.712 200.363 233.102 200.847L223.257 209.61C222.234 209.918 232.492 201.031 221.892 200.753C221.855 199.926 221.747 199.104 221.567 198.296C221.446 197.77 221.157 197.298 220.743 196.951C220.329 196.604 219.814 196.401 219.275 196.373C217.61 196.201 215.927 196.345 214.314 196.795C209.839 198.141 209.324 201.472 208.084 201.845L208.051 201.855C207.976 201.877 207.648 201.913 199.835 203.138C200.055 202.828 200.291 202.529 200.542 202.243C204.591 198.146 205.811 191.316 205.521 190.351C205.448 190.047 205.257 189.785 204.991 189.622C204.725 189.459 204.405 189.408 204.101 189.481L204.063 189.491C204.008 189.507 191.292 194.594 189.798 205.084C186.409 203.779 183.988 202.435 180.612 203.45C179.312 203.862 178.107 204.532 177.07 205.419C172.957 208.823 175.504 210.733 172.881 212.079C167.573 214.802 161.627 218.08 160.798 218.329C159.383 218.755 157.988 218.314 155.001 219.213C153.733 219.591 152.529 220.157 151.429 220.893C145.873 224.617 147.559 227.525 145.728 229.213C136.862 237.388 136.665 237.716 133.959 238.658C118.348 244.087 107.89 233.176 108.287 234.498C108.705 235.887 109.676 237.03 109.957 237.962L109.998 238.099C110.159 238.634 110.014 238.681 106.999 243.271C106.788 241.52 106.448 239.788 105.98 238.089C105.137 235.341 103.81 232.767 102.059 230.487C101.392 229.605 100.943 229.148 99.837 229.481C99.4441 229.585 99.0888 229.798 98.812 230.095C98.5352 230.393 98.3484 230.762 98.2732 231.162C98.001 232.398 96.3998 238.499 98.4147 245.197C99.6879 249.429 101.528 251.27 101.756 252.029C101.808 252.201 101.818 252.382 101.786 252.558C101.753 252.734 101.679 252.9 101.57 253.041C101.16 253.65 101.198 254.772 99.4377 255.301C99.1307 255.393 99.0162 255.399 98.6327 255.514C97.9784 255.711 82.8795 222.678 84.6294 228.495C90.8993 249.337 83.1724 228.416 83.3763 229.094C83.6964 230.158 83.3709 229.924 81.4323 236.269C80.6372 238.876 66.3566 219.217 69.1398 228.469C69.985 231.279 71.5985 231.755 71.8293 232.522C71.8527 232.6 71.8699 232.645 71.8811 232.682C71.9931 233.054 71.439 232.63 69.5448 257.827C63.9083 254.774 67.6446 251.862 58.3164 244.565C60.0696 242.7 62.5202 238.367 60.3733 231.23C58.1497 223.838 51.1701 217.762 48.4435 218.247C47.1821 217.16 46.1638 216.564 45.7218 216.697C45.2412 216.867 44.8262 217.183 44.5355 217.602C44.2449 218.02 44.0933 218.52 44.1022 219.029C44.1254 223.038 44.72 227.023 45.868 230.865C47.313 235.668 48.8578 237.819 49.315 239.119C41.0732 237.445 40.9489 237.748 38.2382 235.467C37.8154 233.016 32.8739 213.226 32.8561 213.167L32.855 213.164C32.8058 213 32.0378 210.485 29.5518 211.233C29.4676 211.258 29.3913 211.286 29.3137 211.315C29.1543 211.153 28.9507 211.041 28.7282 210.993C28.5057 210.946 28.2741 210.965 28.0623 211.048C25.8874 211.703 28.2828 215.297 29.8672 224.481C26.2249 220.826 27.0646 221.086 19.9249 216.478C21.6333 213.994 22.6505 208.696 22.3713 203.974C22.0735 198.942 42.3207 190.721 40.4882 156.106C39.646 140.165 23.9964 92.2758 91.5738 71.9468C137.425 58.1536 182.496 74.4866 220.713 62.9899C225.873 61.4377 244.718 54.3629 247.469 53.5356C305.851 35.9728 349.615 78.3666 363.957 143.401C351.661 154.016 348.387 135.969 347.892 123.265C347.849 122.164 347.827 121.103 347.822 120.104C347.796 115.039 348.202 111.576 348.511 112.605ZM64.3898 186.532C63.7638 186.737 63.242 187.178 62.9343 187.76C62.6266 188.343 62.5571 189.022 62.7405 189.654C62.9749 190.322 63.4538 190.876 64.0806 191.205C64.7075 191.535 65.4358 191.614 66.1193 191.429C66.4284 191.336 66.7162 191.183 66.9662 190.979C67.2162 190.775 67.4236 190.524 67.5765 190.239C67.7294 189.955 67.8248 189.644 67.8572 189.323C67.8897 189.002 67.8586 188.678 67.7656 188.369L67.7579 188.343C67.5321 187.67 67.0585 187.108 66.4331 186.772C65.8077 186.435 65.0776 186.349 64.391 186.532L64.3898 186.532ZM58.2136 127.14C57.6897 126.922 57.1066 126.891 56.5624 127.052C55.9435 127.253 55.4261 127.685 55.1187 128.258C54.8112 128.832 54.7376 129.501 54.9131 130.128C55.2967 131.403 55.4429 131.2 67.018 138.602C67.3216 138.844 67.6741 139.017 68.0511 139.11C68.4281 139.203 68.8208 139.213 69.2022 139.14C69.5279 139.055 69.8337 138.906 70.102 138.703C70.3703 138.499 70.596 138.245 70.766 137.954C70.936 137.663 71.0471 137.342 71.0929 137.009C71.1387 136.675 71.1183 136.336 71.0329 136.01L71.0254 135.983C70.538 134.363 58.2813 127.168 58.2136 127.14ZM103.454 100.564C102.734 100.803 102.128 101.3 101.752 101.959C101.376 102.618 101.258 103.393 101.42 104.134C101.511 104.445 101.664 104.736 101.868 104.989C102.072 105.242 102.324 105.452 102.61 105.608C102.895 105.763 103.208 105.861 103.532 105.895C103.855 105.93 104.182 105.9 104.494 105.809L104.502 105.806C105.12 105.62 107.255 104.387 106.621 102.281C106.421 101.639 105.978 101.1 105.386 100.78C104.795 100.459 104.102 100.381 103.454 100.564ZM200.916 93.8025C198.188 94.623 198.651 96.7446 198.769 97.1361C199.278 98.8266 201.129 99.1955 202.407 98.811C203.761 98.4037 204.952 96.8845 204.495 95.3675C204.337 94.8393 203.554 93.0102 200.916 93.8038L200.916 93.8025ZM259.59 93.7507C257.655 94.346 258.03 94.4205 255.143 109.943C254.971 110.599 254.958 111.286 255.105 111.947C255.298 112.565 255.727 113.081 256.299 113.385C256.87 113.689 257.538 113.755 258.159 113.57C260.021 113.01 259.692 112.778 262.657 96.9108C262.769 96.4213 262.757 95.9117 262.624 95.4277C262.439 94.8064 262.018 94.2825 261.45 93.969C260.883 93.6556 260.214 93.5776 259.59 93.752L259.59 93.7507ZM293.248 92.3416C292.522 92.5852 291.911 93.0874 291.533 93.7523C291.154 94.4172 291.033 95.1982 291.194 95.9461C291.743 97.7734 293.421 97.8952 294.621 97.5339C295.197 97.3607 297.266 96.5066 296.606 94.3129C296.406 93.6162 295.946 93.023 295.321 92.6563C294.696 92.2895 293.953 92.1773 293.247 92.3429L293.248 92.3416ZM388.441 253.08L388.39 252.913C386.217 245.687 385.506 246.488 385.383 246.08C385.378 246.062 385.365 245.998 385.333 245.893C384.883 244.397 383.666 244.541 382.441 244.63C378.131 244.941 373.867 245.726 369.729 246.971C366.043 248.107 362.463 249.557 359.026 251.306C358.886 251.109 358.78 250.89 358.712 250.658L358.709 250.649C358.584 250.233 358.68 250.552 358.479 248.875C358.615 248.86 358.748 248.835 358.88 248.799C361.445 248.027 376.69 229.669 370.497 209.083C369.263 204.981 367.145 201.278 366.325 200.321C366 199.928 365.567 199.638 365.079 199.487C364.591 199.337 364.07 199.333 363.579 199.475C363.27 199.569 362.981 199.721 362.728 199.922C362.591 199.892 362.448 199.898 362.313 199.938C361.483 200.187 361.327 201.037 359.468 203.59C352.015 213.819 352.741 223.619 352.009 225.021C351.835 224.643 347.748 214.642 346.669 211.055C345.94 208.782 345.424 206.445 345.129 204.075C348.346 204.934 353.598 203.84 354.561 203.551C360.29 201.827 361.098 199.148 364.003 198.274C367.628 197.183 364.154 199.876 381.023 195.6C395.427 217.035 398.286 224.539 400.022 230.31C407.79 256.132 395.433 265.046 388.115 277.224C390.441 268.759 390.679 260.52 388.441 253.08Z" fill="#CFE3D6"/>
<path d="M337.053 101.232C337.946 104.199 343.357 113.547 347.822 120.104C347.827 121.103 347.849 122.164 347.892 123.265C334.265 114.61 333.548 103.998 329.582 101.749C327.899 100.016 326.65 97.91 325.936 95.6023C324.831 91.9286 325.061 86.3711 327.71 85.4122C327.686 85.009 327.451 83.6569 328.687 83.2852C329.817 82.9452 330.425 84.1309 332.229 86.2112C333.851 88.0859 335.052 90.2864 335.751 92.6645C337.01 96.8484 336.385 99.0116 337.053 101.232Z" fill="#CFE3D6"/>
<path d="M335.9 158.843C335.505 160.617 333.137 163.518 333.638 165.269C331.457 157.966 335.396 156.064 333.718 150.487C329.418 136.19 326.099 132.44 323.417 129.41L323.355 129.34C322.991 129.161 322.668 128.909 322.407 128.598C322.145 128.288 321.95 127.927 321.835 127.538C320.401 125.643 319.35 123.487 318.74 121.19C318.057 118.921 317.518 115.497 319.778 114.817C322.198 114.089 325.899 117.208 327.379 122.129C328.673 126.428 327.479 128.359 328.094 130.405C328.407 131.446 330.448 134.775 332.512 139.137C333.111 138.172 333.845 128.453 340.34 126.499C340.384 126.479 340.429 126.462 340.475 126.448C340.782 126.362 341.109 126.393 341.394 126.535C341.522 126.469 341.655 126.415 341.792 126.373C344.315 125.613 345.597 128.307 346.756 132.16C351.237 147.054 340.006 158.136 337.517 158.885C336.988 159.046 336.42 159.031 335.9 158.843Z" fill="#CFE3D6"/>
<path fill-rule="evenodd" clip-rule="evenodd" d="M231.626 42.2849C231.626 42.2849 237.94 46.8558 236.564 50.4964C235.189 54.1369 230.199 55.9143 213.093 57.6159C195.988 59.3174 168.112 57.1605 168.112 57.1605C168.112 57.1605 147.99 52.4672 143.775 40.199C140.44 34.191 152.659 33.6597 163.392 34.4284C174.125 35.1972 181.103 36.037 181.103 36.037C181.103 36.037 220.842 39.0165 231.626 42.2849Z" fill="#9183BF"/>
<path fill-rule="evenodd" clip-rule="evenodd" d="M188.095 89.1653L179.587 87.3168C179.587 87.3168 170.409 88.4308 165.229 97.9521C160.048 107.473 156.06 121.482 156.06 121.482L170.566 150.617C170.566 150.617 161.799 185.037 161.311 202.275C180.623 219.518 185.603 211.262 197.264 211.869C208.924 212.477 214.864 213.204 222.277 209.076C229.69 204.948 235.145 207.374 239.637 205.675C244.13 203.976 242.135 202.111 247.08 200.37C252.025 198.629 256.873 199.481 261.258 196.568C265.642 193.654 266.72 190.131 265.388 186.001C264.056 181.871 262.467 172.046 258.826 170.088C255.186 168.129 256.4 159.895 255.308 157.472C254.216 155.048 251.296 153.586 250.451 150.915C249.606 148.244 249.976 144.716 247.773 142.048C245.569 139.379 243.76 137.313 242.915 134.277C242.071 131.241 241.559 120.488 241.559 120.488L248.311 123.823C248.311 123.823 263.669 124.268 265.052 104.146C260.904 98.1605 256.115 92.6447 250.772 87.6963C250.772 87.6963 234.415 71.7141 215.008 81.5194C195.601 91.3246 188.095 89.1653 188.095 89.1653Z" fill="#5F369D"/>
<path fill-rule="evenodd" clip-rule="evenodd" d="M143.775 40.1991C143.775 40.1991 142.274 35.6404 152.047 35.7653C158.263 35.8749 164.464 36.4 170.61 37.3371L215.657 40.6765C215.657 40.6765 236.893 42.2777 236.55 50.4965C238.727 44.082 229.48 34.6048 210.129 30.979C209.86 22.7797 208.491 18.9605 205.01 16.5342C201.528 14.108 182.67 12.9892 178.598 15.1559C174.527 17.3226 172.446 28.6213 172.446 28.6213C172.446 28.6213 153.22 28.9126 147.053 33.0428C140.886 37.1731 142.01 39.2663 143.775 40.1991Z" fill="#AC9DDB"/>
<path fill-rule="evenodd" clip-rule="evenodd" d="M177.558 37.6111L170.617 37.3369C170.944 39.5583 170.546 41.8259 169.481 43.8028C167.704 47.0002 163.233 53.9655 167.07 60.6443C170.906 67.3232 180.922 66.7478 183.091 67.6047C185.26 68.4616 205.419 68.2143 205.419 68.2143C205.419 68.2143 214.455 66.6842 216.306 60.9993C218.157 55.3145 214.31 52.401 215.454 49.7006C216.597 47.0002 217.295 44.0158 215.664 40.6763C209.838 39.4693 201.063 38.8818 201.063 38.8818C201.063 38.8818 182.67 46.6085 177.558 37.6111Z" fill="#EDEDF0"/>
<path fill-rule="evenodd" clip-rule="evenodd" d="M208.579 63.6191L210.464 69.6884C210.464 69.6884 214.23 67.2009 219.714 67.7861C225.198 68.3712 228.699 71.1622 232.043 71.0447C235.387 70.9272 251.69 67.5437 253.852 75.3022C256.013 83.0607 250.772 87.6953 250.772 87.6953C250.772 87.6953 239.904 79.6822 222.448 81.0703C204.992 82.4585 204.05 81.511 204.05 81.511L203 64L208.579 63.6191Z" fill="#EDEDF0"/>
<path fill-rule="evenodd" clip-rule="evenodd" d="M107 70.3663L117.961 66.3145L124.914 75.16L137.098 69.529L139.725 74.1097L153.386 67.1567L155.935 75.9434L170.282 73.6127L178.978 111.176L162.151 118.438L157.225 110.28L148.326 113.558L146.957 108.505L135.696 111.776L129.24 104.767L118.098 109.404L107 70.3663Z" fill="#D98BA7"/>
<path fill-rule="evenodd" clip-rule="evenodd" d="M179.587 87.3065C179.587 87.3065 186.768 98.1719 201.575 94.1617C216.381 90.1514 222.225 78.909 222.225 78.909C222.225 78.909 217.936 81.2324 211.681 74.7201C205.426 68.2077 205.071 62.4225 205.193 59.3597C205.315 56.2969 190.709 76.2527 190.709 76.2527C190.709 76.2527 192.617 80.3755 189.566 83.5534C186.516 86.7312 179.587 87.3065 179.587 87.3065ZM156.06 121.482L164.384 122.143C164.384 122.143 162.802 131.735 169.721 137.924C171.302 148.452 170.565 150.611 170.565 150.611C170.565 150.611 162.286 165.616 150.314 165.545C138.342 165.474 131.727 155.554 131.563 138.911C131.399 122.268 132.836 113.518 132.836 113.518L139.537 113.63C139.537 113.63 144.502 138.113 147.787 142.84C150.679 143.57 154.872 126.714 156.06 121.482ZM248.318 123.817C248.318 123.817 264.993 136.923 270.44 144.226C275.888 151.529 289.512 175.436 291.784 189.213C293.904 189.979 296.999 189.161 296.999 189.161C296.999 189.161 297.422 159.17 288.878 138.463C280.334 117.756 265.059 104.141 265.059 104.141C265.059 104.141 263.02 118.392 248.318 123.817Z" fill="#DBB4A8"/>
<path fill-rule="evenodd" clip-rule="evenodd" d="M177.557 37.6106C177.557 37.6106 177.237 39.5692 175.714 42.2501C174.191 44.9309 172.852 47.2715 173.807 50.6378C174.762 54.0042 174.696 62.3894 178.764 68.3044C182.833 74.2194 188.232 75.3579 188.232 75.3579C188.232 75.3579 190.232 77.0472 195.361 75.9822C202.461 74.6601 205.426 68.2138 205.426 68.2138C205.426 68.2138 204.936 61.8214 205.323 56.2933C205.71 50.7651 202.781 42.632 201.07 38.8813C188.932 36.5261 177.557 37.6106 177.557 37.6106Z" fill="#E4BEB2"/>
<path d="M185.931 67.111C185.344 67.111 184.975 67.0509 184.926 67.0401C184.627 66.9913 184.431 66.7087 184.48 66.4097C184.529 66.1107 184.811 65.9201 185.11 65.9581C185.274 65.9853 189.019 66.5618 192.313 63.2675C192.525 63.0554 192.873 63.0554 193.085 63.2675C193.297 63.4792 193.297 63.827 193.085 64.0392C190.41 66.7139 187.448 67.111 185.931 67.111Z" fill="#290568"/>
<path fill-rule="evenodd" clip-rule="evenodd" d="M191.408 50.6241C191.408 50.3439 191.492 50.0702 191.648 49.8375C191.804 49.6047 192.025 49.4234 192.284 49.3164C192.543 49.2094 192.828 49.1816 193.102 49.2363C193.377 49.2911 193.629 49.4261 193.828 49.6242C194.026 49.8223 194.161 50.0746 194.215 50.3494C194.27 50.6241 194.242 50.9089 194.135 51.1679C194.028 51.4268 193.847 51.6482 193.614 51.8041C193.382 51.9601 193.108 52.0436 192.828 52.0441C192.641 52.0444 192.456 52.0079 192.284 51.9366C192.111 51.8654 191.955 51.7608 191.823 51.6289C191.691 51.497 191.586 51.3403 191.515 51.1679C191.444 50.9954 191.407 50.8106 191.408 50.6241ZM178.606 52.4945C178.606 52.2137 178.689 51.9392 178.845 51.7056C179.001 51.4721 179.223 51.2901 179.483 51.1826C179.742 51.0752 180.027 51.0471 180.303 51.1018C180.578 51.1566 180.831 51.2919 181.03 51.4905C181.229 51.689 181.364 51.9421 181.419 52.2175C181.473 52.493 181.445 52.7785 181.338 53.038C181.23 53.2974 181.048 53.5192 180.815 53.6752C180.581 53.8313 180.307 53.9145 180.026 53.9145C179.649 53.9145 179.288 53.7649 179.022 53.4986C178.756 53.2323 178.606 52.8712 178.606 52.4945Z" fill="#290568"/>
<path d="M189.297 46.6102C189.26 46.6097 189.223 46.6056 189.187 46.5979C189.061 46.5682 188.953 46.49 188.884 46.3805C188.816 46.2709 188.794 46.1387 188.822 46.0128C188.847 45.8953 189.52 43.1581 192.82 42.7615C196.052 42.3722 198.084 44.8939 198.17 45.0017C198.238 45.1041 198.265 45.2284 198.246 45.35C198.227 45.4716 198.162 45.5814 198.066 45.6577C197.969 45.7339 197.847 45.771 197.724 45.7615C197.602 45.752 197.487 45.6966 197.403 45.6064C197.389 45.5843 195.626 43.4029 192.938 43.731C190.308 44.0468 189.777 46.2111 189.772 46.2307C189.747 46.3382 189.687 46.4342 189.601 46.5031C189.515 46.5719 189.408 46.6097 189.297 46.6102ZM175.453 47.2736C175.418 47.2773 175.382 47.2773 175.347 47.2736C175.221 47.2455 175.111 47.1684 175.041 47.0592C174.971 46.95 174.947 46.8176 174.975 46.691C174.997 46.5979 175.514 44.4141 178.359 44.1105C181.14 43.8118 182.807 46.0103 182.878 46.1034C182.943 46.2074 182.967 46.3322 182.944 46.4529C182.922 46.5736 182.855 46.6814 182.757 46.7551C182.658 46.8287 182.536 46.8627 182.414 46.8504C182.292 46.838 182.179 46.7803 182.097 46.6885C182.041 46.6151 180.677 44.8499 178.461 45.08C176.307 45.3101 175.932 46.8868 175.93 46.9015C175.904 47.0081 175.842 47.1027 175.756 47.1702C175.669 47.2377 175.562 47.2741 175.453 47.2736Z" fill="#EDEDF0"/>
<path d="M184.381 59.1707C184.287 59.1696 184.196 59.1415 184.117 59.0898C184.039 59.038 183.977 58.9648 183.939 58.8788C183.901 58.7929 183.889 58.6979 183.903 58.6051C183.918 58.5123 183.959 58.4256 184.021 58.3555C186.585 55.5424 185.106 49.9163 185.089 49.86C185.071 49.7404 185.098 49.6184 185.165 49.5175C185.231 49.4166 185.333 49.344 185.45 49.3136C185.567 49.2832 185.691 49.2972 185.799 49.3528C185.906 49.4085 185.989 49.502 186.031 49.6152C186.1 49.86 187.662 55.8191 184.741 59.0214C184.695 59.0696 184.639 59.1077 184.577 59.1334C184.515 59.1591 184.448 59.1718 184.381 59.1707Z" fill="#290568"/>
<path d="M210.146 31.4656C210.082 31.4669 210.018 31.4544 209.96 31.4289C194.448 25.0438 172.747 29.054 172.536 29.0957C172.413 29.1108 172.288 29.0786 172.188 29.0054C172.088 28.9323 172.019 28.8237 171.996 28.7017C171.972 28.5797 171.996 28.4534 172.062 28.3483C172.129 28.2433 172.232 28.1674 172.353 28.136C172.573 28.0943 194.553 24.0302 210.329 30.5279C210.431 30.5727 210.515 30.6508 210.566 30.7493C210.618 30.8479 210.634 30.9611 210.613 31.0702C210.591 31.1794 210.533 31.278 210.449 31.3498C210.364 31.4217 210.257 31.4625 210.146 31.4656Z" fill="#9183BF"/>
<path d="M212.404 138.071H212.337C198.476 136.237 195.102 125.776 195.07 125.67C195.045 125.607 195.033 125.54 195.035 125.472C195.037 125.404 195.053 125.338 195.082 125.277C195.112 125.215 195.153 125.161 195.204 125.117C195.256 125.072 195.316 125.039 195.381 125.019C195.445 124.999 195.514 124.993 195.581 125.001C195.648 125.009 195.713 125.031 195.772 125.065C195.83 125.099 195.881 125.145 195.921 125.2C195.961 125.255 195.989 125.318 196.003 125.384C196.035 125.484 199.247 135.356 212.467 137.104C212.597 137.112 212.718 137.172 212.804 137.27C212.89 137.367 212.933 137.495 212.925 137.625C212.917 137.755 212.857 137.876 212.759 137.962C212.661 138.048 212.533 138.091 212.404 138.083V138.071ZM241.567 120.97C241.492 120.969 241.418 120.952 241.351 120.918C241.284 120.884 241.225 120.836 241.18 120.776C237.997 116.595 231.206 109.862 231.142 109.793C231.089 109.75 231.046 109.697 231.015 109.636C230.984 109.575 230.966 109.508 230.962 109.44C230.958 109.372 230.969 109.303 230.993 109.24C231.018 109.176 231.055 109.118 231.103 109.069C231.151 109.021 231.209 108.983 231.272 108.958C231.336 108.933 231.404 108.921 231.472 108.924C231.541 108.927 231.607 108.944 231.669 108.975C231.73 109.005 231.784 109.048 231.828 109.101C231.896 109.169 238.741 115.956 241.958 120.186C242.036 120.289 242.07 120.419 242.052 120.547C242.035 120.675 241.968 120.791 241.865 120.869C241.78 120.935 241.675 120.97 241.567 120.97Z" fill="#8476B1"/>
<path d="M226.684 69.6809C226.684 69.6809 228.755 70.4154 232.846 69.6809C236.937 68.9464 239.483 65.5189 243.079 64.1454C246.676 62.7719 250.267 64.0328 252.094 65.5262C247.78 63.5921 244.073 63.7684 240.922 66.7773C238.396 69.2316 235.297 71.0164 231.906 71.97C229.252 72.7168 226.684 69.6809 226.684 69.6809Z" fill="#EDEDF0"/>
<path fill-rule="evenodd" clip-rule="evenodd" d="M155.935 75.9367L162.144 118.438L157.218 110.281L150.316 68.7119L153.386 67.1475L155.935 75.9367Z" fill="#F6A6C2"/>
<path fill-rule="evenodd" clip-rule="evenodd" d="M139.726 74.1002L146.958 108.508L143.342 109.558L132.861 71.4806L137.099 69.5195L139.726 74.1002Z" fill="#F6A6C2"/>
<path fill-rule="evenodd" clip-rule="evenodd" d="M124.914 75.16L132.861 108.958L127.744 105.389L117.961 66.3145L124.914 75.16Z" fill="#F6A6C2"/>
<path fill-rule="evenodd" clip-rule="evenodd" d="M135.052 117.168L132.849 113.518C131.218 110.798 130.006 107.849 129.252 104.768C128.014 99.6757 127.36 91.2561 128.014 92.1057C128.667 92.9552 129.901 97.9129 129.901 97.9129C129.901 97.9129 129.319 91.19 130.097 91.7776C130.876 92.3652 131.926 97.4576 131.926 97.4576C131.926 97.4576 132.188 91.1264 132.842 92.4949C133.495 93.8635 134.146 98.6327 134.146 98.6327C134.146 98.6327 135.065 93.8023 135.843 95.9568C136.622 98.1112 136.499 103.069 137.344 106.465C138.188 109.86 139.547 113.631 139.547 113.631L135.052 117.168Z" fill="#E4BEB2"/>
</g>
</svg>
