<svg width="200" height="184" viewBox="0 0 200 184" fill="none" xmlns="http://www.w3.org/2000/svg">
<path d="M171.69 72.3523C171.69 63.3518 176.695 52.0274 176.695 41.4689C176.695 20.8168 151.236 10.9169 135.525 10.9169C121.328 10.9169 107.245 17.0668 93.703 17.0668C74.5205 17.0668 69.4201 8.66699 58.4432 8.66699C50.4145 8.66699 18.889 17.0259 18.889 44.8831C18.889 53.2837 21.4894 58.368 21.4894 64.4883C21.4894 74.4253 16.25 85.4742 16.25 97.3922C16.25 109.32 22.8646 121.958 28.1535 125.088C30.2766 109.922 35.2982 110.646 35.2982 94.4731C35.2955 94.1978 35.2754 93.9229 35.238 93.6502C35.238 93.1175 35.64 92.9761 35.9327 92.7963C35.3153 91.3407 34.3944 89.5054 34.3944 86.6554C34.3944 85.0665 34.6538 84.5195 34.6538 84.1508C34.6538 83.5065 29.7187 77.2882 29.7187 72.7474C29.7187 72.3974 29.8385 69.7049 31.583 69.7049C33.7227 69.7049 36.3794 75.8671 37.2705 76.4326C36.0679 70.1625 35.2906 67.766 35.2906 65.3853C35.2906 63.1749 35.8307 61.7401 36.9131 61.7401C40.0997 61.7401 43.4248 75.2765 44.223 76.2481C43.5502 69.251 43.5644 69.4397 43.5644 66.5054C43.5644 62.1339 43.9653 59.5156 46.1691 59.5156C49.8599 59.5156 50.3361 76.3327 50.6998 76.7661C50.7944 76.4604 51.7466 70.61 54.3937 70.61C56.1225 70.61 56.4229 72.8896 56.4229 74.9931C56.4229 84.3997 51.996 93.4874 51.9878 93.5097C52.5076 93.5489 52.9659 93.5909 53.4252 93.6155C53.6112 93.6194 53.7884 93.6963 53.9188 93.8296C54.0492 93.9629 54.1224 94.1422 54.1229 94.3291C54.1229 94.8511 53.196 96.5328 53.196 99.3686C53.196 115.512 62.189 116.887 66.4856 132.535C83.2514 121.483 93.7584 123.098 93.7584 118.844C93.7584 118.707 93.7495 118.543 93.7495 118.395C93.7495 118.34 93.7495 118.285 93.7537 118.23C93.6083 118.223 93.5072 118.21 93.4154 118.21C93.0685 118.21 84.9019 118.915 84.2249 118.915C82.806 118.915 84.112 118.416 82.0808 92.9996C82.0725 92.8675 82.022 92.7416 81.9367 92.6406C81.8514 92.5396 81.736 92.469 81.6075 92.4392C81.087 92.248 80.6283 91.918 80.2806 91.4845C79.933 91.0511 79.7097 90.5307 79.6347 89.9793C79.6347 89.3755 79.7015 89.1943 79.7015 89.0051C79.7015 88.9772 79.6982 88.8262 79.6982 88.5469C79.6982 82.1368 81.569 77.918 81.569 76.8687C81.569 76.05 80.504 73.3488 80.504 68.2225C80.504 45.7094 100.505 35.8408 114.179 35.8408C157.751 35.8408 150.516 85.0281 152.33 116.938C151.806 117.152 133.907 117.503 131.238 117.798C132.407 118.481 147.716 125.653 159.359 138.765C159.375 138.765 159.388 138.768 159.405 138.768C160.448 138.768 180.958 133.854 185.256 110.362L185.246 106.433C184.709 105.116 185.877 100.422 175.07 83.5834C173.473 81.0924 171.69 77.6785 171.69 72.3523ZM72.6005 41.2327C72.6005 43.9456 71.4377 45.92 70.7642 46.9304C68.5148 50.3054 67.8769 49.0515 67.8769 51.3097C67.8769 53.1636 68.8219 55.1674 69.7321 55.196C69.9476 55.2085 70.1494 55.3058 70.2939 55.4667C70.4384 55.6277 70.5138 55.8394 70.5038 56.0559C70.5038 56.3765 70.4557 56.9101 68.8805 56.9101C65.5957 56.9101 63.758 53.7589 62.9373 53.0849C59.5165 54.5582 55.8293 55.3055 52.1071 55.2799C42.8812 55.2799 34.6503 50.4506 34.6503 43.1815C34.6503 34.4042 46.0038 29.165 54.9597 29.165C69.5863 29.1643 72.6005 38.1044 72.6005 41.2327Z" fill="#EBCFE4"/>
<path d="M35.2982 94.4731C35.2982 110.646 30.2766 109.922 28.1535 125.088C38.4356 136.559 67 159.5 99 159.5C131 159.5 152.604 145.679 159.405 138.768C159.388 138.768 159.375 138.765 159.359 138.765C147.716 125.653 132.407 118.481 131.238 117.798C133.907 117.503 151.806 117.152 152.33 116.938C150.516 85.0281 157.751 35.8408 114.179 35.8408C100.505 35.8408 80.504 45.7094 80.504 68.2225C80.504 73.3488 81.569 76.05 81.569 76.8687C81.569 77.918 79.6982 82.1368 79.6982 88.5469C79.6982 88.8262 79.7015 88.9772 79.7015 89.0051C79.7015 89.1943 79.6347 89.3755 79.6347 89.9793C79.7097 90.5307 79.933 91.0511 80.2806 91.4845C80.6283 91.918 81.087 92.248 81.6075 92.4392C81.736 92.469 81.8514 92.5396 81.9367 92.6406C82.022 92.7416 82.0725 92.8675 82.0808 92.9996C84.112 118.416 82.806 118.915 84.2249 118.915C84.9019 118.915 93.0685 118.21 93.4154 118.21C93.5072 118.21 93.6083 118.223 93.7537 118.23C93.7495 118.285 93.7495 118.34 93.7495 118.395C93.7495 118.543 93.7584 118.707 93.7584 118.844C93.7584 123.098 83.2514 121.483 66.4856 132.535C62.189 116.887 53.196 115.512 53.196 99.3686C53.196 96.5328 54.1229 94.8511 54.1229 94.3291C54.1224 94.1422 54.0492 93.9629 53.9188 93.8296C53.7884 93.6963 53.6112 93.6194 53.4252 93.6155C52.9659 93.5909 52.5076 93.5489 51.9878 93.5097C51.996 93.4874 56.4229 84.3997 56.4229 74.9931C56.4229 72.8896 56.1225 70.61 54.3937 70.61C51.7466 70.61 50.7944 76.4604 50.6998 76.7661C50.3361 76.3327 49.8599 59.5156 46.1691 59.5156C43.9653 59.5156 43.5644 62.1339 43.5644 66.5054C43.5644 69.4397 43.5502 69.251 44.223 76.2481C43.4248 75.2765 40.0997 61.7401 36.9131 61.7401C35.8307 61.7401 35.2906 63.1749 35.2906 65.3853C35.2906 67.766 36.0679 70.1625 37.2705 76.4326C36.3794 75.8671 33.7227 69.7049 31.583 69.7049C29.8385 69.7049 29.7187 72.3974 29.7187 72.7474C29.7187 77.2882 34.6538 83.5065 34.6538 84.1508C34.6538 84.5195 34.3944 85.0665 34.3944 86.6554C34.3944 89.5054 35.3153 91.3407 35.9327 92.7963C35.64 92.9761 35.238 93.1175 35.238 93.6502C35.2754 93.9229 35.2955 94.1978 35.2982 94.4731Z" fill="#EBCFE4"/>
<path d="M52.1071 55.2796C55.8293 55.3053 59.5165 54.558 62.9373 53.0847C63.7574 53.7585 65.5957 56.9099 68.8805 56.9099C70.4571 56.9099 70.5039 56.377 70.5039 56.0556C70.5138 55.8392 70.4384 55.6275 70.2939 55.4665C70.1495 55.3055 69.9476 55.2083 69.7321 55.1958C68.8219 55.1671 67.8769 53.1641 67.8769 51.3093C67.8769 49.0506 68.5148 50.305 70.7642 46.9302C71.4377 45.9198 72.6005 43.9454 72.6005 41.2325C72.6005 38.2238 69.6852 29.1641 54.9597 29.1641C45.5442 29.1641 34.6503 34.6996 34.6503 43.1806C34.6503 50.4483 42.8899 55.2796 52.1071 55.2796ZM36.1941 43.2159C36.1941 37.2427 43.8268 30.7149 55.0358 30.7149C62.4471 30.7149 71.0724 34.3154 71.0724 41.2048C71.0724 46.3304 66.5119 48.6807 66.5119 49.5522C66.5422 49.7289 66.5584 49.9077 66.5605 50.0869C66.5605 50.6518 66.4311 51.0376 66.4311 51.7796C66.4311 53.1715 66.8765 54.1121 67.1478 54.7908L67.0587 54.8536C64.7727 53.6098 64.5917 52.4415 64.3848 52.3159C63.8774 52.0077 63.4752 51.6161 62.9086 51.6161C61.8431 51.6161 58.5133 53.7406 52.0938 53.7406C43.9135 53.7399 36.1941 49.6251 36.1941 43.2159Z" fill="#290568"/>
<path d="M45.0678 41.7026V41.7069C45.0678 45.291 44.837 46.3405 45.8448 46.3405C46.4499 46.3405 46.6212 45.8917 46.6212 45.0186C46.6212 44.6069 46.6096 44.9627 46.6054 43.319L50.059 43.3096C50.1967 45.283 50.0613 46.1068 50.9472 46.1068C51.0488 46.1062 51.1492 46.0854 51.2428 46.0458C51.3364 46.0062 51.4212 45.9485 51.4926 45.8759C51.5639 45.8034 51.6204 45.7174 51.6586 45.623C51.6969 45.5285 51.7162 45.4274 51.7156 45.3254C51.7153 45.3026 51.7141 45.2798 51.712 45.257C51.712 45.2145 51.3711 38.7854 51.3417 38.6393C51.3207 38.4487 51.2324 38.2719 51.0928 38.141C50.9532 38.0101 50.7715 37.9337 50.5806 37.9257C49.8764 37.9257 49.8123 38.6695 49.8123 38.8285V38.8475C49.8123 38.8672 49.8243 38.992 49.9749 41.7286C49.5225 41.733 48.8613 41.7406 48.2751 41.7406C47.7183 41.7406 47.1646 41.7344 46.6047 41.7156C46.6032 41.1677 46.603 40.754 46.603 40.436V40.0428C46.603 39.4746 46.6016 39.3368 46.5851 39.0828C46.5749 38.8897 46.4917 38.7078 46.3524 38.5742C46.2131 38.4407 46.0283 38.3656 45.8357 38.3643C45.417 38.3643 45.0627 38.67 45.0627 39.3035C45.0613 39.3509 45.0613 38.9021 45.0678 41.7026ZM61.6126 44.5799C61.7704 44.5799 61.9241 44.529 62.0509 44.4347C62.1777 44.3404 62.271 44.2077 62.3171 44.0561C62.3298 44.0136 62.4391 39.3342 62.4391 39.3098C62.4391 39.0443 62.434 37.9029 62.434 37.8906V37.8086C62.434 36.8185 61.7347 36.8179 61.6641 36.8179C60.9262 36.8179 60.8367 37.0073 60.8367 41.5099C60.8367 43.5295 60.6496 44.5799 61.6128 44.5799H61.6126ZM58.1109 43.6332C58.1109 43.6674 58.108 43.7267 58.108 43.8014C58.108 44.1438 58.1708 44.8053 58.8737 44.8053C59.5035 44.8053 59.6636 44.5076 59.6636 42.3972C59.6636 41.5351 59.6358 39.736 59.6358 38.5774V38.43C59.6358 38.0136 59.5933 37.2819 58.871 37.2819C58.2229 37.2819 58.0779 37.612 58.0779 39.6059C58.0786 40.4865 58.1109 42.3652 58.1109 43.6332ZM54.6093 40.2068C53.9165 40.2068 53.8521 40.8408 53.8521 41.3133C53.8521 41.3491 54.0033 44.5219 54.0247 44.8623C54.0563 45.3673 54.3588 45.6616 54.7911 45.6616C55.5002 45.6616 55.5439 45.0531 55.5439 44.521C55.5443 40.7372 55.3877 40.2068 54.6093 40.2068ZM61.5529 46.644H61.5765C61.9625 46.6319 62.3527 46.1567 62.3527 45.7076C62.3534 45.6195 62.3368 45.5321 62.3039 45.4505C62.271 45.3688 62.2223 45.2945 62.1608 45.2317C62.0992 45.1689 62.026 45.1189 61.9452 45.0845C61.8644 45.0501 61.7776 45.0321 61.6899 45.0314H61.6846C61.4588 45.0597 61.2496 45.1652 61.0922 45.3302C60.9347 45.4952 60.8387 45.7096 60.8202 45.9373C60.8253 46.1281 60.9051 46.3093 61.0422 46.4415C61.1793 46.5738 61.3628 46.6465 61.5529 46.644ZM54.5521 39.2727C54.736 39.2747 54.9137 39.206 55.0487 39.0805C55.1837 38.9551 55.2658 38.7825 55.2779 38.5982V38.5966C55.2688 38.3992 55.1851 38.2126 55.0439 38.075C54.9026 37.9374 54.7144 37.8589 54.5176 37.8557C54.4272 37.8514 54.3369 37.8649 54.2517 37.8956C54.1666 37.9263 54.0883 37.9735 54.0213 38.0346C53.9544 38.0957 53.9 38.1694 53.8615 38.2516C53.8229 38.3337 53.8008 38.4227 53.7964 38.5134L53.7958 38.5396C53.804 38.7359 53.8871 38.9216 54.0279 39.058C54.1687 39.1945 54.3564 39.2713 54.5521 39.2727ZM58.591 46.078C58.5926 46.2554 58.6635 46.4251 58.7885 46.5506C58.9134 46.6761 59.0825 46.7473 59.2592 46.7489C59.4483 46.7431 59.6285 46.6665 59.7642 46.5341C59.8999 46.4016 59.9813 46.2229 59.9924 46.0332C59.9883 45.8578 59.9162 45.691 59.7914 45.5682C59.6666 45.4454 59.4989 45.3765 59.3242 45.376C59.1358 45.3766 58.9547 45.4497 58.8183 45.5803C58.682 45.7109 58.6006 45.889 58.591 46.078Z" fill="#290568"/>
<mask id="mask0_661_31290" style="mask-type:alpha" maskUnits="userSpaceOnUse" x="19" y="12" width="144" height="165">
<path d="M163 94.5C163 140.063 134.346 177 99 177C63.6538 177 19.5 151.563 19.5 106C19.5 60.4365 63.6538 12 99 12C134.346 12 163 48.9365 163 94.5Z" fill="#D9D9D9"/>
</mask>
<g mask="url(#mask0_661_31290)">
<path d="M75.3075 88.7939C75.3075 88.7939 53.911 139.336 53.911 146.165C53.911 152.992 55.4052 154.894 72.1799 160.456C88.9497 166.013 86.1709 91.2863 75.3075 88.7939ZM140.463 96.3109C140.463 96.3109 147.264 111.309 147.264 123.233C147.264 135.158 149.238 171.673 149.238 171.673L119.402 172.894C119.402 172.89 125.545 89.9305 140.463 96.3109Z" fill="white"/>
<path d="M96.1757 74.5519C96.1757 74.9546 95.2721 88.8607 95.2721 88.8607L100.373 96.4316L114.113 86.0646C114.113 86.0646 112.713 81.8676 114.113 71.4198C115.505 60.972 96.1757 74.5519 96.1757 74.5519Z" fill="#E4BEB2"/>
<path d="M84.3005 39.4996C84.3005 40.7078 83.1463 62.6144 84.739 69.111C86.4034 75.9078 92.5287 81.3934 97.1329 81.3934C101.742 81.3934 116.221 79.2993 118.744 69.599C118.744 69.599 121.706 71.1918 123.791 69.111C125.872 67.0306 129.031 64.3729 128.15 60.4218C127.273 56.471 125.872 54.3053 121.926 58.2565L122.257 38.4037L93.7369 28.6406L84.3005 39.4996Z" fill="#EBCFCF"/>
<path d="M113.835 84.8383L100.972 93.6889L95.6293 83.2544C95.6293 83.2544 92.1931 84.8025 90.5509 93.6889C88.9046 102.575 82.3227 181.771 82.3227 181.771L77.4948 203.929L109.853 204.148L116.762 134.164L115.666 88.4226L113.835 84.8383Z" fill="#D98BA7"/>
<path d="M113.477 85.1744C113.477 85.1744 104.703 138.746 104.703 152.684C104.703 166.621 102.95 215.455 102.95 215.455C102.95 215.455 122.476 221.598 137.832 214.797C137.832 214.797 133.223 116.933 140.463 96.311L113.477 85.1744ZM95.2669 83.3306C95.2669 83.3306 85.3964 201.222 85.3964 211.302C85.3964 211.302 73.11 213.267 63.0203 208.877C63.0203 208.877 73.9915 134.45 73.9915 127.349C73.9915 120.249 75.3067 88.7941 75.3067 88.7941C75.3067 88.7941 87.8039 84.6506 95.2669 83.3306Z" fill="white"/>
<path d="M119.402 142.384C119.402 142.384 113.652 134.205 107.728 134.205C101.805 134.205 95.2717 138.312 95.2717 138.312L102.126 156.863L116.771 158.894L119.402 142.384Z" fill="#EBCFCF"/>
<path d="M148.163 161.556C148.163 161.556 135.818 145.82 128.239 139.6C120.659 133.381 119.035 131.641 119.035 131.641C119.035 131.641 113.286 146.088 107.894 152.272C102.498 158.46 103.567 158.706 103.567 158.706C103.567 158.706 125.675 180.009 132.512 181.588C139.348 183.168 153.913 179.543 148.163 161.556Z" fill="white"/>
<path d="M95.8125 139.246C96.2289 139.547 96.8106 139.452 97.1103 139.036L110.292 120.736C110.592 120.32 110.497 119.738 110.081 119.439C109.665 119.139 109.084 119.233 108.784 119.649L95.6024 137.949C95.3027 138.365 95.3965 138.947 95.8125 139.246Z" fill="#441E82"/>
<path d="M53.7391 117.586C52.1511 117.83 51.0218 120.068 51.705 121.522C56.1578 130.999 67.7212 157.491 70.4416 163.734C70.7915 164.537 71.6141 164.999 72.4849 164.904L107.204 161.102C108.473 160.963 109.289 159.686 108.882 158.476L94.1526 114.746C93.5322 112.904 91.6774 111.774 89.7561 112.069L53.7391 117.586Z" fill="#5F369D"/>
<path d="M83.2452 145.529C83.2452 145.529 97.8228 137.233 97.8228 141.891C97.8228 144.003 96.3596 143.851 93.7691 146.442C91.1781 149.033 91.1781 150.862 94.3774 151.932C97.581 153.001 107.34 155.135 107.34 155.135C107.34 155.135 113.591 155.44 112.526 157.726C111.456 160.013 107.188 160.469 107.188 160.469C107.188 160.469 106.883 163.977 103.528 165.042C103.528 165.042 103.223 166.872 100.476 168.245C100.476 168.245 101.21 169.923 97.9435 170.988C94.6815 172.058 89.3436 169.919 84.3102 167.785C79.2764 165.65 73.9428 159.552 73.9428 159.552L83.2452 145.529Z" fill="#EBCFCF"/>
<path d="M105.348 160.447C105.621 160.447 105.863 160.254 105.916 159.977C105.979 159.664 105.773 159.36 105.456 159.302L100.377 158.326C100.069 158.259 99.7596 158.469 99.7016 158.782C99.6389 159.096 99.8445 159.4 100.162 159.458L105.241 160.433C105.272 160.443 105.312 160.447 105.348 160.447ZM102.126 165.132C102.408 165.132 102.655 164.926 102.699 164.639C102.744 164.322 102.529 164.031 102.212 163.981L97.6208 163.297C97.303 163.243 97.0121 163.467 96.963 163.785C96.9184 164.102 97.1332 164.393 97.4507 164.442L102.042 165.127C102.068 165.132 102.095 165.132 102.126 165.132ZM99.2941 168.411C99.5986 168.411 99.8537 168.174 99.8714 167.87C99.8895 167.552 99.6477 167.279 99.3299 167.257L95.1329 166.997C94.8066 166.988 94.5379 167.221 94.5202 167.539C94.5021 167.857 94.7439 168.129 95.0617 168.152L99.2583 168.411C99.2675 168.411 99.2808 168.411 99.2941 168.411Z" fill="#E4BEB2"/>
<path d="M84.3902 142.929C84.2381 142.929 68.4926 138.316 63.0207 138.513C57.0563 138.727 52.5954 142.294 52.5954 147.533C52.5954 152.773 51.5482 157.265 56.4927 162.209C61.4368 167.153 82.6498 170.102 82.6498 170.102L84.3902 142.929Z" fill="white"/>
<path d="M128.789 141.945C128.977 141.945 129.125 141.792 129.125 141.609V135.855C129.125 133.408 133.581 118.163 136.243 109.053C137.827 103.639 138.23 102.239 138.23 102.02C138.23 101.832 138.078 101.684 137.894 101.684C137.715 101.684 137.568 101.827 137.559 102.002C137.514 102.32 136.628 105.353 135.599 108.865C132.928 118.007 128.454 133.309 128.454 135.855V141.609C128.449 141.792 128.601 141.945 128.789 141.945ZM136.338 182.255C136.517 182.255 136.664 182.116 136.673 181.937C136.682 181.749 136.544 181.593 136.355 181.579C136.293 181.574 129.832 181.167 126.239 178.223C122.574 175.221 110.028 162.679 109.903 162.554C109.769 162.42 109.558 162.42 109.428 162.554C109.294 162.684 109.294 162.898 109.428 163.028C109.554 163.153 122.122 175.717 125.814 178.742C129.577 181.825 136.042 182.232 136.315 182.245C136.329 182.255 136.333 182.255 136.338 182.255ZM82.6497 169.923C82.8155 169.923 82.9587 169.802 82.9809 169.632C83.0078 169.449 82.8779 169.279 82.6944 169.252L70.3678 167.552C70.1799 167.525 70.0141 167.655 69.9872 167.838C69.9606 168.022 70.0902 168.191 70.2736 168.218L82.6007 169.918C82.6184 169.923 82.632 169.923 82.6497 169.923ZM144.31 159.229C144.409 159.229 144.503 159.185 144.57 159.104C144.686 158.961 144.664 158.746 144.521 158.63L121.916 140.213C121.773 140.093 121.563 140.115 121.442 140.262C121.325 140.406 121.348 140.62 121.491 140.737L144.095 159.153C144.158 159.202 144.234 159.229 144.31 159.229ZM74.3676 113.42C74.5467 113.42 74.6987 113.277 74.7032 113.094L75.4414 93.6707C75.4503 93.4828 75.3026 93.3263 75.1192 93.3219C75.1147 93.3219 75.1103 93.3219 75.1059 93.3219C74.9268 93.3219 74.7748 93.4647 74.7703 93.6482L74.0321 113.072C74.0228 113.26 74.1705 113.416 74.3539 113.42C74.3584 113.42 74.3632 113.42 74.3676 113.42ZM120.404 59.8401C120.404 59.8401 124.583 42.8599 112.95 37.5038C101.316 32.1482 97.6828 36.354 94.0185 35.2532C90.3537 34.1525 89.7499 35.4906 89.7499 35.4906C89.7499 35.4906 86.9489 36.8999 85.2797 40.3273C83.526 43.9248 83.9106 53.1508 83.9106 53.1508C83.9106 53.1508 82.0451 35.7722 83.4274 33.0252C83.4274 33.0252 82.1746 33.3563 82.309 31.7989C82.443 30.2464 86.4702 25.2935 90.394 23.374C90.394 23.374 87.8662 22.8502 89.0607 21.7808C90.2556 20.7115 109.312 18.2372 114.211 22.0496C114.211 22.0496 112.967 19.4184 114.614 20.2596C116.261 21.1009 129.326 27.7947 128.162 36.4747C128.162 36.4747 131.531 38.1572 131.021 44.0274C130.512 49.898 126.574 56.9495 126.574 56.9495C126.574 56.9495 125.957 57.106 120.404 59.8401Z" fill="#290568"/>
<path d="M108.511 57.3165C107.451 57.3165 106.592 56.0544 106.592 54.4974C106.592 52.9409 107.451 51.6788 108.511 51.6788C109.571 51.6788 110.431 52.9409 110.431 54.4974C110.431 56.0544 109.571 57.3165 108.511 57.3165ZM106.095 49.804L106.587 47.1732C106.587 47.1732 110.565 47.3656 111.854 48.6542C113.142 49.9428 113.719 51.1779 113.719 51.1779L106.095 49.804ZM90.4209 56.5336C89.6376 56.5336 89.0028 55.4079 89.0028 54.0191C89.0028 52.6303 89.6376 51.5042 90.4209 51.5042C91.2042 51.5042 91.8395 52.6303 91.8395 54.0191C91.8395 55.4079 91.2042 56.5336 90.4209 56.5336ZM92.0415 49.0883L91.6746 46.4575C91.6746 46.4575 88.7348 46.6498 87.7817 47.9385C86.8286 49.2271 86.4038 50.4618 86.4038 50.4618L92.0415 49.0883ZM99.4019 63.0125C99.6348 63.0125 99.778 62.9856 99.7913 62.9811C99.9748 62.9453 100.091 62.7663 100.055 62.5832C100.019 62.3998 99.8448 62.2787 99.657 62.3189C99.6211 62.3282 98.6057 62.5068 97.299 61.5851C96.8427 61.2632 96.6412 59.621 98.2967 53.6389C98.4802 52.9767 98.5071 52.8648 98.5115 52.7707C98.516 52.5872 98.3639 52.4307 98.1804 52.4307H98.176C97.997 52.4307 97.8538 52.5695 97.8405 52.7437C97.8272 52.829 97.7556 53.0885 97.6526 53.4599C96.6009 57.263 95.6929 61.2677 96.9188 62.1355C97.97 62.8874 98.901 63.0125 99.4019 63.0125Z" fill="#290568"/>
<path opacity="0.33" d="M111.881 68.1309C109.182 68.1309 106.995 65.9435 106.995 63.2448C106.995 60.5464 109.182 58.359 111.881 58.359C114.579 58.359 116.767 60.5464 116.767 63.2448C116.767 65.9435 114.579 68.1309 111.881 68.1309ZM87.4109 65.8626C85.5823 65.8413 84.1219 63.9673 84.1489 61.6769C84.1754 59.3861 85.6797 57.5467 87.5078 57.5681C89.3364 57.5894 90.7972 59.4638 90.7702 61.7542C90.7432 64.0446 89.2394 65.8844 87.4109 65.8626Z" fill="#F6A6C2"/>
<path d="M106.408 100.051C106.457 100.051 106.507 100.038 106.556 100.016C108.484 99.0891 109.527 98.5524 109.666 98.4136C109.795 98.2793 109.795 98.0692 109.666 97.9349C109.536 97.8097 109.335 97.8053 109.205 97.9216C109.03 98.0467 107.715 98.7045 106.462 99.3084L101.2 94.8431C101.097 94.7537 100.95 94.74 100.829 94.7984L95.0078 97.7337L94.4079 96.8385C94.3049 96.682 94.0949 96.6418 93.9428 96.7448C93.7859 96.8478 93.7457 97.0578 93.8487 97.2099L94.6139 98.3509C94.7076 98.4897 94.8955 98.5387 95.0436 98.4627L100.931 95.492L106.189 99.9529C106.256 100.02 106.332 100.051 106.408 100.051Z" fill="#290568"/>
<path fill-rule="evenodd" clip-rule="evenodd" d="M101.763 68.7929C101.538 68.6324 101.226 68.6844 101.065 68.9091C100.803 69.2762 99.87 70.1079 98.4549 70.1079C97.6873 70.1079 97.2663 70.011 96.9816 69.8782C96.6956 69.7447 96.5019 69.5571 96.1933 69.2485C95.9981 69.0532 95.6815 69.0532 95.4862 69.2485C95.291 69.4438 95.291 69.7604 95.4862 69.9556C95.4931 69.9625 95.4999 69.9693 95.5068 69.9762C95.7955 70.2651 96.1012 70.5708 96.5587 70.7844C97.0284 71.0035 97.6131 71.1079 98.4549 71.1079C100.258 71.1079 101.471 70.0621 101.879 69.4904C102.04 69.2657 101.988 68.9534 101.763 68.7929Z" fill="#290568"/>
</g>
</svg>
