<svg width="241" height="220" viewBox="0 0 241 220" fill="none" xmlns="http://www.w3.org/2000/svg">
<g clip-path="url(#clip0_558_17924)">
<path d="M240.5 97.7432C240.475 97.4604 240.339 97.199 240.122 97.0163C239.904 96.8335 239.623 96.7444 239.34 96.7684C238.099 96.7684 213.628 119.816 203.153 151.002C203.063 151.209 202.962 151.41 202.849 151.606C194.597 140.819 160.162 123.623 147.348 108.874C147.052 108.598 146.728 108.354 146.382 108.146C151.085 96.4028 146.042 94.3174 152.467 85.819C154.897 82.603 158.045 79.2081 158.045 76.7388C158.045 75.1051 156.89 73.7993 155.227 73.7993C151.565 73.7993 145.335 80.8375 141.839 83.2859C137.345 58.2846 136.484 52.2225 134.207 52.2225C133.326 52.2225 128.814 55.0723 128.814 65.5423C128.814 67.7502 128.985 68.2258 129.174 70.9971L129.007 71.0174C126.533 58.5014 126.695 49.9688 122.931 49.9688C121.244 49.9688 118.535 52.3116 118.535 60.52C118.535 62.9813 118.642 66.2076 118.642 67.2183V67.5968C117.433 64.8835 116.333 56.1951 112.466 56.1951C109.967 56.1951 108.438 58.1798 108.438 63.2557C108.438 64.8269 108.62 67.2469 109.216 71.1917C107.443 71.5971 106.586 72.9661 105.587 74.3597C104.722 69.8576 103.617 64.7581 98.9696 64.7581C95.8256 64.7581 95.259 70.0931 95.008 72.4961C93.9953 70.6638 93.1813 68.3482 90.597 68.3482C88.6015 68.3482 86.8351 71.5572 86.8351 76.3417C86.8351 80.6859 87.2536 90.365 88.0203 97.8204C85.634 94.8409 84.4582 87.8482 77.588 84.4902C77.2606 84.3194 76.8985 84.2255 76.5293 84.2158C75.0452 84.2158 74.5552 86.0089 74.5552 87.4843C74.5552 88.6049 78.5401 105.396 83.4318 112.088C83.4999 112.218 83.5557 112.355 83.5983 112.496C82.8266 112.042 82.3921 111.724 81.9337 111.724C79.8031 111.724 81.2306 117.279 65.1985 126.608C35.8061 143.711 40.2771 138.897 22.4532 155.656C10.7069 119.91 6.6418 117.706 6.23632 117.706C5.98665 117.748 5.75993 117.877 5.59624 118.07C5.43255 118.263 5.34243 118.508 5.3418 118.761C5.3418 118.792 20.8553 149.527 20.8553 157.461C20.8553 158.717 13.0959 166.693 13.0959 178.257C13.0959 184.686 16.2165 188.038 19.4148 188.038C24.6381 188.038 26.0936 180.229 26.0936 174.959C26.0936 167.198 23.2276 159.083 23.2276 158.311C23.2276 150.871 55.7243 135.745 76.6625 120.83C82.1924 125.786 83.4997 127.812 84.4448 127.812C84.6923 127.812 84.9296 127.714 85.105 127.539C85.2804 127.365 85.3796 127.128 85.381 126.881C85.381 126.005 83.3892 124.731 78.0527 119.397C79.8577 117.866 80.9693 115.915 82.0695 113.876L109.138 129.935C106.871 131.955 105.095 134.303 103.245 136.618C99.2169 134.336 97.5018 132.993 96.8673 132.993C96.6144 132.994 96.3724 133.095 96.1937 133.274C96.0151 133.452 95.9144 133.694 95.9135 133.947C95.9135 134.75 96.262 134.65 102.011 138.184C78.566 175.968 60.1183 208.893 1.4348 218.043C1.18848 218.058 0.956477 218.164 0.783768 218.34C0.611059 218.516 0.509938 218.75 0.5 218.996C0.500828 219.129 0.527791 219.26 0.579351 219.382C0.63091 219.504 0.706055 219.615 0.800496 219.708C0.894936 219.802 1.00682 219.875 1.12977 219.925C1.25271 219.975 1.3843 220.001 1.51703 220H1.52036C65.4462 220 101.03 137.673 111.083 130.728C111.263 130.633 111.417 130.495 111.532 130.326C111.647 130.158 111.72 129.964 111.743 129.762C111.743 129.089 110.88 128.697 110.049 128.186C112.939 124.853 115.037 120.911 116.189 116.654C131.345 125.859 157.311 207.111 204.79 207.111C219.706 207.111 229.812 196.226 229.812 195.332C229.796 195.056 229.675 194.798 229.475 194.608C229.275 194.418 229.01 194.311 228.734 194.308C227.314 194.308 220.296 205.156 204.712 205.156C175.448 205.156 152.186 171.862 128.201 127.203C131.932 126.937 136.054 125.484 136.054 124.1C136.06 123.865 135.975 123.636 135.817 123.462C135.659 123.287 135.439 123.18 135.204 123.164C134.494 123.164 131.346 125.326 128.515 125.326C128.349 125.326 128.196 125.332 128.054 125.332C127.103 125.332 126.574 125.04 124.372 120.545C133.223 120.343 140.438 117.077 145.575 109.602L147.903 112.156C144.274 117.851 142.842 117.665 142.842 118.782C142.843 119.02 142.936 119.247 143.103 119.417C143.27 119.586 143.496 119.683 143.734 119.688C143.822 119.688 145.461 119.571 149.112 113.581C169.801 131.437 202.178 149.105 202.178 153.965C202.178 154.21 199.89 161.209 199.89 167.603C199.89 179.526 206.266 179.677 206.914 179.677H206.953C210.406 179.677 213.789 176.568 213.789 171.288C213.789 161.889 204.612 154.163 204.612 152.983C204.612 152.747 208.525 132.129 240.133 98.5528C240.354 98.3396 240.486 98.05 240.5 97.7432ZM24.1337 174.98C24.1337 181.004 22.353 186.084 19.4098 186.084C17.5605 186.084 15.052 183.834 15.052 178.259C15.052 168.685 21.3656 160.545 21.577 160.298L21.7578 160.332C22.5541 163.697 24.1337 169.13 24.1337 174.98ZM108.316 127.174C88.6568 115.578 82.2293 115.287 76.5816 88.1436C76.5294 87.9013 76.5024 87.6543 76.501 87.4065C76.5005 87.0063 76.5817 86.6102 76.7397 86.2424C84.5447 90.7545 85.2288 100.191 88.1038 100.191C88.1651 100.191 90.03 100.024 90.03 98.3027C90.03 98.2465 88.8136 87.1301 88.8136 76.6979C88.8136 71.1507 90.5074 70.3249 90.7321 70.3249C95.006 70.3249 95.1115 89.3755 95.1198 89.5781C95.1505 90.3098 95.497 90.7339 96.0154 90.7339C96.543 90.7339 96.8809 90.3414 96.8809 89.5664C96.8809 88.8713 96.781 78.5353 96.781 77.5278C96.781 67.075 98.6719 66.7281 99.0857 66.7281C102.723 66.7281 103.846 74.0723 103.846 78.4358C103.846 79.3116 103.831 79.4875 103.831 80.4507C103.831 80.9676 103.835 81.4845 103.835 82.0013C103.835 84.0326 103.735 85.5343 103.735 87.5828C103.735 88.5048 103.727 89.2791 103.727 89.9253C103.727 92.1538 103.822 92.8602 104.663 92.8602C107.043 92.8602 104.001 78.0337 108.585 73.6909C108.91 73.3829 109.128 73.2215 109.341 73.2215C113.274 73.2215 114.965 101.925 114.965 107.472C114.964 113.187 114.5 120.42 108.316 127.174H108.316ZM124.883 118.531H124.826C124.793 118.531 124.548 118.561 124.153 118.561C118.958 118.561 116.599 113.974 116.599 113.465C116.827 111.455 116.939 109.432 116.932 107.409C116.932 104.188 115.652 76.2233 111.728 72.6152C110.66 71.6334 110.387 62.812 110.387 62.7807C110.387 61.9875 110.524 58.1548 112.39 58.1548C115.62 58.1548 118.437 80.7308 120.926 80.7308C121.878 80.7308 122.005 79.2886 122.005 79.0172C122.005 77.0715 120.464 70.556 120.464 60.7239C120.464 54.0974 122.357 51.9627 122.933 51.9627C125.259 51.9627 126.459 78.1604 129.971 78.1604C131.314 78.1604 131.339 77.8278 131.339 75.4277C131.339 71.4168 130.771 68.2311 130.771 65.6371C130.771 57.7876 133.203 55.3676 134.067 54.5065C135.799 58.0627 136.216 68.9466 139.609 81.8839C139.732 82.3757 139.791 82.8814 139.784 83.3883C139.784 88.2919 121.008 94.2645 121.008 105.855C121.008 108.237 122.345 110.557 124.512 110.557C126.811 110.557 128.118 107.483 128.118 105.265C128.118 103.735 127.253 100.996 126.894 100.595C126.812 100.497 126.71 100.417 126.594 100.362C126.479 100.308 126.353 100.279 126.225 100.278C126.102 100.274 125.98 100.294 125.866 100.336C125.751 100.379 125.646 100.444 125.556 100.527C125.466 100.61 125.394 100.71 125.343 100.822C125.292 100.933 125.264 101.053 125.259 101.175V101.184C125.259 101.919 126.163 103.615 126.163 105.088C126.163 106.752 125.29 108.602 124.478 108.602C123.937 108.602 122.965 107.775 122.965 105.754C122.965 97.6148 133.552 93.6292 147.858 80.7118C153.12 75.9619 154.726 75.762 155.173 75.762C155.299 75.7543 155.425 75.774 155.542 75.8197C155.659 75.8654 155.765 75.936 155.853 76.0267C155.94 76.1174 156.007 76.226 156.048 76.3449C156.089 76.4638 156.104 76.5903 156.092 76.7156C156.092 80.3493 147.193 85.3427 146.817 95.6844C145.989 118.425 127.049 118.531 124.883 118.531ZM211.821 171.095C211.821 177.468 207.262 177.721 207.04 177.721C201.877 177.721 201.852 169.095 201.852 167.674V167.635C201.852 162.351 203.547 156.08 203.85 155.561C203.992 155.614 211.821 163.729 211.821 171.095Z" fill="#290568"/>
<path d="M203.206 69.1572C205.913 66.788 208.083 63.8698 209.572 60.5971C211.061 57.3243 211.835 53.7721 211.842 50.1771C211.842 37.4383 201.843 25.1152 187.019 25.1152C173.035 25.1152 161.997 36.8086 161.997 50.3839C161.997 63.6017 172.419 75.4661 186.736 75.4661C189.832 75.4661 191.67 74.885 192.136 74.885C193.182 74.885 198.479 83.2361 208.116 83.2361C208.213 83.2361 208.371 83.2421 208.568 83.2421C209.555 83.2421 211.506 83.0917 211.506 81.2827C211.505 79.8299 207.325 79.3 203.206 69.1572ZM207.461 80.7612C198.063 79.7517 194.751 72.165 192.88 72.165C192.565 72.165 189.726 72.8604 186.765 72.8604C180.857 72.8392 175.2 70.474 171.037 66.2852C166.875 62.0964 164.548 56.427 164.569 50.5243L164.57 50.4279C164.57 38.331 174.264 27.6929 186.991 27.6929C189.924 27.7003 192.826 28.2847 195.532 29.4127C198.238 30.5406 200.696 32.1901 202.764 34.2669C204.832 36.3437 206.47 38.8071 207.586 41.5166C208.701 44.226 209.271 47.1284 209.264 50.058L209.263 50.1797C209.263 62.3165 200.427 67.6804 200.427 68.8343C200.427 68.9397 201.695 74.4862 207.277 80.3211C207.361 80.4079 207.431 80.5067 207.508 80.5998L207.461 80.7612ZM53.9521 56.2677C41.0536 56.2677 25.2183 62.4805 25.2183 72.6818C25.2183 73.6328 25.3378 74.1237 25.3378 74.3918C25.3378 75.1418 25.2712 75.0177 20.8102 78.1336C20.6634 78.236 20.1201 78.4382 20.1201 79.0273C20.1199 79.2799 20.2184 79.5227 20.3948 79.7037C20.5712 79.8847 20.8115 79.9897 21.0642 79.9962C22.7471 79.9962 26.8512 79.6938 27.9364 79.6938C30.7918 79.6938 33.7553 84.4564 46.1977 84.5515C64.0206 84.5016 75.6703 76.2138 75.6703 68.5179C75.6703 61.9061 67.4086 56.2677 53.9521 56.2677ZM46.9807 82.5908C34.0679 82.5908 31.0288 77.6433 28.6958 77.6433C28.1538 77.6433 29.2022 77.6593 24.9593 77.8738L24.907 77.7527C27.1941 75.7159 27.3116 75.4265 27.3116 74.6868C27.3116 74.1789 27.1957 73.3806 27.1957 72.6529C27.1957 64.5074 40.737 58.2338 53.9614 58.2338C66.2261 58.2338 73.7168 63.1317 73.7168 68.4727C73.7175 75.9467 60.5966 82.5908 46.9807 82.5908ZM47.2447 104.228C45.9947 102.988 45.7942 102.02 45.0652 102.02C44.7617 102.043 44.4764 102.174 44.2604 102.388C44.0444 102.602 43.9117 102.886 43.886 103.189C43.414 108.008 42.1582 107.257 39.8805 109.551C39.7909 109.633 39.7188 109.732 39.6685 109.843C39.6182 109.954 39.5906 110.073 39.5875 110.195C39.5791 110.409 39.6564 110.618 39.8022 110.776C39.948 110.933 40.1506 111.027 40.3652 111.035C40.3798 111.036 40.3946 111.036 40.4095 111.036C40.6292 111.036 40.8256 110.967 41.3632 110.967C43.4922 110.967 46.793 112.635 46.9062 115.054C46.9085 115.42 47.049 115.771 47.2995 116.038C47.5499 116.305 47.8919 116.467 48.2571 116.493C48.4913 116.491 48.7156 116.398 48.8822 116.234C49.0489 116.069 49.1447 115.846 49.1493 115.612C49.1493 115.329 48.9162 114.829 48.9162 114.102C48.9162 112.398 51.3258 109.038 52.6348 107.878C52.8143 107.678 52.9605 107.451 53.0676 107.206V107.144C53.0669 104.95 50.2392 107.2 47.2447 104.228ZM47.4621 111.696C46.3635 110.502 44.936 109.846 43.2675 109.389C44.4566 108.27 45.2518 106.797 45.5346 105.19C46.8213 106.469 48.1705 107.452 49.9096 107.803L47.4621 111.696ZM107.393 34.6371C105.819 28.739 106.459 27.2842 105.174 27.2842C103.819 27.2842 104.308 31.332 99.9392 31.4417C99.4427 31.472 98.9539 31.5793 98.4904 31.7597C98.3333 31.8096 98.1959 31.9079 98.0981 32.0405C98.0003 32.1732 97.947 32.3333 97.9458 32.4981C97.9458 33.2657 99.9935 34.4458 100.566 35.3585C102.102 37.8038 102.168 38.5162 102.168 38.772V38.8329C102.168 39.4236 101.925 39.5586 101.925 39.9006C101.938 40.121 102.033 40.3286 102.192 40.4819C102.351 40.6353 102.562 40.7231 102.783 40.7277C103.705 40.7277 103.91 38.9566 105.736 37.7509C105.977 37.5419 106.274 37.4083 106.59 37.3668C106.672 37.3671 106.754 37.3802 106.832 37.4053C106.87 37.4053 106.907 37.408 106.943 37.408C107.493 37.408 107.756 37.2058 108.035 36.6034C108.118 36.4408 108.165 36.262 108.171 36.0796C108.171 35.4816 107.549 35.2195 107.393 34.6371ZM103.775 36.8689L101.355 33.2558C102.541 32.9039 103.737 32.4 104.62 31.2225L105.563 35.5647L103.775 36.8689ZM175.326 101.35C175.339 101.287 175.345 101.223 175.345 101.159C175.345 100.618 174.886 100.476 174.509 100.246C174.314 100.116 174.087 100.042 173.853 100.031C172.349 100.031 173.785 103.905 169.09 105.912C168.498 106.165 167.88 106.444 167.88 107.076C167.88 108.204 168.985 107.941 169.438 108.274C172.251 110.325 170.855 111.365 172.245 112.851C172.348 112.975 172.475 113.076 172.619 113.149C172.763 113.221 172.92 113.263 173.081 113.272C174.754 113.272 173.347 110.006 177.334 107.685C177.515 107.606 177.672 107.479 177.788 107.319C177.904 107.159 177.976 106.971 177.994 106.774C177.994 105.615 175.519 105.43 175.326 101.35ZM172.972 109.27L171.058 107.077C172.274 106.385 173.254 105.344 173.87 104.089L175.334 106.722L172.972 109.27ZM120.305 152.931C119.299 151.631 118.268 151.715 117.32 148.231C117.314 148.205 117.177 147.418 116.506 147.418C114.936 147.418 116.219 149.584 113.248 152.263C112.552 152.891 111.922 153.263 111.922 153.793C111.922 154.699 113.958 154.751 115.103 157.701C115.436 158.554 115.663 158.824 116.118 158.824C117.396 158.824 116.801 156.003 119.783 153.968C119.95 153.876 120.087 153.739 120.18 153.573C120.273 153.407 120.317 153.218 120.307 153.028C120.307 152.996 120.306 152.964 120.305 152.931ZM116.025 155.955L114.064 153.598C115.033 152.736 115.805 151.675 116.328 150.488L118.163 153.127L116.025 155.955Z" fill="#290568"/>
<path d="M172.897 44.0069C172.897 43.9222 172.899 43.837 172.902 43.7514C172.9 43.6818 172.899 43.6126 172.899 43.5439C172.899 40.7776 174.742 38.618 176.921 38.618C177.984 38.618 179.222 39.3547 179.222 40.0851C179.217 40.3004 179.129 40.5055 178.977 40.6583C178.825 40.8111 178.62 40.8999 178.405 40.9067C177.891 40.9067 177.589 40.5012 176.84 40.5012C175.238 40.5012 174.82 42.9715 174.82 43.7734C174.82 44.8221 175.326 46.998 176.874 46.998C177.783 46.998 178.037 45.4015 178.037 45.2685C178.037 44.5813 177.188 44.6032 177.188 43.7667C177.191 43.5181 177.292 43.2807 177.468 43.105C177.644 42.9292 177.882 42.8288 178.131 42.8251C178.597 42.8251 180.003 43.506 180.003 45.3599C180.003 46.5926 179.092 48.9484 176.833 48.9484C173.906 48.9471 172.897 45.6899 172.897 44.0069ZM198.084 41.6603C198.449 41.7159 198.807 41.8136 199.149 41.9514C199.06 39.4977 196.908 38.3107 196.908 37.3584C196.918 37.1468 197.007 36.9468 197.159 36.799C197.311 36.6511 197.514 36.5666 197.726 36.5625C198.761 36.5625 201.321 39.4974 201.321 43.7501C201.321 47.4187 198.527 47.8162 198.218 47.8162C196.664 47.8162 195.66 45.9576 195.66 44.4013C195.662 42.1267 197.861 41.6603 198.084 41.6603ZM199.382 43.7731C199.381 43.4475 199.345 43.1231 199.273 42.8055C197.839 43.9334 197.623 43.965 197.623 44.3914C197.621 44.6535 197.671 44.9135 197.77 45.1563C197.869 45.3991 198.015 45.62 198.199 45.8063C199.018 45.6566 199.381 44.7659 199.381 43.7731H199.382ZM182.707 58.3385C182.707 63.4424 179.422 64.4917 178.564 64.4917C176.7 64.4917 176.246 62.7289 176.246 62.0464C176.246 61.3958 176.692 60.4319 177.496 60.4319C177.748 60.4288 177.992 60.5245 178.175 60.6985C178.358 60.8725 178.465 61.1111 178.474 61.3632C178.474 61.783 178.316 61.8445 178.316 61.9416V62.0165C178.316 62.2826 178.33 62.4821 178.664 62.4821C178.897 62.4821 180.754 61.4793 180.754 58.7031C180.754 56.6911 179.802 55.7342 179.123 55.7342C178.65 55.7342 178.42 55.967 178.015 55.967C177.903 55.9676 177.792 55.9461 177.689 55.9039C177.586 55.8617 177.491 55.7996 177.412 55.7211C177.333 55.6426 177.27 55.5492 177.227 55.4463C177.183 55.3435 177.161 55.2331 177.16 55.1216V55.1156C177.16 54.3256 178.377 53.9345 179.15 53.9345C181.785 53.9338 182.707 56.9995 182.707 58.3385ZM187.633 62.4914C185.726 62.4914 184.141 60.9023 184.141 58.7689C184.141 56.6712 185.676 55.085 187.67 55.085C190.3 55.085 191.107 57.7059 191.107 58.8025C191.106 60.3338 189.983 62.4914 187.633 62.4914ZM189.185 58.8361C189.137 58.6266 188.995 57.0477 187.608 57.0477C187.521 57.0477 186.09 57.1428 186.09 58.7972C186.09 59.4711 186.573 60.5267 187.637 60.5267C188.911 60.5261 189.098 59.1068 189.185 58.8361ZM194.503 57.4072C194.81 57.3134 195.13 57.2631 195.451 57.2579C196.16 57.3017 196.822 57.6226 197.296 58.1512C197.769 58.6797 198.016 59.3732 197.981 60.0817C197.981 62.1216 196.549 63.1892 195.495 63.1892C194.353 63.1892 192.476 61.8921 192.476 58.4662C192.476 56.1676 193.921 53.4346 195.2 53.4346C195.43 53.4273 195.655 53.5107 195.824 53.667C195.994 53.8233 196.095 54.0399 196.106 54.2701C196.092 54.43 196.041 54.5844 195.956 54.721C195.872 54.8576 195.757 54.9727 195.62 55.057C194.884 55.6178 194.715 56.4334 194.503 57.4072ZM195.369 59.2469C195.064 59.2469 194.826 59.4873 194.57 59.6992C194.731 60.3059 194.899 60.8863 195.588 61.2309C195.845 60.8766 195.997 60.4581 196.028 60.0222C196.028 59.3743 195.582 59.2485 195.369 59.2485L195.369 59.2469ZM181.289 44.6771C181.362 44.3877 181.674 41.4535 184.408 41.4535C186.38 41.4535 188.023 43.3533 188.023 45.4993C188.023 46.8097 187.197 48.9447 184.914 48.9447C183.545 48.9447 181.449 47.8754 181.289 44.6771ZM186.083 45.5578C185.971 44.1649 185.139 43.4108 184.415 43.4108C183.723 43.4108 183.269 44.1166 183.269 44.8939C183.269 46.0018 184.068 46.9837 184.921 46.9837C185.924 46.9837 186.03 45.7943 186.083 45.5578ZM188.817 45.2768C188.921 41.3643 191.894 41.352 191.957 41.352C194.553 41.352 194.794 44.2031 194.794 44.7236C194.794 46.4382 193.445 48.3244 191.651 48.3244C189.217 48.3231 188.899 45.608 188.818 45.2768H188.817ZM192.846 44.5321C192.829 44.4752 192.667 43.2931 191.97 43.2931C191.42 43.2931 190.792 44.0737 190.792 45.0459C190.792 45.6905 191.113 46.3431 191.645 46.3431C191.879 46.3434 192.672 46.1688 192.846 44.5321ZM50.7435 69.0564C50.8767 69.8726 50.9885 70.5531 51.114 71.3201C51.5115 71.1682 51.9259 71.0646 52.3481 71.0118C52.4267 71.0072 52.5054 71.0181 52.5797 71.0439C52.6541 71.0697 52.7226 71.1099 52.7814 71.1622C52.8402 71.2144 52.8881 71.2777 52.9224 71.3485C52.9567 71.4193 52.9767 71.4961 52.9813 71.5746C52.982 71.5865 52.9823 71.5985 52.9823 71.6105C52.9823 72.295 51.9623 72.4959 51.3624 72.6808C51.3624 72.8045 51.3537 72.9283 51.3537 73.0507C51.3537 73.3068 51.904 77.164 51.904 77.2438C51.904 77.4454 51.5548 77.945 51.2502 77.945C51.017 77.9258 50.7982 77.8244 50.633 77.6589C50.4911 77.4557 50.4103 77.2163 50.4 76.9688C49.6676 71.9734 49.6153 72.3582 49.6153 72.2893V72.1965C49.6153 72.1091 49.6642 71.8463 49.6642 71.385C49.6642 69.8487 49.1469 69.07 49.1469 68.632C49.1469 67.7543 50.9373 67.704 51.1157 67.704C51.4899 67.704 53.225 67.8214 53.225 68.7351C53.2258 68.9029 53.1604 69.0642 53.0429 69.1841C52.9254 69.3039 52.7654 69.3727 52.5975 69.3754C52.156 69.376 52.3977 69.2048 50.7435 69.0564ZM36.4908 74.3006C35.9748 74.2564 35.3516 74.2081 35.3516 73.4714C35.3516 73.0374 35.7491 72.8674 36.1975 72.7001C35.6315 70.1883 35.6089 70.2964 35.6089 70.0941V70.0353C35.6089 68.9646 36.6742 68.8143 37.2102 68.8143C37.3929 68.8143 39.2149 68.8638 39.2149 70.5282C39.2149 72.3924 37.8427 72.6396 37.8427 73.5639C37.8427 73.8769 38.3088 75.2798 38.3088 75.9044C38.318 75.997 38.3071 76.0904 38.2767 76.1783C38.2463 76.2662 38.1972 76.3465 38.1327 76.4135C38.0682 76.4806 37.9899 76.5329 37.9032 76.5668C37.8166 76.6007 37.7236 76.6154 37.6306 76.6099C36.8789 76.6105 36.8044 75.6646 36.4908 74.3006ZM37.3383 71.4069C37.5744 71.1938 37.7384 70.9126 37.8077 70.6024C37.8077 70.3566 37.5414 70.3153 37.1679 70.1078C37.2371 70.6356 37.2834 70.9845 37.3383 71.4063V71.4069ZM64.9447 71.8673C64.6231 71.8673 64.1191 71.6783 63.3937 67.0927C62.5707 67.3904 62.4838 67.437 62.2827 67.437C62.1113 67.4316 61.9489 67.3586 61.8311 67.2339C61.7133 67.1093 61.6497 66.9431 61.6542 66.7717C61.6542 66.0856 62.5108 65.9426 63.3271 65.7313C63.3271 65.5461 63.3204 65.3728 63.3204 65.2055C63.3204 64.7292 63.382 63.8608 64.0169 63.8608C64.6431 63.8608 64.6803 64.3816 64.6803 64.6966V64.8104C64.6803 65.0126 64.6737 65.2318 64.6737 65.4919C66.5246 65.1187 66.4581 65.107 66.6864 65.107C66.8764 65.1009 67.061 65.1703 67.1997 65.3001C67.3385 65.4299 67.4199 65.6094 67.4262 65.7992C67.427 65.8207 67.4268 65.8421 67.4255 65.8634C67.4255 66.5532 66.7956 66.5286 64.952 66.8965C65.6245 70.8319 65.7337 70.5219 65.7337 71.069C65.7474 71.1692 65.7394 71.2711 65.7101 71.3679C65.6808 71.4647 65.6309 71.554 65.564 71.6298C65.497 71.7056 65.4144 71.766 65.3219 71.807C65.2294 71.848 65.1291 71.8685 65.0279 71.8673C65.0013 71.8656 64.9736 71.8673 64.9447 71.8673ZM44.8737 73.983C44.8477 73.808 44.3301 70.4241 44.3301 70.0396C44.3216 69.8819 44.3648 69.7257 44.4533 69.5947C44.5417 69.4638 44.6705 69.3653 44.8201 69.3142C45.3717 69.0814 45.8554 68.7424 46.3934 68.7424C46.7112 68.7435 47.0161 68.8683 47.2434 69.0902C47.4706 69.3121 47.6025 69.6138 47.6109 69.9312C47.6109 70.4863 47.2583 70.9622 46.7659 71.8683C47.2377 72.1084 47.7551 72.2458 48.284 72.2714C48.3619 72.2714 48.4411 72.2518 48.519 72.2518C48.7045 72.2392 48.8874 72.3007 49.0275 72.4228C49.1676 72.5449 49.2534 72.7177 49.2661 72.903C49.2672 72.917 49.2677 72.931 49.2677 72.9452C49.2677 73.6194 48.6988 73.677 48.4252 73.677C48.3699 73.677 48.3253 73.6746 48.3026 73.6746C47.616 73.6766 46.9338 73.5631 46.2849 73.3387C46.4026 73.7047 46.4847 74.0812 46.5302 74.4629C46.5322 74.551 46.5168 74.6387 46.4849 74.7209C46.453 74.803 46.4052 74.8781 46.3442 74.9418C46.2833 75.0056 46.2104 75.0566 46.1296 75.0922C46.0489 75.1278 45.962 75.1471 45.8738 75.1491H45.8541C45.2712 75.1491 45.0987 74.4965 44.8494 73.9554L44.8737 73.983ZM55.6895 70.7164C55.8849 71.363 56.0624 71.6344 56.3963 71.6344C56.8607 71.6344 57.168 71.2603 57.628 71.2603C57.7092 71.2603 57.7897 71.2762 57.8647 71.3073C57.9397 71.3384 58.0079 71.3839 58.0653 71.4413C58.1227 71.4987 58.1682 71.5668 58.1993 71.6418C58.2303 71.7167 58.2463 71.7971 58.2462 71.8782L58.2459 71.8922C58.2459 72.4244 57.6134 73.1032 56.3996 73.1032C56.124 73.1154 55.8495 73.0629 55.5979 72.9498C55.3464 72.8368 55.1248 72.6664 54.9511 72.4523C54.7813 72.2308 53.8286 70.4826 53.8286 70.026C53.8286 69.7905 53.984 69.6767 53.984 69.1279C53.984 68.5056 53.7433 67.9019 53.7433 67.4938C53.7433 66.6181 55.2651 66.4694 55.7797 66.4694C57.132 66.4694 57.1516 67.1759 57.1516 67.2454V67.25C57.1531 67.4153 57.0887 67.5743 56.9728 67.6922C56.8569 67.8101 56.6988 67.8772 56.5334 67.8787C56.5155 67.8789 56.4975 67.8783 56.4795 67.877H55.2681C55.2904 68.3722 55.3103 68.8236 55.3346 69.3405C56.3983 69.2437 56.3953 69.2407 56.4862 69.2407H56.4998C56.6466 69.2407 57.2728 69.262 57.2728 69.8543C57.2708 70.596 56.0547 70.6672 55.6895 70.7164Z" fill="#290568"/>
<path d="M44.8489 73.9559V73.9872C44.8489 74.9963 44.2829 75.591 43.3275 75.591C40.9072 75.591 40.085 73.019 40.085 70.5893C40.085 70.0525 40.9505 69.366 42.0747 69.366C43.4064 69.366 43.5552 69.8981 43.5552 70.1642C43.5523 70.3318 43.4829 70.4913 43.3623 70.6078C43.2417 70.7242 43.0797 70.788 42.912 70.7852C42.8947 70.785 42.8774 70.784 42.8601 70.7822C42.6603 70.7822 42.4606 70.7386 42.1633 70.7386C41.6972 70.7386 41.4932 70.87 41.4932 71.2276C41.5113 71.5016 41.5688 71.7715 41.6639 72.0291C42.7795 71.8026 42.7988 71.781 42.9986 71.781C43.0876 71.7707 43.1778 71.7793 43.2633 71.8062C43.3489 71.8331 43.4277 71.8777 43.4949 71.937C43.562 71.9964 43.6158 72.0692 43.6529 72.1508C43.69 72.2323 43.7094 72.3208 43.71 72.4103C43.71 73.0559 42.8351 73.1637 42.175 73.3529C42.4436 73.8518 42.7312 74.1033 43.0758 74.1033C43.5672 74.1033 43.7416 73.7128 44.1744 73.7128C44.4276 73.7386 44.6691 73.8323 44.8735 73.9839L44.8489 73.9559ZM59.8789 68.0485C59.7368 68.4087 59.663 68.7922 59.6616 69.1794C59.6616 69.3187 59.7231 70.9755 60.7049 70.9755C61.3707 70.9755 61.635 70.3478 62.1697 70.3478C62.3384 70.3547 62.4985 70.4239 62.6192 70.5419C62.7398 70.6599 62.8124 70.8184 62.8228 70.9868C62.8228 71.4654 62.0458 72.4479 60.8068 72.4479C58.9758 72.4479 58.2397 70.7623 58.2397 69.3018C58.2397 68.3549 58.6935 66.3576 60.1409 66.3576C60.376 66.3535 60.603 66.4427 60.7722 66.6057C60.9414 66.7687 61.039 66.9922 61.0435 67.227C61.0451 67.9265 60.2951 67.9351 59.8789 68.0485Z" fill="#290568"/>
<path fill-rule="evenodd" clip-rule="evenodd" d="M211.412 54.8111C210.025 62.2102 205.602 67.1617 203.207 69.1564C207.325 79.2982 211.505 79.8293 211.505 81.2818C211.505 83.0909 209.553 83.2412 208.567 83.2412C208.37 83.2412 208.211 83.2352 208.114 83.2352C198.48 83.2352 193.183 74.8842 192.137 74.8842C191.671 74.8842 189.834 75.4656 186.737 75.4656C172.419 75.4656 161.997 63.6009 161.997 50.3831C162.016 45.9024 163.215 41.5056 165.473 37.6347C167.732 33.7637 170.971 30.5551 174.864 28.3314C171.566 23.8701 163.765 15.3012 161.881 14.2109C160.354 12.184 142.684 0 119.923 0C115.229 0 113.305 0.341586 113.231 0.350234C92.906 2.01326 75.1744 17.2469 68.9161 33.0071L67.4999 35.6473C59.9868 48.5524 55.8248 53.9194 54.0291 56.2689C67.4406 56.2902 75.6721 61.9189 75.6721 68.5181C75.6721 76.2139 64.0223 84.5018 46.1998 84.5517C41.0667 84.5124 37.5496 83.6786 34.9852 82.7127C30.1247 90.03 24.5469 103.111 24.5469 114.709C24.5469 117.744 24.7037 117.976 24.7316 118.121C25.5311 117.927 26.2893 117.754 27.0082 117.598C26.0443 117.827 25.2445 118.012 24.7316 118.121C24.7316 118.26 24.8718 121.282 24.8718 121.394C24.8718 130.874 31.2689 141.783 33.6529 145.504C40.5131 139.855 44.2783 138.784 65.1998 126.609C81.2326 117.28 79.8035 111.726 81.9357 111.726C82.3928 111.726 82.8272 112.043 83.6003 112.497C83.5577 112.356 83.5019 112.22 83.4338 112.09C78.5401 105.397 74.5568 88.6078 74.5568 87.4859C74.5568 86.0105 75.0472 84.2174 76.5313 84.2174C76.9005 84.2271 77.2626 84.321 77.59 84.4918C84.4585 87.8511 85.6363 94.8425 88.0219 97.822C87.2562 90.3666 86.8371 80.6875 86.8371 76.3433C86.8371 71.5588 88.6015 68.3498 90.599 68.3498C93.1833 68.3498 93.9973 70.6654 95.01 72.4977C95.262 70.0946 95.8289 64.7597 98.9716 64.7597C103.619 64.7597 104.725 69.8592 105.589 74.3613C106.588 72.9677 107.445 71.5987 109.218 71.1932C108.622 67.2485 108.44 64.8285 108.44 63.2573C108.44 58.1814 109.969 56.1967 112.468 56.1967C116.335 56.1967 117.435 64.885 118.644 67.5984V67.2199C118.644 66.2095 118.537 62.9825 118.537 60.5216C118.537 52.3132 121.246 49.9703 122.933 49.9703C126.697 49.9703 126.535 58.503 129.009 71.019L129.176 70.9987C128.987 68.2261 128.816 67.7504 128.816 65.5439C128.816 55.0738 133.328 52.2241 134.209 52.2241C136.485 52.2241 137.345 58.2861 141.84 83.2875C145.336 80.8391 151.566 73.8009 155.228 73.8009C156.892 73.8009 158.046 75.1067 158.046 76.7404C158.046 79.2087 154.899 82.6039 152.468 85.8206C146.043 94.319 151.087 96.4044 146.384 108.147C152.78 112.87 139.526 106.052 186.67 138.346C191.464 134.17 198.343 128.018 202.827 123.417C215.494 110.053 219.433 97.3796 219.91 93.0298C219.926 92.34 220.556 88.6144 220.676 87.9349V82.3884C220.212 79.9311 220.815 65.6527 211.412 54.8111ZM52.6336 107.877C52.8131 107.678 52.9592 107.451 53.0664 107.205C53.067 107.184 53.067 107.163 53.0664 107.143C53.0664 106.108 52.4375 106.062 51.4585 105.99C50.3621 105.91 48.8267 105.797 47.2438 104.227C46.7331 103.72 46.3976 103.259 46.1296 102.891C45.7417 102.357 45.4955 102.019 45.0643 102.019C44.7608 102.042 44.4755 102.173 44.2595 102.387C44.0435 102.601 43.9108 102.885 43.8851 103.188C43.5414 106.696 42.7822 107.253 41.5157 108.181C41.0427 108.528 40.4989 108.926 39.8796 109.55C39.79 109.632 39.7179 109.731 39.6676 109.842C39.6173 109.953 39.5897 110.072 39.5866 110.194C39.5859 110.209 39.5858 110.223 39.5863 110.238C39.5895 110.452 39.678 110.657 39.8322 110.807C39.9864 110.956 40.1937 111.038 40.4086 111.035C40.494 111.035 40.5762 111.025 40.6762 111.012C40.833 110.992 41.0341 110.966 41.3623 110.966C43.4913 110.966 46.7921 112.634 46.9052 115.053C46.9076 115.419 47.0481 115.77 47.2985 116.037C47.549 116.304 47.891 116.466 48.2562 116.492C48.4904 116.49 48.7147 116.397 48.8813 116.233C49.048 116.068 49.1438 115.845 49.1484 115.611C49.1484 115.502 49.1139 115.361 49.0715 115.188C49.0036 114.91 48.9153 114.549 48.9153 114.101C48.9153 112.397 51.3253 109.037 52.6336 107.877ZM106.944 37.4068C107.493 37.4068 107.757 37.2046 108.035 36.6023C108.118 36.4395 108.164 36.2606 108.171 36.0781C108.171 35.7484 107.982 35.5209 107.786 35.2854C107.627 35.0939 107.464 34.8971 107.394 34.6359C106.754 32.2381 106.479 30.5747 106.293 29.4448C106.021 27.7954 105.937 27.283 105.174 27.283C104.688 27.283 104.439 27.8049 104.118 28.479C103.544 29.6822 102.74 31.3704 99.9397 31.4405C99.4432 31.4709 98.9544 31.5781 98.4909 31.7585C98.3337 31.8084 98.1964 31.9067 98.0985 32.0394C98.0007 32.172 97.9474 32.3321 97.9462 32.4969C97.9462 32.9374 98.6207 33.5138 99.3037 34.0974C99.8109 34.5309 100.323 34.9684 100.567 35.3573C102.102 37.8026 102.168 38.5151 102.168 38.7708V38.8317C102.168 39.1671 102.09 39.3556 102.022 39.5186C101.971 39.6426 101.926 39.7518 101.926 39.8997C101.938 40.1201 102.034 40.3276 102.193 40.4809C102.352 40.6342 102.562 40.7219 102.783 40.7266C103.233 40.7266 103.512 40.3067 103.891 39.7366C104.29 39.1358 104.8 38.3684 105.737 37.7497C105.977 37.5407 106.274 37.4071 106.59 37.3656C106.673 37.366 106.754 37.379 106.832 37.4042C106.87 37.4068 106.908 37.4068 106.944 37.4068ZM172.62 113.144C172.763 113.217 172.921 113.259 173.081 113.268C173.777 113.268 173.94 112.704 174.179 111.879C174.516 110.717 175.003 109.037 177.334 107.68V107.681C177.516 107.602 177.674 107.475 177.79 107.314C177.906 107.153 177.977 106.964 177.995 106.767C177.995 106.359 177.687 106.073 177.281 105.693C176.534 104.996 175.452 103.987 175.327 101.345C175.339 101.282 175.345 101.219 175.345 101.155C175.345 100.705 175.029 100.531 174.705 100.353C174.639 100.317 174.573 100.281 174.51 100.242C174.315 100.112 174.088 100.037 173.854 100.026C173.288 100.026 173.138 100.574 172.921 101.364C172.562 102.676 172.02 104.655 169.091 105.908C168.499 106.162 167.88 106.442 167.88 107.072C167.88 107.848 168.404 107.966 168.878 108.072C169.093 108.12 169.297 108.165 169.439 108.269C171.119 109.495 171.297 110.36 171.465 111.174C171.578 111.723 171.686 112.248 172.246 112.846C172.348 112.97 172.476 113.072 172.62 113.144Z" fill="#EBCFE4"/>
<path fill-rule="evenodd" clip-rule="evenodd" d="M140.019 152.541C139.791 152.156 138.471 149.927 136.763 146.89C136.443 146.319 135.268 144.239 133.498 140.96C122.379 120.459 122.645 120.3 121.255 120.062C119.005 119.676 116.222 116.673 116.19 116.654C115.032 120.908 112.934 124.849 110.051 128.186C110.637 128.547 111.745 129.046 111.745 129.762C111.72 129.964 111.647 130.157 111.532 130.325C111.417 130.493 111.264 130.631 111.084 130.729C104.477 134.953 92.1494 162.399 70.047 185.42C69.9905 185.516 69.9352 185.608 69.8779 185.706C69.9745 185.889 78.3338 199.118 83.2129 203.768C95.1975 214.295 108.542 213.637 114.956 214.527H120.803C121.378 214.364 135.011 212.567 142.968 208.736C153.311 205.771 161.858 190.297 162.909 184.295C152.29 172.767 144.012 159.301 140.019 152.541ZM116.118 158.822C117.42 158.822 116.568 156.404 119.886 153.892C120.025 153.797 120.137 153.666 120.211 153.515C120.285 153.363 120.318 153.194 120.308 153.025C120.308 152.978 120.305 152.939 120.305 152.93C119.299 151.629 118.268 151.714 117.321 148.23C117.314 148.204 117.178 147.417 116.506 147.417C116.087 147.417 115.784 147.536 115.562 148.268C115.372 149.122 115.048 149.939 114.601 150.691C114.406 150.836 114.262 151.038 114.189 151.27C113.063 152.686 111.923 153.066 111.923 153.791C111.923 154.689 113.966 154.767 115.104 157.698C115.436 158.552 115.663 158.822 116.118 158.822Z" fill="#EBCFE4"/>
</g>
<defs>
<clipPath id="clip0_558_17924">
<rect width="240" height="220" fill="white" transform="translate(0.5)"/>
</clipPath>
</defs>
</svg>
