<svg width="344" height="176" viewBox="0 0 344 176" fill="none" xmlns="http://www.w3.org/2000/svg">
<mask id="mask0_1772_34687" style="mask-type:alpha" maskUnits="userSpaceOnUse" x="0" y="0" width="344" height="176">
<rect width="344" height="176" rx="20" fill="#D9D9D9"/>
</mask>
<g mask="url(#mask0_1772_34687)">
<rect width="344" height="176" rx="20" fill="#EEF2FA"/>
<path fill-rule="evenodd" clip-rule="evenodd" d="M379.927 186.109C358.28 129.483 344.897 187.249 273.173 73.5574C230.46 5.85156 148.785 26.7788 116.724 39.0344C49.0246 64.9136 55.4354 113.699 35.6465 151.018C17.3012 185.615 -13.7838 183.224 -22.8793 231.828C-23.2211 234.031 -23.5219 236.34 -23.7817 238.755C-23.7123 238.707 -23.6375 238.667 -23.5589 238.637C-23.3074 238.546 -23.0303 238.556 -22.787 238.667C-22.5436 238.778 -22.3535 238.979 -22.2573 239.228C-22.1611 239.477 -22.1666 239.754 -22.2725 240C-22.3784 240.245 -22.5763 240.439 -22.8238 240.541C-23.0118 240.626 -23.2223 240.647 -23.4234 240.601C-23.6244 240.556 -23.8051 240.446 -23.938 240.289C-24.2257 243.236 -24.4489 246.351 -24.6077 249.632C-24.7359 255.535 -23.7255 261.406 -21.6317 266.926C-14.8471 284.674 356.527 279.483 369.815 285.433C390.075 274.606 393.592 221.858 379.927 186.109ZM67.7867 155.151C66.4141 155.35 65.0615 155.669 63.7443 156.103C62.9824 156.395 62.8164 157.029 63.0891 157.744L63.1223 157.83C63.1696 157.919 63.2152 158.007 63.2601 158.094C63.6339 158.82 63.96 159.452 64.8629 159.107C65.0521 159.035 65.0989 159.008 65.2326 158.932C65.4291 158.821 65.8132 158.602 67.1124 157.975C67.2295 157.919 67.3651 157.861 67.5096 157.8C68.3336 157.45 69.4434 156.979 69.0266 155.889C68.9406 155.639 68.7689 155.428 68.542 155.293C68.315 155.158 68.0474 155.108 67.7867 155.151ZM253.528 88.3208C253.679 87.9932 253.771 87.6411 253.797 87.2812L253.788 87.259C253.155 85.6032 252.423 86.7871 250.506 84.8787C247.018 81.4054 247.102 79.2832 245.512 79.8911C243.371 80.7096 248.268 85.8781 243.232 89.8059C243.012 89.9587 242.849 90.1806 242.769 90.4363C242.69 90.692 242.698 90.9669 242.793 91.2172C243.499 93.0658 245.509 90.673 247.735 92.7239C250.847 95.5898 251.226 98.018 252.75 97.4355C253.931 96.984 253.502 95.708 253.351 95.3133L253.235 95.0116C253.043 94.5079 251.797 91.0496 253.528 88.3208ZM301.506 146.365C302.558 145.963 302.35 145.154 301.994 143.763C301.607 142.249 301.042 140.044 301.737 136.927C301.822 136.608 301.813 136.271 301.71 135.957C301.483 135.365 301.266 135.342 300.906 135.304C300.233 135.232 299.061 135.108 296.4 131.121C295.973 130.482 295.301 130.146 294.795 130.34C294.498 130.453 293.373 131.556 293.676 132.758C294.472 135.918 293.275 138.016 292.432 139.495C291.945 140.348 291.577 140.995 291.777 141.519C291.782 141.532 291.787 141.545 291.792 141.558C291.799 141.575 291.806 141.591 291.813 141.607C291.954 141.915 292.211 142.155 292.528 142.274C292.846 142.393 293.198 142.381 293.507 142.24C293.857 142.106 294.116 141.947 294.354 141.8C294.555 141.676 294.74 141.562 294.953 141.481C297.011 140.694 298.698 143.577 299.598 145.117C299.775 145.42 299.922 145.67 300.035 145.831C300.17 146.086 300.396 146.282 300.668 146.381C300.939 146.479 301.238 146.474 301.506 146.365Z" fill="#D6E0F3"/>
<path fill-rule="evenodd" clip-rule="evenodd" d="M-4.88383 274.731C-4.59229 274.853 -4.26526 274.861 -3.96837 274.752L-3.96502 274.75C-3.82317 274.694 -3.69385 274.61 -3.58447 274.503C-3.47509 274.396 -3.38779 274.269 -3.32756 274.129C-3.26732 273.989 -3.23531 273.838 -3.23339 273.685C-3.23146 273.533 -3.25964 273.381 -3.31632 273.24C-3.42948 272.946 -3.65398 272.71 -3.94107 272.581C-4.22815 272.452 -4.55466 272.441 -4.8497 272.551C-5.1391 272.673 -5.37141 272.901 -5.49961 273.187C-5.6278 273.473 -5.64231 273.798 -5.5402 274.094C-5.40985 274.382 -5.17537 274.61 -4.88383 274.731Z" fill="#D6E0F3"/>
<path d="M123.312 79.0492H119.255V75.1183H115.775V79.0492H111.718V82.4172H115.775V86.3481H119.255V82.4172H123.312V79.0492ZM287.244 28.686H284.696V26.2207H282.513V28.686H279.965V30.8019H282.513V33.2673H284.696V30.8019H287.244V28.686Z" fill="white"/>
<path d="M200.761 102.977L179.344 92.6981C179.344 92.6981 182.174 85.5156 182.251 85.0837C182.931 81.6381 181.916 74.3198 181.916 74.3198L198.46 70.7334L199.421 81.0363L199.746 84.5256L200.761 102.977Z" fill="#E4BEB2"/>
<path d="M199.421 81.0364C196.334 82.8077 192.132 84.8896 188.351 85.6273C185.91 86.1029 183.872 85.7583 182.251 85.0886C182.93 81.643 181.916 74.3246 181.916 74.3246L198.46 70.7383L199.421 81.0364Z" fill="#D7ADA0"/>
<path d="M181.742 86.5195C181.742 86.5195 182.542 96.0848 199.873 86.8544L206.084 89.6643L202.498 103.723L184.853 144.658L170.056 137.384C170.061 137.389 163.975 91.0862 181.742 86.5195Z" fill="#5F369D"/>
<path d="M180.722 137.521L199.877 86.9911L199.751 84.6568C199.751 84.6568 223.739 91.2666 227.782 100.458C231.824 109.65 243.224 153.899 238.992 161.276C234.765 168.653 224.841 173.797 224.841 173.797C224.841 173.797 230.815 213.223 228.883 215.154C226.952 217.086 199.659 224.346 184.216 226.001L179.349 215.154L176.495 226.001L151.352 219.022L152.253 206.424L155.579 159.932L133.604 150.138C133.604 150.138 144.878 100.099 148.003 96.9689C151.129 93.8387 182.416 83.958 182.416 83.958L181.741 86.6563L180.722 137.521Z" fill="white"/>
<path d="M155.579 159.932L133.604 150.138L131.125 204.482L152.253 206.424L155.579 159.932Z" fill="white"/>
<path d="M186.759 139.383C186.653 139.383 186.541 139.35 186.449 139.286C186.201 139.117 186.143 138.777 186.313 138.529C186.434 138.355 198.606 120.864 200.246 116.206C201.804 111.799 196.16 105.791 196.102 105.733C195.898 105.514 195.903 105.175 196.116 104.966C196.189 104.893 203.565 97.735 205.696 95.5997C206.608 94.6874 206.021 92.9888 205.361 91.727C204.546 90.1644 203.357 88.7279 202.91 88.2814C202.697 88.0679 202.697 87.7233 202.91 87.5098C203.124 87.2962 203.468 87.2962 203.682 87.5098C204.07 87.898 205.39 89.4121 206.332 91.2223C207.826 94.0953 207.229 95.6046 206.468 96.3665C204.609 98.2252 198.79 103.879 197.252 105.379C198.562 106.873 202.818 112.192 201.27 116.565C199.576 121.359 187.706 138.423 187.201 139.146C187.099 139.301 186.929 139.383 186.759 139.383ZM177.558 139.383C177.354 139.383 177.155 139.267 177.063 139.068C176.733 138.345 168.944 121.321 167.265 116.57C165.659 112.017 171.016 105.961 172.288 104.612C171.817 103.51 170.182 99.88 168.439 98.133C168.075 97.769 167.891 97.2983 167.901 96.7402C167.94 94.3962 171.434 90.8341 174.472 87.9951C174.705 87.7767 174.879 87.6165 174.976 87.5146C175.19 87.3011 175.535 87.3011 175.748 87.5146C175.962 87.7281 175.962 88.0727 175.748 88.2862C175.646 88.3882 175.462 88.5629 175.214 88.7909C171.109 92.6297 169.012 95.3134 168.988 96.7596C168.983 97.0216 169.051 97.2158 169.206 97.3662C171.424 99.584 173.351 104.33 173.428 104.529C173.511 104.733 173.462 104.961 173.307 105.116C173.244 105.184 166.731 111.809 168.284 116.21C169.944 120.913 177.961 138.442 178.044 138.617C178.17 138.888 178.048 139.214 177.777 139.34C177.714 139.369 177.636 139.383 177.558 139.383Z" fill="#290568"/>
<path d="M169.371 49.5009C169.371 49.5009 165.858 45.7107 164.339 49.5009C162.82 53.2911 163.941 58.9594 166.838 61.8567C169.735 64.7539 170.06 62.3226 170.06 62.3226L169.371 49.5009Z" fill="#E4BEB2"/>
<path d="M168.866 40.9551C168.745 41.8675 167.119 60.0711 170.06 67.1467C173.001 74.2224 183.202 80.4731 190.278 78.9104C197.354 77.3478 205.851 73.6304 208.7 65.1764C208.7 65.1764 215.431 66.9429 218.032 60.8961C219.187 58.2124 222.007 51.4813 216.309 49.1858C210.612 46.8903 210.102 52.2869 210.102 52.2869L211.141 30.7541L187.521 23.8628C187.521 23.8628 171.254 22.8485 168.866 40.9551Z" fill="#EBCFCF"/>
<path d="M182.227 132.114C183.906 134.055 185.308 135.729 186.172 135.467C186.259 135.443 186.803 134.923 186.871 134.865C187.589 134.244 186.677 132.007 184.833 129.867C182.989 127.726 180.907 126.494 180.188 127.115C180.116 127.178 179.558 127.6 179.514 127.697C179.155 128.532 180.567 130.192 182.227 132.114Z" fill="white"/>
<path d="M185.978 135.803C184.997 135.803 183.789 134.4 182.168 132.522L181.993 132.318C180.004 130.008 178.824 128.538 179.232 127.582C179.281 127.47 179.373 127.373 179.878 126.975L179.984 126.892C180.45 126.495 181.227 126.601 182.241 127.198C183.148 127.732 184.148 128.61 185.065 129.673C186.783 131.663 188.069 134.245 187.075 135.104L186.978 135.191C186.449 135.681 186.361 135.739 186.264 135.769C186.167 135.788 186.075 135.803 185.978 135.803ZM182.459 131.915L182.634 132.119C184.012 133.716 185.454 135.366 186.085 135.177C186.119 135.147 186.449 134.837 186.56 134.74L186.672 134.633C187.118 134.245 186.546 132.323 184.6 130.066C183.726 129.057 182.78 128.222 181.93 127.722C181.067 127.213 180.567 127.193 180.387 127.354C180.368 127.368 180.324 127.407 180.261 127.455C180.154 127.538 179.829 127.795 179.771 127.868C179.504 128.494 181.144 130.391 182.459 131.915Z" fill="#290568"/>
<path d="M186.262 135.362C186.983 134.741 186.07 132.503 184.224 130.365C182.378 128.226 180.298 126.997 179.578 127.618C178.858 128.24 179.77 130.478 181.616 132.616C183.462 134.755 185.542 135.984 186.262 135.362Z" fill="white"/>
<path d="M185.778 135.85C184.608 135.85 182.784 134.457 181.386 132.836C180.474 131.778 179.751 130.657 179.353 129.682C178.79 128.304 179.057 127.682 179.377 127.406C180.372 126.547 182.735 128.197 184.458 130.186C186.176 132.176 187.462 134.758 186.467 135.617C186.283 135.777 186.05 135.85 185.778 135.85ZM180.081 127.779C179.95 127.779 179.848 127.809 179.78 127.867C179.6 128.022 179.542 128.522 179.92 129.449C180.294 130.361 180.978 131.424 181.852 132.433C183.803 134.69 185.623 135.539 186.064 135.151C186.511 134.763 185.938 132.841 183.992 130.584C182.347 128.677 180.794 127.779 180.081 127.779Z" fill="#290568"/>
<path d="M176.645 137.783L182.982 132.313L182.158 131.358L175.821 136.828L176.645 137.783Z" fill="white"/>
<path d="M176.607 138.195L175.379 136.777L182.178 130.91L183.405 132.327L176.607 138.195ZM176.243 136.841L176.67 137.336L182.542 132.264L182.115 131.769L176.243 136.841Z" fill="#290568"/>
<path d="M161.892 155.491L181.707 138.389C182.299 137.879 182.362 136.986 181.852 136.394L177.761 131.653C177.252 131.061 176.359 130.998 175.767 131.507L155.952 148.609C155.36 149.119 155.297 150.012 155.806 150.604L159.897 155.345C160.407 155.937 161.3 156 161.892 155.491Z" fill="white"/>
<path d="M161.669 154.258L176.771 141.223C177.223 140.835 177.271 140.15 176.883 139.704L173.763 136.088C173.374 135.637 172.69 135.588 172.244 135.977L157.141 149.012C156.69 149.4 156.641 150.084 157.029 150.531L160.15 154.146C160.538 154.593 161.218 154.646 161.669 154.258Z" fill="#42C76F"/>
<path d="M177.137 141.254L178.573 140.014L173.62 134.275L172.184 135.515L177.137 141.254Z" fill="white"/>
<path d="M177.096 141.664L171.744 135.462L173.641 133.826L178.994 140.028L177.096 141.664ZM172.607 135.525L177.16 140.8L178.13 139.96L173.578 134.685L172.607 135.525Z" fill="#290568"/>
<path d="M160.97 156.141C160.484 156.141 160.004 155.937 159.664 155.544L155.573 150.802C154.952 150.084 155.034 148.997 155.753 148.376L175.567 131.274C176.286 130.657 177.373 130.735 177.994 131.453L182.085 136.195C182.386 136.544 182.531 136.986 182.498 137.447C182.464 137.908 182.255 138.325 181.905 138.626L162.091 155.728C161.765 156.005 161.368 156.141 160.97 156.141ZM176.693 131.468C176.436 131.468 176.179 131.555 175.97 131.735L156.155 148.837C155.694 149.235 155.641 149.938 156.039 150.399L160.13 155.141C160.533 155.607 161.237 155.655 161.693 155.257L181.508 138.155C181.731 137.961 181.867 137.694 181.891 137.398C181.91 137.102 181.818 136.816 181.624 136.593L177.533 131.851C177.315 131.599 177.004 131.468 176.693 131.468Z" fill="#290568"/>
<path d="M157.995 156.378L159.589 155.002L156.288 151.178L154.694 152.554L157.995 156.378Z" fill="white"/>
<path d="M157.961 156.791L154.258 152.501L156.316 150.725L160.019 155.015L157.961 156.791ZM155.122 152.564L158.024 155.927L159.155 154.952L156.253 151.588L155.122 152.564Z" fill="#290568"/>
<path d="M156.311 156.179L157.184 155.427L155.326 153.277L154.452 154.03C154.132 154.306 154.093 154.791 154.374 155.112L155.229 156.102C155.505 156.422 155.991 156.456 156.311 156.179Z" fill="white"/>
<path d="M155.811 156.675C155.51 156.675 155.209 156.549 154.996 156.301L154.142 155.311C153.753 154.86 153.807 154.18 154.253 153.797L155.36 152.846L157.616 155.461L156.51 156.413C156.311 156.587 156.059 156.675 155.811 156.675ZM156.112 155.947L156.753 155.394L155.297 153.705L154.656 154.258C154.462 154.423 154.443 154.719 154.608 154.908L155.462 155.898C155.627 156.092 155.923 156.112 156.112 155.947Z" fill="#290568"/>
<path d="M154.536 155.314L150.613 158.701L151.013 159.164L154.935 155.776L154.536 155.314ZM171.273 135.401L170.81 135.801L172.703 137.994L173.166 137.595L171.273 135.401ZM168.688 137.612L168.225 138.012L170.119 140.205L170.581 139.805L168.688 137.612ZM166.124 139.846L165.661 140.245L167.554 142.439L168.017 142.039L166.124 139.846ZM163.547 142.069L163.085 142.469L164.977 144.662L165.44 144.263L163.547 142.069ZM160.97 144.293L160.507 144.692L162.4 146.886L162.863 146.486L160.97 144.293ZM158.386 146.503L157.923 146.903L159.817 149.096L160.279 148.696L158.386 146.503Z" fill="#290568"/>
<path d="M193.404 147.921C193.404 147.921 190.914 124.394 185.226 124.394C181.106 124.394 184.362 130.639 184.362 134.531C184.362 138.424 182.072 139.797 180.126 141.743C178.18 143.689 171.997 142.772 171.997 142.772C171.997 142.772 166.615 138.996 165.703 141.054C164.785 143.116 167.421 146.547 167.421 146.547C167.421 146.547 164.101 148.61 167.765 152.269C167.765 152.269 165.819 155.016 169.367 156.734C169.367 156.734 166.848 158.452 172.57 160.743C178.291 163.033 182.873 161.999 186.42 160.743C189.968 159.486 193.404 154.104 193.404 147.921Z" fill="#EBCFCF"/>
<path d="M179.349 149.395C176.369 149.395 169.027 147.605 168.716 147.527C168.444 147.459 168.279 147.187 168.347 146.92C168.415 146.653 168.682 146.488 168.954 146.552C169.032 146.571 176.496 148.391 179.349 148.391C182.13 148.391 183.814 147.377 183.833 147.367C184.071 147.221 184.382 147.299 184.522 147.532C184.668 147.77 184.595 148.08 184.357 148.221C184.275 148.274 182.406 149.395 179.349 149.395ZM179.009 154.253C174.477 154.253 169.585 153.108 169.299 153.04C169.027 152.977 168.862 152.705 168.925 152.433C168.988 152.162 169.255 152.001 169.531 152.06C169.624 152.084 179.019 154.278 183.581 152.627C183.838 152.53 184.129 152.666 184.226 152.928C184.323 153.19 184.188 153.477 183.925 153.574C182.547 154.074 180.805 154.253 179.009 154.253ZM178.902 158.568C174.573 158.568 170.453 157.315 170.21 157.238C169.943 157.155 169.798 156.874 169.88 156.607C169.963 156.34 170.244 156.19 170.511 156.277C170.594 156.301 178.766 158.791 183.91 156.757C184.172 156.655 184.459 156.782 184.561 157.039C184.663 157.296 184.536 157.587 184.279 157.689C182.639 158.339 180.751 158.568 178.902 158.568Z" fill="#E4BEB2"/>
<path d="M223.7 142.771C223.618 142.771 223.535 142.751 223.457 142.713C220.172 141.077 210.519 140.281 196.989 140.538L196.494 140.548C196.193 140.548 195.951 140.306 195.951 140.005C195.951 139.704 196.193 139.461 196.494 139.461L196.965 139.451C205.026 139.306 219.231 139.393 223.938 141.742C224.205 141.878 224.316 142.203 224.181 142.47C224.093 142.659 223.904 142.771 223.7 142.771Z" fill="#290568"/>
<path d="M212.121 140.49C212.107 140.49 212.097 140.49 212.082 140.49C211.781 140.47 211.553 140.208 211.578 139.907C211.583 139.854 211.956 134.453 212.869 127.891C213.747 121.563 220.066 102.719 221.109 101.676C221.323 101.462 221.667 101.462 221.881 101.676C222.089 101.884 222.094 102.219 221.89 102.433C221.056 103.524 214.863 121.437 213.946 128.042C213.043 134.564 212.665 139.927 212.665 139.98C212.645 140.271 212.408 140.49 212.121 140.49ZM152.788 197.372C152.769 197.372 152.754 197.372 152.735 197.372C152.434 197.343 152.216 197.076 152.245 196.78C152.259 196.62 153.764 137.015 153.22 128.945C152.677 120.869 148.178 100.22 148.13 100.011C148.066 99.7197 148.251 99.4286 148.547 99.3655C148.843 99.3024 149.129 99.4868 149.192 99.7828C149.236 99.9915 153.754 120.719 154.303 128.872C154.851 137.03 153.337 196.726 153.322 196.887C153.298 197.163 153.065 197.372 152.788 197.372ZM218.886 175.252C207.967 175.252 189.04 166.128 188.531 165.619C188.317 165.405 188.317 165.061 188.531 164.847C188.735 164.643 189.055 164.633 189.268 164.818C190.152 165.42 211.049 175.373 220.823 174.039C221.128 174 221.395 174.208 221.434 174.505C221.473 174.801 221.264 175.077 220.968 175.116C220.318 175.213 219.619 175.252 218.886 175.252ZM178.301 209.757C178.005 209.757 177.762 209.519 177.757 209.223L177.015 165.245C177.01 164.944 177.248 164.697 177.548 164.692C177.82 164.643 178.097 164.925 178.102 165.226L178.844 209.203C178.849 209.504 178.611 209.752 178.31 209.757C178.306 209.757 178.305 209.757 178.301 209.757ZM205.099 187.773C205.002 187.773 204.919 187.768 204.856 187.763C204.555 187.734 204.337 187.467 204.366 187.166C204.395 186.865 204.682 186.656 204.963 186.676C206.162 186.812 214.567 185.419 219.935 184.468C220.226 184.409 220.512 184.613 220.565 184.909C220.619 185.205 220.42 185.487 220.124 185.54C218.794 185.778 207.501 187.773 205.099 187.773ZM205.564 190.723C205.467 190.723 205.385 190.718 205.322 190.714C205.021 190.684 204.802 190.417 204.832 190.117C204.861 189.816 205.147 189.612 205.428 189.626C206.598 189.757 215.033 188.37 220.4 187.418C220.691 187.36 220.977 187.564 221.031 187.86C221.084 188.156 220.885 188.437 220.589 188.491C219.259 188.729 207.967 190.723 205.564 190.723ZM208.2 18.3762C209.105 13.4955 204.395 8.52993 197.68 7.28513C190.966 6.04034 184.789 8.98708 183.884 13.8677C182.979 18.7479 187.689 23.7135 194.403 24.9588C201.118 26.2036 207.294 23.2564 208.2 18.3762Z" fill="#290568"/>
<path d="M168.309 52.6259C168.309 52.6259 166.091 38.096 182.407 30.831C182.407 30.831 184.955 41.7309 194.006 41.7309C194.006 41.7309 190.055 36.5673 190.948 32.2336C190.948 32.2336 194.899 41.4106 207.007 43.706L209.812 49.8257V55.8143C209.812 55.8143 211.976 49.1851 216.31 49.1851C216.31 49.1851 219.785 28.5064 205.347 21.1444C192.855 14.7725 176.161 16.4273 169.784 28.5356C163.412 40.6438 168.309 52.6259 168.309 52.6259Z" fill="#290568"/>
<path d="M186.76 58.6339C186.745 58.6339 186.731 58.6339 186.716 58.629C186.546 58.6048 186.435 58.4495 186.459 58.2796C186.808 55.9453 187.716 49.748 187.716 49.0977C187.716 48.9279 187.852 48.792 188.022 48.792C188.191 48.792 188.327 48.9279 188.327 49.0977C188.327 49.9276 187.114 58.0224 187.061 58.367C187.041 58.5271 186.91 58.6339 186.76 58.6339Z" fill="#290568"/>
<path d="M171.619 56.8096C171.619 56.8096 205.27 57.8433 206.09 59.2215C206.91 60.5998 206.09 70.0777 206.09 70.0777C206.09 70.0777 200.082 79.7109 187.576 79.1479C175.069 78.585 170.527 68.1365 170.527 68.1365C170.527 68.1365 169.755 58.6731 171.619 56.8096Z" fill="#5F369D"/>
<path d="M196.043 45.9191C195.772 45.9676 196.019 43.3664 197.189 43.3664C198.358 43.3664 202.425 43.8469 202.978 47.2974C202.978 47.2974 198.276 45.5066 196.043 45.9191ZM180.198 44.8417C180.47 44.8903 180.222 42.2891 179.053 42.2891C177.883 42.2891 173.816 42.7695 173.263 46.22C173.263 46.22 177.97 44.4292 180.198 44.8417ZM176.971 47.8166C176.281 47.8166 175.675 48.399 175.321 49.2774L174.238 48.7824L175.112 49.9908C175.044 50.3208 174.995 50.6702 174.995 51.039C174.995 52.8201 175.879 54.2614 176.971 54.2614C178.063 54.2614 178.946 52.8201 178.946 51.039C178.946 49.258 178.063 47.8166 176.971 47.8166ZM201.499 50.2965L200.504 50.7624C200.164 49.7772 199.528 49.1027 198.786 49.1027C197.694 49.1027 196.811 50.544 196.811 52.3251C196.811 54.1061 197.694 55.5475 198.786 55.5475C199.878 55.5475 200.761 54.1061 200.761 52.3251C200.761 51.9611 200.717 51.6214 200.649 51.2962L201.499 50.2965ZM205.458 60.2888C205.414 60.2888 205.366 60.2791 205.322 60.2597C205.172 60.1869 205.109 60.0025 205.182 59.8521C205.259 59.6919 207.142 55.8726 210.695 53.1841C210.83 53.0821 211.02 53.1064 211.122 53.2423C211.224 53.3782 211.199 53.5674 211.063 53.6694C207.627 56.2706 205.749 60.0802 205.73 60.119C205.681 60.2258 205.575 60.2888 205.458 60.2888ZM206.084 70.3879C206.002 70.3879 205.919 70.354 205.861 70.2909C205.745 70.1647 205.754 69.9754 205.876 69.859C205.905 69.8347 208.715 67.1995 209.025 65.2486C209.049 65.0836 209.21 64.972 209.375 64.9963C209.54 65.0254 209.656 65.1807 209.627 65.3457C209.282 67.5004 206.409 70.1938 206.288 70.3054C206.235 70.3637 206.162 70.3879 206.084 70.3879ZM171.613 57.115C171.507 57.115 171.4 57.0567 171.346 56.9548L167.944 50.6848C167.862 50.5343 167.92 50.3499 168.066 50.2674C168.211 50.1849 168.401 50.2431 168.483 50.3887L171.885 56.6588C171.968 56.8092 171.909 56.9937 171.764 57.0762C171.715 57.1053 171.667 57.115 171.613 57.115ZM170.72 68.767C170.667 68.767 170.613 68.7525 170.565 68.7282C168.808 67.7042 168.041 63.5112 168.007 63.3317C167.978 63.1667 168.09 63.0065 168.255 62.9774C168.42 62.9483 168.58 63.0599 168.609 63.2249C168.813 64.3605 169.618 67.4664 170.87 68.1992C171.016 68.2866 171.064 68.471 170.982 68.6166C170.929 68.7137 170.827 68.767 170.72 68.767Z" fill="#290568"/>
</g>
</svg>
