<svg width="200" height="184" viewBox="0 0 200 184" fill="none" xmlns="http://www.w3.org/2000/svg">
<g clip-path="url(#clip0_442_10489)">
<path d="M154.818 22.8988C151.815 16.3814 147.496 10.5558 142.133 5.7885C141.283 4.98278 98.3612 11.9099 98.3175 11.929C98.0271 12.048 97.7959 12.2775 97.6748 12.567C97.5536 12.8565 97.5524 13.1822 97.6713 13.4726C97.6845 13.5052 97.6991 13.537 97.7151 13.5679C98.0124 14.2492 102.069 18.609 105.298 26.0089C116.318 51.264 102.142 63.6549 102.907 65.4067C103.222 66.1294 103.82 66.3223 104.555 66.3303C117.387 66.4654 149.754 67.0433 150.124 66.8819C150.537 66.7037 164.581 50.6388 154.818 22.8988ZM152.403 23.9908C155.236 30.475 156.403 37.5646 155.797 44.6147C155.191 51.6648 152.832 58.4514 148.934 64.357L106.521 63.7869C106.859 63.1948 117.834 48.3003 107.655 24.9723C105.296 19.5657 102.85 16.3276 101.359 14.0353L140.851 8.04423C145.771 12.4968 149.706 17.9279 152.403 23.9908ZM67.4522 73.3847C71.4236 71.5494 72.5167 70.2745 73.3907 69.8932C73.8116 69.7095 73.9231 69.7704 74.2497 69.6279C75.604 69.0369 80.7813 45.0658 80.6563 44.7792C80.265 43.8826 78.7512 43.6221 78.0175 43.9423C77.2774 44.3953 76.5098 44.8019 75.7193 45.1597C72.2692 46.6652 68.5711 46.8277 64.7914 46.4119C44.729 44.2063 36.5195 27.5506 34.3022 28.5181C34.259 28.5369 9.16612 48.9953 9.83855 50.5363C10.5537 52.1727 40.057 85.0126 67.4522 73.3847ZM34.7932 31.3551C55.8624 56.5683 76.4662 47.5215 77.638 47.3004C77.4552 48.1654 73.0606 66.8211 72.5813 67.1546C70.0162 68.92 68.6116 70.0142 66.071 71.1228C43.7689 80.8543 16.0816 55.1156 12.8545 50.0741L34.7932 31.3551ZM55.1572 113.864C55.6085 113.62 55.9516 113.216 56.1188 112.731C56.2859 112.247 56.2649 111.717 56.0598 111.247C55.5314 110.036 48.2575 104.301 43.3598 106.438C42.1118 106.983 40.1694 108.46 41.2218 110.872C43.5614 116.234 52.3952 114.879 55.1572 113.864ZM53.2739 111.664C51.7429 112.103 50.1523 112.298 48.5605 112.242C45.4977 112.294 43.7897 110.315 43.5974 109.874C43.4368 109.506 43.6066 109.135 44.4779 108.755C46.9766 107.666 51.5777 110.556 53.2739 111.664ZM160.072 147.573C168.706 142.841 167.545 139.073 167.223 138.335C167.191 138.262 167.167 138.219 167.162 138.207C167.015 137.806 166.786 137.441 166.488 137.135C166.191 136.828 165.832 136.588 165.436 136.43C165.039 136.272 164.614 136.199 164.187 136.216C163.761 136.233 163.343 136.34 162.96 136.53C159.514 138.034 158.282 141.196 155.835 145.817C155.711 146.006 155.63 146.221 155.598 146.445C155.566 146.669 155.584 146.897 155.65 147.114C155.715 147.257 155.814 147.384 155.938 147.481C157.468 148.723 157.314 148.536 160.072 147.573ZM159.296 145.232C159.25 145.252 159.164 145.214 158.937 145.182C159.499 144.209 161.334 140.107 163.809 139.027C164.039 138.927 164.391 138.883 164.504 138.99C164.594 139.08 164.665 139.187 164.713 139.304C165.518 141.158 160.407 144.747 159.296 145.232ZM101.077 77.3312C99.1778 73.6351 96.697 74.7176 96.312 74.8856C92.1296 76.7105 93.8205 83.6392 93.8328 87.0744C93.83 87.265 93.8668 87.4541 93.9409 87.6296C94.1865 88.0537 94.5764 88.3753 95.0394 88.5358C95.2057 88.6294 95.3911 88.6842 95.5817 88.6959C95.7722 88.7076 95.9629 88.676 96.1394 88.6034C96.7798 88.324 97.8311 86.7076 97.9031 86.5951C101.459 81.1194 101.404 80.5406 101.077 77.3312ZM96.1545 84.3222C95.2459 78.7585 97.1549 77.362 97.2874 77.3042C97.9866 76.9991 98.4817 77.9807 98.5385 78.1109C99.4468 80.1887 96.4165 83.9576 96.1545 84.3222Z" fill="#290568"/>
<path d="M24.5866 53.0104C24.9034 52.8442 25.1838 52.4546 25.3042 52.0682C25.4547 51.5851 25.2853 51.1084 24.9259 50.7314C24.5664 50.3544 24.1166 50.2673 23.6066 50.3733C23.0966 50.4793 22.7196 50.8388 22.5359 51.2585L22.5058 51.3551L22.4757 51.4517C22.3885 51.9015 22.5579 52.3782 22.9807 52.722C23.4035 53.0657 23.8533 53.1529 24.33 52.9835C24.4599 53.0769 24.5233 53.0437 24.5866 53.0104ZM23.7554 51.4265L23.8821 51.36C24.0088 51.2935 24.1386 51.387 24.2352 51.4171C24.2685 51.4804 24.335 51.6071 24.3049 51.7037C24.2748 51.8004 24.1813 51.9302 24.118 51.9635C24.0546 51.9967 23.8946 51.9999 23.8281 51.8732C23.7616 51.7465 23.665 51.7164 23.6619 51.5564C23.6619 51.5564 23.692 51.4598 23.7554 51.4265ZM27.4942 54.3935C27.4102 55.0032 28.0294 55.5671 28.6661 55.3946C29.2062 55.1919 29.4138 54.3557 29.0211 53.9154C28.6284 53.475 27.7683 53.684 27.5877 54.2636" fill="#290568"/>
<path d="M28.9416 55.8031C29.2583 55.6369 29.5387 55.2473 29.6591 54.8609C29.8097 54.3778 29.6403 53.9011 29.2808 53.5241C28.9546 53.2105 28.4715 53.06 27.9616 53.166C27.4516 53.272 27.0746 53.6315 26.8908 54.0512L26.8607 54.1478L26.8306 54.2444C26.7435 54.6942 26.9128 55.1709 27.3357 55.5146C27.7585 55.8584 28.2083 55.9456 28.685 55.7762C28.8149 55.8696 28.8782 55.8364 28.9416 55.8031ZM28.1435 54.2826L28.2703 54.2161C28.397 54.1496 28.5268 54.243 28.6234 54.2731C28.6567 54.3365 28.7232 54.4632 28.6931 54.5598C28.663 54.6564 28.5695 54.7863 28.5062 54.8195C28.4428 54.8528 28.2828 54.8559 28.2163 54.7292C28.0865 54.6358 28.0532 54.5724 28.0501 54.4124C28.0168 54.3491 28.0802 54.3158 28.1435 54.2826ZM26.0204 48.8515L31.7578 41.1536ZM31.7578 41.1536C31.7246 41.0902 30.0837 42.2747 28.6786 44.0626L27.7741 45.2645C26.4657 47.0825 25.4678 48.4143 25.9872 48.7882C26.5399 49.2254 27.5679 47.7969 28.9096 46.0423L29.8473 44.9037C31.1558 43.0857 31.8877 41.2471 31.7578 41.1536ZM30.29 51.1359L33.9048 46.1681ZM33.9048 46.1681C33.8715 46.1048 32.6044 46.7698 31.73 47.8751L31.1693 48.6543C30.3915 49.7897 29.7373 50.6987 30.2567 51.0726C30.8094 51.5098 31.4636 50.6008 32.3047 49.4321L32.8655 48.6529C33.6765 47.5808 34.0346 46.2616 33.9048 46.1681ZM30.5224 56.9974C31.0863 56.3782 32.0762 56.2628 32.6954 56.8267C33.3146 57.3906 33.43 58.3805 32.8661 58.9996C32.3656 59.5856 31.3124 59.7343 30.6932 59.1704C30.1072 58.6698 29.9585 57.6166 30.5224 56.9974Z" fill="#290568"/>
<path d="M36.6761 61.6863C36.9929 61.5201 37.2733 61.1305 37.3937 60.7441C37.5442 60.2611 37.3748 59.7843 37.0153 59.4073C36.6891 59.0937 36.2061 58.9432 35.6961 59.0492C35.1861 59.1552 34.8091 59.5147 34.6254 59.9344L34.5952 60.031L34.5652 60.1276C34.478 60.5774 34.6474 61.0541 35.0702 61.3978C35.493 61.7416 35.9428 61.8288 36.4195 61.6594C36.5494 61.7528 36.6127 61.7196 36.6761 61.6863ZM35.8781 60.1658L36.0048 60.0993C36.1315 60.0328 36.2614 60.1262 36.358 60.1563C36.3912 60.2197 36.4577 60.3464 36.4276 60.443C36.3975 60.5396 36.304 60.6695 36.2407 60.7027C36.1773 60.736 36.0174 60.7391 35.9509 60.6124C35.821 60.519 35.7878 60.4556 35.7846 60.2956C35.7514 60.2323 35.8147 60.199 35.8781 60.1658ZM33.755 54.7347L39.4924 47.0368ZM39.4924 47.0368C39.4591 46.9734 37.8182 48.1579 36.4132 49.9458L35.5087 51.1477C34.2002 52.9657 33.2023 54.2975 33.7217 54.6714C34.2744 55.1086 35.3024 53.6801 36.6441 51.9255L37.5819 50.7869C38.8903 48.9689 39.6222 47.1303 39.4924 47.0368ZM38.0245 57.0191L43.5003 49.4995ZM43.5003 49.4995C43.4671 49.4362 42.2372 50.0424 41.3628 51.1477L38.9038 54.5375C38.126 55.6729 37.4718 56.5819 37.9912 56.9558C38.5439 57.393 39.1981 56.484 40.0393 55.3153L40.6 54.5361C41.4111 53.464 43.6302 49.593 43.5003 49.4995Z" fill="#290568"/>
<path d="M67.4903 66.8377C63.7614 66.6053 60.0566 66.4298 56.3847 66.1732C56.736 60.982 57.0545 55.872 57.4058 50.6808C61.3196 51.5071 65.3575 51.6756 69.3385 51.8683C69.6052 56.9316 69.1486 62.033 68.01 66.9533" fill="#290568"/>
<path d="M68.0093 66.9534C68.0093 66.9534 68.0421 66.8723 68.0265 66.6772C68.0679 66.458 68.0851 66.1817 68.1351 65.8244C68.2351 65.1097 68.3851 64.0376 68.5523 62.6893C68.8298 60.0168 69.0951 56.2068 68.7525 51.9151L69.2222 52.3881C66.6465 52.3384 63.8515 52.2474 60.9598 51.9285C59.6927 51.7941 58.4583 51.5785 57.1428 51.3301L57.8436 50.7637L57.5595 55.3213C57.2529 59.3507 57.0204 63.0796 56.7655 66.2803L56.2475 65.6934C62.9579 66.1394 67.3445 66.4961 67.3187 66.9104C67.2929 67.3247 62.8648 67.1873 56.1458 66.8794C55.8126 66.8864 55.5536 66.593 55.6278 66.2926L56.3079 55.382L56.592 50.8244C56.585 50.4912 56.8785 50.2322 57.2358 50.2822C57.2358 50.2822 57.2928 50.258 57.317 50.315C58.5513 50.5306 59.7857 50.7462 60.9959 50.9048C63.8306 51.2478 66.5928 51.42 69.1357 51.5508C69.4119 51.568 69.6226 51.7475 69.6054 52.0237C69.777 56.3879 69.3167 60.2136 68.7872 62.9257C68.5388 64.2412 68.2507 65.3047 68.0937 66.0436C67.9867 66.4252 67.8884 66.6686 67.847 66.8878C68.0421 66.8723 68.0093 66.9534 68.0093 66.9534Z" fill="#290568"/>
<path d="M134.485 21.836C133.57 22.417 132.676 23.1697 132.234 24.2727C131.869 25.0749 131.577 25.9843 131.399 26.8794L144.396 24.773C143.478 23.4928 142.418 22.4633 140.985 21.7134C140.548 21.4777 140.004 21.3138 139.46 21.1498" fill="#290568"/>
<path d="M139.46 21.1497C139.467 21.207 140.126 21.3565 141.014 21.9424C141.96 22.521 143.135 23.5361 144.017 24.9953L144.339 24.3148C142.85 24.5028 141.247 24.7052 139.536 24.9794L135.657 25.5855C134.118 25.8379 132.637 26.0832 131.327 26.3067L131.929 26.9287C132.057 26.0982 132.307 25.3105 132.571 24.6372C132.777 23.9713 133.128 23.5198 133.428 23.1329C134.085 22.3518 134.565 22.0005 134.486 21.8359C134.407 21.6714 133.727 21.8154 132.833 22.5681C132.418 22.9695 131.911 23.5572 131.597 24.2949C131.283 25.0326 130.976 25.8275 130.805 26.7798C130.727 27.0805 130.935 27.3451 131.235 27.4235L131.407 27.4018C132.717 27.1783 134.148 26.9975 135.744 26.7379L139.624 26.1318C141.334 25.8576 142.923 25.5407 144.397 25.2382L144.454 25.231C144.683 25.202 144.826 24.9513 144.797 24.7223C144.79 24.665 144.783 24.6078 144.718 24.5577C143.593 23.0129 142.138 22.0913 141.15 21.6344C140.656 21.4059 140.176 21.292 139.875 21.2136C139.639 21.1853 139.46 21.1497 139.46 21.1497ZM138.34 18.2663C137.868 19.1402 136.903 19.7856 135.95 19.615C134.168 19.3166 133.177 17.4638 134.149 15.945C134.678 15.0639 135.779 14.5757 136.789 14.7391C138.801 15.0086 139.197 16.7619 138.34 18.2663Z" fill="#290568"/>
<path d="M138.339 18.266C138.339 18.266 138.396 18.2588 138.439 18.137C138.489 18.0725 138.589 17.9436 138.682 17.7573C138.875 17.4421 139.096 16.8906 139.009 16.2035C138.966 15.86 138.858 15.4664 138.579 15.0945C138.299 14.7226 137.919 14.4797 137.49 14.3013C137.06 14.1229 136.523 14.0162 136.007 14.0812C135.492 14.1463 134.991 14.3259 134.505 14.62C133.704 15.1865 133.19 16.1821 133.198 17.17C133.228 18.3296 133.924 19.2307 134.798 19.7021C135.234 19.9378 135.65 20.0017 136.065 20.0656C136.473 20.0722 136.867 19.9644 137.203 19.8637C137.804 19.5552 138.154 19.1038 138.347 18.7886C138.49 18.5378 138.468 18.3661 138.339 18.266C138.088 18.1231 137.695 18.6963 136.808 19.041C136.586 19.1272 136.357 19.1561 136.121 19.1278C135.885 19.0994 135.584 19.0211 135.333 18.8782C134.832 18.5925 134.344 17.956 134.379 17.3117C134.364 16.7319 134.693 16.1087 135.229 15.7501C135.494 15.5422 135.88 15.3771 136.224 15.3337C136.56 15.233 136.918 15.3042 137.219 15.3826C137.878 15.5321 138.336 15.9395 138.459 16.4476C138.638 16.9485 138.589 17.4783 138.51 17.779C138.432 18.0798 138.339 18.266 138.339 18.266Z" fill="#290568"/>
<path d="M140.299 39.7297C139.376 40.2984 138.472 41.0391 138.015 42.1361C137.641 42.9334 137.336 43.8389 137.146 44.7314L149.434 42.5819C148.533 41.2896 148.223 40.4625 146.8 39.6937C146.366 39.4522 145.824 39.281 145.282 39.1098" fill="#290568"/>
<path d="M145.282 39.1097C145.289 39.167 145.946 39.3253 146.826 39.923C147.764 40.5142 147.997 41.3508 148.86 42.8216L149.19 42.1455C147.699 42.3136 146.65 42.477 144.936 42.7283L141.421 43.4944C139.879 43.7263 138.791 43.5681 137.478 43.7741L138.072 44.4041C138.211 43.5753 138.308 42.9366 138.581 42.2669C138.797 41.6038 138.919 41.3952 139.225 41.0123C139.892 40.2401 140.376 39.8952 140.3 39.7296C140.223 39.564 139.541 39.6989 138.637 40.4397C138.217 40.8355 137.935 41.1782 137.612 41.9116C137.288 42.6451 137.133 43.2903 136.95 44.2402C136.868 44.5399 137.072 44.8072 137.372 44.8896L137.544 44.8702C138.856 44.6642 139.894 44.8862 141.493 44.6478L145.008 43.8817C146.722 43.6304 147.758 43.3524 149.237 43.0696L149.294 43.0631C149.523 43.0372 149.669 42.7884 149.644 42.559C149.637 42.5017 149.631 42.4444 149.567 42.3935C148.462 40.8338 147.948 40.0869 146.966 39.6168C146.475 39.3818 145.997 39.2615 145.697 39.1791C145.461 39.1476 145.282 39.1097 145.282 39.1097ZM144.851 35.8238C144.368 36.6913 142.744 37.7117 141.794 37.5284C140.015 37.2062 139.785 35.7478 140.777 34.2421C141.318 33.3681 141.69 32.4872 142.697 32.6641C144.705 32.9604 145.728 34.331 144.851 35.8238Z" fill="#290568"/>
<path d="M144.2 36.2112C144.2 36.2112 144.258 36.2048 144.302 36.0836C144.353 36.0198 144.455 35.8922 144.55 35.7072C144.747 35.3946 144.976 34.8461 144.898 34.1579C144.859 33.8138 144.757 33.4188 144.482 33.0433C144.207 32.6677 143.831 32.4197 143.404 32.2356C142.976 32.0514 142.441 31.9376 141.925 31.9958C141.409 32.054 140.905 32.2269 140.415 32.5145C139.607 33.0703 139.079 34.059 139.074 35.0468C139.089 36.2067 139.772 37.117 140.64 37.6C141.074 37.8415 141.488 37.9109 141.903 37.9804C142.31 37.9925 142.705 37.8898 143.043 37.7937C143.648 37.4932 144.004 37.0465 144.201 36.7339C144.347 36.4851 144.328 36.313 144.2 36.2112C143.952 36.0651 143.551 36.6329 142.659 36.9658C142.436 37.049 142.207 37.0749 141.971 37.0434C141.735 37.0119 141.436 36.9295 141.187 36.7833C140.689 36.491 140.21 35.848 140.254 35.2043C140.246 34.6243 140.583 34.0055 141.124 33.6541C141.392 33.4498 141.78 33.2898 142.124 33.251C142.462 33.1549 142.819 33.2308 143.119 33.3131C143.775 33.4714 144.229 33.8849 144.344 34.3946C144.517 34.8978 144.46 35.4269 144.378 35.7266C144.296 36.0263 144.2 36.2112 144.2 36.2112Z" fill="#290568"/>
<path d="M116.653 24.8894C115.775 25.5248 114.928 26.3303 114.553 27.458C114.238 28.2808 114.002 29.2063 113.878 30.1105L125.832 27.6757C124.838 26.4535 124.609 25.0347 123.134 24.3731C122.683 24.1643 122.13 24.0336 121.577 23.903" fill="#290568"/>
<path d="M121.577 23.9029C121.588 23.9596 122.254 24.0689 123.177 24.5998C124.155 25.1201 124.763 26.4299 125.732 27.833L126.011 27.1343C124.537 27.4121 123.576 27.3435 121.885 27.7208L118.05 28.5609C116.529 28.9062 115.066 29.2407 113.772 29.5432L114.41 30.1276C114.488 29.2909 114.689 28.4895 114.912 27.8015C115.078 27.1242 115.4 26.6524 115.676 26.248C116.285 25.4285 116.742 25.0487 116.654 24.8893C116.565 24.7298 115.895 24.9148 115.048 25.7203C114.659 26.1461 114.188 26.7634 113.919 27.5188C113.65 28.2741 113.392 29.0862 113.279 30.0471C113.219 30.352 113.443 30.6036 113.748 30.6636L113.918 30.6315C115.212 30.329 116.63 30.0618 118.207 29.7059L122.042 28.8658C123.733 28.4885 124.672 28.4437 126.126 28.0524L126.182 28.0417C126.409 27.999 126.537 27.7401 126.494 27.5132C126.483 27.4565 126.473 27.3998 126.405 27.3537C125.188 25.88 124.308 24.6804 123.293 24.2842C122.786 24.0861 122.3 24.0015 121.995 23.9415C121.758 23.9275 121.577 23.9029 121.577 23.9029ZM120.64 21.7582C120.223 22.659 119.298 23.3618 118.337 23.2492C116.54 23.0594 115.439 21.27 116.317 19.6951C116.791 18.7836 117.861 18.2296 118.879 18.3315C120.903 18.4786 121.405 20.2047 120.64 21.7582Z" fill="#290568"/>
<path d="M120.284 21.0923C120.284 21.0923 120.34 21.0817 120.376 20.9575C120.422 20.8901 120.514 20.7553 120.595 20.5638C120.769 20.2375 120.956 19.6736 120.828 18.993C120.764 18.6528 120.632 18.2664 120.33 17.9122C120.029 17.5579 119.635 17.3385 119.195 17.1864C118.755 17.0344 118.213 16.9604 117.703 17.0566C117.192 17.1528 116.703 17.3624 116.235 17.6854C115.47 18.2994 115.017 19.3244 115.086 20.3099C115.186 21.4656 115.935 22.3229 116.836 22.7404C117.286 22.9492 117.704 22.9878 118.123 23.0264C118.53 23.0083 118.917 22.8768 119.246 22.756C119.827 22.4116 120.15 21.9398 120.323 21.6135C120.45 21.3545 120.418 21.1844 120.284 21.0923C120.025 20.9649 119.667 21.5609 118.802 21.9587C118.586 22.0582 118.359 22.1009 118.122 22.0869C117.884 22.073 117.579 22.013 117.32 21.8856C116.803 21.6308 116.277 21.025 116.273 20.3798C116.223 19.8019 116.513 19.16 117.027 18.7695C117.278 18.546 117.654 18.3577 117.994 18.2936C118.324 18.1728 118.686 18.2221 118.991 18.2821C119.657 18.3914 120.14 18.7703 120.293 19.2701C120.502 19.7591 120.485 20.2909 120.425 20.5959C120.365 20.9008 120.284 21.0923 120.284 21.0923Z" fill="#290568"/>
<path fill-rule="evenodd" clip-rule="evenodd" d="M151.645 72.9024C157.834 78.824 163.275 78.0175 170.88 76.8905C173.971 76.4323 177.421 75.921 181.423 75.7875C195.27 75.3256 204.096 98.1513 191.851 126.791C179.606 155.43 136.787 168.251 101.053 167.173C65.3183 166.095 28.1945 141.617 15.0821 118.925C1.96968 96.2321 -10.9799 61.6973 9.00957 52.975C32.3443 83.2824 60.8984 79.9214 69.7991 76.0376C77.8233 72.5363 77.9942 71.6338 81.4287 53.492L81.4292 53.4892C81.8447 51.2942 82.3081 48.8468 82.8389 46.1119C82.9315 45.6954 82.8946 45.2606 82.7331 44.8656C82.5277 44.4446 82.1697 44.1175 81.7319 43.9509C81.294 43.7842 80.8091 43.7905 80.3757 43.9684C80.2651 44.0183 80.1603 44.0803 80.0633 44.1534C79.756 43.9773 79.4151 43.8678 79.0626 43.832C78.7102 43.7962 78.3543 43.835 78.0178 43.9458C77.2777 44.3985 76.5103 44.8048 75.7199 45.1626C67.1969 48.8816 55.0852 44.9021 48.2357 40.439C53.7274 39.1645 73.3024 35.6317 97.7477 42.0403C103.459 58.5582 97.3244 65.4264 94.6358 68.4364C93.8632 69.3013 93.3752 69.8477 93.5346 70.2129C93.8499 70.9355 94.4482 71.1284 95.1828 71.1365C102.544 71.214 120.281 71.8371 134.137 72.3239L134.141 72.3241L134.142 72.3241C142.274 72.6098 149.069 72.8485 151.645 72.9024ZM96.3114 74.8857C92.9762 76.341 93.3759 81.0418 93.6809 84.6285C93.7583 85.5395 93.8297 86.3787 93.8322 87.0746C93.8294 87.2651 93.8662 87.4542 93.9403 87.6298C94.186 88.0538 94.5761 88.3754 95.0392 88.5357C95.2056 88.6294 95.391 88.6841 95.5815 88.6958C95.772 88.7075 95.9627 88.6759 96.1393 88.6033C96.7796 88.3239 97.831 86.7075 97.9029 86.595C101.46 81.1173 101.404 80.5386 101.078 77.3292C99.1779 73.6355 96.6969 74.7175 96.3114 74.8857ZM167.47 138.347C167.452 138.304 167.436 138.271 167.425 138.249L167.416 138.232C167.413 138.226 167.411 138.221 167.41 138.219C167.263 137.818 167.033 137.452 166.736 137.146C166.439 136.84 166.08 136.6 165.684 136.441C165.287 136.283 164.862 136.21 164.435 136.227C164.009 136.245 163.59 136.352 163.208 136.541C160.359 137.785 159.022 140.164 157.262 143.561C156.905 143.87 156.68 144.304 156.634 144.774C156.589 144.861 156.544 144.945 156.501 145.027C156.466 145.094 156.431 145.159 156.397 145.222C155.957 146.045 155.665 146.59 155.898 147.125C155.963 147.269 156.061 147.395 156.185 147.493C157.532 148.585 157.573 148.57 159.448 147.893C159.702 147.801 159.99 147.697 160.319 147.582C168.952 142.852 167.791 139.085 167.469 138.347L167.47 138.347ZM43.3608 106.441C42.1128 106.985 40.1702 108.461 41.2226 110.873C43.5614 116.233 52.3956 114.879 55.1573 113.864C55.6085 113.62 55.9517 113.216 56.1188 112.731C56.286 112.246 56.2649 111.716 56.0598 111.246C55.5314 110.036 48.2585 104.303 43.3608 106.441ZM124.29 158.75C124.157 158.814 124.036 158.87 123.923 158.919C122.168 159.685 88.383 129.505 88.1735 129.029C88.0553 128.73 88.0546 128.398 88.1713 128.099C88.288 127.8 88.5136 127.557 88.8027 127.417C89.0387 127.314 89.2646 127.304 89.5007 127.293C89.7593 127.281 90.0302 127.268 90.3401 127.133C107.882 129.023 120.129 98.6157 114.016 84.6072C113.326 83.0258 112.639 82.3514 112.183 81.9037C111.957 81.6811 111.787 81.5145 111.702 81.3204C111.586 81.0273 111.59 80.6999 111.714 80.4099C111.838 80.1198 112.071 79.8905 112.364 79.7722C112.399 79.7571 112.423 79.7421 112.446 79.7283L112.465 79.7167C112.47 79.714 112.474 79.7113 112.479 79.7087C112.488 79.7039 112.497 79.6994 112.507 79.6952C112.582 79.6621 112.833 79.7256 113.416 79.8732C116.078 80.5477 125.669 82.9775 157.165 85.9697C157.736 86.0138 158.284 86.213 158.75 86.5458C159.216 86.8786 159.583 87.3324 159.81 87.8582C166.487 103.162 149.892 144.79 124.29 158.75Z" fill="#EBCFE4"/>
<path d="M123.814 155.383C123.926 155.334 124.048 155.278 124.181 155.214C149.783 141.254 163.816 103.611 157.138 88.3073C156.911 87.7815 156.545 87.3277 156.079 86.9949C155.613 86.6621 155.065 86.4629 154.494 86.4189C116.104 82.7717 114.243 82.522 113.82 82.7063C113.772 82.7276 113.743 82.755 113.678 82.7833C113.385 82.9016 113.152 83.1309 113.028 83.421C112.904 83.7111 112.899 84.0384 113.016 84.3315C113.271 84.9162 114.297 85.251 115.33 87.6183C121.443 101.627 111.157 123.068 98.2011 128.721C97.6082 128.98 97.1582 128.789 96.6637 129.005C96.3747 129.145 96.1491 129.388 96.0323 129.687C95.9156 129.986 95.9164 130.318 96.0345 130.616C96.244 131.093 122.059 156.149 123.814 155.383ZM117.422 85.5423C117.475 85.5446 154.394 88.5496 154.826 89.5377C160.297 102.077 151.491 134.388 123.327 152.823L99.8428 130.849C124.259 116.336 119.45 92.3696 117.422 85.5409L117.422 85.5423Z" fill="#290568"/>
<path d="M138.216 116.88L137.921 116.772C137.737 116.703 137.443 116.594 137.061 116.495C136.325 116.223 135.244 115.864 133.882 115.36C132.556 114.87 130.937 114.271 129.183 113.58C127.393 112.876 125.47 112.08 123.439 111.119L123.343 111.042C123.366 111.092 123.403 111.106 123.403 111.106L123.366 111.092L122.974 110.906L122.767 110.787C122.73 110.773 122.73 110.773 122.634 110.696C122.574 110.632 122.514 110.568 122.518 110.444L122.504 110.48C122.481 110.43 122.508 110.356 122.535 110.283C122.549 110.246 122.563 110.209 122.599 110.223L122.613 110.186L122.691 110.089L122.869 109.946C122.997 109.826 123.112 109.743 123.24 109.623C123.483 109.419 123.762 109.23 124.041 109.04C124.6 108.661 125.182 108.333 125.787 108.054C126.934 107.558 128.15 107.212 129.398 107.005C130.633 106.834 131.911 106.888 133.161 107.016C134.535 107.148 135.888 107.565 137.048 108.162C138.208 108.758 139.213 109.549 140.067 110.409C140.907 111.305 141.522 112.245 141.962 113.203C142.389 114.198 142.531 115.171 142.54 116.053C142.545 116.264 142.537 116.513 142.543 116.724C142.539 116.848 142.548 116.935 142.507 117.046C142.503 117.17 142.462 117.28 142.385 117.377C142.148 117.791 141.671 117.95 141.298 117.937C141.087 117.943 140.94 117.889 140.756 117.82L139.541 117.371C138.704 117.145 138.202 116.917 138.216 116.88C138.229 116.844 138.722 116.984 139.656 117.288C139.876 117.369 140.134 117.465 140.442 117.537L140.884 117.7C141.031 117.755 141.192 117.773 141.316 117.777C141.615 117.762 141.954 117.636 142.1 117.355C142.191 117.222 142.172 117.047 142.166 116.836C142.161 116.624 142.192 116.427 142.15 116.202C142.128 115.357 141.986 114.383 141.568 113.476C141.114 112.554 140.321 112.332 139.541 111.5C137.931 109.857 133.712 108.304 131 108.054C129.787 107.94 130.654 107.344 129.456 107.528C128.258 107.713 127.055 108.021 125.982 108.545C125.377 108.823 124.809 109.115 124.287 109.508C124.007 109.697 123.765 109.901 123.536 110.067C123.408 110.187 123.293 110.27 123.165 110.39L122.987 110.533L122.909 110.63L122.849 110.566L122.886 110.58C122.923 110.593 122.923 110.593 122.886 110.58L122.899 110.543L122.936 110.557L123.143 110.675L123.572 110.875L123.535 110.862C123.572 110.875 123.632 110.939 123.668 110.953L123.572 110.875C125.565 111.822 127.512 112.668 129.252 113.396C130.991 114.123 132.597 114.759 133.909 115.287C135.22 115.814 136.325 116.223 137.061 116.495L137.908 116.808C138.105 116.84 138.216 116.88 138.216 116.88ZM133.59 101.106C133.59 101.106 133.429 101.089 133.272 100.947C133.116 100.805 132.899 100.599 132.874 100.214C132.855 100.039 132.873 99.8783 132.964 99.7446C133.123 99.427 133.476 99.2646 133.711 99.3096C133.959 99.3177 134.042 99.4322 134.001 99.5426C133.96 99.653 133.85 99.6122 133.712 99.6449C133.575 99.6777 133.387 99.7336 133.318 99.9177C133.291 99.9913 133.25 100.102 133.26 100.189C133.294 100.662 133.604 101.07 133.59 101.106ZM141.408 103.957C141.408 103.957 141.532 103.961 141.72 103.906C141.908 103.85 142.11 103.757 142.251 103.6C142.315 103.54 142.393 103.443 142.434 103.333C142.475 103.222 142.516 103.112 142.506 103.025C142.497 102.937 142.487 102.85 142.464 102.8C142.417 102.699 142.357 102.635 142.398 102.524C142.426 102.451 142.614 102.395 142.78 102.624C142.863 102.738 142.896 102.876 142.915 103.05C142.911 103.175 142.88 103.372 142.825 103.519C142.771 103.667 142.68 103.8 142.551 103.92C142.295 104.16 141.946 104.199 141.712 104.154C141.541 104.049 141.408 103.957 141.408 103.957Z" fill="#290568"/>
<path d="M139.81 110.648C139.944 110.74 140.064 110.868 140.184 110.996C140.567 111.431 140.886 111.926 141.168 112.407C141.696 113.355 142.11 114.387 142.188 115.42C142.236 115.857 142.247 116.279 142.258 116.702C142.236 116.987 142.303 117.598 142.097 117.814C141.548 118.281 139.965 117.695 139.339 117.463C133.877 115.484 128.489 113.532 123.513 111.146C123.269 111.014 122.988 110.869 122.996 110.62C123 110.496 123.115 110.413 123.192 110.316C123.627 109.933 124.112 109.527 124.607 109.208C125.546 108.593 126.605 108.106 127.747 107.733C128.312 107.565 128.913 107.411 129.5 107.294C129.95 107.209 130.491 106.991 130.974 107.044C131.333 107.093 131.296 107.079 131.398 107.368C131.464 107.643 131.492 107.905 131.608 108.157C132.058 109.203 133.009 110.14 134.173 110.613C135.779 111.249 137.689 110.952 138.815 109.945C139.156 110.155 139.483 110.402 139.81 110.648ZM130.713 102.887C130.598 102.971 130.52 103.067 130.443 103.164C130.26 103.431 130.335 103.794 130.562 104.087C130.788 104.38 131.142 104.553 131.538 104.616C131.809 104.674 132.071 104.646 132.356 104.667C133.11 104.779 133.117 105.326 133.729 105.594C134.134 105.744 134.547 105.645 134.915 105.782C135.32 105.932 135.519 106.298 135.91 106.485C136.338 106.685 136.879 106.467 137.372 106.607C137.85 106.784 138.156 107.316 138.712 107.396C139.144 107.472 139.515 107.149 139.92 107.299C140.325 107.449 140.557 107.953 141.016 107.956C141.227 107.95 141.406 107.807 141.59 107.875C141.751 107.893 141.871 108.021 141.981 108.062C142.276 108.171 142.629 108.008 142.724 107.751C142.819 107.493 142.754 107.218 142.675 106.979C142.283 105.662 141.5 104.159 142.198 102.952C142.449 102.501 142.957 102.145 142.886 101.658C142.498 102.142 142.622 100.529 142.197 101C141.836 101.41 140.985 103.968 140.624 104.379C140.158 104.96 139.756 105.48 139.05 105.805C138.431 106.12 137.688 106.431 136.911 106.269C135.936 106.076 135.074 105.464 134.589 104.74C133.937 103.788 133.785 102.727 133.882 101.675C133.925 101.105 134.784 99.9337 134.915 99.3543C135.001 99.0093 134.463 99.0856 134.388 98.723C134.173 98.8525 134.064 99.147 133.945 99.3543C133.735 99.6951 133.489 100.022 133.403 100.367C133.331 100.675 133.162 100.906 132.979 101.173C132.513 101.754 131.913 102.244 131.23 102.619C131.029 102.711 130.864 102.818 130.713 102.887Z" fill="#290568"/>
<path d="M134.452 98.663C134.489 98.6766 134.503 98.6398 134.452 98.663C134.283 98.8935 134.418 99.3201 134.686 99.5027C134.953 99.6853 135.348 99.7479 135.674 99.6592C136 99.5705 136.279 99.3809 136.559 99.1914C136.639 99.7653 137.082 100.264 137.685 100.445C138.288 100.626 139.013 100.476 139.424 100.043C139.459 100.516 139.865 101.001 140.38 101.192C140.896 101.382 141.534 101.242 141.918 100.882C142.043 101.221 142.243 101.588 142.601 101.637C142.849 101.645 143.065 101.515 143.169 101.345C143.274 101.174 143.319 100.94 143.314 100.729C143.365 99.9106 143.146 99.0341 142.623 98.2968C142.087 97.5962 141.235 97.0716 140.307 96.9791C139.7 96.9221 139.099 97.0763 138.516 97.0696C137.895 97.0493 137.256 96.8546 136.659 96.8847C136.048 96.9517 135.493 97.2068 135.095 97.6036C134.697 98.0004 134.396 98.4749 134.169 98.9766L134.452 98.663Z" fill="#290568"/>
<path fill-rule="evenodd" clip-rule="evenodd" d="M133.305 125.938C132.952 125.719 132.651 125.438 132.441 125.131C132.286 125.155 132.132 125.183 131.98 125.211C131.144 125.362 130.341 125.508 129.365 124.933C129.21 124.84 129.06 124.738 128.92 124.627C128.85 124.642 128.779 124.659 128.706 124.675C128.113 124.811 127.422 124.969 126.746 124.571C126.124 124.204 125.995 123.662 125.879 123.17C125.863 123.105 125.848 123.04 125.832 122.976C124.033 123.158 122.23 123.27 120.152 122.045L120.079 122.002C119.899 122.073 119.736 122.14 119.588 122.201C118.777 122.535 118.404 122.689 117.887 122.384C117.779 122.322 117.68 122.246 117.596 122.161C117.511 122.076 117.443 121.984 117.394 121.89C117.346 121.796 117.319 121.702 117.314 121.613C117.31 121.524 117.328 121.442 117.367 121.372C117.373 121.363 117.379 121.353 117.385 121.344C117.485 121.174 117.601 121.121 117.954 120.958C118.091 120.895 118.264 120.815 118.486 120.705C118.488 120.606 118.418 120.454 118.326 120.256C118.047 119.651 117.567 118.614 118.341 117.301C119.306 115.663 121.307 114.601 123.136 115.679C125.067 116.818 124.213 118.47 123.963 118.894L123.911 118.983C123.35 119.829 122.606 120.556 121.701 121.142C122.626 121.621 124.002 121.424 125.266 121.244C126.371 121.087 127.389 120.942 127.945 121.269C128.472 121.58 128.574 122.085 128.659 122.508C128.662 122.524 128.665 122.541 128.669 122.556C128.991 122.633 129.315 122.747 129.631 122.894C129.955 123.132 130.253 123.395 130.516 123.676C130.94 123.563 131.289 123.46 131.583 123.373C132.597 123.073 132.956 122.967 133.493 123.283C134.061 123.619 134.243 124.275 134.325 124.57C134.334 124.603 134.342 124.632 134.349 124.655C135.097 124.58 135.655 124.516 136.079 124.467C137.293 124.326 137.422 124.311 137.825 124.549C138.062 124.692 138.253 124.889 138.357 125.098C138.462 125.307 138.472 125.511 138.385 125.668C138.188 125.885 137.885 126.016 137.515 126.044L137.429 126.052C134.569 126.331 134.056 126.381 133.305 125.938ZM122.403 116.956C122.305 117.287 122.169 117.601 121.996 117.893C121.532 118.628 120.903 119.258 120.128 119.761C119.967 119.182 120.038 118.647 120.33 118.236C120.74 117.541 121.529 116.982 122.403 116.956Z" fill="#290568"/>
<path d="M118.9 125.033L118.871 125.019C117.006 124.098 115.61 125.084 115.379 125.551C115.296 125.727 115.284 125.927 115.344 126.111C115.404 126.296 115.531 126.45 115.701 126.544C116.377 126.878 116.866 125.636 117.922 126.157C119.146 126.761 119.494 128.372 120.923 129.077C122.459 129.835 124.722 129.106 125.657 129.568C126.822 130.143 126.678 132.083 128.453 132.96C130.855 134.145 132.788 132.673 134.362 133.45C135.353 133.939 134.639 135 135.381 135.366C135.394 135.373 135.407 135.379 135.421 135.384C135.6 135.459 135.802 135.46 135.982 135.386C136.162 135.312 136.305 135.17 136.38 134.991C136.922 133.893 136.086 132.601 134.965 132.048C132.984 131.07 130.968 132.494 129.16 131.602C127.994 131.026 128.12 129.087 126.318 128.197C124.704 127.4 123.023 128.374 121.628 127.685C120.431 127.095 120.732 126.138 118.9 125.033Z" fill="#290568"/>
<path d="M125.922 138.33L125.951 138.346C127.764 139.362 129.21 138.451 129.465 137.996C129.557 137.825 129.58 137.626 129.53 137.439C129.48 137.252 129.36 137.091 129.196 136.988C128.538 136.62 127.985 137.835 126.958 137.259C125.766 136.591 125.503 134.965 124.113 134.186C122.619 133.349 120.32 133.959 119.411 133.449C118.278 132.814 118.523 130.884 116.795 129.915C114.459 128.606 112.452 129.976 110.92 129.117C109.956 128.577 110.725 127.555 110.003 127.151C109.99 127.144 109.977 127.137 109.964 127.131C109.789 127.047 109.587 127.035 109.404 127.1C109.22 127.164 109.07 127.298 108.985 127.474C108.387 128.541 109.155 129.875 110.245 130.487C112.172 131.566 114.26 130.249 116.019 131.235C117.154 131.871 116.926 133.801 118.679 134.783C120.25 135.663 121.979 134.778 123.337 135.539C124.5 136.192 124.15 137.131 125.922 138.33Z" fill="#290568"/>
</g>
<defs>
<clipPath id="clip0_442_10489">
<rect width="200" height="183.333" fill="white"/>
</clipPath>
</defs>
</svg>
