<svg width="245" height="240" viewBox="0 0 245 240" fill="none" xmlns="http://www.w3.org/2000/svg">
<path fill-rule="evenodd" clip-rule="evenodd" d="M222.5 17.5003C198.994 3.37731 173 28.5006 131.533 38.3379C131.004 38.6723 130.667 38.7475 130.569 38.5006C119.225 41.4276 100.801 27.5006 54.6681 27.5006C15.1869 33.9285 3.60254 40.9428 3.60254 95.3598C3.60254 121.489 14.5885 139.474 24.9756 150.648L25.4481 150.049C31.1584 142.812 36.6823 135.811 41.2721 132.865C44.2651 131.029 47.5381 129.695 50.9615 128.916C51.181 128.924 51.3891 129.016 51.5421 129.174C51.6951 129.331 51.7814 129.542 51.7828 129.762C51.7828 130.685 51.2719 130.838 50.0745 131.197C47.1351 132.077 40.0593 134.196 26.2518 151.992C30.9324 156.863 36.2302 161.1 42.0103 164.595C41.9479 160.746 41.8755 156.622 41.7894 152.198C41.7667 151.025 41.4207 150.772 41.1422 150.568C40.9501 150.427 40.79 150.31 40.79 149.931C40.79 149.171 41.5979 148.93 41.987 148.814C42.0181 148.805 42.0465 148.796 42.0716 148.789C47.7052 147.024 51.7371 145.843 54.6681 144.985C60.1375 143.383 61.7736 142.904 62.8303 141.846C63.2813 141.394 63.6268 140.837 64.1197 140.043C65.1266 138.419 66.7488 135.804 71.1433 131.068C61.5707 113.219 59.7136 98.6556 59.7136 98.6189C59.7136 97.9908 60.1129 97.6354 61.0411 97.4646C55.561 95.0036 54.9224 94.0926 51.929 89.8219C51.6207 89.382 51.2874 88.9066 50.9213 88.3901C47.9424 89.5772 31.404 97.5021 25.0592 100.542L25.0583 100.543C23.5253 101.277 22.5876 101.727 22.5805 101.727C22.4003 101.717 22.2263 101.658 22.0768 101.557C21.9273 101.456 21.808 101.316 21.7316 101.152C21.7094 101.116 17.2593 92.0494 17.2593 91.3562C17.2593 90.0442 18.1505 89.6539 24.0285 87.0798C28.3042 85.2075 35.2185 82.1796 46.3479 76.801C46.1185 75.4372 45.9835 74.0591 45.9439 72.6767C45.9439 65.4884 51.3046 62.7578 54.3797 61.8911C54.5766 61.8357 55.1643 61.547 55.8822 61.1943C57.2252 60.5345 59.0241 59.6507 59.575 59.6507C59.6168 59.6507 59.6468 59.6534 59.6793 59.6563C59.7177 59.6597 59.7596 59.6634 59.8284 59.6634C60.261 59.6634 61.2272 59.0631 62.3249 58.3812C63.7684 57.4844 65.4393 56.4464 66.4229 56.4464C66.9269 56.4551 67.4181 56.6064 67.8396 56.883C68.3038 57.1743 68.7552 57.452 69.1899 57.7195L69.1911 57.7202L69.1927 57.7212L69.1942 57.7221L69.1952 57.7227C72.2612 59.6089 74.4934 60.9821 74.4934 62.9776C74.4899 63.1747 74.4709 63.3713 74.4367 63.5655C74.4487 63.6585 74.4654 63.751 74.4869 63.8424C76.4704 63.0087 81.8777 60.4956 87.866 57.7123L87.8671 57.7118L87.868 57.7114L87.8691 57.7109L87.8709 57.71C97.5106 53.2297 108.654 48.0505 109.446 48.0505C109.982 48.0505 110.27 48.301 110.569 48.9245C113.671 55.3818 114.537 58.022 114.537 58.1093C114.537 58.8609 107.278 62.1948 100.801 65.1693C97.8898 66.5065 95.1364 67.7711 93.2718 68.6957C93.6684 68.9467 93.994 69.2951 94.2177 69.7077C94.4413 70.1203 94.5556 70.5833 94.5496 71.0526C94.5496 73.4464 93.2475 74.8036 90.8012 77.3534C88.6853 79.5589 85.7134 82.6566 81.9876 88.0891L82.1166 88.2645C82.6039 88.058 82.9601 87.9 83.2317 87.7796C83.9278 87.4709 84.0677 87.4089 84.4313 87.4089C84.9328 87.4297 85.4061 87.6465 85.7493 88.0129C105.791 106.769 108.094 109.856 111.312 114.17C112.626 115.932 114.092 117.897 116.979 121.216C116.979 121.216 116.974 121.237 116.961 121.279L116.961 121.28C116.49 122.823 107.71 151.597 151.5 137C152.859 137 153.106 147.463 153.296 155.504C153.414 160.507 153.51 164.572 153.838 164.595C153.831 164.588 164.192 168.682 174 164.595C211 153 224.5 126.996 223.834 103.605C223.812 102.812 223.787 102.027 223.762 101.254L223.761 101.241C223.691 99.0456 223.624 96.935 223.624 94.9317C223.624 65.7305 270.726 46.4762 222.5 17.5003ZM31.4946 112.717C31.5587 113.112 31.6006 113.511 31.6202 113.911C31.6202 117.116 30.187 118.455 29.2143 119.364C28.7146 119.831 28.3363 120.184 28.3363 120.619C28.3363 120.956 28.8211 121.346 29.5004 121.893C30.651 122.819 32.3596 124.194 33.2153 126.523C33.3025 126.808 33.4828 127.055 33.7274 127.226C33.972 127.396 34.2668 127.479 34.5643 127.462C35.3773 127.462 35.4532 126.87 35.5851 125.841C35.7363 124.661 35.9611 122.908 37.4553 120.816C37.8328 120.287 38.3065 119.323 38.3065 118.896C38.3065 118.524 37.8487 118.243 37.2025 117.846C35.9841 117.098 34.0959 115.938 33.344 112.982C33.3098 112.848 33.2827 112.713 33.2563 112.583C33.1363 111.987 33.0328 111.473 32.3561 111.473C32.095 111.473 31.4946 111.548 31.4946 112.717ZM128.436 63.6279V63.6524C128.436 65.8968 126.876 67.3536 125.714 68.4391C125.024 69.0829 124.475 69.5962 124.473 70.0657C124.473 70.8699 125.37 71.1161 125.773 71.1161C125.807 71.1161 125.836 71.1142 125.867 71.1121C125.908 71.1093 125.954 71.1062 126.027 71.1062C127.41 71.1062 127.694 72.5552 127.956 73.8965C128.182 75.0525 128.392 76.1285 129.277 76.1285C130.133 76.1285 130.328 75.2718 130.592 74.1189C130.885 72.8364 131.262 71.1874 132.723 69.9427C132.882 69.7585 133.004 69.5461 133.084 69.3166C133.042 68.5747 132.794 68.4649 132.46 68.3173C132.163 68.1855 131.797 68.0237 131.449 67.3554C130.528 65.5864 130.439 64.1962 130.378 63.2459C130.317 62.2868 130.284 61.7758 129.453 61.7758C129.29 61.7699 129.129 61.8191 128.997 61.9157C128.865 62.0123 128.77 62.1506 128.726 62.3082C128.562 62.7305 128.464 63.1757 128.436 63.6279ZM122.331 109.109C122.373 108.987 122.391 108.857 122.383 108.727C122.383 108.663 122.378 108.598 122.374 108.534C122.37 108.469 122.365 108.404 122.365 108.34C122.365 104.202 124.648 103.107 126.851 102.051C128.709 101.159 130.511 100.295 130.84 97.6549L130.847 97.6036C131.419 92.9958 131.534 92.072 135.244 89.8094C135.261 89.799 135.282 89.7868 135.306 89.7727L135.308 89.7716C135.598 89.603 136.348 89.1675 136.35 88.4406C136.347 88.1688 136.238 87.9088 136.048 87.7151C135.857 87.5214 135.599 87.409 135.327 87.4016C135.291 87.4016 129.22 88.5207 128.624 97.1502C128.517 98.7003 127.256 99.3118 125.741 100.047C123.45 101.158 120.577 102.551 120.235 107.9C120.26 108.022 120.281 108.15 120.302 108.279C120.423 109.011 120.55 109.776 121.397 109.776C121.409 109.776 121.421 109.776 121.434 109.776C121.441 109.775 121.449 109.775 121.456 109.774C121.586 109.767 121.712 109.733 121.829 109.676C121.946 109.619 122.05 109.54 122.136 109.443C122.222 109.345 122.288 109.232 122.331 109.109ZM213.462 54.6821C214.081 56.2887 214.3 56.7398 214.955 56.7398C215.884 56.7398 215.967 55.9258 216.085 54.7609C216.228 53.3615 216.422 51.4556 218.196 49.8463C218.418 49.5775 218.604 49.2807 218.748 48.9636C218.396 48.2893 218.066 47.9033 217.7 47.4766C217.025 46.6897 216.232 45.7639 214.965 42.6354C214.589 41.7047 213.982 41.563 213.757 41.563C213.041 41.563 212.926 42.2236 212.758 43.1925C212.518 44.5744 212.17 46.5836 209.813 48.1984C209.508 48.4067 208.774 48.9563 208.774 49.5691C208.774 50.0906 209.223 50.3272 209.869 50.6683C210.901 51.2126 212.437 52.023 213.462 54.6821Z" fill="#EBCFE4"/>
<path fill-rule="evenodd" clip-rule="evenodd" d="M135.244 89.8094C131.534 92.072 131.419 92.9958 130.847 97.6036L130.84 97.6549C130.511 100.295 128.709 101.159 126.851 102.051C124.648 103.107 122.365 104.202 122.365 108.34C122.365 108.404 122.37 108.469 122.374 108.534C122.378 108.598 122.383 108.663 122.383 108.727C122.391 108.857 122.373 108.987 122.331 109.109C122.288 109.232 122.222 109.345 122.136 109.443C122.05 109.54 121.946 109.619 121.829 109.676C121.712 109.733 121.586 109.767 121.456 109.774L121.434 109.776C121.421 109.776 121.409 109.776 121.397 109.776C120.55 109.776 120.423 109.011 120.302 108.279C120.281 108.15 120.26 108.022 120.235 107.9C120.577 102.551 123.45 101.158 125.741 100.047C127.256 99.3118 128.517 98.7003 128.624 97.1502C129.22 88.5207 135.291 87.4016 135.327 87.4016C135.599 87.409 135.857 87.5214 136.048 87.7151C136.238 87.9088 136.347 88.1688 136.35 88.4406C136.348 89.1675 135.598 89.603 135.308 89.7716L135.306 89.7727C135.282 89.7868 135.261 89.799 135.244 89.8094Z" fill="#EBCFE4"/>
<path fill-rule="evenodd" clip-rule="evenodd" d="M85.7511 88.0102C85.4078 87.6438 84.9343 87.4269 84.4327 87.4062C84.0693 87.4062 83.9296 87.4682 83.2345 87.7764C82.9628 87.8969 82.6061 88.055 82.118 88.2618L81.989 88.0864C85.7154 82.6523 88.6877 79.5545 90.8037 77.3491C93.2493 74.8001 94.551 73.4434 94.551 71.0499C94.557 70.5806 94.4427 70.1176 94.2191 69.705C93.9954 69.2925 93.6698 68.9441 93.2732 68.6931C95.1382 67.7682 97.8924 66.5031 100.805 65.1654C107.281 62.191 114.538 58.8576 114.538 58.1066C114.538 58.0193 113.673 55.3787 110.571 48.9218C110.271 48.2983 109.982 48.0479 109.448 48.0479C108.656 48.0479 97.5192 53.224 87.8814 57.7034C81.8876 60.4892 76.4736 63.0055 74.4883 63.8397C74.4669 63.7483 74.4503 63.6559 74.4385 63.5628C74.4726 63.3686 74.4914 63.1721 74.4948 62.9749C74.4948 60.9797 72.2628 59.6066 69.1977 57.7208C68.761 57.4521 68.3074 57.1731 67.841 56.8803C67.4195 56.6038 66.9283 56.4524 66.4243 56.4437C65.4402 56.4437 63.7691 57.4819 62.3257 58.3788C61.2282 59.0606 60.2623 59.6607 59.8299 59.6607C59.761 59.6607 59.7191 59.657 59.6807 59.6536C59.6482 59.6507 59.6182 59.6481 59.5764 59.6481C59.0255 59.6481 57.2266 60.5319 55.8836 61.1916C55.1656 61.5444 54.578 61.8331 54.3811 61.8885C51.3079 62.7536 45.9457 65.4857 45.9457 72.6741C45.9854 74.0565 46.1202 75.4345 46.3493 76.7983C35.22 82.1769 28.3057 85.2048 24.03 87.0771C18.1519 89.6512 17.2607 90.0415 17.2607 91.3535C17.2607 92.0467 21.7108 101.114 21.733 101.15C21.8094 101.313 21.9287 101.453 22.0782 101.554C22.2277 101.655 22.4017 101.714 22.5819 101.724C22.5889 101.724 23.5183 101.279 25.0394 100.55C31.3685 97.5169 47.9402 89.5759 50.9227 88.3874C51.2888 88.9039 51.622 89.3793 51.9303 89.8191C54.9238 94.0899 55.5624 95.0009 61.0429 97.4619C60.1144 97.6327 59.715 97.9881 59.715 98.6162C59.715 98.6545 61.5732 113.216 71.1447 131.065C64.5992 138.119 64.2043 140.469 62.832 141.843C61.2091 143.468 58.2191 143.728 42.073 148.786C42.0478 148.794 42.0194 148.802 41.9883 148.812C41.599 148.928 40.791 149.168 40.791 149.929C40.791 150.308 40.9511 150.425 41.1432 150.565C41.4218 150.769 41.7679 151.022 41.7908 152.195C42.8182 204.811 41.8667 215.38 45.8571 217.8C47.4927 218.792 49.9584 218.415 53.7309 219.003C108.606 227.555 108.683 227.572 109.975 227.859C110.14 227.896 110.324 227.937 110.644 228H111.162C111.34 227.9 111.533 227.827 111.733 227.783C111.843 227.799 111.954 227.809 112.066 227.812C114.363 227.812 157.802 201.853 157.916 200.348C158.066 200.348 158.211 200.342 158.354 200.337C158.491 200.331 158.626 200.326 158.759 200.326C159.266 200.326 160.069 200.487 161.037 200.681C162.51 200.977 164.367 201.35 166.153 201.35C169.733 201.35 172.066 200.123 173.333 199.456L173.334 199.456C173.512 199.362 173.67 199.279 173.806 199.213C176.86 200.677 208.243 210.626 231.442 212.417C232.018 212.462 232.5 212.004 232.5 211.426C232.5 210.903 232.1 210.469 231.578 210.427C212.372 208.887 187.864 201.848 183.67 200.319C183.67 200.073 183.668 199.828 183.667 199.582C183.666 199.337 183.665 199.092 183.665 198.846C183.665 197.933 183.699 196.873 183.726 196.012L183.726 196.01C183.745 195.423 183.761 194.93 183.761 194.64C183.761 194.52 183.715 193.475 182.877 193.475C182.08 193.475 182.008 194.137 182.008 194.479C182.008 194.556 182.012 194.615 182.012 194.649V195.017C182.012 195.207 181.985 195.63 181.619 199.304C181.585 199.408 181.537 199.506 181.475 199.597C179.98 199.234 178.974 199.083 178.211 198.969C176.928 198.778 176.335 198.689 175.265 197.866C175.679 195.523 175.884 193.149 175.878 190.77C175.878 185.91 175.084 181.083 173.967 176.224C175.345 176.021 176.72 175.864 178.096 175.706C179.05 175.598 180.004 175.489 180.959 175.364C181.274 176.006 181.378 177.156 181.486 178.336C181.662 180.273 181.846 182.292 182.977 182.292C183.218 182.294 183.45 182.201 183.621 182.032C183.793 181.863 183.891 181.633 183.893 181.392V181.352C183.893 181.253 183.545 178.81 182.855 175.151C212.743 171.141 222.487 170.426 229.29 170.328C230.401 170.311 231.302 169.413 231.302 168.301C217.316 168.301 178.506 173.588 173.364 174.278L173.362 174.279C173.003 174.327 172.811 174.353 172.806 174.353C170.744 174.353 166.512 170.93 162.744 167.881C159.719 165.434 156.992 163.229 155.926 163.229C155.43 163.244 154.953 163.426 154.572 163.744C154.009 156.694 153.646 151.384 153.374 147.395L153.373 147.392C152.683 137.279 152.571 135.65 151.241 135.65C151.07 135.65 150.86 135.693 150.616 135.744C150.276 135.815 149.87 135.9 149.411 135.9C149.181 135.9 141.339 135.77 139.8 135.656C141.947 129.013 145.748 125.898 147.829 124.194C148.716 123.467 149.29 122.996 149.29 122.617C149.281 122.376 149.179 122.148 149.005 121.981C148.831 121.814 148.598 121.721 148.357 121.722C147.368 121.722 142.116 125.778 139.555 131.553C139.162 132.44 138.804 133.342 138.431 134.284L138.43 134.286C138.252 134.734 138.071 135.191 137.881 135.659H137.479C87.8419 135.659 81.8664 133.08 78.7145 131.72C77.5855 131.232 76.8188 130.902 74.5373 130.902C74.4142 130.92 74.2902 130.93 74.1658 130.934C71.505 130.934 64.6315 111.639 63.7263 107.566C65.8837 106.615 67.462 106.002 68.6023 105.559C70.7171 104.737 71.3247 104.501 71.3247 103.784C71.3222 103.532 71.2209 103.29 71.0425 103.111C70.8641 102.932 70.6227 102.83 70.3701 102.827C70.0353 102.827 69.0719 103.225 67.4922 103.879C66.3761 104.34 64.9524 104.929 63.2255 105.594C62.6953 103.638 62.2772 101.699 61.848 99.7096L61.7685 99.3412L84.3833 89.4318L88.0872 92.599C86.8016 93.6344 85.6495 94.424 84.7211 95.0603C83.2581 96.063 82.3505 96.6851 82.3505 97.2888C82.3571 97.5367 82.4574 97.7728 82.6311 97.9497C82.8048 98.1265 83.039 98.231 83.2867 98.2421C83.6848 98.2421 83.9685 98.037 85.7823 96.7254C86.6564 96.0933 87.8859 95.2043 89.6548 93.9574C99.3974 102.557 107.75 112.384 115.584 122.734C115.531 122.801 115.464 122.882 115.384 122.977C114.537 123.992 112.36 126.604 112.36 129.752C112.36 132.309 114.222 134.404 116.355 134.404C117.546 134.404 121.237 133.528 121.237 129.612C121.237 127.193 119.44 124.618 118.473 123.231L118.47 123.227C118.382 123.1 118.3 122.983 118.227 122.877C126.719 114.7 141.386 112.192 147.251 112.192C147.322 112.192 149.516 112.241 151.744 112.456C152.329 112.512 152.856 111.235 152.371 110.902L151.747 110.473C151.536 110.458 151.284 110.433 150.991 110.404C150.1 110.316 148.831 110.191 147.171 110.191C129.664 110.191 117.728 120.565 117.015 121.185C116.993 121.204 116.981 121.214 116.981 121.214C114.093 117.895 112.627 115.929 111.314 114.168C108.095 109.854 105.793 106.767 85.7511 88.0102ZM119.264 129.592C119.264 128.148 118.171 126.148 116.874 124.422C115.133 126.013 114.319 128.408 114.319 129.727C114.319 131.445 115.496 132.44 116.4 132.44C116.438 132.441 116.476 132.441 116.514 132.441C117.257 132.427 117.963 132.12 118.479 131.586C118.995 131.051 119.277 130.334 119.264 129.592ZM66.3293 58.4371C66.1444 58.4394 65.9629 58.4864 65.8001 58.5742C65.3441 58.8093 64.9529 59.0106 64.6169 59.1835C62.7709 60.1335 62.5892 60.2271 62.4534 60.3656C62.4385 60.3807 62.4242 60.3963 62.4084 60.4137C62.3704 60.4553 62.3235 60.5067 62.2387 60.584C62.8685 61.0811 63.4266 61.5141 63.9203 61.8971C66.6548 64.0186 67.4118 64.6059 67.4118 66.0559C67.4109 66.2634 67.3917 66.4704 67.3543 66.6744C67.4747 66.636 67.594 66.5982 67.7123 66.5608C68.9831 66.1584 70.1343 65.7939 71.1221 65.0851C71.4947 64.8178 72.5151 63.7248 72.5151 63.0416C72.5097 62.8765 72.4696 62.7144 72.3974 62.5658C72.3253 62.4172 72.2226 62.2855 72.0962 62.1791C70.5792 60.7575 66.811 58.4352 66.4151 58.4352C66.4101 58.4352 66.4052 58.4353 66.4002 58.4354C66.3914 58.4355 66.3827 58.4358 66.3739 58.4361C66.3685 58.4363 66.3631 58.4365 66.3576 58.4366C66.3484 58.4369 66.3391 58.4371 66.3293 58.4371ZM59.738 61.6686H59.697C59.5383 61.6686 59.4286 61.7152 56.5198 62.95C56.0517 63.1487 55.5111 63.3782 54.8862 63.6432C57.4777 65.6984 58.9528 66.813 59.8284 67.4745C61.0802 68.4203 61.1065 68.4402 61.4174 68.9585C61.6424 68.8793 61.8646 68.8 62.0852 68.7212L62.0888 68.7199L62.0911 68.7191L62.0935 68.7182L62.0952 68.7176C62.5807 68.5442 63.0583 68.3736 63.5394 68.214C64.0195 68.0318 64.4454 67.7306 64.7773 67.3388C65.1091 66.9469 65.336 66.4772 65.4367 65.9736C65.4367 65.7051 65.2579 65.4949 64.8452 65.1563C61.6735 62.5537 60.4655 61.6686 59.738 61.6686ZM54.0032 65.3023C53.8006 65.0964 53.526 64.9774 53.2374 64.9702C52.8817 64.9702 52.5781 65.1535 52.2827 65.3319C52.0252 65.4874 51.7739 65.6391 51.4997 65.6626C50.0102 65.7902 47.915 68.9087 47.9123 72.6392C47.8983 73.747 48.021 74.8523 48.2776 75.9301L53.3664 73.5902C53.191 73.505 53.0243 73.403 52.8686 73.2857C52.7664 73.1811 52.6712 73.0855 52.5834 72.9972C52.0659 72.477 51.7996 72.2093 51.7996 71.8492C51.8113 71.6264 51.9063 71.4163 52.0656 71.2602C52.225 71.1042 52.4371 71.0137 52.6599 71.0066C52.9837 71.0066 53.207 71.2121 53.4561 71.4412C53.7701 71.7301 54.1252 72.0567 54.7743 72.0567H54.8126C55.0274 72.0567 55.3774 72.0142 58.4924 70.5053C58.6941 70.4128 58.8728 70.2767 59.0158 70.107C59.1588 69.9372 59.2625 69.7379 59.3194 69.5234C58.4866 68.9124 58.054 68.6392 57.715 68.4251C57.0055 67.9769 56.7056 67.7874 54.0032 65.3023ZM19.315 91.4343L22.9621 99.1727L112.49 57.5754L108.98 50.1783L19.315 91.4343ZM78.3238 75.6877C78.0941 75.6877 76.6563 76.3437 52.98 87.394C57.0928 95.7068 63.4992 95.9718 64.2547 95.9706C64.4713 95.9646 64.6845 95.9153 64.8819 95.8259C67.5939 94.6439 69.7645 93.7169 71.5139 92.9699C76.8317 90.6988 78.2569 90.0902 79.1636 89.0357C79.4955 88.6496 79.758 88.2038 80.1165 87.5948C80.3175 87.2532 80.5488 86.8604 80.8395 86.3979C83.7239 81.8082 86.6648 78.8191 88.8772 76.5704C91.0683 74.3435 92.545 72.8426 92.545 71.2322C92.5438 70.9989 92.5143 70.7667 92.4569 70.5406C88.1025 70.7595 83.1168 73.5533 80.5735 74.9785C79.6907 75.4732 79.1022 75.803 78.9365 75.803C78.8615 75.803 78.8069 75.7836 78.745 75.7617C78.6638 75.7329 78.5699 75.6996 78.4004 75.6996C78.3803 75.6996 78.3687 75.6963 78.3577 75.6932C78.3479 75.6904 78.3385 75.6877 78.3238 75.6877ZM90.4635 137.928C83.1699 134.185 73.5122 132.641 73.2591 132.641C70.2522 132.641 63.2622 144.533 60.5202 150.909L69.1911 151.746C76.2201 140.168 76.796 139.628 77.2111 139.628C77.2263 139.628 77.2413 139.629 77.2564 139.63C77.2621 139.63 77.2679 139.63 77.2737 139.631C77.2825 139.631 77.2914 139.632 77.3005 139.632C77.3074 139.633 77.3144 139.633 77.3215 139.633C77.3245 139.633 77.3275 139.633 77.3306 139.634C77.334 139.634 77.3374 139.634 77.3409 139.634C78.6753 139.634 90.6431 152.408 91.9139 153.924L97.8222 154.48C97.6468 153.445 97.5549 152.398 97.5472 151.348C97.4855 148.877 98.2476 146.457 99.7133 144.467C99.7048 144.46 99.693 144.451 99.6779 144.438C99.6565 144.421 99.6286 144.398 99.5946 144.37C98.7271 143.66 93.8565 139.67 90.4635 137.928ZM110.365 143.226C111.299 143.245 112.221 143.425 113.093 143.759C113.263 143.81 113.411 143.916 113.515 144.06C113.619 144.204 113.673 144.378 113.668 144.555L113.669 144.598C113.667 144.718 113.643 144.837 113.595 144.948C113.548 145.059 113.48 145.159 113.394 145.243C113.308 145.328 113.206 145.394 113.094 145.439C112.983 145.484 112.863 145.506 112.743 145.505C112.509 145.505 112.306 145.438 112.064 145.357C111.71 145.24 111.273 145.095 110.534 145.095C108.535 145.095 106.72 146.462 106.72 148.364C106.72 150.534 108.932 151.888 110.888 151.888C111.907 151.888 112.462 151.594 112.997 151.311C113.494 151.049 113.973 150.795 114.79 150.795C115.017 150.795 115.155 150.815 115.281 150.833C115.389 150.849 115.489 150.863 115.628 150.863C115.635 150.865 115.641 150.866 115.647 150.867C115.666 150.871 115.686 150.873 115.705 150.874C115.944 150.874 117.034 150.626 123.163 147.721L123.16 147.713C123.077 147.438 120.984 140.528 112.02 140.528C104.23 140.528 99.5376 146.06 99.5376 150.586C99.5496 151.826 99.8282 153.048 100.354 154.171C100.41 154.361 100.525 154.528 100.683 154.647C100.84 154.767 101.033 154.832 101.23 154.833C103.117 154.923 103.686 155.032 104.077 155.107C104.353 155.16 104.541 155.196 105.044 155.196C106.285 155.196 106.976 154.87 108.354 154.22C108.688 154.062 109.063 153.885 109.496 153.689C109.489 153.686 109.482 153.684 109.475 153.681C109.46 153.676 109.445 153.671 109.428 153.665C109.408 153.658 109.386 153.651 109.363 153.643L109.362 153.642L109.36 153.642L109.359 153.641C108.39 153.311 104.829 152.096 104.829 148.346C104.829 144.911 108.12 143.226 110.365 143.226ZM45.4372 215.702L110.095 225.828C110.095 225.645 110.097 225.484 110.099 225.337C110.099 225.316 110.099 225.296 110.099 225.276L110.099 225.275L110.1 225.195C110.101 225.137 110.102 225.081 110.102 225.026C110.102 224.493 105.285 157.752 105.232 157.18L43.7482 151.295C43.7482 151.421 43.7474 151.533 43.7467 151.636C43.7461 151.724 43.7455 151.805 43.7455 151.883C43.7455 151.919 45.3656 214.277 45.4372 215.702ZM150.679 137.9L107.212 156.857C107.228 157.074 107.336 158.609 107.51 161.085C107.511 161.096 107.512 161.107 107.513 161.117L107.516 161.158C108.567 176.07 111.981 224.499 112.22 226.066C117.564 223.443 154.519 200.893 154.556 200.87C154.506 200.84 154.469 200.814 154.44 200.793C154.42 200.779 154.403 200.768 154.389 200.759C154.371 200.748 154.355 200.742 154.34 200.742C153.245 200.742 149.011 200.839 147.161 200.882C146.644 200.894 146.313 200.901 146.289 200.901C144.861 200.901 137.183 200.702 137.183 197.841C137.183 194.5 147.336 192.675 147.742 192.602L147.754 192.6C147.345 192.501 146.925 192.455 146.504 192.465C146.413 192.465 146.326 192.467 146.222 192.468C146.064 192.47 145.866 192.473 145.553 192.473C144.112 192.473 134.557 192.239 134.557 189.32C134.557 186.836 139.602 185.548 144.269 184.356C144.453 184.309 144.636 184.262 144.818 184.215C145.043 184.158 145.266 184.1 145.487 184.043C145.481 184.042 145.462 184.041 145.432 184.04L145.429 184.039C144.621 183.997 136.056 183.551 136.056 180.223C136.056 175.151 150.894 174.843 153.142 174.796L153.147 174.796C153.271 174.794 153.356 174.792 153.397 174.79L150.679 137.9ZM172.332 197.781C173.201 197.323 173.566 196.775 173.59 195.878H173.588C173.798 194.213 173.904 192.538 173.907 190.86C173.907 186.821 173.287 182.307 172.23 176.877C172.198 176.651 172.097 176.441 171.941 176.274C171.785 176.107 171.581 175.993 171.358 175.946C168.302 174.966 164.111 171.581 160.588 168.736C158.8 167.291 157.185 165.986 155.978 165.206C155.889 165.297 155.819 165.405 155.772 165.523C155.725 165.641 155.702 165.768 155.705 165.895C155.705 167.81 157.709 174.754 159.788 175.09C160.01 175.108 160.217 175.207 160.37 175.368C160.523 175.529 160.612 175.74 160.619 175.962C160.619 176.359 160.383 176.805 159.593 176.805C159.448 176.805 159.1 176.798 158.648 176.79L158.646 176.79L158.642 176.79C157.804 176.774 156.609 176.752 155.689 176.752H155.685C142.664 176.755 140.255 178.244 137.96 180.201C137.96 180.201 137.962 180.203 137.964 180.205C137.966 180.206 137.968 180.208 137.97 180.21C138.128 180.344 140.153 182.063 146.903 182.063C147.657 182.063 148.359 182.035 149.095 182.006C149.908 181.973 150.763 181.939 151.778 181.939H151.808C152.322 181.939 159.057 181.97 159.057 183.937C159.057 185.286 156.331 185.409 152.583 185.579C147.722 185.799 141.14 186.097 136.552 189.247C140.533 190.512 145.653 190.55 149.894 190.582C154.471 190.616 158.026 190.642 158.026 192.195C158.026 193.519 155.642 193.756 152.383 194.081C148.383 194.48 143.067 195.01 139.22 197.838C141.389 198.584 143.671 198.947 145.965 198.91C150.929 198.91 156.834 198.512 158.376 198.408C158.608 198.393 158.741 198.384 158.757 198.384C160.013 198.384 161.051 198.613 162.132 198.851C163.306 199.11 164.53 199.38 166.14 199.38C168.304 199.367 170.432 198.818 172.332 197.781ZM155.364 172.634L155.231 172.672H155.229C155.283 173.382 155.336 174.092 155.392 174.838H156.731L155.364 172.634Z" fill="#290568"/>
<path fill-rule="evenodd" clip-rule="evenodd" d="M116.874 124.422C118.171 126.148 119.264 128.148 119.264 129.592C119.277 130.334 118.995 131.051 118.479 131.586C117.963 132.12 117.257 132.427 116.514 132.441C116.476 132.441 116.438 132.441 116.4 132.44C115.496 132.44 114.319 131.445 114.319 129.727C114.319 128.408 115.133 126.013 116.874 124.422ZM113.093 143.759C112.221 143.425 111.299 143.245 110.365 143.226C108.12 143.226 104.829 144.911 104.829 148.346C104.829 152.096 108.39 153.311 109.359 153.641L109.36 153.642L109.362 153.642L109.363 153.643L109.428 153.665L109.475 153.681L109.496 153.689C109.063 153.885 108.688 154.062 108.354 154.22C106.976 154.87 106.285 155.196 105.044 155.196C104.541 155.196 104.353 155.16 104.077 155.107C103.686 155.032 103.117 154.923 101.23 154.833C101.033 154.832 100.84 154.767 100.683 154.647C100.525 154.528 100.41 154.361 100.354 154.171C99.8282 153.048 99.5496 151.826 99.5376 150.586C99.5376 146.06 104.23 140.528 112.02 140.528C120.984 140.528 123.077 147.438 123.16 147.713L123.163 147.721C117.034 150.626 115.944 150.874 115.705 150.874C115.686 150.873 115.666 150.871 115.647 150.867C115.641 150.866 115.635 150.865 115.628 150.863C115.489 150.863 115.389 150.849 115.281 150.833C115.155 150.815 115.017 150.795 114.79 150.795C113.973 150.795 113.494 151.049 112.997 151.311C112.462 151.594 111.907 151.888 110.888 151.888C108.932 151.888 106.72 150.534 106.72 148.364C106.72 146.462 108.535 145.095 110.534 145.095C111.273 145.095 111.71 145.24 112.064 145.357C112.306 145.438 112.509 145.505 112.743 145.505C112.863 145.506 112.983 145.484 113.094 145.439C113.206 145.394 113.308 145.328 113.394 145.243C113.48 145.159 113.548 145.059 113.595 144.948C113.643 144.837 113.667 144.718 113.669 144.598L113.668 144.555C113.673 144.378 113.619 144.204 113.515 144.06C113.411 143.916 113.263 143.81 113.093 143.759ZM155.231 172.672L155.364 172.634L156.731 174.838H155.392C155.336 174.092 155.283 173.382 155.229 172.672H155.231Z" fill="#290568"/>
<path d="M1.66566 173.234C1.18855 173.115 0.00154596 173.049 0.00154596 172.109C-0.00548651 171.998 0.0115309 171.887 0.0514294 171.784C0.0913279 171.68 0.153162 171.586 0.232686 171.509C0.312209 171.432 0.407538 171.372 0.512125 171.335C0.616712 171.298 0.728079 171.284 0.838578 171.294C1.14261 171.294 1.36622 171.376 1.8617 171.376C15.7386 171.376 34.1514 128.915 50.964 128.915C51.1836 128.923 51.3916 129.015 51.5446 129.173C51.6977 129.331 51.7839 129.541 51.7854 129.761C51.7669 130.061 51.6498 130.346 51.4525 130.573C51.2551 130.799 50.9885 130.954 50.6941 131.013C29.7648 136.894 20.3361 170.17 1.66566 173.234ZM120.233 107.899C120.801 99.0138 128.353 101.044 128.622 97.1491C129.218 88.5196 135.289 87.4005 135.325 87.4005C135.597 87.4079 135.855 87.5203 136.046 87.714C136.237 87.9077 136.345 88.1677 136.348 88.4395C136.348 89.23 135.463 89.6758 135.244 89.8094C131.52 92.0808 131.418 93.003 130.84 97.6554C130.121 103.426 122.365 100.713 122.365 108.34C122.365 108.469 122.382 108.599 122.382 108.727C122.39 108.857 122.373 108.987 122.33 109.11C122.288 109.233 122.222 109.346 122.136 109.443C122.05 109.54 121.946 109.62 121.829 109.677C121.712 109.734 121.585 109.767 121.456 109.775C121.436 109.776 121.416 109.777 121.397 109.777C120.399 109.776 120.399 108.719 120.233 107.899ZM214.965 42.6358C214.589 41.7048 213.982 41.5635 213.756 41.5635C212.02 41.5635 213.823 45.4518 209.812 48.1988C209.506 48.4072 208.774 48.9556 208.774 49.5695C208.774 50.9233 211.795 50.3569 213.462 54.6826C214.08 56.291 214.299 56.7403 214.955 56.7403C217 56.7403 214.944 52.7957 218.195 49.8468C218.417 49.5786 218.603 49.2825 218.748 48.9659C217.747 47.0461 216.917 47.4612 214.965 42.6358ZM214.461 51.9956C213.607 51.1389 212.694 50.2221 211.734 49.2574C213.498 47.1813 212.862 48.0656 214.141 45.7252C214.736 46.8254 215.434 47.8669 216.225 48.8357L214.461 51.9956ZM33.3435 112.982C33.152 112.236 33.1811 111.473 32.3556 111.473C32.0952 111.473 31.4944 111.549 31.4944 112.717C31.5585 113.112 31.6005 113.511 31.62 113.911C31.62 118.761 28.3362 119.338 28.3362 120.618C28.3362 121.527 31.8543 122.819 33.2152 126.522C33.3023 126.807 33.4826 127.055 33.7271 127.225C33.9717 127.395 34.2663 127.479 34.5638 127.462C36.3098 127.462 34.658 124.732 37.4551 120.815C37.8327 120.287 38.3063 119.322 38.3063 118.896C38.3063 117.822 34.4941 117.505 33.3435 112.982ZM34.1353 123.902L30.7688 120.493C31.9255 119.537 32.7232 118.217 33.031 116.748L35.9878 119.594C35.0878 120.891 34.4578 122.356 34.1353 123.902ZM30.5578 171.205C29.7675 171.205 25.5938 171.837 25.5938 176.063C25.5906 176.727 25.718 177.385 25.969 177.999C26.22 178.614 26.5896 179.173 27.0566 179.645C27.5236 180.116 28.079 180.491 28.691 180.749C29.3029 181.006 29.9595 181.14 30.6233 181.143L30.7106 181.142C31.54 181.142 35.7359 180.459 35.7359 176.232C35.7172 174.88 35.1623 173.591 34.1933 172.648C33.2242 171.705 31.9204 171.186 30.5685 171.205H30.5578ZM30.711 178.875C29.7675 178.875 27.8446 178.205 27.8446 176.135C27.8428 175.784 27.91 175.437 28.0424 175.113C28.1748 174.789 28.3698 174.494 28.6162 174.245C28.8626 173.996 29.1556 173.798 29.4785 173.662C29.8014 173.526 30.1479 173.456 30.4981 173.454C30.5369 173.454 30.5756 173.455 30.6141 173.456C33.0502 173.456 33.4553 175.754 33.4553 176.214C33.4566 176.562 33.3893 176.907 33.2571 177.23C33.125 177.552 32.9307 177.845 32.6852 178.093C32.4398 178.34 32.148 178.537 31.8266 178.671C31.5052 178.806 31.1605 178.876 30.8121 178.877C30.7789 178.877 30.7457 178.876 30.7125 178.875H30.711ZM131.451 67.3543C129.6 63.8003 131.109 61.7747 129.455 61.7747C129.292 61.7688 129.131 61.8181 128.999 61.9146C128.867 62.0112 128.771 62.1495 128.728 62.3071C128.564 62.7294 128.466 63.1746 128.438 63.6268V63.6513C128.438 67.2275 124.479 68.8042 124.479 70.0646C124.479 70.8688 125.375 71.1151 125.778 71.1151C125.858 71.1151 125.903 71.1051 126.033 71.1051C128.608 71.1051 127.371 76.1274 129.283 76.1274C131.087 76.1274 129.952 72.3053 132.729 69.9416C132.888 69.7575 133.01 69.545 133.09 69.3155C133.006 67.9115 132.189 68.7705 131.451 67.3543ZM129.331 71.2989C128.467 70.0221 128.908 70.5199 127.688 69.3806C128.186 68.7337 128.67 68.1011 129.22 67.3861L130.414 69.4625L129.331 71.3V71.2989ZM80.058 112.941C79.3587 112.933 78.6649 113.064 78.0162 113.325C77.3674 113.586 76.7764 113.973 76.277 114.462C75.7775 114.952 75.3793 115.535 75.1052 116.178C74.8311 116.822 74.6864 117.513 74.6793 118.212V118.229C74.6793 121.917 77.8406 123.486 79.955 123.486C80.8204 123.486 85.2445 122.796 85.2445 118.213C85.2445 117.356 84.4254 112.941 80.058 112.941ZM79.9634 121.238C77.2999 121.238 76.958 118.707 76.958 118.231C76.9497 117.438 77.256 116.674 77.8097 116.107C78.3633 115.54 79.1193 115.216 79.9117 115.205C80.4237 115.205 82.9865 115.618 82.9865 118.237C82.9853 120.842 80.4367 121.238 79.9634 121.238ZM132.943 155.876C132.75 155.717 132.508 155.629 132.258 155.626C131.004 155.626 131.224 156.201 129.113 167.2C129.104 167.289 129.099 167.378 129.098 167.468C129.087 167.615 129.104 167.762 129.15 167.903C129.195 168.043 129.268 168.173 129.363 168.285C129.459 168.397 129.576 168.489 129.707 168.556C129.838 168.623 129.981 168.663 130.128 168.675C130.154 168.677 130.179 168.678 130.205 168.678C130.244 168.678 130.275 168.683 130.31 168.683C130.582 168.683 131.172 168.377 139.044 163.064C139.559 162.717 139.82 162.334 139.82 161.946C139.82 161.322 139.809 161.323 132.943 155.876ZM131.818 165.148C132.239 162.95 132.622 160.962 133.032 158.818L136.783 161.85L131.818 165.148Z" fill="#290568"/>
<path d="M123.055 135.462C122.789 135.45 122.522 135.487 122.269 135.57C123.092 135.581 123.93 135.591 124.785 135.6C123.565 135.498 123.402 135.462 123.055 135.462ZM112.743 145.504C112.166 145.504 111.777 145.093 110.535 145.093C108.536 145.093 106.721 146.46 106.721 148.363C106.721 150.534 108.932 151.886 110.889 151.886C112.854 151.886 113.094 150.794 114.791 150.794C115.212 150.794 115.327 150.862 115.629 150.862C115.654 150.868 115.68 150.872 115.706 150.872C115.944 150.872 117.035 150.625 123.163 147.72C123.15 147.684 121.144 140.527 112.021 140.527C104.231 140.527 99.538 146.059 99.538 150.584C99.5501 151.824 99.8286 153.047 100.355 154.169C100.41 154.359 100.525 154.527 100.683 154.646C100.841 154.765 101.033 154.83 101.231 154.832C104.454 154.985 103.831 155.195 105.045 155.195C106.587 155.195 107.28 154.691 109.497 153.687C108.802 153.44 104.829 152.306 104.829 148.344C104.829 144.908 108.122 143.225 110.366 143.225C111.299 143.243 112.222 143.424 113.093 143.758C113.263 143.809 113.411 143.914 113.514 144.058C113.618 144.202 113.672 144.375 113.667 144.552C113.676 144.795 113.589 145.032 113.424 145.21C113.259 145.388 113.029 145.494 112.787 145.503C112.772 145.504 112.758 145.504 112.743 145.504ZM108.17 135.252C110.823 135.342 113.727 135.42 116.912 135.482C115.323 135.262 113.723 135.134 112.12 135.099C109.098 135.099 108.633 135.183 108.17 135.252ZM123.582 149.716C124.298 149.455 124.998 149.15 125.677 148.803L123.582 149.716Z" fill="#EBCFE4"/>
</svg>
