<svg width="200" height="184" viewBox="0 0 200 184" fill="none" xmlns="http://www.w3.org/2000/svg">
<path d="M21.5223 50.714C21.6679 43.5396 23.2964 36.473 26.3054 29.9586C26.7626 28.8801 68.8725 18.0635 68.9202 18.0635C69.2339 18.0565 69.5376 18.1744 69.7644 18.3912C69.9912 18.6081 70.1226 18.9061 70.1297 19.2199C70.1307 19.255 70.1301 19.29 70.1277 19.3248C70.1277 20.0681 68.1533 25.6864 68.1533 33.7601C68.1533 61.3147 86.1015 67.0023 86.1015 68.9135C86.1015 69.702 85.6302 70.1181 84.9602 70.4193C73.2525 75.6752 43.8179 89.1494 43.4144 89.1494C42.9642 89.1514 23.6674 80.0438 21.5223 50.714ZM24.1723 50.7491C24.1688 57.8252 25.9348 64.7898 29.3096 71.0092C32.6844 77.2286 37.5609 82.5054 43.4952 86.3593L82.141 68.8744C81.5945 68.4669 65.5785 59.2047 65.5785 33.7526C65.5785 27.8537 66.5251 23.9077 66.9748 21.2104L28.3822 31.5135C25.6535 37.5622 24.2195 44.1146 24.1723 50.7501V50.7491ZM121.788 62.0465C117.414 61.9526 115.902 61.2213 114.948 61.2213C114.489 61.2213 114.411 61.3217 114.055 61.3217C112.577 61.3217 98.2453 41.4217 98.2453 41.109C98.2453 40.1308 99.5286 39.2866 100.329 39.2866C101.189 39.4057 102.055 39.4715 102.922 39.4833C106.687 39.4833 110.141 38.1533 113.439 36.2606C130.945 26.2154 131.808 7.6665 134.228 7.6665C134.275 7.6665 165.455 16.3821 165.455 18.0635C165.454 19.8493 151.547 61.7478 121.788 62.0465ZM134.912 10.4631C125.685 41.9984 103.182 41.9467 102.02 42.2127C102.533 42.9324 114.022 58.2736 114.595 58.3876C117.652 58.9798 119.377 59.421 122.149 59.421C146.482 59.421 161.565 24.7574 162.506 18.8459L134.912 10.4631ZM99.034 104.145H99.0882C102.561 104.438 102.812 106.052 104.986 106.052C107.522 106.052 109.275 103.417 112.208 103.417C115.483 103.417 116.697 106.341 118.817 106.341C122.102 106.341 124.021 102.805 127.619 102.805C129.657 102.805 131.811 104.09 131.811 106.084C131.83 106.401 131.724 106.712 131.514 106.949C131.304 107.187 131.009 107.331 130.692 107.351C130.669 107.353 130.645 107.354 130.621 107.354C129.273 107.354 129.551 105.289 127.751 105.289C124.89 105.289 123.127 108.835 118.764 108.835C115.537 108.835 114.347 105.896 112.232 105.896C110.532 105.896 107.751 108.594 104.96 108.594C102.364 108.594 100.694 106.492 98.4684 106.492C96.5497 106.492 96.7318 108.66 95.5032 108.66C95.1877 108.646 94.8894 108.512 94.669 108.286C94.4486 108.059 94.3227 107.758 94.3167 107.442C94.3167 106.592 95.6462 104.145 99.034 104.145ZM149.245 94.2307C148.734 94.1878 148.258 93.9544 147.911 93.5769C147.564 93.1994 147.371 92.7053 147.371 92.1924C147.371 90.8714 151.745 82.7064 157.089 82.7064C158.45 82.7064 160.821 83.2831 160.821 85.9146C160.821 91.7648 152.183 94.0565 149.245 94.2307ZM150.092 91.4606C151.67 91.2508 153.206 90.7935 154.643 90.1055C157.471 88.9285 158.245 86.4316 158.245 85.9507C158.245 85.5492 157.941 85.2767 156.99 85.2767C154.264 85.2777 151.203 89.7672 150.092 91.4606ZM66.5674 167.085C56.7614 166.2 56.3192 162.283 56.3192 161.478C56.3192 161.398 56.3237 161.349 56.3237 161.336C56.2977 160.91 56.3619 160.483 56.512 160.084C56.6621 159.684 56.8948 159.321 57.1949 159.017C57.4949 158.713 57.8557 158.476 58.2535 158.322C58.6513 158.167 59.0773 158.098 59.5037 158.119C63.2644 158.119 65.6579 160.524 69.7489 163.781C69.9384 163.905 70.0983 164.069 70.2171 164.261C70.336 164.454 70.4109 164.671 70.4365 164.895C70.4347 165.053 70.3947 165.208 70.32 165.347C69.4146 167.098 69.4809 166.864 66.5674 167.085ZM66.342 164.629C66.3922 164.629 66.4564 164.559 66.6512 164.44C65.7478 163.773 62.4252 160.747 59.725 160.747C59.4741 160.747 59.1338 160.847 59.0726 160.991C59.0265 161.109 59.0042 161.235 59.0068 161.362C59.0108 163.383 65.1299 164.629 66.342 164.629ZM92.5472 79.1113C92.8097 74.964 95.5164 74.964 95.9365 74.964C100.5 74.964 101.721 81.9907 103.084 85.1442C103.162 85.3177 103.204 85.5057 103.206 85.6963C103.151 86.1832 102.922 86.6339 102.562 86.9661C102.447 87.1185 102.299 87.2428 102.129 87.3297C101.959 87.4167 101.772 87.4639 101.581 87.468C100.882 87.468 99.2721 86.407 99.1612 86.3327C93.7122 82.736 93.5315 82.1834 92.5472 79.1113ZM99.8548 83.5501C98.4626 78.0874 96.1544 77.5709 96.0098 77.5709C95.2469 77.5709 95.1857 78.6686 95.1857 78.8106C95.1842 81.0782 99.4689 83.3207 99.8548 83.5501ZM81.4636 121.217C80.4834 121.217 79.4861 121.022 78.264 120.899C83.9755 125.996 89.6469 128.578 89.6469 129.977C89.5776 130.485 89.3492 130.958 88.9945 131.328C92.6422 131.965 94.0661 131.909 94.0661 133.372C94.0459 133.815 93.8766 134.238 93.5858 134.572C98.676 138.095 102.09 138.484 102.336 139.457C102.931 141.815 103.37 141.966 103.37 142.387C103.324 142.663 103.178 142.912 102.96 143.087C102.742 143.262 102.467 143.351 102.188 143.336C99.9604 143.336 99.8434 140.881 99.8133 140.732C92.7266 137.679 91.4407 136.527 90.8269 134.234C89.5461 133.961 84.6034 133.209 84.6034 131.016C84.6452 130.44 84.8354 129.885 85.1555 129.404C76.9857 123.474 75.1944 121.876 73.8779 119.062C73.4413 118.13 69.3885 116.297 69.3885 114.683C69.3958 114.406 69.508 114.142 69.7025 113.944C69.897 113.746 70.1594 113.63 70.4365 113.618C71.2701 113.618 71.6014 114.604 73.5793 115.833C73.9577 115.288 75.1628 112.778 79.0961 112.778C81.7772 112.778 84.904 114.408 84.904 117.918C84.9211 118.777 84.5961 119.608 84.0005 120.228C83.4049 120.848 82.5875 121.206 81.7281 121.223C81.6397 121.224 81.5519 121.223 81.4636 121.217ZM76.0251 117.086C78.7855 118.475 80.5421 118.757 81.0997 118.757C81.9328 118.757 82.4001 118.536 82.4001 117.864C82.4001 116.434 81.1353 115.269 79.0575 115.269C78.0467 115.269 76.0401 115.719 76.0251 117.086Z" fill="#290568"/>
<path d="M126.621 41.5091C132.661 36.3897 132.736 36.1302 133.721 36.1302C134.001 36.1337 134.277 36.1936 134.533 36.3064C135.984 33.4375 136.182 32.5315 137.138 32.5315C137.517 32.5556 137.875 32.7161 138.145 32.9833C138.28 33.1474 138.392 33.3288 138.479 33.5228C143.789 28.039 140.274 28.9846 144.315 23.5881C144.406 23.4577 144.527 23.3513 144.667 23.278C144.808 23.2048 144.965 23.1668 145.123 23.1675C145.449 23.1673 145.761 23.2934 145.995 23.5192C146.229 23.7451 146.367 24.053 146.378 24.3781C146.378 25.55 144.973 26.1568 144.596 28.0244C143.8 31.9779 140.082 36.2436 138.293 36.2436C138.033 36.242 137.775 36.1936 137.532 36.1006C136.072 38.4094 135.595 39.4337 134.398 39.4337C133.978 39.4157 133.562 39.3404 133.162 39.2099C130.151 41.7792 129.375 42.3062 126.951 44.3534C125.593 45.5008 124.391 48.989 122.225 48.989C120.702 48.989 120.316 47.3629 120.316 47.0592C120.333 46.6712 120.464 46.2968 120.692 45.9821C120.187 45.458 119.896 44.764 119.876 44.0362C119.876 42.2926 122.069 39.7359 124.192 39.7359C125.503 39.7349 126.136 40.8511 126.621 41.5091ZM122.526 43.8023C123.642 43.6272 124.07 43.4339 124.07 42.9325C124.059 42.7159 124.012 42.5026 123.931 42.3011C123.284 42.5974 122.779 43.1367 122.526 43.8023Z" fill="#290568"/>
<path d="M55.3901 55.074C55.7736 55.3522 56.2315 55.5095 56.705 55.5257C57.6989 55.5257 58.1731 54.9919 60.82 52.0129L60.9004 51.9225C61.2467 51.5501 61.469 51.0794 61.5368 50.5754C61.5311 50.2595 61.403 49.9582 61.1796 49.7349C60.9561 49.5116 60.6546 49.3838 60.3388 49.3783C59.6201 49.3783 59.6567 49.6293 56.9876 52.6458C56.7869 52.3622 56.1896 51.3318 55.3529 51.3318C54.438 51.3318 54.2187 52.1328 52.6578 54.5876C52.2369 54.3971 51.7922 54.2644 51.3358 54.1931C50.9405 54.2515 50.5561 54.3687 50.1955 54.5409C49.8592 53.9638 49.4642 53.236 48.74 53.236C47.163 53.236 44.7555 58.4347 42.5356 58.6245C43.085 56.9259 43.3948 55.1591 43.4561 53.375V53.1923C43.4561 52.3265 43.3386 49.0571 40.783 49.0571C38.3633 49.0571 37.0132 52.4555 37.0132 55.8012C37.0132 59.3638 38.9014 60.2135 39.1257 60.8353C38.5751 62.1358 38.4145 62.3064 38.4145 62.7883C38.4139 62.8073 38.4136 62.8266 38.4136 62.846C38.4153 62.9882 38.4449 63.1287 38.501 63.2595C38.557 63.3902 38.6382 63.5087 38.74 63.6081C38.8418 63.7074 38.9621 63.7858 39.0942 63.8386C39.2263 63.8915 39.3674 63.9178 39.5097 63.916C40.3182 63.916 40.5586 63.124 41.4404 61.3774H41.5373C44.2862 61.3774 45.9916 59.5961 47.6529 57.7135C48.0996 58.4046 48.5407 59.3141 49.4733 59.3141C50.478 59.3141 51.0949 58.232 51.6405 57.457C51.8426 57.499 52.0484 57.5207 52.2548 57.5218C53.7805 57.5218 54.4867 56.2103 55.3901 55.074Z" fill="#290568"/>
<path fill-rule="evenodd" clip-rule="evenodd" d="M44.4278 95.2761C41.124 103.178 35.8141 104.615 28.3938 106.624C25.3767 107.44 22.0107 108.351 18.2888 109.83C5.41292 114.944 6.45255 139.394 29.1292 160.747C51.8058 182.099 96.1789 176.726 128.5 161.446C160.821 146.167 185.057 108.885 188 82.8418C190.943 56.7989 189 19.9673 167.19 19.9673C157.924 57.0777 130.409 65.4168 120.698 65.4168C111.943 65.4168 111.425 64.658 101.022 49.4037L101.02 49.4014C99.7615 47.5557 98.3581 45.4979 96.7778 43.2035C96.5263 42.8589 96.3862 42.4455 96.3763 42.019C96.3962 41.5509 96.5935 41.108 96.9282 40.7801C97.2628 40.4523 97.7097 40.2641 98.1781 40.2538C98.2995 40.2553 98.4204 40.2703 98.5385 40.2985C98.7497 40.0141 99.0184 39.7774 99.3271 39.6037C99.6358 39.43 99.9775 39.3231 100.33 39.2901C101.19 39.409 102.056 39.4746 102.923 39.4864C112.222 39.4864 121.731 30.9952 126.224 24.1652C120.681 25.1934 101.327 29.784 81.4848 45.4342C82.8559 62.8579 91.2256 66.6994 94.8937 68.3829C95.9476 68.8667 96.6134 69.1723 96.6134 69.5707C96.6134 70.3592 96.1422 70.7753 95.4721 71.0764C88.7565 74.0913 72.749 81.756 60.2433 87.7439L60.24 87.7455L60.2388 87.7461C52.8998 91.2602 46.7674 94.1964 44.4278 95.2761ZM95.9371 74.9641C99.576 74.9641 101.09 79.4324 102.245 82.8418C102.538 83.7078 102.808 84.5055 103.084 85.1442C103.163 85.3178 103.205 85.5058 103.207 85.6963C103.152 86.1833 102.923 86.634 102.562 86.9662C102.447 87.1185 102.299 87.2429 102.129 87.3298C101.959 87.4167 101.772 87.464 101.581 87.4681C100.882 87.4681 99.2722 86.407 99.1613 86.3328C93.7108 82.7346 93.5301 82.182 92.5459 79.1098C92.8099 74.9646 95.5166 74.9641 95.9371 74.9641ZM56.0968 161.588C56.0968 161.541 56.0983 161.505 56.0996 161.48L56.1007 161.461C56.101 161.454 56.1013 161.449 56.1013 161.446C56.0753 161.02 56.1395 160.593 56.2896 160.193C56.4397 159.794 56.6723 159.43 56.9724 159.127C57.2725 158.823 57.6332 158.586 58.0311 158.431C58.4289 158.277 58.8549 158.207 59.2813 158.228C62.39 158.228 64.5667 159.875 67.5384 162.284C67.9893 162.425 68.369 162.733 68.5994 163.145C68.6755 163.207 68.7498 163.266 68.8221 163.323C68.8813 163.37 68.9393 163.416 68.9957 163.461C69.7282 164.038 70.214 164.422 70.214 165.005C70.2122 165.163 70.1724 165.318 70.0981 165.457C69.3003 166.997 69.2565 167 67.2677 167.129C66.9981 167.146 66.6928 167.166 66.3449 167.192C56.5405 166.31 56.0983 162.393 56.0983 161.588H56.0968ZM157.088 82.709C158.45 82.709 160.821 83.2852 160.821 85.9167C160.821 91.7649 152.182 94.0566 149.245 94.2307C148.734 94.1878 148.258 93.9545 147.911 93.577C147.564 93.1995 147.371 92.7053 147.371 92.1925C147.371 90.8715 151.745 82.709 157.088 82.709ZM103.833 163.02C103.981 163.025 104.115 163.028 104.237 163.028C106.152 163.028 125.048 121.854 125.049 121.334C125.038 121.013 124.906 120.708 124.68 120.481C124.453 120.254 124.149 120.121 123.828 120.109C123.571 120.109 123.359 120.189 123.139 120.274C122.897 120.366 122.644 120.463 122.305 120.463C106.983 129.211 83.5977 106.239 83.5977 90.955C83.5977 89.2297 83.9576 88.3368 84.1966 87.744C84.3154 87.4494 84.4043 87.2289 84.4043 87.0171C84.3939 86.7018 84.2592 86.4034 84.0295 86.1871C83.7999 85.9708 83.494 85.8542 83.1786 85.8627C83.1407 85.8627 83.1123 85.8588 83.0859 85.8552L83.0636 85.8523C83.0583 85.8516 83.0529 85.851 83.0475 85.8506C83.0377 85.8497 83.0277 85.8491 83.017 85.8491C82.9343 85.8491 82.7298 86.0077 82.2548 86.376C80.0844 88.0589 72.2654 94.1218 44.595 109.46C44.0893 109.729 43.6665 110.131 43.3724 110.622C43.0783 111.114 42.924 111.676 42.9262 112.249C42.9262 128.946 74.785 160.463 103.833 163.02Z" fill="#EBCFE4"/>
<path d="M102.923 159.743C102.801 159.743 102.667 159.74 102.519 159.735C73.471 157.179 45.5542 128.289 45.5542 111.592C45.552 111.019 45.7063 110.457 46.0004 109.965C46.2945 109.474 46.7173 109.072 47.223 108.803C80.9502 90.1075 82.5563 89.1343 83.017 89.1343C83.0702 89.1343 83.1079 89.1478 83.1786 89.1478C83.494 89.1393 83.7999 89.2559 84.0295 89.4722C84.2592 89.6885 84.3939 89.9869 84.4043 90.3022C84.4043 90.9401 83.5977 91.6574 83.5977 94.2402C83.5977 109.524 101.6 125.062 115.735 125.062C116.382 125.062 116.719 124.708 117.258 124.708C117.579 124.72 117.883 124.853 118.11 125.08C118.336 125.308 118.468 125.612 118.479 125.933C118.478 126.453 104.838 159.743 102.923 159.743ZM80.8499 93.1741C80.8027 93.1972 48.1661 110.717 48.1661 111.795C48.1661 125.476 69.1598 151.569 102.345 157.201L115.082 127.67C86.8992 124.132 81.7221 100.242 80.8499 93.1726V93.1741Z" fill="#290568"/>
</svg>
