<svg width="24" height="24" viewBox="0 0 24 24" fill="none" xmlns="http://www.w3.org/2000/svg">
<path fill-rule="evenodd" clip-rule="evenodd" d="M16.9355 4.01613V5.03226H17.5161C19.4402 5.03226 21 6.59204 21 8.51613V9.3871H3V8.51613C3 6.59204 4.55978 5.03226 6.48387 5.03226H6.77419V4.01613C6.77419 3.40645 7.18064 3 7.79032 3C8.4 3 8.80645 3.40645 8.80645 4.01613V5.03226H14.9032V4.01613C14.9032 3.40645 15.3097 3 15.9194 3C16.529 3 16.9355 3.40645 16.9355 4.01613ZM3 11.129H21V17.5161C21 19.4402 19.4402 21 17.5161 21H6.48387C4.55978 21 3 19.4402 3 17.5161V11.129ZM10.2154 13.1186C10.7435 12.7657 11.3645 12.5773 11.9996 12.5773C12.8514 12.5773 13.6683 12.9157 14.2705 13.5179C14.8728 14.1202 15.2112 14.9371 15.2112 15.7889C15.2112 16.424 15.0228 17.045 14.6699 17.5731C14.317 18.1012 13.8155 18.5129 13.2286 18.7559C12.6418 18.999 11.9961 19.0626 11.3731 18.9387C10.7501 18.8148 10.1779 18.5089 9.72873 18.0598C9.27958 17.6106 8.97371 17.0384 8.8498 16.4154C8.72588 15.7924 8.78948 15.1467 9.03255 14.5599C9.27563 13.973 9.68726 13.4714 10.2154 13.1186ZM12.4244 15.965C12.4472 15.9091 12.4588 15.8492 12.4584 15.7889V13.9537C12.4584 13.832 12.4101 13.7153 12.324 13.6293C12.238 13.5432 12.1213 13.4949 11.9996 13.4949C11.878 13.4949 11.7613 13.5432 11.6752 13.6293C11.5892 13.7153 11.5408 13.832 11.5408 13.9537V15.6008L10.7609 16.3853C10.6857 16.4731 10.6465 16.586 10.6509 16.7014C10.6554 16.8169 10.7032 16.9264 10.785 17.0081C10.8667 17.0898 10.9762 17.1377 11.0917 17.1422C11.2071 17.1466 11.32 17.1073 11.4078 17.0322L12.3254 16.1146C12.3679 16.0717 12.4015 16.0209 12.4244 15.965Z" fill="#C8B8F8"/>
</svg>