<svg width="24" height="24" viewBox="0 0 24 24" fill="none" xmlns="http://www.w3.org/2000/svg">
<path d="M16.9355 4.01613V5.03226H14.9032H8.80645H6.77419V4.01613C6.77419 3.40645 7.18064 3 7.79032 3C8.4 3 8.80645 3.40645 8.80645 4.01613V5.03226H14.9032V4.01613C14.9032 3.40645 15.3097 3 15.9194 3C16.529 3 16.9355 3.40645 16.9355 4.01613Z" fill="#5F369D"/>
<path d="M3 11.129H21V17.5161C21 19.4402 19.4402 21 17.5161 21H6.48387C4.55978 21 3 19.4402 3 17.5161V11.129Z" fill="#5F369D"/>
<path d="M3 8.51613C3 6.59204 4.55978 5.03226 6.48387 5.03226H17.5161C19.4402 5.03226 21 6.59204 21 8.51613V9.3871H3V8.51613Z" fill="#5F369D"/>
</svg>