<svg width="16" height="16" viewBox="0 0 16 16" fill="none" xmlns="http://www.w3.org/2000/svg">
<path fill-rule="evenodd" clip-rule="evenodd" d="M1 5.6C1 4.17521 2.14324 3 3.57045 3H12.7295C14.1568 3 15.3 4.17521 15.3 5.6V10.7C15.3 12.1248 14.1568 13.3 12.7295 13.3H3.57045C2.14324 13.3 1 12.1248 1 10.7V5.6ZM3.57045 4.3C2.87985 4.3 2.3 4.87439 2.3 5.6V6.3H14V5.6C14 4.87439 13.4201 4.3 12.7295 4.3H3.57045ZM14 7.6H2.3V10.7C2.3 11.4256 2.87985 12 3.57045 12H12.7295C13.4201 12 14 11.4256 14 10.7V7.6ZM9.27273 10.1C9.27273 9.50171 9.75267 9 10.3659 9H12.1386C12.7519 9 13.2318 9.50171 13.2318 10.1C13.2318 10.6983 12.7519 11.2 12.1386 11.2H10.3659C9.75267 11.2 9.27273 10.6983 9.27273 10.1Z" fill="white"/>
</svg>