<svg width="16" height="16" viewBox="0 0 16 16" fill="none" xmlns="http://www.w3.org/2000/svg">
<path fill-rule="evenodd" clip-rule="evenodd" d="M14.2225 7.77691C14.2225 11.2133 11.4367 13.9991 8.0003 13.9991C4.56386 13.9991 1.77808 11.2133 1.77808 7.77691C1.77808 4.34047 4.56386 1.55469 8.0003 1.55469C11.4367 1.55469 14.2225 4.34047 14.2225 7.77691ZM10.6251 5.13867C10.88 4.87892 11.2984 4.87892 11.5533 5.13867C11.8014 5.39155 11.8014 5.79654 11.5533 6.04942L7.4997 10.1806C7.23832 10.447 6.80921 10.447 6.54789 10.1805L4.44613 8.03761C4.19836 7.78499 4.19826 7.38056 4.44591 7.12782C4.70058 6.86792 5.11901 6.86777 5.37386 7.1275L7.02374 8.80898L10.6251 5.13867Z" fill="#290568"/>
</svg>