<svg width="35" height="42" viewBox="0 0 35 42" fill="none" xmlns="http://www.w3.org/2000/svg">
<path d="M12.477 12.4091C13.0497 12.4091 13.4316 12.0273 13.4316 11.4545C13.4316 10.8818 13.0497 10.5 12.477 10.5C11.9043 10.5 11.5225 10.8818 11.5225 11.4545C11.5225 12.0273 11.9043 12.4091 12.477 12.4091ZM22.0225 12.4091C22.5952 12.4091 22.977 12.0273 22.977 11.4545C22.977 10.8818 22.5952 10.5 22.0225 10.5C21.4497 10.5 21.0679 10.8818 21.0679 11.4545C21.0679 12.0273 21.4497 12.4091 22.0225 12.4091ZM17.2497 15.2727C17.8225 15.2727 19.1588 14.8909 19.1588 14.3182C19.1588 13.7455 19.1588 13.3636 17.2497 13.3636C15.3406 13.3636 15.3406 13.7455 15.3406 14.3182C15.3406 14.8909 16.677 15.2727 17.2497 15.2727Z" fill="#5F369D"/>
<path d="M27.5593 22.6227C26.9865 22.5273 26.7002 21.9546 26.7956 21.4773L24.6002 19.5L22.0229 20.7136L16.75 22L9.90018 20L7.70472 21.4773C7.80018 22.05 7.41836 22.5273 6.94109 22.6227C6.65472 22.6227 6.55927 22.7182 6.46381 22.7182C6.082 22.9091 5.89109 22.9091 5.31836 22.9091H4.36381C3.02745 22.9091 1.97745 23.9591 1.97745 25.2955C1.97745 26.6318 3.02745 27.6818 4.36381 27.5864H7.80018C8.3729 27.5864 8.75472 27.9682 8.75472 28.5409C8.75472 29.1136 8.3729 29.4955 7.80018 29.4955C7.80018 29.7818 7.89563 29.9727 7.89563 30.1636C7.99109 31.8818 7.22745 33.5046 5.89109 34.4591C5.60472 34.65 5.31836 34.9364 4.84109 35.4136C4.26836 35.9864 3.982 36.6546 3.982 37.3227C4.07745 38.85 5.31836 40.0909 6.84563 40.0909H7.70472C8.182 40.0909 8.56381 39.9955 8.85018 39.8046C9.80472 39.3273 10.4729 38.3727 10.4729 37.2273C10.4729 36.75 10.3774 36.2727 10.0911 35.7955C9.90018 35.3182 9.99563 34.7455 10.4729 34.4591C10.9502 34.2682 11.5229 34.3636 11.8093 34.8409C12.2865 35.6046 12.4775 36.3682 12.4775 37.2273C12.4775 37.7046 12.382 38.1818 12.1911 38.6591C13.5275 38.3727 14.8638 38.1818 16.3911 38.1818H18.0138C19.5411 38.1818 20.9729 38.3727 22.2138 38.6591C22.1184 38.1818 22.0229 37.7046 22.0229 37.2273C22.0229 36.3682 22.2138 35.6046 22.5956 34.9364C22.882 34.4591 23.4547 34.2682 23.932 34.5546C24.4093 34.8409 24.6002 35.4136 24.3138 35.8909C24.0274 36.3682 23.932 36.8455 23.932 37.3227C23.932 38.4682 24.6002 39.4227 25.5547 39.9C25.9365 40.0909 26.3184 40.1864 26.7956 40.1864H27.7502C29.2775 40.1864 30.5184 38.9455 30.6138 37.4182C30.6138 36.75 30.3274 36.0818 29.7547 35.5091C29.2774 35.0318 28.8956 34.7455 28.7047 34.5546C27.2729 33.6 26.6047 31.9773 26.7002 30.2591C26.7002 29.9727 26.7002 29.7818 26.7956 29.5909C26.2229 29.5909 25.8411 29.2091 25.8411 28.6364C25.8411 28.0636 26.2229 27.6818 26.7956 27.6818H30.1365C31.4729 27.6818 32.5229 26.6318 32.5229 25.2955C32.5229 23.9591 31.4729 22.9091 30.1365 22.9091H29.182C28.6093 22.9091 28.3229 22.8136 28.0365 22.7182C27.9411 22.7182 27.7502 22.7182 27.5593 22.6227Z" fill="#C8B8F8"/>
<path d="M5.50945 9.16364C5.03217 10.2136 4.84126 11.2636 4.84126 12.4091C4.84126 18.2318 10.3776 22.9091 17.2504 22.9091C24.1231 22.9091 29.6594 18.2318 29.6594 12.4091C29.6594 11.2636 29.4685 10.2136 28.9913 9.16364C28.8958 8.78182 28.8958 8.4 29.1822 8.20909C30.0413 7.25455 30.614 6.10909 30.614 4.86818V4.77273C30.614 4.39091 30.614 4.00909 30.5185 3.62727C30.0413 1.90909 28.7049 0.572727 26.9867 0.0954546C26.6049 0 26.2231 0 25.8413 0C24.9822 0 24.2185 0.190909 23.4549 0.668182C22.6913 1.14545 22.0231 1.81364 21.6413 2.57727C20.2094 2.1 18.7776 1.90909 17.2504 1.90909C15.7231 1.90909 14.2913 2.1 12.8594 2.57727C12.4776 1.81364 11.8094 1.05 11.0458 0.668182C10.3776 0.190909 9.51854 0 8.65945 0C8.27763 0 7.89581 0 7.51399 0.0954546C5.79581 0.572727 4.45945 1.90909 3.98217 3.62727C3.88672 4.00909 3.88672 4.39091 3.88672 4.77273V4.86818C3.88672 6.10909 4.36399 7.25455 5.31854 8.20909C5.50945 8.4 5.6049 8.78182 5.50945 9.16364ZM5.89126 4.10455C6.08217 3.05455 6.94126 2.29091 7.99126 2.00455C8.94581 1.81364 9.70945 2.00455 10.0913 2.29091C10.4731 2.57727 10.8549 2.86364 11.0458 3.34091C10.664 3.53182 10.3776 3.72273 9.99581 3.91364C9.51854 4.2 9.42308 4.77273 9.70945 5.25C9.99581 5.72727 10.5685 5.72727 11.0458 5.44091C12.8594 4.39091 14.9594 3.81818 17.2504 3.81818C19.5413 3.81818 21.6413 4.39091 23.4549 5.44091C23.6458 5.53636 23.7413 5.53636 23.9322 5.53636C24.2185 5.53636 24.6004 5.34546 24.7913 5.05909C24.9822 4.67727 24.8867 4.10455 24.4094 3.81818C24.1231 3.62727 23.7413 3.43636 23.3594 3.24545C23.6458 2.86364 23.9322 2.48182 24.314 2.19545C24.7913 1.90909 25.4594 1.71818 26.414 1.90909C27.464 2.1 28.2276 2.95909 28.514 4.00909C28.7049 5.05909 28.514 6.01364 27.7504 6.68182C26.9867 7.44546 26.7004 8.68636 27.1776 9.73636C27.464 10.5955 27.6549 11.4545 27.6549 12.3136C27.6549 17.0864 22.9776 20.9045 17.1549 20.9045C11.3322 20.9045 6.6549 17.0864 6.6549 12.3136C6.6549 11.4545 6.84581 10.5955 7.13217 9.73636C7.51399 8.68636 7.32308 7.44546 6.55945 6.68182C5.89126 6.10909 5.6049 5.05909 5.89126 4.10455Z" fill="#5F369D"/>
<path d="M29.3729 29.5907H30.1365C32.5229 29.5907 34.432 27.6816 34.432 25.2952C34.432 22.9089 32.5229 20.9998 30.1365 20.9998H29.182C28.8002 20.9998 28.8002 20.9998 28.6093 20.9043C28.5138 20.9043 28.3229 20.8089 27.9411 20.7134C27.4638 20.6179 26.8911 20.9043 26.7956 21.477C26.7002 21.9543 26.9865 22.527 27.5593 22.6225C27.7502 22.7179 27.9411 22.7179 28.0365 22.7179C28.3229 22.8134 28.6093 22.9089 29.182 22.9089H30.1365C31.4729 22.9089 32.5229 23.9589 32.5229 25.2952C32.5229 26.6316 31.4729 27.6816 30.1365 27.6816H26.7956C26.2229 27.6816 25.8411 28.0634 25.8411 28.6361C25.8411 29.2089 26.2229 29.5907 26.7956 29.5907C26.7002 29.7816 26.7002 29.9725 26.7002 30.2589C26.6047 31.977 27.2729 33.5998 28.7047 34.5543C28.8956 34.7452 29.2774 35.0316 29.7547 35.5089C30.3274 36.0816 30.6138 36.7498 30.6138 37.4179C30.5184 38.9452 29.2775 40.1861 27.7502 40.1861H26.7956C26.3184 40.1861 25.9365 40.0907 25.5547 39.8998C24.6002 39.4225 23.932 38.4679 23.932 37.3225C23.932 36.8452 24.0274 36.3679 24.3138 35.8907C24.6002 35.4134 24.4093 34.8407 23.932 34.5543C23.4547 34.2679 22.882 34.4589 22.5956 34.9361C22.2138 35.6043 22.0229 36.3679 22.0229 37.227C22.0229 37.7043 22.1184 38.1816 22.2138 38.6589C20.9729 38.3725 19.5411 38.1816 18.0138 38.1816H16.3911C14.8638 38.1816 13.5275 38.3725 12.1911 38.6589C12.382 38.1816 12.4775 37.7043 12.4775 37.227C12.4775 36.3679 12.2865 35.6043 11.8093 34.8407C11.5229 34.3634 10.9502 34.2679 10.4729 34.4589C9.99563 34.7452 9.90018 35.3179 10.0911 35.7952C10.3774 36.2725 10.4729 36.7498 10.4729 37.227C10.4729 38.3725 9.80472 39.327 8.85018 39.8043C8.56381 39.9952 8.182 40.0907 7.70472 40.0907H6.84563C5.31836 40.0907 4.07745 38.8498 3.982 37.3225C3.982 36.6543 4.26836 35.9861 4.84109 35.4134C5.31836 34.9361 5.60472 34.6498 5.89109 34.4589C7.22745 33.5043 7.99109 31.8816 7.89563 30.1634C7.89563 29.9725 7.80018 29.7816 7.80018 29.4952C8.3729 29.4952 8.75472 29.1134 8.75472 28.5407C8.75472 27.9679 8.3729 27.5861 7.80018 27.5861H4.36381C3.02745 27.6816 1.97745 26.6316 1.97745 25.2952C1.97745 23.9589 3.02745 22.9089 4.36381 22.9089H5.31836C5.89109 22.9089 6.082 22.9089 6.46381 22.7179C6.55927 22.7179 6.65472 22.6225 6.94109 22.6225C7.41836 22.527 7.80018 22.0498 7.70472 21.477C7.60927 20.9998 7.132 20.6179 6.55927 20.7134C6.2729 20.8089 6.082 20.8089 5.89109 20.9043C5.79563 20.9998 5.70018 20.9998 5.31836 20.9998H4.36381C1.97745 20.9998 0.0683594 22.9089 0.0683594 25.2952C0.0683594 27.6816 1.97745 29.5907 4.36381 29.5907H5.12745C5.60472 29.5907 5.89109 29.9725 5.98654 30.3543C6.082 31.4043 5.60472 32.3589 4.84109 32.9316C4.45927 33.1225 4.07745 33.5043 3.60018 34.077C2.64563 35.0316 2.16836 36.177 2.16836 37.4179C2.26381 39.9952 4.36381 41.9998 6.94109 41.9998H7.70472C8.46836 41.9998 9.232 41.8089 9.90018 41.427C11.6184 40.4725 13.8138 40.0907 16.3911 40.0907H18.1093C20.6865 40.0907 22.882 40.5679 24.6002 41.427C25.2684 41.8089 26.032 41.9998 26.7956 41.9998H27.6547C30.232 41.9998 32.332 39.9952 32.4275 37.4179C32.4275 36.2725 31.9502 35.0316 30.9956 34.077C30.4229 33.5043 30.0411 33.2179 29.7547 32.9316C28.9911 32.3589 28.5138 31.4043 28.6093 30.3543C28.6093 29.9725 28.9911 29.5907 29.3729 29.5907Z" fill="#5F369D"/>
<path d="M11.7138 23.8642C11.2365 23.7688 10.7593 24.1506 10.6638 24.7233C10.6638 25.0097 10.5684 25.3915 10.5684 25.6779C10.5684 29.9733 13.5275 33.4097 17.2502 33.4097C20.9729 33.4097 23.932 29.9733 23.932 25.6779C23.932 25.3915 23.932 25.0097 23.8365 24.7233C23.7411 24.246 23.2638 23.8642 22.7865 23.8642C22.3093 23.9597 21.9275 24.3415 21.9275 24.9142V25.6779C21.9275 28.9233 19.8274 31.5006 17.1547 31.5006C14.482 31.5006 12.382 28.9233 12.382 25.6779V24.9142C12.5729 24.437 12.1911 23.9597 11.7138 23.8642Z" fill="#5F369D"/>
</svg>
