<svg width="28" height="43" viewBox="0 0 28 43" fill="none" xmlns="http://www.w3.org/2000/svg">
<path d="M10.4094 26.1038C10.7913 26.3902 11.5364 28.3016 11.25 28.6834C13.786 26.0853 22.584 20.8322 25.75 18.9993C26.114 21.4993 26.114 22.3811 26.114 22.9538L27.114 29.6357C27.114 36.9857 21.1004 42.9993 13.7504 42.9993C6.40035 42.9993 0.386719 36.9857 0.386719 29.6357V18.1811C0.386719 17.6084 0.768537 17.2266 1.34126 17.2266C1.91399 17.2266 2.29581 17.6084 2.29581 18.1811C2.29581 20.2811 3.25036 21.7129 5.2549 23.0493C6.40036 23.7175 9.4549 25.2447 10.4094 26.1038Z" fill="#C8B8F8"/>
<path d="M9.93164 14.3627C9.93164 14.9355 10.3135 15.3173 10.8862 15.3173C11.4589 15.3173 11.8407 14.9355 11.8407 14.3627C11.8407 13.79 11.4589 13.4082 10.8862 13.4082C10.3135 13.4082 9.93164 13.79 9.93164 14.3627ZM16.6135 15.3173C17.1862 15.3173 17.568 14.9355 17.568 14.3627C17.568 13.79 17.1862 13.4082 16.6135 13.4082C16.0407 13.4082 15.6589 13.79 15.6589 14.3627C15.6589 14.9355 16.0407 15.3173 16.6135 15.3173ZM12.7953 17.2264C12.7953 17.7991 13.1771 18.1809 13.7498 18.1809C14.3225 18.1809 14.7044 17.7991 14.7044 17.2264C14.7044 16.6537 14.3225 16.2718 13.7498 16.2718C13.1771 16.2718 12.7953 16.6537 12.7953 17.2264Z" fill="#5F369D"/>
<path d="M26.1594 21.9998C25.5867 21.9998 25.2049 22.3816 25.2049 22.9543V29.6361C25.2049 35.9361 20.0504 41.0907 13.7504 41.0907C7.45036 41.0907 2.29581 35.9361 2.29581 29.6361V23.0498C3.34581 24.0998 4.58672 24.7679 5.73217 25.3407C6.97308 25.9134 8.11854 26.677 9.16854 27.5361C9.55036 27.9179 10.2185 27.8225 10.5049 27.4407C10.7913 27.0588 10.7913 26.3907 10.4094 26.1043C9.4549 25.2452 8.30945 24.577 7.16399 23.9088C7.16399 22.3816 8.4049 21.1407 9.93217 21.0452C11.0776 21.6179 12.414 21.9998 13.8458 21.9998C15.2776 21.9998 16.614 21.6179 17.7594 21.0452C18.5231 21.0452 19.2867 21.427 19.8594 21.9998C14.4185 25.1498 9.74126 29.5407 6.40036 34.7907C6.11399 35.2679 6.20945 35.8407 6.68672 36.127C6.87763 36.2225 7.06854 36.3179 7.16399 36.3179C7.45036 36.3179 7.83217 36.127 7.92763 35.8407C11.364 30.3998 16.2322 26.0088 21.864 22.9543C25.1094 21.2361 27.114 17.9907 27.114 14.2679C27.114 6.91793 21.1004 0.904297 13.7504 0.904297C6.40036 0.904297 0.386719 7.01339 0.386719 14.3634C0.386719 14.9361 0.768537 15.3179 1.34126 15.3179C1.91399 15.3179 2.29581 14.9361 2.29581 14.3634C2.29581 8.06339 7.45036 2.90884 13.7504 2.90884C20.0504 2.90884 25.2049 8.06339 25.2049 14.3634C25.2049 17.1316 23.7731 19.6134 21.3867 21.0452C20.9094 20.4725 20.3367 19.8998 19.6685 19.6134C20.6231 18.6588 21.3867 17.5134 21.864 16.177C23.2004 15.9861 24.2504 14.7452 24.2504 13.3134C24.2504 11.8816 23.2004 10.7361 21.864 10.4498C21.2913 8.92248 20.3367 7.58612 19.0958 6.53612C18.714 6.24975 18.0458 6.24975 17.7594 6.72702C17.4731 7.10884 17.4731 7.77702 17.9504 8.06339C19.0958 8.92248 19.8594 10.2588 20.2413 11.5952C20.3367 12.0725 20.814 12.3588 21.2913 12.2634H21.3867C21.9594 12.2634 22.3413 12.6452 22.3413 13.2179C22.3413 13.7907 21.9594 14.1725 21.3867 14.1725H21.2913C20.814 14.077 20.3367 14.4588 20.2413 14.8407C19.4776 17.9907 16.8049 20.0907 13.7504 20.0907C10.6958 20.0907 8.02308 17.9907 7.25945 15.0316C7.16399 14.5543 6.68672 14.2679 6.20945 14.3634H6.11399C5.54126 14.3634 5.15945 13.9816 5.15945 13.4088C5.15945 12.8361 5.54126 12.4543 6.11399 12.4543H6.20945C6.68672 12.5498 7.16399 12.1679 7.25945 11.7861C8.02308 8.82702 10.6958 6.72702 13.7504 6.72702C14.3231 6.72702 14.7049 7.10884 14.7049 7.68157C14.7049 8.2543 14.3231 8.63612 13.7504 8.63612C13.1776 8.63612 12.7958 9.01793 12.7958 9.59066C12.7958 10.1634 13.1776 10.5452 13.7504 10.5452C15.3731 10.5452 16.614 9.3043 16.614 7.68157C16.614 6.05884 15.3731 4.81793 13.7504 4.81793C10.0276 4.81793 6.87763 7.10884 5.63672 10.5452C4.30035 10.7361 3.25036 11.977 3.25036 13.4088C3.25036 14.8407 4.30035 15.9861 5.63672 16.2725C6.11399 17.6088 6.87763 18.7543 7.83217 19.7088C6.49581 20.377 5.54126 21.5225 5.2549 23.0498C3.25036 21.7134 2.29581 20.2816 2.29581 18.1816C2.29581 17.6088 1.91399 17.227 1.34126 17.227C0.768537 17.227 0.386719 17.6088 0.386719 18.1816V29.6361C0.386719 36.9861 6.40036 42.9998 13.7504 42.9998C21.1004 42.9998 27.114 36.9861 27.114 29.6361V22.9543C27.114 22.3816 26.7322 21.9998 26.1594 21.9998Z" fill="#5F369D"/>
</svg>
