<svg width="24" height="24" viewBox="0 0 24 24" fill="none" xmlns="http://www.w3.org/2000/svg">
<path fill-rule="evenodd" clip-rule="evenodd" d="M4.72727 5.5H19.2727C19.996 5.5 20.6897 5.79349 21.2012 6.31592C21.7127 6.83834 22 7.5469 22 8.28571V15.7143C22 16.4531 21.7127 17.1617 21.2012 17.6841C20.6897 18.2065 19.996 18.5 19.2727 18.5H4.72727C4.00395 18.5 3.31026 18.2065 2.7988 17.6841C2.28734 17.1617 2 16.4531 2 15.7143V8.28571C2 7.5469 2.28734 6.83834 2.7988 6.31592C3.31026 5.79349 4.00395 5.5 4.72727 5.5ZM10.4848 9.68376C10.9333 9.37767 11.4606 9.21429 12 9.21429C12.7233 9.21429 13.417 9.50778 13.9285 10.0302C14.4399 10.5526 14.7273 11.2612 14.7273 12C14.7273 12.551 14.5673 13.0896 14.2676 13.5477C13.968 14.0058 13.542 14.3628 13.0437 14.5737C12.5453 14.7845 11.997 14.8397 11.4679 14.7322C10.9389 14.6247 10.4529 14.3594 10.0715 13.9698C9.69011 13.5802 9.43036 13.0838 9.32513 12.5435C9.2199 12.0031 9.27391 11.443 9.48033 10.934C9.68675 10.4249 10.0363 9.98986 10.4848 9.68376ZM11.4949 12.7721C11.6444 12.8741 11.8202 12.9286 12 12.9286C12.2411 12.9286 12.4723 12.8307 12.6428 12.6566C12.8133 12.4825 12.9091 12.2463 12.9091 12C12.9091 11.8163 12.8558 11.6368 12.7559 11.4841C12.656 11.3314 12.514 11.2124 12.3479 11.1421C12.1818 11.0718 11.999 11.0534 11.8226 11.0893C11.6463 11.1251 11.4843 11.2135 11.3572 11.3434C11.23 11.4733 11.1435 11.6387 11.1084 11.8188C11.0733 11.999 11.0913 12.1857 11.1601 12.3553C11.2289 12.525 11.3454 12.67 11.4949 12.7721ZM6.54545 11.0714C6.36565 11.0714 6.18989 11.1259 6.04039 11.2279C5.89089 11.33 5.77437 11.475 5.70556 11.6447C5.63676 11.8143 5.61875 12.001 5.65383 12.1812C5.68891 12.3613 5.77549 12.5267 5.90263 12.6566C6.02977 12.7865 6.19175 12.8749 6.3681 12.9107C6.54445 12.9466 6.72723 12.9282 6.89335 12.8579C7.05946 12.7876 7.20144 12.6686 7.30134 12.5159C7.40123 12.3632 7.45455 12.1837 7.45455 12C7.45455 11.7537 7.35877 11.5175 7.18828 11.3434C7.01779 11.1693 6.78656 11.0714 6.54545 11.0714ZM16.9495 11.2279C17.099 11.1259 17.2747 11.0714 17.4545 11.0714C17.6957 11.0714 17.9269 11.1693 18.0974 11.3434C18.2679 11.5175 18.3636 11.7537 18.3636 12C18.3636 12.1837 18.3103 12.3632 18.2104 12.5159C18.1105 12.6686 17.9686 12.7876 17.8024 12.8579C17.6363 12.9282 17.4535 12.9466 17.2772 12.9107C17.1008 12.8749 16.9389 12.7865 16.8117 12.6566C16.6846 12.5267 16.598 12.3613 16.5629 12.1812C16.5278 12.001 16.5458 11.8143 16.6147 11.6447C16.6835 11.475 16.8 11.33 16.9495 11.2279Z" fill="#42C76F"/>
</svg>
