<svg width="34" height="9" viewBox="0 0 34 9" fill="none" xmlns="http://www.w3.org/2000/svg">
<path fill-rule="evenodd" clip-rule="evenodd" d="M5.20238 6.88269C5.82753 6.88269 6.42708 6.6317 6.86913 6.18492C7.31118 5.73814 7.55952 5.13218 7.55952 4.50034C7.55952 3.8685 7.31118 3.26254 6.86913 2.81576C6.42708 2.36898 5.82753 2.11799 5.20238 2.11799C4.57723 2.11799 3.97768 2.36898 3.53563 2.81576C3.09358 3.26254 2.84524 3.8685 2.84524 4.50034C2.84524 5.13218 3.09358 5.73814 3.53563 6.18492C3.97768 6.6317 4.57723 6.88269 5.20238 6.88269ZM29.2976 6.88269C29.9228 6.88269 30.5223 6.6317 30.9644 6.18492C31.4064 5.73814 31.6548 5.13218 31.6548 4.50034C31.6548 3.8685 31.4064 3.26254 30.9644 2.81576C30.5223 2.36898 29.9228 2.11799 29.2976 2.11799C28.6725 2.11799 28.0729 2.36898 27.6309 2.81576C27.1888 3.26254 26.9405 3.8685 26.9405 4.50034C26.9405 5.13218 27.1888 5.73814 27.6309 6.18492C28.0729 6.6317 28.6725 6.88269 29.2976 6.88269ZM17.25 6.88269C17.8752 6.88269 18.4747 6.6317 18.9168 6.18492C19.3588 5.73814 19.6071 5.13218 19.6071 4.50034C19.6071 3.8685 19.3588 3.26254 18.9168 2.81576C18.4747 2.36898 17.8752 2.11799 17.25 2.11799C16.6248 2.11799 16.0253 2.36898 15.5832 2.81576C15.1412 3.26254 14.8929 3.8685 14.8929 4.50034C14.8929 5.13218 15.1412 5.73814 15.5832 6.18492C16.0253 6.6317 16.6248 6.88269 17.25 6.88269Z" fill="#C8B8F8"/>
<path fill-rule="evenodd" clip-rule="evenodd" d="M5.20238 6.88235C5.82753 6.88235 6.42708 6.63136 6.86913 6.18458C7.31118 5.7378 7.55952 5.13184 7.55952 4.5C7.55952 3.86816 7.31118 3.2622 6.86913 2.81542C6.42708 2.36864 5.82753 2.11765 5.20238 2.11765C4.57723 2.11765 3.97768 2.36864 3.53563 2.81542C3.09358 3.2622 2.84524 3.86816 2.84524 4.5C2.84524 5.13184 3.09358 5.7378 3.53563 6.18458C3.97768 6.63136 4.57723 6.88235 5.20238 6.88235ZM5.20238 9C4.02154 9 2.88906 8.52589 2.05407 7.68198C1.21909 6.83807 0.75 5.69347 0.75 4.5C0.75 3.30653 1.21909 2.16193 2.05407 1.31802C2.88906 0.474106 4.02154 0 5.20238 0C6.38323 0 7.51571 0.474106 8.35069 1.31802C9.18567 2.16193 9.65476 3.30653 9.65476 4.5C9.65476 5.69347 9.18567 6.83807 8.35069 7.68198C7.51571 8.52589 6.38323 9 5.20238 9ZM29.2976 6.88235C29.9228 6.88235 30.5223 6.63136 30.9644 6.18458C31.4064 5.7378 31.6548 5.13184 31.6548 4.5C31.6548 3.86816 31.4064 3.2622 30.9644 2.81542C30.5223 2.36864 29.9228 2.11765 29.2976 2.11765C28.6725 2.11765 28.0729 2.36864 27.6309 2.81542C27.1888 3.2622 26.9405 3.86816 26.9405 4.5C26.9405 5.13184 27.1888 5.7378 27.6309 6.18458C28.0729 6.63136 28.6725 6.88235 29.2976 6.88235ZM29.2976 9C28.1168 9 26.9843 8.52589 26.1493 7.68198C25.3143 6.83807 24.8452 5.69347 24.8452 4.5C24.8452 3.30653 25.3143 2.16193 26.1493 1.31802C26.9843 0.474106 28.1168 0 29.2976 0C30.4785 0 31.6109 0.474106 32.4459 1.31802C33.2809 2.16193 33.75 3.30653 33.75 4.5C33.75 5.69347 33.2809 6.83807 32.4459 7.68198C31.6109 8.52589 30.4785 9 29.2976 9ZM17.25 6.88235C17.8752 6.88235 18.4747 6.63136 18.9168 6.18458C19.3588 5.7378 19.6071 5.13184 19.6071 4.5C19.6071 3.86816 19.3588 3.2622 18.9168 2.81542C18.4747 2.36864 17.8752 2.11765 17.25 2.11765C16.6248 2.11765 16.0253 2.36864 15.5832 2.81542C15.1412 3.2622 14.8929 3.86816 14.8929 4.5C14.8929 5.13184 15.1412 5.7378 15.5832 6.18458C16.0253 6.63136 16.6248 6.88235 17.25 6.88235ZM17.25 9C16.0692 9 14.9367 8.52589 14.1017 7.68198C13.2667 6.83807 12.7976 5.69347 12.7976 4.5C12.7976 3.30653 13.2667 2.16193 14.1017 1.31802C14.9367 0.474106 16.0692 0 17.25 0C18.4308 0 19.5633 0.474106 20.3983 1.31802C21.2333 2.16193 21.7024 3.30653 21.7024 4.5C21.7024 5.69347 21.2333 6.83807 20.3983 7.68198C19.5633 8.52589 18.4308 9 17.25 9Z" fill="#5F369D"/>
</svg>
