<svg width="35" height="42" viewBox="0 0 35 42" fill="none" xmlns="http://www.w3.org/2000/svg">
<path d="M17.2498 28.9617C15.3225 28.9617 14.0277 27.0108 14.0277 24.1073C14.0277 22.1489 14.8832 19.0671 17.2498 16.5722C19.6165 19.0671 20.4721 22.1489 20.4721 24.1073C20.4721 27.0108 19.177 28.9617 17.2498 28.9617ZM30.4952 28.3165C27.4219 32.8882 23.4492 36.3202 17.2498 39.7495C11.0506 36.3204 7.07799 32.8884 4.00461 28.3165C0.0746198 21.8327 2.58754 17.9706 4.43652 16.2453C7.73356 13.1687 12.9683 13.0015 16.3859 15.7665C13.0136 19.2945 12.8342 23.3101 12.8342 24.1074C12.8342 28.2657 15.0518 30.1268 17.2497 30.1268C19.4476 30.1268 21.6654 28.2655 21.6654 24.1074C21.6654 23.3101 21.4858 19.2943 18.1135 15.7665C21.5311 13.0013 26.766 13.1689 30.063 16.2453C31.912 17.9706 34.4251 21.8329 30.4952 28.3165Z" fill="#C8B8F8"/>
<path d="M2.81393 29.0251L2.8139 29.0251L2.81585 29.0282L2.8174 29.0306C2.82077 29.036 2.82731 29.0465 2.83391 29.0561C6.09034 33.9043 10.2925 37.5071 16.8622 41.1011L16.9582 40.9256L16.8622 41.1011C16.9829 41.1671 17.1165 41.2 17.2499 41.2C17.3832 41.2 17.5169 41.1671 17.6376 41.1011L17.5416 40.9256L17.6376 41.1011C24.2075 37.5069 28.4095 33.9041 31.6661 29.056C31.6727 29.0464 31.6791 29.0361 31.6825 29.0307L31.6841 29.0282L31.6841 29.0282L31.686 29.0251C33.2934 26.3771 34.0489 23.7944 33.9396 21.439C33.8302 19.0796 32.8533 16.963 31.0245 15.2563C27.2288 11.7145 21.2038 11.5149 17.2499 14.6912C13.2963 11.5152 7.27117 11.7142 3.47548 15.2563C1.64668 16.963 0.669821 19.0796 0.560357 21.439C0.45108 23.7944 1.20654 26.3771 2.81393 29.0251ZM4.57301 16.391C7.74369 13.4323 12.7494 13.2259 16.0907 15.7879C12.8125 19.3298 12.6342 23.2984 12.6342 24.1069C12.6342 26.2208 13.1982 27.7752 14.0647 28.8047C14.9322 29.8353 16.0923 30.3262 17.2497 30.3262C18.4072 30.3262 19.5673 29.8353 20.4348 28.8046C21.3014 27.7751 21.8654 26.2208 21.8654 24.1069C21.8654 23.2984 21.687 19.3297 18.4088 15.7879C21.75 13.2258 26.7559 13.4325 29.9266 16.391C30.8308 17.2347 31.8915 18.5956 32.2495 20.5324C32.6068 22.4656 32.2694 25.0022 30.325 28.2108C27.2902 32.7228 23.3707 36.1217 17.2499 39.5203C11.1281 36.1212 7.20831 32.7218 4.17326 28.2083C2.23011 25.0008 1.89295 22.465 2.25016 20.5323C2.60812 18.5955 3.6688 17.2347 4.57301 16.391L4.43656 16.2448L4.57301 16.391ZM17.2499 28.7611C16.3633 28.7611 15.6162 28.3159 15.0827 27.5121C14.5459 26.7034 14.2278 25.5317 14.2278 24.1067C14.2278 22.236 15.0312 19.2915 17.2499 16.8651C19.4686 19.2916 20.2722 22.236 20.2722 24.1067C20.2722 25.5317 19.954 26.7033 19.4171 27.5121C18.8835 28.3159 18.1364 28.7611 17.2499 28.7611ZM8.0504 12.0738C9.33225 12.0738 10.5079 11.1768 11.3824 9.64542L11.2087 9.54624L11.3824 9.64541C12.1302 8.3358 12.5766 6.6856 12.5766 5.22336C12.5766 3.84221 12.1701 2.72922 11.3843 1.96207C10.5991 1.19558 9.46158 0.8 8.0504 0.8C6.63922 0.8 5.50174 1.19558 4.71661 1.96207C3.93079 2.72922 3.52426 3.84221 3.52426 5.22336C3.52426 6.68576 3.9706 8.3358 4.71857 9.64557C5.59289 11.1768 6.76873 12.0738 8.0504 12.0738ZM8.0504 2.36496C9.05942 2.36496 9.78377 2.61464 10.2566 3.07621C10.7285 3.53693 10.9831 4.24135 10.9831 5.2232C10.9831 6.38403 10.6134 7.72287 10.046 8.76876C9.7627 9.29109 9.43485 9.73141 9.08799 10.0387C8.74027 10.3466 8.38807 10.5086 8.0504 10.5086C7.71274 10.5086 7.36054 10.3466 7.01282 10.0387C6.66596 9.73141 6.33811 9.29109 6.05477 8.76876C5.48741 7.72287 5.11766 6.38403 5.11766 5.2232C5.11766 4.24135 5.37229 3.53693 5.84423 3.07621C6.31704 2.61464 7.04138 2.36496 8.0504 2.36496ZM26.449 12.0738C27.7309 12.0738 28.9066 11.1768 29.781 9.64542C30.5288 8.3358 30.9752 6.6856 30.9752 5.22336C30.9752 3.84221 30.5687 2.72922 29.7828 1.96207C28.9977 1.19558 27.8602 0.8 26.449 0.8C25.0379 0.8 23.9004 1.19558 23.1152 1.96207C22.3294 2.72922 21.9229 3.84221 21.9229 5.22336C21.9229 6.68576 22.3692 8.33581 23.1172 9.64558C23.9915 11.1768 25.1674 12.0738 26.449 12.0738ZM26.449 2.36496C27.4581 2.36496 28.1824 2.61464 28.6552 3.07621C29.1272 3.53693 29.3818 4.24135 29.3818 5.2232C29.3818 6.38403 29.012 7.72287 28.4447 8.76876C28.1613 9.29109 27.8335 9.73141 27.4866 10.0387C27.1389 10.3466 26.7867 10.5086 26.449 10.5086C26.1114 10.5086 25.7592 10.3466 25.4115 10.0387C25.0646 9.73141 24.7368 9.29109 24.4534 8.76876C23.8861 7.72287 23.5163 6.38403 23.5163 5.2232C23.5163 4.24135 23.7709 3.53693 24.2429 3.07621C24.7157 2.61464 25.44 2.36496 26.449 2.36496Z" fill="#5F369D" stroke="#5F369D" stroke-width="0.4"/>
<path d="M17.25 13.2C18.1313 13.2 18.8074 12.4818 19.2501 11.6238C19.6991 10.7533 19.95 9.66457 19.95 8.77084C19.95 7.87392 19.7067 7.12849 19.2357 6.60498C18.7622 6.07875 18.0794 5.8 17.25 5.8C16.4212 5.8 15.7383 6.07572 15.2645 6.60081C14.7931 7.12322 14.55 7.8689 14.55 8.77084C14.55 9.66975 14.8009 10.7586 15.25 11.6279C15.6929 12.485 16.3691 13.2 17.25 13.2ZM17.25 7.36672C17.7112 7.36672 18.0086 7.4852 18.1955 7.69239C18.3864 7.90394 18.4974 8.24641 18.4974 8.77084C18.4974 9.45441 18.3122 10.191 18.0465 10.7533C17.9136 11.0344 17.7648 11.263 17.6168 11.4179C17.4647 11.5772 17.3388 11.6333 17.25 11.6333C17.1612 11.6333 17.0353 11.5772 16.8832 11.4179C16.7352 11.263 16.5864 11.0344 16.4535 10.7533C16.1878 10.191 16.0026 9.45441 16.0026 8.77084C16.0026 8.24632 16.1136 7.90387 16.3045 7.69233C16.4914 7.48517 16.7888 7.36672 17.25 7.36672Z" fill="#5F369D" stroke="#5F369D" stroke-width="0.4"/>
</svg>
