<svg width="16" height="16" viewBox="0 0 16 16" fill="none" xmlns="http://www.w3.org/2000/svg">
<path d="M11.1111 3.33398C11.1111 3.59158 10.912 3.80065 10.6667 3.80065C10.4213 3.80065 10.2222 3.59158 10.2222 3.33398H9.33333C9.33333 3.59158 9.13422 3.80065 8.88889 3.80065C8.64356 3.80065 8.44444 3.59158 8.44444 3.33398H7.55556C7.55556 3.59158 7.35644 3.80065 7.11111 3.80065C6.86578 3.80065 6.66667 3.59158 6.66667 3.33398H5.77778C5.77778 3.59158 5.57867 3.80065 5.33333 3.80065C5.088 3.80065 4.88889 3.59158 4.88889 3.33398H4.44444C4.19911 3.33398 4 3.54305 4 3.80065V12.2007C4 12.4583 4.19911 12.6673 4.44444 12.6673H4.88889C4.88889 12.4097 5.088 12.2007 5.33333 12.2007C5.57867 12.2007 5.77778 12.4097 5.77778 12.6673H6.66667C6.66667 12.4097 6.86578 12.2007 7.11111 12.2007C7.35644 12.2007 7.55556 12.4097 7.55556 12.6673H8.44444C8.44444 12.4097 8.64356 12.2007 8.88889 12.2007C9.13422 12.2007 9.33333 12.4097 9.33333 12.6673H10.2222C10.2222 12.4097 10.4213 12.2007 10.6667 12.2007C10.912 12.2007 11.1111 12.4097 11.1111 12.6673H11.5556C11.8009 12.6673 12 12.4583 12 12.2007V3.80065C12 3.54305 11.8009 3.33398 11.5556 3.33398H11.1111ZM10.2222 10.334H5.77778C5.53244 10.334 5.33333 10.1249 5.33333 9.86732C5.33333 9.60972 5.53244 9.40065 5.77778 9.40065C5.77778 9.40065 9.97689 9.40065 10.2222 9.40065C10.4676 9.40065 10.6667 9.60972 10.6667 9.86732C10.6667 10.1249 10.4676 10.334 10.2222 10.334ZM10.2222 8.46732H5.77778C5.53244 8.46732 5.33333 8.25825 5.33333 8.00065C5.33333 7.74305 5.53244 7.53398 5.77778 7.53398H10.2222C10.4676 7.53398 10.6667 7.74305 10.6667 8.00065C10.6667 8.25825 10.4676 8.46732 10.2222 8.46732ZM10.2222 6.60065H5.77778C5.53244 6.60065 5.33333 6.39158 5.33333 6.13398C5.33333 5.87638 5.53244 5.66732 5.77778 5.66732H10.2222C10.4676 5.66732 10.6667 5.87638 10.6667 6.13398C10.6667 6.39158 10.4676 6.60065 10.2222 6.60065Z" fill="#F03771"/>
</svg>
