<svg width="16" height="16" viewBox="0 0 16 16" fill="none" xmlns="http://www.w3.org/2000/svg">
<path fill-rule="evenodd" clip-rule="evenodd" d="M8 6.6C8.90876 6.6 9.6 5.90934 9.6 5C9.6 4.09066 8.90876 3.4 8 3.4C7.09124 3.4 6.4 4.09066 6.4 5C6.4 5.90934 7.09124 6.6 8 6.6ZM12.4662 12.6C12.3224 12.3365 12.044 12.036 11.545 11.7386C10.723 11.2487 9.48196 10.9 8 10.9C6.51804 10.9 5.277 11.2487 4.45504 11.7386C3.95597 12.036 3.67759 12.3365 3.53378 12.6H12.4662ZM11 5C11 6.683 9.6815 8 8 8C6.3185 8 5 6.683 5 5C5 3.317 6.3185 2 8 2C9.6815 2 11 3.317 11 5ZM2.924 14C2.41369 14 2 13.5863 2 13.076C2 11.0705 4.6355 9.5 8 9.5C11.3645 9.5 14 11.0705 14 13.076C14 13.5863 13.5863 14 13.076 14H2.924Z" fill="#A9A4B7"/>
</svg>
