<svg width="16" height="16" viewBox="0 0 16 16" fill="none" xmlns="http://www.w3.org/2000/svg">
<path d="M10.4859 3.80078V5.03298C10.3132 7.80647 9.5167 9.38109 8.97648 10.1852C8.8052 10.4401 8.51131 10.5778 8.20418 10.5778H7.6582C7.35107 10.5778 7.05718 10.4401 6.8859 10.1852C6.34568 9.38109 5.54919 7.80647 5.37651 5.03298V3.80078H3.99561C3.99561 8.32769 5.41213 10.5262 6.16353 11.374C6.43706 11.6826 6.84067 11.81 7.25305 11.81H8.74742C9.1598 11.81 9.56342 11.6826 9.83694 11.374C10.5883 10.5262 12.0049 8.32769 12.0049 3.80078H10.4859Z" fill="white"/>
<path d="M11.9765 8.98481C11.8433 9.31265 11.5578 9.60764 11.2039 9.60764C10.85 9.60764 10.5569 9.31643 10.6466 8.9741C10.8267 8.28649 11.2716 7.67345 11.7165 7.02465C12.2931 6.24375 12.9339 5.40278 13.062 4.20139H2.93833C3.06648 5.40278 3.70722 6.24375 4.28388 7.02465C4.72877 7.67345 5.17366 8.28649 5.35376 8.9741C5.44342 9.31643 5.15035 9.60764 4.79648 9.60764C4.44261 9.60764 4.15709 9.31265 4.02387 8.98481C3.86904 8.60378 3.59076 8.21245 3.2587 7.74549C2.48981 6.72431 1.59277 5.46285 1.59277 3.60069C1.59277 3.26894 1.86171 3 2.19347 3H13.8069C14.1386 3 14.4076 3.26894 14.4076 3.60069C14.4076 5.46285 13.5106 6.72431 12.7417 7.74549C12.4096 8.21245 12.1313 8.60378 11.9765 8.98481ZM4.79648 13.2118C4.79648 12.8801 5.06542 12.6111 5.39717 12.6111H10.6032C10.9349 12.6111 11.2039 12.8801 11.2039 13.2118C11.2039 13.5436 10.9349 13.8125 10.6032 13.8125H5.39717C5.06542 13.8125 4.79648 13.5436 4.79648 13.2118Z" fill="white"/>
</svg>
