<svg width="16" height="16" viewBox="0 0 16 16" fill="none" xmlns="http://www.w3.org/2000/svg">
<path fill-rule="evenodd" clip-rule="evenodd" d="M2.72611 11.1111H3.26979C3.46154 11.6289 3.97736 12 4.58325 12C5.18961 12 5.70544 11.6289 5.89672 11.1111H9.76979C9.96154 11.6289 10.4774 12 11.0833 12C11.6896 12 12.2054 11.6289 12.3967 11.1111H13.5078C13.9637 11.1111 14.3333 10.7573 14.3333 10.3209V8.376C14.3333 8.01423 14.1786 7.66845 13.9052 7.41911L12.7774 6.39067C12.3456 5.99733 11.7723 5.77778 11.1761 5.77778H10.619C10.619 5.53232 10.42 5.33333 10.1745 5.33333H10.1547C9.89826 5.33333 9.69039 5.5412 9.69039 5.79762V10.2222H5.89672C5.70544 9.70444 5.18961 9.33333 4.58325 9.33333C3.97736 9.33333 3.46154 9.70444 3.26979 10.2222H2.72611C2.46982 10.2222 2.26182 10.0231 2.26182 9.77778V5.33333C2.26182 5.21556 2.31104 5.10222 2.39786 5.01911C2.48514 4.93556 2.60307 4.88889 2.72611 4.88889H6.33325C6.71777 4.73935 6.74259 4.20467 6.37357 4.02016L6.33325 4H2.72611C2.357 4 2.00275 4.14044 1.74136 4.39067C1.47997 4.64044 1.33325 4.97956 1.33325 5.33333V9.77778C1.33325 10.5142 1.95725 11.1111 2.72611 11.1111ZM5.04754 10.6667C5.04754 10.4213 4.83954 10.2222 4.58325 10.2222C4.32743 10.2222 4.11897 10.4213 4.11897 10.6667C4.11897 10.912 4.32743 11.1111 4.58325 11.1111C4.83954 11.1111 5.04754 10.912 5.04754 10.6667ZM11.5475 10.6667C11.5475 10.4213 11.3395 10.2222 11.0833 10.2222C10.8274 10.2222 10.619 10.4213 10.619 10.6667C10.619 10.912 10.8274 11.1111 11.0833 11.1111C11.3395 11.1111 11.5475 10.912 11.5475 10.6667ZM10.619 9.40934V6.66667H11.1761C11.5341 6.66667 11.8781 6.79822 12.1367 7.03467C12.5021 7.36711 12.9701 7.79378 13.2649 8.06267C13.3541 8.14445 13.4047 8.25734 13.4047 8.376V10.2222H12.3967C12.2054 9.70444 11.6896 9.33333 11.0833 9.33333C10.9208 9.33333 10.7643 9.36 10.619 9.40934Z" fill="#5F369D"/>
<path d="M5.42596 8.6504L3.48831 6.85056C3.28254 6.65679 3.28254 6.34418 3.48831 6.1504C3.69612 5.95471 4.03467 5.95449 4.24277 6.14991L5.42596 7.23529L8.07643 4.79773C8.28555 4.6008 8.6265 4.60137 8.83488 4.79898C9.03999 4.9935 9.0394 5.30604 8.83356 5.49988L5.42596 8.6504Z" fill="#5F369D"/>
</svg>
