<svg width="24" height="24" viewBox="0 0 24 24" fill="none" xmlns="http://www.w3.org/2000/svg">
<path d="M9.33333 3C8.36172 3 7.55556 3.81147 7.55556 4.78947V7.47368H6.66667C6.176 7.47368 5.77778 7.07195 5.77778 6.57895V4.56701C5.77778 4.31947 5.53327 4.14844 5.32114 4.27366C4.53291 4.73896 4 5.59419 4 6.57895V18.2105C4 19.1974 4.79733 20 5.77778 20H18.2222C19.2027 20 20 19.1974 20 18.2105V9.26316C20 8.27626 19.2027 7.47368 18.2222 7.47368V4.78947C18.2222 3.81147 17.4161 3 16.4444 3H9.33333ZM9.33333 4.78947H11.1111V7.47368H9.33333V4.78947ZM12.8889 4.78947H16.4444V7.47368H12.8889V4.78947ZM5.77778 9.09889C6.05724 9.19924 6.35343 9.26316 6.66667 9.26316H18.2222V18.2105H5.77778V9.09889ZM15.5556 12.8421C15.0649 12.8421 14.6667 13.2429 14.6667 13.7368C14.6667 14.2307 15.0649 14.6316 15.5556 14.6316C16.0462 14.6316 16.4444 14.2307 16.4444 13.7368C16.4444 13.2429 16.0462 12.8421 15.5556 12.8421Z" fill="#FE3E51"/>
</svg>
