<svg width="40" height="40" viewBox="0 0 40 40" fill="none" xmlns="http://www.w3.org/2000/svg">
<rect width="40" height="40" rx="20" fill="#42C76F"/>
<path d="M24.6667 13C24.6667 13.3864 24.368 13.7 24 13.7C23.632 13.7 23.3333 13.3864 23.3333 13H22C22 13.3864 21.7013 13.7 21.3333 13.7C20.9653 13.7 20.6667 13.3864 20.6667 13H19.3333C19.3333 13.3864 19.0347 13.7 18.6667 13.7C18.2987 13.7 18 13.3864 18 13H16.6667C16.6667 13.3864 16.368 13.7 16 13.7C15.632 13.7 15.3333 13.3864 15.3333 13H14.6667C14.2987 13 14 13.3136 14 13.7V26.3C14 26.6864 14.2987 27 14.6667 27H15.3333C15.3333 26.6136 15.632 26.3 16 26.3C16.368 26.3 16.6667 26.6136 16.6667 27H18C18 26.6136 18.2987 26.3 18.6667 26.3C19.0347 26.3 19.3333 26.6136 19.3333 27H20.6667C20.6667 26.6136 20.9653 26.3 21.3333 26.3C21.7013 26.3 22 26.6136 22 27H23.3333C23.3333 26.6136 23.632 26.3 24 26.3C24.368 26.3 24.6667 26.6136 24.6667 27H25.3333C25.7013 27 26 26.6864 26 26.3V13.7C26 13.3136 25.7013 13 25.3333 13H24.6667ZM23.3333 23.5H16.6667C16.2987 23.5 16 23.1864 16 22.8C16 22.4136 16.2987 22.1 16.6667 22.1C16.6667 22.1 22.9653 22.1 23.3333 22.1C23.7013 22.1 24 22.4136 24 22.8C24 23.1864 23.7013 23.5 23.3333 23.5ZM23.3333 20.7H16.6667C16.2987 20.7 16 20.3864 16 20C16 19.6136 16.2987 19.3 16.6667 19.3H23.3333C23.7013 19.3 24 19.6136 24 20C24 20.3864 23.7013 20.7 23.3333 20.7ZM23.3333 17.9H16.6667C16.2987 17.9 16 17.5864 16 17.2C16 16.8136 16.2987 16.5 16.6667 16.5H23.3333C23.7013 16.5 24 16.8136 24 17.2C24 17.5864 23.7013 17.9 23.3333 17.9Z" fill="white"/>
</svg>
