<svg width="16" height="16" viewBox="0 0 16 16" fill="none" xmlns="http://www.w3.org/2000/svg">
<path d="M4.3579 3C3.69515 3 3.15789 3.53726 3.15789 4.2V9.66667C2.51841 9.66667 2 10.1851 2 10.8246V11.3333C2 12.2522 2.77926 13 3.73684 13H11.2632C12.2155 13 13 12.2472 13 11.3333V4.2C13 3.53726 12.4627 3 11.8 3H4.3579ZM4.31579 4.61111C4.31579 4.33497 4.53965 4.11111 4.81579 4.11111H11.3421C11.6182 4.11111 11.8421 4.33497 11.8421 4.61111V11.3333C11.8421 11.6472 11.5903 11.8889 11.2632 11.8889C10.9436 11.8889 10.6842 11.6394 10.6842 11.3333V10.8667C10.6842 10.2039 10.147 9.66667 9.48421 9.66667H4.31579V4.61111ZM6.02924 5.22222C5.72242 5.22222 5.47368 5.47095 5.47368 5.77778C5.47368 6.0846 5.72241 6.33333 6.02924 6.33333H6.07602C6.38285 6.33333 6.63158 6.0846 6.63158 5.77778C6.63158 5.47095 6.38285 5.22222 6.07602 5.22222H6.02924ZM8.34503 5.22222C8.0382 5.22222 7.78947 5.47095 7.78947 5.77778C7.78947 6.0846 8.0382 6.33333 8.34503 6.33333H10.1287C10.4355 6.33333 10.6842 6.0846 10.6842 5.77778C10.6842 5.47095 10.4355 5.22222 10.1287 5.22222H8.34503ZM6.02924 7.44444C5.72242 7.44444 5.47368 7.69318 5.47368 8C5.47368 8.30682 5.72241 8.55556 6.02924 8.55556H6.07602C6.38285 8.55556 6.63158 8.30682 6.63158 8C6.63158 7.69318 6.38285 7.44444 6.07602 7.44444H6.02924ZM8.34503 7.44444C8.0382 7.44444 7.78947 7.69318 7.78947 8C7.78947 8.30682 8.0382 8.55556 8.34503 8.55556H10.1287C10.4355 8.55556 10.6842 8.30682 10.6842 8C10.6842 7.69318 10.4355 7.44444 10.1287 7.44444H8.34503ZM3.15789 10.7778H9.52632V11.3333C9.52632 11.5278 9.56156 11.715 9.62582 11.8889H3.73684C3.41784 11.8889 3.15789 11.6394 3.15789 11.3333V10.7778Z" fill="#A9A4B7"/>
</svg>
