<svg width="16" height="16" viewBox="0 0 16 16" fill="none" xmlns="http://www.w3.org/2000/svg">
<path d="M11.8833 12C11.6083 11.2233 10.87 10.6666 10 10.6666C8.895 10.6666 8 11.5616 8 12.6666C8 13.7716 8.895 14.6666 10 14.6666C10.87 14.6666 11.6083 14.11 11.8833 13.3333H13.3333V14C13.3333 14.3681 13.6318 14.6666 14 14.6666V14.6666C14.3682 14.6666 14.6667 14.3681 14.6667 14V13.3333V13.3333C15.0349 13.3333 15.3333 13.0348 15.3333 12.6666V12.6666C15.3333 12.2984 15.0349 12 14.6667 12H11.8833ZM10 13.3333C9.63167 13.3333 9.33333 13.035 9.33333 12.6666C9.33333 12.2983 9.63167 12 10 12C10.3683 12 10.6667 12.2983 10.6667 12.6666C10.6667 13.035 10.3683 13.3333 10 13.3333Z" fill="#F03771"/>
<path d="M10.6666 5.33329C10.6666 6.82929 9.49463 7.99996 7.99996 7.99996C6.50529 7.99996 5.33329 6.82929 5.33329 5.33329C5.33329 3.83729 6.50529 2.66663 7.99996 2.66663C9.49463 2.66663 10.6666 3.83729 10.6666 5.33329Z" fill="#F03771"/>
<path d="M2.66663 12.512C2.66663 12.9656 3.03435 13.3333 3.48796 13.3333H6.0398C6.52825 13.3333 6.9377 12.9773 7.05717 12.5037C7.49379 10.7729 8.29282 9.96533 9.78711 9.93877C10 9.93499 10.0889 9.66252 9.89099 9.58384C9.26081 9.33329 8.70569 9.33329 7.99996 9.33329C5.00929 9.33329 2.66663 10.7293 2.66663 12.512Z" fill="#F03771"/>
</svg>
