<svg width="25" height="24" viewBox="0 0 25 24" fill="none" xmlns="http://www.w3.org/2000/svg">
<path d="M5.49996 19.9999C5.76521 19.9999 6.01965 19.8946 6.20711 19.7071C6.39457 19.5195 6.50008 19.2653 6.50008 19V14.75C6.50008 13.7675 7.02409 12.8597 7.87494 12.3684C8.72593 11.8772 9.77418 11.8772 10.625 12.3684C11.4759 12.8597 12.0001 13.7675 12.0001 14.75V17.125C12.0001 17.4375 11.8332 17.7265 11.5625 17.8827C11.2919 18.039 10.9583 18.039 10.6875 17.8827C10.4168 17.7265 10.2501 17.4375 10.2501 17.125V14.75C10.2501 14.3927 10.0595 14.0626 9.74996 13.8839C9.4406 13.7053 9.05938 13.7053 8.75005 13.8839C8.44068 14.0626 8.25009 14.3927 8.25009 14.75V17.125C8.25009 18.1521 8.79799 19.1012 9.68755 19.6147C10.5771 20.1283 11.6729 20.1283 12.5625 19.6147C13.452 19.1012 14.0001 18.1521 14.0001 17.125V14.75C14.0001 13.0529 13.0947 11.4848 11.625 10.6363C10.1554 9.7879 8.34473 9.7879 6.87496 10.6363C5.40522 11.4849 4.5 13.0529 4.5 14.75V19C4.5 19.2652 4.60533 19.5195 4.7928 19.7071C4.98043 19.8946 5.23469 19.9999 5.49994 19.9999H5.49996Z" fill="white"/>
<path d="M20.4999 8.665C20.502 8.13398 20.2914 7.62442 19.915 7.25005L17.2499 4.58491C16.8746 4.20998 16.3656 3.99951 15.8349 4H10.0001C9.33709 4 8.7011 4.26332 8.23235 4.73223C7.76343 5.20098 7.50012 5.83697 7.50012 6.5V7.49991C7.50012 7.85723 7.69073 8.18732 8.00008 8.36589C8.30944 8.54464 8.69066 8.54464 9.00017 8.36589C9.30953 8.18732 9.50012 7.85719 9.50012 7.49991V6.5C9.50012 6.22377 9.72386 6.00005 10.0001 6.00005H15.8349L18.4999 8.665V17.4998C18.4999 17.6325 18.4472 17.7597 18.3535 17.8535C18.2597 17.9471 18.1326 17.9998 17.9999 17.9998H15.9998C15.6427 17.9998 15.3126 18.1904 15.1339 18.4999C14.9553 18.8093 14.9553 19.1905 15.1339 19.4998C15.3126 19.8092 15.6427 19.9998 15.9998 19.9998H17.9999C18.6629 19.9998 19.2989 19.7365 19.7677 19.2676C20.2366 18.7988 20.4999 18.1628 20.4999 17.4998L20.4999 8.665Z" fill="white"/>
</svg>
