<svg width="16" height="16" viewBox="0 0 16 16" fill="none" xmlns="http://www.w3.org/2000/svg">
<path d="M7.99996 7.99996C9.49463 7.99996 10.6666 6.82929 10.6666 5.33329C10.6666 3.83729 9.49463 2.66663 7.99996 2.66663C6.50529 2.66663 5.33329 3.83729 5.33329 5.33329C5.33329 6.82929 6.50529 7.99996 7.99996 7.99996Z" fill="#817989"/>
<path d="M7.99996 9.33329C5.00929 9.33329 2.66663 10.7293 2.66663 12.512C2.66663 12.9656 3.03435 13.3333 3.48796 13.3333L7.66775 13.3286C8.2196 13.328 8.66663 12.8804 8.66663 12.3286V9.99998C8.66663 9.62805 8.37188 9.33329 7.99996 9.33329V9.33329Z" fill="#817989"/>
<path d="M9.9556 8.66663C9.61337 8.66663 9.33337 8.96663 9.33337 9.33329V14C9.33337 14.3666 9.61337 14.6666 9.9556 14.6666H13.3778C13.72 14.6666 14 14.3666 14 14V10.6093C14 10.4327 13.9344 10.263 13.8177 10.138L12.6268 8.86194C12.5101 8.73694 12.3517 8.66663 12.1868 8.66663H9.9556ZM10.8889 11.3333H12.4445C12.6162 11.3333 12.7556 11.4826 12.7556 11.6666C12.7556 11.8506 12.6162 12 12.4445 12H10.8889C10.7172 12 10.5778 11.8506 10.5778 11.6666C10.5778 11.4826 10.7172 11.3333 10.8889 11.3333ZM10.8889 12.6666H12.4445C12.6162 12.6666 12.7556 12.816 12.7556 13C12.7556 13.184 12.6162 13.3333 12.4445 13.3333H10.8889C10.7172 13.3333 10.5778 13.184 10.5778 13C10.5778 12.816 10.7172 12.6666 10.8889 12.6666Z" fill="#817989"/>
</svg>
