<svg width="24" height="24" viewBox="0 0 24 24" fill="none" xmlns="http://www.w3.org/2000/svg">
<path d="M17.3332 5.44791V4.06657C17.3332 3.68543 17.1299 3.33333 16.8 3.14286C16.47 2.95238 16.0633 2.95238 15.7332 3.14286C15.4032 3.33333 15.1999 3.68548 15.1999 4.06657V5.3999H13.0665V4.06657C13.0665 3.68543 12.8632 3.33333 12.5332 3.14286C12.2033 2.95238 11.7966 2.95238 11.4667 3.14286C11.1367 3.33333 10.9334 3.68548 10.9334 4.06657V5.3999H8.8V4.06657C8.8 3.68543 8.59669 3.33333 8.26671 3.14286C7.93654 2.95238 7.52991 2.95238 7.19995 3.14286C6.86997 3.33333 6.66667 3.68548 6.66667 4.06657V5.44791C5.92152 5.57383 5.24514 5.95943 4.75705 6.53643C4.26895 7.11324 4.00071 7.84429 4 8.59986V16.8665C4 17.7153 4.33705 18.5291 4.93733 19.1292C5.53743 19.7294 6.35138 20.0665 7.2 20.0665H16.8C17.6486 20.0665 18.4626 19.7295 19.0627 19.1292C19.6629 18.5291 20 17.7153 20 16.8665V8.59986C19.9993 7.84429 19.731 7.11324 19.243 6.53643C18.7549 5.95943 18.0785 5.57381 17.3333 5.44791H17.3332ZM17.8665 9.93319V16.8665C17.8665 17.1494 17.7542 17.4207 17.5542 17.6208C17.3541 17.8208 17.0829 17.9331 16.7999 17.9331H7.19992C6.917 17.9331 6.64578 17.8208 6.44564 17.6208C6.24568 17.4207 6.13332 17.1495 6.13332 16.8665V8.59986C6.13332 8.31712 6.24568 8.04571 6.44564 7.84576C6.64579 7.64561 6.91699 7.53326 7.19992 7.53326H16.7999C17.0828 7.53326 17.3541 7.64561 17.5542 7.84576C17.7542 8.04572 17.8665 8.31711 17.8665 8.59986V9.93319Z" fill="#EF3770"/>
<path d="M12.5348 18.4666H10.4014C10.4014 17.1935 9.8958 15.9725 8.99552 15.0724C8.09542 14.1723 6.87442 13.6666 5.60156 13.6666V11.5332C7.44028 11.5332 9.20385 12.2637 10.5039 13.5639C11.8042 14.8642 12.5347 16.6277 12.5347 18.4668L12.5348 18.4666Z" fill="#EF3770"/>
</svg>
