<svg width="20" height="20" viewBox="0 0 20 20" fill="none" xmlns="http://www.w3.org/2000/svg">
<g id="Icons/Check">
<path id="Subtract" fill-rule="evenodd" clip-rule="evenodd" d="M17.7781 9.72211C17.7781 14.0177 14.2959 17.4999 10.0003 17.4999C5.70476 17.4999 2.22253 14.0177 2.22253 9.72211C2.22253 5.42657 5.70476 1.94434 10.0003 1.94434C14.2959 1.94434 17.7781 5.42657 17.7781 9.72211ZM13.2813 6.42432C13.5999 6.09962 14.1229 6.09962 14.4415 6.42432C14.7517 6.74042 14.7517 7.24665 14.4415 7.56275L9.37456 12.7268C9.04785 13.0597 8.51145 13.0597 8.1848 12.7266L5.5576 10.048C5.24789 9.73221 5.24777 9.22668 5.55733 8.91076C5.87566 8.58587 6.39871 8.58569 6.71727 8.91035L8.77962 11.0122L13.2813 6.42432Z" fill="white"/>
</g>
</svg>
