<svg width="24" height="24" viewBox="0 0 24 24" fill="none" xmlns="http://www.w3.org/2000/svg">
<path fill-rule="evenodd" clip-rule="evenodd" d="M21.3337 11.6668C21.3337 16.8215 17.155 21.0002 12.0003 21.0002C6.84567 21.0002 2.66699 16.8215 2.66699 11.6668C2.66699 6.51217 6.84567 2.3335 12.0003 2.3335C17.155 2.3335 21.3337 6.51217 21.3337 11.6668ZM15.9375 7.70947C16.3198 7.31984 16.9475 7.31984 17.3298 7.70947C17.702 8.0888 17.702 8.69627 17.3298 9.07559L11.2494 15.2724C10.8574 15.672 10.2137 15.6719 9.82171 15.2722L6.66907 12.0579C6.29742 11.6789 6.29728 11.0723 6.66874 10.6932C7.05074 10.3033 7.6784 10.3031 8.06067 10.6927L10.5355 13.2149L15.9375 7.70947Z" fill="#42C76F"/>
</svg>
