<svg width="24" height="24" viewBox="0 0 24 24" fill="none" xmlns="http://www.w3.org/2000/svg">
<g id="Icons/Close">
<g id="Vector">
<path d="M7.31259 5.77094C6.88687 5.34523 6.19666 5.34523 5.77094 5.77094C5.34523 6.19666 5.34523 6.88687 5.77095 7.31259L10.3171 11.8587C10.3952 11.9368 10.3952 12.0634 10.3171 12.1415L5.77095 16.6877C5.34523 17.1134 5.34523 17.8036 5.77094 18.2293C6.19666 18.655 6.88688 18.655 7.31259 18.2293L11.8587 13.6832C11.9368 13.6051 12.0634 13.6051 12.1415 13.6832L16.6871 18.2288C17.1131 18.6548 17.8038 18.6548 18.2298 18.2288C18.6554 17.8032 18.6559 17.1133 18.2309 16.6871L13.5573 12.0003L18.231 7.31314C18.6559 6.88694 18.6554 6.19709 18.2299 5.7715C17.8038 5.34548 17.1131 5.34548 16.6871 5.7715L12.1415 10.3171C12.0634 10.3952 11.9368 10.3952 11.8587 10.3171L7.31259 5.77094Z" fill="#5D5574"/>
<path fill-rule="evenodd" clip-rule="evenodd" d="M10.3171 12.1415C10.3952 12.0634 10.3952 11.9368 10.3171 11.8587L5.77095 7.31259C5.34523 6.88687 5.34523 6.19666 5.77094 5.77094C6.19666 5.34523 6.88687 5.34523 7.31259 5.77094L11.8587 10.3171C11.9368 10.3952 12.0634 10.3952 12.1415 10.3171L16.6871 5.7715C17.1131 5.34548 17.8038 5.34548 18.2299 5.7715C18.6554 6.19709 18.6559 6.88694 18.231 7.31314L13.5573 12.0003L18.2309 16.6871C18.6559 17.1133 18.6554 17.8032 18.2298 18.2288C17.8038 18.6548 17.1131 18.6548 16.6871 18.2288L12.1415 13.6832C12.0634 13.6051 11.9368 13.6051 11.8587 13.6832L7.31259 18.2293C6.88688 18.655 6.19666 18.655 5.77094 18.2293C5.34523 17.8036 5.34523 17.1134 5.77095 16.6877L10.3171 12.1415Z" fill="#5D5574"/>
</g>
</g>
</svg>
