<svg width="24" height="24" viewBox="0 0 24 24" fill="none" xmlns="http://www.w3.org/2000/svg">
<path fill-rule="evenodd" clip-rule="evenodd" d="M21.3334 11.6668C21.3334 16.8215 17.1547 21.0002 12.0001 21.0002C6.84542 21.0002 2.66675 16.8215 2.66675 11.6668C2.66675 6.51217 6.84542 2.3335 12.0001 2.3335C17.1547 2.3335 21.3334 6.51217 21.3334 11.6668Z" fill="#FE3E51"/>
<path d="M8.4208 7.24379C8.09578 6.91874 7.5688 6.91874 7.24377 7.24379C6.91874 7.56883 6.91874 8.09584 7.24377 8.42089L10.7147 11.892C10.7743 11.9517 10.7743 12.0483 10.7147 12.108L7.24377 15.5791C6.91874 15.9042 6.91874 16.4312 7.24377 16.7562C7.5688 17.0813 8.09578 17.0813 8.4208 16.7562L11.8917 13.2851C11.9514 13.2254 12.048 13.2254 12.1077 13.2851L15.5782 16.7558C15.9034 17.0811 16.4308 17.0811 16.756 16.7558C17.081 16.4308 17.0813 15.9041 16.7569 15.5787L13.1886 12.0002L16.7569 8.42131C17.0814 8.09589 17.081 7.56916 16.7561 7.24421C16.4308 6.91893 15.9034 6.91893 15.5782 7.24421L12.1077 10.7149C12.048 10.7746 11.9514 10.7746 11.8917 10.7149L8.4208 7.24379Z" fill="white"/>
<path fill-rule="evenodd" clip-rule="evenodd" d="M10.7147 12.108C10.7743 12.0483 10.7743 11.9517 10.7147 11.892L7.24377 8.42089C6.91874 8.09584 6.91874 7.56883 7.24377 7.24379C7.5688 6.91874 8.09578 6.91874 8.4208 7.24379L11.8917 10.7149C11.9514 10.7746 12.048 10.7746 12.1077 10.7149L15.5782 7.24421C15.9034 6.91893 16.4308 6.91893 16.7561 7.24421C17.081 7.56916 17.0814 8.09589 16.7569 8.42131L13.1886 12.0002L16.7569 15.5787C17.0813 15.9041 17.081 16.4308 16.756 16.7558C16.4308 17.0811 15.9034 17.0811 15.5782 16.7558L12.1077 13.2851C12.048 13.2254 11.9514 13.2254 11.8917 13.2851L8.4208 16.7562C8.09578 17.0813 7.5688 17.0813 7.24377 16.7562C6.91874 16.4312 6.91874 15.9042 7.24377 15.5791L10.7147 12.108Z" fill="white"/>
</svg>
