<svg width="24" height="24" viewBox="0 0 24 24" fill="none" xmlns="http://www.w3.org/2000/svg">
<path d="M2.08 17.38C2.18147 17.6243 2.37565 17.8185 2.62 17.92C2.74022 17.9712 2.86932 17.9984 3 18H8C8.26522 18 8.51957 17.8946 8.70711 17.7071C8.89464 17.5196 9 17.2652 9 17C9 16.7348 8.89464 16.4804 8.70711 16.2929C8.51957 16.1054 8.26522 16 8 16H5.41L11 10.41L14.29 13.71C14.383 13.8037 14.4936 13.8781 14.6154 13.9289C14.7373 13.9797 14.868 14.0058 15 14.0058C15.132 14.0058 15.2627 13.9797 15.3846 13.9289C15.5064 13.8781 15.617 13.8037 15.71 13.71L21.71 7.71C21.8037 7.61704 21.8781 7.50644 21.9289 7.38458C21.9797 7.26272 22.0058 7.13201 22.0058 7C22.0058 6.86799 21.9797 6.73728 21.9289 6.61542C21.8781 6.49356 21.8037 6.38296 21.71 6.29C21.617 6.19627 21.5064 6.12188 21.3846 6.07111C21.2627 6.02034 21.132 5.9942 21 5.9942C20.868 5.9942 20.7373 6.02034 20.6154 6.07111C20.4936 6.12188 20.383 6.19627 20.29 6.29L15 11.59L11.71 8.29C11.617 8.19627 11.5064 8.12188 11.3846 8.07111C11.2627 8.02034 11.132 7.9942 11 7.9942C10.868 7.9942 10.7373 8.02034 10.6154 8.07111C10.4936 8.12188 10.383 8.19627 10.29 8.29L4 14.59V12C4 11.7348 3.89464 11.4804 3.70711 11.2929C3.51957 11.1054 3.26522 11 3 11C2.73478 11 2.48043 11.1054 2.29289 11.2929C2.10536 11.4804 2 11.7348 2 12V17C2.00158 17.1307 2.02876 17.2598 2.08 17.38Z" fill="#5F369D"/>
</svg>
