<svg width="20" height="20" viewBox="0 0 20 20" fill="none" xmlns="http://www.w3.org/2000/svg">
<path fill-rule="evenodd" clip-rule="evenodd" d="M13.1555 4.75H12.9629C12.9629 4.15326 12.7288 3.58097 12.3121 3.15901C11.8953 2.73705 11.3301 2.5 10.7407 2.5H9.25924C8.66987 2.5 8.10464 2.73705 7.68789 3.15901C7.27114 3.58097 7.03702 4.15326 7.03702 4.75H4.07405C3.8776 4.75 3.68919 4.82902 3.55027 4.96967C3.41136 5.11032 3.33331 5.30109 3.33331 5.5C3.33331 5.69891 3.41136 5.88968 3.55027 6.03033C3.68919 6.17098 3.8776 6.25 4.07405 6.25L3.55027 6.03033L4.81479 15.25C4.81479 15.8467 5.04892 16.419 5.46567 16.841C5.88242 17.2629 6.44765 17.5 7.03702 17.5H12.9629C13.5523 17.5 14.1175 17.2629 14.5343 16.841C14.951 16.419 15.1852 15.8467 15.1852 15.25L16.6324 5.72544L16.6666 5.5L15.9259 6.25C16.1224 6.25 16.3108 6.17098 16.4497 6.03033C16.5347 5.94426 16.5969 5.83943 16.6324 5.72544C16.6549 5.65316 16.6666 5.57719 16.6666 5.5C16.6666 5.30109 16.5886 5.11032 16.4497 4.96967C16.3108 4.82902 16.1224 4.75 15.9259 4.75H13.1555ZM14.9404 6.25H5.21415L6.29628 15.25C6.29628 15.4489 6.37432 15.6397 6.51323 15.7803C6.65215 15.921 6.84056 16 7.03702 16H12.9629C13.1594 16 13.3478 15.921 13.4867 15.7803C13.6256 15.6397 13.7037 15.4489 13.7037 15.25L14.9404 6.25ZM8.5185 4.75H11.4815C11.4815 4.55109 11.4034 4.36032 11.2645 4.21967C11.1256 4.07902 10.9372 4 10.7407 4H9.25924C9.06278 4 8.87437 4.07902 8.73546 4.21967C8.59654 4.36032 8.5185 4.55109 8.5185 4.75ZM8.5185 7.75C8.71495 7.75 8.90336 7.82902 9.04228 7.96967C9.1812 8.11032 9.25924 8.30109 9.25924 8.5V13.75C9.25924 13.9489 9.1812 14.1397 9.04228 14.2803C8.90336 14.421 8.71495 14.5 8.5185 14.5C8.32204 14.5 8.13363 14.421 7.99472 14.2803C7.8558 14.1397 7.77776 13.9489 7.77776 13.75V8.5C7.77776 8.30109 7.8558 8.11032 7.99472 7.96967C8.13363 7.82902 8.32204 7.75 8.5185 7.75ZM12.2222 8.5C12.2222 8.30109 12.1442 8.11032 12.0052 7.96967C11.8663 7.82902 11.6779 7.75 11.4815 7.75C11.285 7.75 11.0966 7.82902 10.9577 7.96967C10.8188 8.11032 10.7407 8.30109 10.7407 8.5V13.75C10.7407 13.9489 10.8188 14.1397 10.9577 14.2803C11.0966 14.421 11.285 14.5 11.4815 14.5C11.6779 14.5 11.8663 14.421 12.0052 14.2803C12.1442 14.1397 12.2222 13.9489 12.2222 13.75V8.5Z" fill="#FE3E51"/>
<path d="M3.55027 6.03033C3.68919 6.17098 3.8776 6.25 4.07405 6.25L3.55027 6.03033Z" fill="#FE3E51"/>
<path d="M16.6324 5.72544L16.6666 5.5L15.9259 6.25C16.1224 6.25 16.3108 6.17098 16.4497 6.03033C16.5347 5.94426 16.5969 5.83943 16.6324 5.72544Z" fill="#FE3E51"/>
</svg>
