<svg width="32" height="32" viewBox="0 0 32 32" fill="none" xmlns="http://www.w3.org/2000/svg">
<rect width="32" height="32" rx="16" fill="#FDE7EE"/>
<path fill-rule="evenodd" clip-rule="evenodd" d="M19.1555 10.75H18.9629C18.9629 10.1533 18.7288 9.58097 18.312 9.15901C17.8953 8.73705 17.33 8.5 16.7407 8.5H15.2592C14.6698 8.5 14.1046 8.73705 13.6878 9.15901C13.2711 9.58097 13.037 10.1533 13.037 10.75H10.074C9.87754 10.75 9.68913 10.829 9.55021 10.9697C9.41129 11.1103 9.33325 11.3011 9.33325 11.5C9.33325 11.6989 9.41129 11.8897 9.55021 12.0303C9.68913 12.171 9.87754 12.25 10.074 12.25L9.55021 12.0303L10.8147 21.25C10.8147 21.8467 11.0489 22.419 11.4656 22.841C11.8824 23.2629 12.4476 23.5 13.037 23.5H18.9629C19.5523 23.5 20.1175 23.2629 20.5342 22.841C20.951 22.419 21.1851 21.8467 21.1851 21.25L22.6323 11.7254L22.6666 11.5L21.9258 12.25C22.1223 12.25 22.3107 12.171 22.4496 12.0303C22.5346 11.9443 22.5968 11.8394 22.6323 11.7254C22.6548 11.6532 22.6666 11.5772 22.6666 11.5C22.6666 11.3011 22.5885 11.1103 22.4496 10.9697C22.3107 10.829 22.1223 10.75 21.9258 10.75H19.1555ZM20.9403 12.25H11.2141L12.2962 21.25C12.2962 21.4489 12.3743 21.6397 12.5132 21.7803C12.6521 21.921 12.8405 22 13.037 22H18.9629C19.1593 22 19.3477 21.921 19.4867 21.7803C19.6256 21.6397 19.7036 21.4489 19.7036 21.25L20.9403 12.25ZM14.5184 10.75H17.4814C17.4814 10.5511 17.4034 10.3603 17.2644 10.2197C17.1255 10.079 16.9371 10 16.7407 10H15.2592C15.0627 10 14.8743 10.079 14.7354 10.2197C14.5965 10.3603 14.5184 10.5511 14.5184 10.75ZM14.5184 13.75C14.7149 13.75 14.9033 13.829 15.0422 13.9697C15.1811 14.1103 15.2592 14.3011 15.2592 14.5V19.75C15.2592 19.9489 15.1811 20.1397 15.0422 20.2803C14.9033 20.421 14.7149 20.5 14.5184 20.5C14.322 20.5 14.1336 20.421 13.9947 20.2803C13.8557 20.1397 13.7777 19.9489 13.7777 19.75V14.5C13.7777 14.3011 13.8557 14.1103 13.9947 13.9697C14.1336 13.829 14.322 13.75 14.5184 13.75ZM18.2221 14.5C18.2221 14.3011 18.1441 14.1103 18.0052 13.9697C17.8663 13.829 17.6779 13.75 17.4814 13.75C17.2849 13.75 17.0965 13.829 16.9576 13.9697C16.8187 14.1103 16.7407 14.3011 16.7407 14.5V19.75C16.7407 19.9489 16.8187 20.1397 16.9576 20.2803C17.0965 20.421 17.2849 20.5 17.4814 20.5C17.6779 20.5 17.8663 20.421 18.0052 20.2803C18.1441 20.1397 18.2221 19.9489 18.2221 19.75V14.5Z" fill="#FE3E51"/>
<path d="M9.55021 12.0303C9.68913 12.171 9.87754 12.25 10.074 12.25L9.55021 12.0303Z" fill="#FE3E51"/>
<path d="M22.6323 11.7254L22.6666 11.5L21.9258 12.25C22.1223 12.25 22.3107 12.171 22.4496 12.0303C22.5346 11.9443 22.5968 11.8394 22.6323 11.7254Z" fill="#FE3E51"/>
</svg>
