<svg width="24" height="24" viewBox="0 0 24 24" fill="none" xmlns="http://www.w3.org/2000/svg">
<path d="M12 10.5858L14.1213 8.46449C14.5118 8.07396 15.145 8.07396 15.5355 8.46449C15.9261 8.85501 15.9261 9.48818 15.5355 9.8787L13.4142 12L15.5355 14.1213C15.9261 14.5119 15.9261 15.145 15.5355 15.5356C15.145 15.9261 14.5118 15.9261 14.1213 15.5356L12 13.4142L9.87868 15.5356C9.48816 15.9261 8.85499 15.9261 8.46447 15.5356C8.07394 15.145 8.07394 14.5119 8.46447 14.1213L10.5858 12L8.46447 9.8787C8.07394 9.48818 8.07394 8.85501 8.46447 8.46449C8.85499 8.07396 9.48816 8.07396 9.87868 8.46449L12 10.5858Z" fill="#180D37"/>
</svg>
