<svg width="20" height="20" viewBox="0 0 20 20" fill="none" xmlns="http://www.w3.org/2000/svg">
<path d="M5.44737 3.75C4.61894 3.75 3.94737 4.42157 3.94737 5.25V12.0833C3.14801 12.0833 2.5 12.7313 2.5 13.5307V14.1667C2.5 15.3153 3.47408 16.25 4.67105 16.25H14.0789C15.2694 16.25 16.25 15.309 16.25 14.1667V5.25C16.25 4.42157 15.5784 3.75 14.75 3.75H5.44737ZM5.39474 5.76389C5.39474 5.41871 5.67456 5.13889 6.01974 5.13889H14.1776C14.5228 5.13889 14.8026 5.41871 14.8026 5.76389V14.1667C14.8026 14.559 14.4879 14.8611 14.0789 14.8611C13.6795 14.8611 13.3553 14.5493 13.3553 14.1667V13.5833C13.3553 12.7549 12.6837 12.0833 11.8553 12.0833H5.39474V5.76389ZM7.53655 6.52778C7.15302 6.52778 6.84211 6.83869 6.84211 7.22222C6.84211 7.60575 7.15302 7.91667 7.53655 7.91667H7.59503C7.97856 7.91667 8.28947 7.60575 8.28947 7.22222C8.28947 6.83869 7.97856 6.52778 7.59503 6.52778H7.53655ZM10.4313 6.52778C10.0478 6.52778 9.73684 6.83869 9.73684 7.22222C9.73684 7.60575 10.0478 7.91667 10.4313 7.91667H12.6608C13.0444 7.91667 13.3553 7.60575 13.3553 7.22222C13.3553 6.83869 13.0444 6.52778 12.6608 6.52778H10.4313ZM7.53655 9.30556C7.15302 9.30556 6.84211 9.61647 6.84211 10C6.84211 10.3835 7.15302 10.6944 7.53655 10.6944H7.59503C7.97856 10.6944 8.28947 10.3835 8.28947 10C8.28947 9.61647 7.97856 9.30556 7.59503 9.30556H7.53655ZM10.4313 9.30556C10.0478 9.30556 9.73684 9.61647 9.73684 10C9.73684 10.3835 10.0478 10.6944 10.4313 10.6944H12.6608C13.0444 10.6944 13.3553 10.3835 13.3553 10C13.3553 9.61647 13.0444 9.30556 12.6608 9.30556H10.4313ZM3.94737 13.4722H11.9079V14.1667C11.9079 14.4097 11.9519 14.6438 12.0323 14.8611H4.67105C4.2723 14.8611 3.94737 14.5493 3.94737 14.1667V13.4722Z" fill="#160523"/>
</svg>
