<svg width="24" height="24" viewBox="0 0 24 24" fill="none" xmlns="http://www.w3.org/2000/svg">
<path d="M13.7641 12.3328L16.2615 9.8354C16.4983 9.60094 16.6246 9.27719 16.609 8.94432C16.5935 8.61144 16.4377 8.30091 16.1803 8.08938C15.9438 7.90515 15.6474 7.81516 15.3483 7.83662C15.0493 7.85811 14.7688 7.98964 14.561 8.20581L13.277 9.48988L13.277 5.74385C13.2807 5.41431 13.1514 5.09709 12.9184 4.86411C12.6854 4.6311 12.3682 4.50176 12.0386 4.50553C11.7371 4.52077 11.453 4.65128 11.2451 4.87021C11.0369 5.08913 10.9211 5.37948 10.9211 5.68142L10.9211 9.48989L9.60163 8.1704C9.36703 7.93377 9.04327 7.80745 8.71041 7.82301C8.37767 7.8384 8.06699 7.99431 7.85546 8.25172C7.67123 8.48821 7.58124 8.78464 7.60285 9.08357C7.62434 9.38263 7.75587 9.66311 7.97205 9.87087L10.434 12.3329C10.8757 12.7745 11.4745 13.0226 12.0991 13.0226C12.7236 13.0226 13.3224 12.7745 13.7641 12.3329L13.7641 12.3328Z" fill="#EF3770"/>
<path fill-rule="evenodd" clip-rule="evenodd" d="M5.08642 12.8999C5.68643 12.8999 6.17284 13.3863 6.17284 13.9863V16.4555C6.17284 17.4918 7.013 18.332 8.04938 18.332H15.9506C16.987 18.332 17.8272 17.4918 17.8272 16.4555V13.9863C17.8272 13.3863 18.3136 12.8999 18.9136 12.8999C19.5136 12.8999 20 13.3863 20 13.9863V16.4555C20 18.6919 18.187 20.5048 15.9506 20.5048H8.04938C5.81297 20.5048 4 18.6919 4 16.4555V13.9863C4 13.3863 4.48641 12.8999 5.08642 12.8999Z" fill="#EF3770"/>
</svg>
