<svg width="32" height="32" viewBox="0 0 32 32" fill="none" xmlns="http://www.w3.org/2000/svg">
<rect width="32" height="32" rx="16" fill="#EDEDF0"/>
<path d="M20.4044 9.33337C19.8303 9.33337 19.2561 9.55617 18.8105 10.0018L10.1387 18.6736L10.1045 18.8449L9.50463 21.8612L9.33325 22.6667L10.1387 22.4953L13.155 21.8955L13.3264 21.8612L21.9982 13.1894C22.8894 12.2982 22.8894 10.8929 21.9982 10.0018C21.5526 9.55617 20.9785 9.33337 20.4044 9.33337ZM20.4044 10.3788C20.6807 10.3788 20.9592 10.5052 21.227 10.773C21.7604 11.3064 21.7604 11.8848 21.227 12.4182L20.8328 12.7952L19.2047 11.1671L19.5818 10.773C19.8495 10.5052 20.128 10.3788 20.4044 10.3788ZM11.0985 19.4619C11.7561 19.7275 12.2724 20.2438 12.5381 20.9015L10.7386 21.2614L11.0985 19.4619Z" fill="#5D5574"/>
</svg>
