<svg width="20" height="20" viewBox="0 0 20 20" fill="none" xmlns="http://www.w3.org/2000/svg">
<path d="M14.4045 3.33301C13.8303 3.33301 13.2562 3.5558 12.8106 4.00139L4.13883 12.6732L4.10455 12.8446L3.50472 15.8609L3.33334 16.6663L4.13883 16.495L7.15511 15.8951L7.32649 15.8609L15.9983 7.18905C16.8895 6.29787 16.8895 4.89256 15.9983 4.00139C15.5527 3.5558 14.9786 3.33301 14.4045 3.33301ZM14.4045 4.37842C14.6808 4.37842 14.9593 4.50482 15.2271 4.7726C15.7605 5.30602 15.7605 5.88442 15.2271 6.41784L14.8329 6.79488L13.2048 5.16677L13.5818 4.7726C13.8496 4.50482 14.1281 4.37842 14.4045 4.37842ZM5.09855 13.4615C5.75622 13.7272 6.2725 14.2435 6.53814 14.9011L4.73866 15.261L5.09855 13.4615Z" fill="#817989"/>
</svg>
