<svg width="40" height="40" viewBox="0 0 40 40" fill="none" xmlns="http://www.w3.org/2000/svg">
<rect width="40" height="40" rx="20" fill="#EF3770"/>
<path d="M14.3942 30.7245H25.9355C26.8358 30.7245 27.6993 30.367 28.3358 29.7303C28.9725 29.0938 29.33 28.2303 29.33 27.33V15.3341C29.3307 14.6136 29.0449 13.9224 28.5358 13.4129L24.9171 9.79419C24.4076 9.28511 23.7164 8.99933 22.9959 9H14.3945C13.4942 9 12.6307 9.35754 11.9942 9.99422C11.3575 10.6307 11 11.4942 11 12.3945V27.3302C11 28.2305 11.3575 29.094 11.9942 29.7305C12.6307 30.3672 13.4942 30.7247 14.3945 30.7247L14.3942 30.7245ZM13.7154 12.3942C13.7154 12.0192 14.0192 11.7154 14.3942 11.7154H22.9956L26.6141 15.3339V27.3298C26.6141 27.5099 26.5426 27.6826 26.4154 27.8099C26.2881 27.9371 26.1154 28.0086 25.9353 28.0086H14.394C14.0189 28.0086 13.7152 27.7048 13.7152 27.3298L13.7154 12.3942Z" fill="white"/>
<path d="M22.8834 15.5469H17.445C17.0131 15.5469 16.6142 15.7965 16.3982 16.2015C16.1824 16.6066 16.1824 17.1058 16.3982 17.5108C16.6142 17.9159 17.0131 18.1654 17.445 18.1654H22.8834C23.3152 18.1654 23.7142 17.9159 23.9302 17.5108C24.146 17.1057 24.146 16.6066 23.9302 16.2015C23.7142 15.7964 23.3152 15.5469 22.8834 15.5469Z" fill="white"/>
<path d="M22.8834 20.7832H17.445C17.0131 20.7832 16.6142 21.0328 16.3982 21.4378C16.1824 21.8429 16.1824 22.3421 16.3982 22.7471C16.6142 23.1522 17.0131 23.4018 17.445 23.4018H22.8834C23.3152 23.4018 23.7142 23.1522 23.9302 22.7471C24.146 22.3421 24.146 21.8429 23.9302 21.4378C23.7142 21.0328 23.3152 20.7832 22.8834 20.7832Z" fill="white"/>
</svg>
