<svg width="24" height="24" viewBox="0 0 24 24" fill="none" xmlns="http://www.w3.org/2000/svg">
<path d="M13 6C13 5.44772 13.4477 5 14 5H21C21.5523 5 22 5.44772 22 6C22 6.55228 21.5523 7 21 7H14C13.4477 7 13 6.55228 13 6ZM2 6C2 6.55228 2.44772 7 3 7H9V8C9 8.55228 9.44772 9 10 9C10.5523 9 11 8.55228 11 8V4C11 3.44772 10.5523 3 10 3C9.44772 3 9 3.44772 9 4V5H3C2.44772 5 2 5.44772 2 6ZM9 18C9 17.4477 9.44772 17 10 17H21C21.5523 17 22 17.4477 22 18C22 18.5523 21.5523 19 21 19H10C9.44772 19 9 18.5523 9 18ZM19 12C19 11.4477 19.4477 11 20 11H21C21.5523 11 22 11.4477 22 12C22 12.5523 21.5523 13 21 13H20C19.4477 13 19 12.5523 19 12ZM16 15C16.5523 15 17 14.5523 17 14V10.012C17 9.45971 16.5523 9.012 16 9.012C15.4477 9.012 15 9.45972 15 10.012V11H3C2.44772 11 2 11.4477 2 12C2 12.5523 2.44772 13 3 13H15V14C15 14.5523 15.4477 15 16 15ZM6 21C6.55228 21 7 20.5523 7 20V16C7 15.4477 6.55228 15 6 15C5.44772 15 5 15.4477 5 16V17H3C2.44772 17 2 17.4477 2 18C2 18.5523 2.44772 19 3 19H5V20C5 20.5523 5.44772 21 6 21Z" fill="#180D37"/>
</svg>
