<svg width="16" height="16" viewBox="0 0 16 16" fill="none" xmlns="http://www.w3.org/2000/svg">
<path d="M2.66663 12.512C2.66663 12.9657 3.03435 13.3334 3.48796 13.3334H12.512C12.9656 13.3334 13.3333 12.9657 13.3333 12.512C13.3333 10.7294 10.9906 9.33337 7.99996 9.33337C5.00929 9.33337 2.66663 10.7294 2.66663 12.512Z" fill="#42C76F"/>
<path d="M8 2C7.63181 2 7.33333 2.29848 7.33333 2.66667V2.70833C6.58333 2.83367 6 3.46997 6 4.2513C6 4.75397 6.2785 5.2135 6.72917 5.4375L8.66667 6.41667C8.66667 6.56533 8.56533 6.66667 8.41667 6.66667H7.58333C7.43467 6.66667 7.33333 6.56533 7.33333 6.41667C7.33333 6.18655 7.14679 6 6.91667 6H6.41667C6.18655 6 6 6.18655 6 6.41667C6 7.198 6.58333 7.833 7.33333 7.95833V8C7.33333 8.36819 7.63181 8.66667 8 8.66667C8.36819 8.66667 8.66667 8.36819 8.66667 8V7.95833C9.41667 7.833 10 7.1967 10 6.41536C10 5.9127 9.7215 5.45583 9.27083 5.22917L7.33333 4.25C7.33333 4.10133 7.43467 4 7.58333 4H8.41667C8.56533 4 8.66667 4.10133 8.66667 4.25C8.66667 4.48012 8.85321 4.66667 9.08333 4.66667H9.58333C9.81345 4.66667 10 4.48012 10 4.25C10 3.46867 9.41667 2.83367 8.66667 2.70833V2.66667C8.66667 2.29848 8.36819 2 8 2Z" fill="#42C76F"/>
</svg>
