<svg width="16" height="17" viewBox="0 0 16 17" fill="none" xmlns="http://www.w3.org/2000/svg">
<path d="M9.76408 8.33282L12.2615 5.8354C12.4983 5.60094 12.6246 5.27719 12.609 4.94432C12.5935 4.61144 12.4377 4.30091 12.1803 4.08938C11.9438 3.90515 11.6474 3.81516 11.3483 3.83662C11.0493 3.85811 10.7688 3.98964 10.561 4.20581L9.27697 5.48988L9.27697 1.74385C9.28074 1.41431 9.15138 1.09709 8.91839 0.864105C8.68539 0.631102 8.3682 0.501762 8.03865 0.50553C7.73712 0.520772 7.45301 0.651282 7.24513 0.870207C7.03695 1.08913 6.9211 1.37948 6.92112 1.68142V5.48989L5.60163 4.1704C5.36703 3.93377 5.04327 3.80745 4.71041 3.82301C4.37767 3.8384 4.06699 3.99431 3.85546 4.25172C3.67123 4.48821 3.58124 4.78464 3.60285 5.08357C3.62434 5.38263 3.75587 5.66311 3.97205 5.87087L6.43404 8.33287C6.87567 8.77449 7.4745 9.02257 8.09905 9.0226C8.72361 9.02263 9.32243 8.77449 9.76406 8.33287L9.76408 8.33282Z" fill="#EF3770"/>
<path fill-rule="evenodd" clip-rule="evenodd" d="M1.08642 8.8999C1.68643 8.8999 2.17284 9.38631 2.17284 9.98632V12.4555C2.17284 13.4918 3.013 14.332 4.04938 14.332H11.9506C12.987 14.332 13.8272 13.4918 13.8272 12.4555V9.98632C13.8272 9.38631 14.3136 8.8999 14.9136 8.8999C15.5136 8.8999 16 9.38631 16 9.98632V12.4555C16 14.6919 14.187 16.5048 11.9506 16.5048H4.04938C1.81297 16.5048 0 14.6919 0 12.4555V9.98632C0 9.38631 0.486407 8.8999 1.08642 8.8999Z" fill="#EF3770"/>
</svg>
