<svg width="24" height="24" viewBox="0 0 24 24" fill="none" xmlns="http://www.w3.org/2000/svg">
<path d="M12.0005 18.7486C13.4418 18.7533 14.8621 18.4027 16.1356 17.7282L18.2807 19.8732C18.72 20.3125 19.4324 20.3125 19.8717 19.8732C20.3111 19.4338 20.3111 18.7215 19.8717 18.2821L18.022 16.4324C19.1062 15.4965 20.0178 14.3776 20.7151 13.1264C21.0949 12.4249 21.0949 11.579 20.7151 10.8776C20.212 9.93873 17.4288 5.25532 12.0006 5.25532C10.5593 5.25061 9.13902 5.60122 7.86542 6.27576L5.72039 4.13073C5.28103 3.69138 4.56869 3.69137 4.12934 4.13073C3.68998 4.57009 3.68998 5.28243 4.12934 5.72179L5.97904 7.5715C4.89485 8.50746 3.98323 9.62634 3.28597 10.8775C2.90614 11.579 2.90614 12.4249 3.28597 13.1263C3.80327 14.057 6.58635 18.7486 12.0005 18.7486ZM12.0005 7.50403C16.2172 7.50403 18.4435 11.4395 18.7191 11.9456C18.7393 11.9794 18.7393 12.0215 18.7191 12.0552C18.1291 13.1125 17.3508 14.0528 16.4225 14.8299L14.1736 12.5809C14.3801 11.8058 14.1579 10.9791 13.5906 10.4118C13.0233 9.84449 12.1966 9.6223 11.4215 9.82882L9.56606 7.97342C10.3398 7.66183 11.1664 7.50266 12.0005 7.50403ZM5.28188 11.9456C5.87192 10.8885 6.6502 9.94827 7.57848 9.17114L9.82745 11.4201C9.62096 12.1954 9.84313 13.022 10.4104 13.5893C10.9777 14.1566 11.8044 14.3787 12.5796 14.172L14.435 16.0274C13.6614 16.34 12.8349 16.5002 12.0005 16.4998C7.7838 16.4998 5.55747 12.5641 5.28188 12.0582C5.26051 12.0237 5.26051 11.9801 5.28188 11.9456Z" fill="#807896"/>
</svg>
