<svg width="20" height="20" viewBox="0 0 20 20" fill="none" xmlns="http://www.w3.org/2000/svg">
<path d="M4.75 5C4.19772 5 3.75 5.44772 3.75 6V6C3.75 6.55228 4.19772 7 4.75 7H4.83333C5.38562 7 5.83333 6.55228 5.83333 6V6C5.83333 5.44772 5.38562 5 4.83333 5H4.75ZM8.91667 5C8.36438 5 7.91667 5.44772 7.91667 6V6C7.91667 6.55228 8.36438 7 8.91667 7H15.25C15.8023 7 16.25 6.55228 16.25 6V6C16.25 5.44772 15.8023 5 15.25 5H8.91667ZM4.75 9C4.19772 9 3.75 9.44772 3.75 10V10C3.75 10.5523 4.19772 11 4.75 11H4.83333C5.38562 11 5.83333 10.5523 5.83333 10V10C5.83333 9.44772 5.38562 9 4.83333 9H4.75ZM8.91667 9C8.36438 9 7.91667 9.44772 7.91667 10V10C7.91667 10.5523 8.36438 11 8.91667 11H15.25C15.8023 11 16.25 10.5523 16.25 10V10C16.25 9.44772 15.8023 9 15.25 9H8.91667ZM4.75 13C4.19772 13 3.75 13.4477 3.75 14V14C3.75 14.5523 4.19772 15 4.75 15H4.83333C5.38562 15 5.83333 14.5523 5.83333 14V14C5.83333 13.4477 5.38562 13 4.83333 13H4.75ZM8.91667 13C8.36438 13 7.91667 13.4477 7.91667 14V14C7.91667 14.5523 8.36438 15 8.91667 15H15.25C15.8023 15 16.25 14.5523 16.25 14V14C16.25 13.4477 15.8023 13 15.25 13H8.91667Z" fill="#160523"/>
</svg>
