<svg width="16" height="16" viewBox="0 0 16 16" fill="none" xmlns="http://www.w3.org/2000/svg">
<path d="M5.33333 12H8.66667V12C8.66667 12.7363 8.06971 13.3333 7.33333 13.3333H6.66667C5.93029 13.3333 5.33333 12.7363 5.33333 12V12ZM12.6667 2.66663H11.3333C10.5967 2.66663 10 3.26329 10 3.99996V12C10 12.7366 10.5967 13.3333 11.3333 13.3333H12.6667C13.4033 13.3333 14 12.7366 14 12V3.99996C14 3.26329 13.4033 2.66663 12.6667 2.66663ZM12 11.3333C11.632 11.3333 11.3333 11.0346 11.3333 10.6666C11.3333 10.2986 11.632 9.99996 12 9.99996C12.368 9.99996 12.6667 10.2986 12.6667 10.6666C12.6667 11.0346 12.368 11.3333 12 11.3333ZM12.6667 8.66663H11.3333V3.99996H12.6667V8.66663ZM8.66667 12C8.66667 11.2636 8.06971 10.6666 7.33333 10.6666H3.33333V4.66663H8C8.36819 4.66663 8.66667 4.36815 8.66667 3.99996V3.99996C8.66667 3.63177 8.36819 3.33329 8 3.33329H3.33333C2.59667 3.33329 2 3.92996 2 4.66663V10.6666C2 11.4033 2.59667 12 3.33333 12H8.66667V12Z" fill="#FF9139"/>
</svg>
