<svg width="40" height="40" viewBox="0 0 40 40" fill="none" xmlns="http://www.w3.org/2000/svg">
<rect width="40" height="40" rx="20" fill="#FAFAFC"/>
<mask id="mask0_1496_236" style="mask-type:alpha" maskUnits="userSpaceOnUse" x="11" y="8" width="21" height="24">
<path d="M21.8243 7.99994C23.3817 9.73451 24.4041 11.8842 24.768 14.189C25.1318 16.4938 24.8214 18.8548 23.8744 20.9865C22.9274 23.1182 21.3844 24.9292 19.4319 26.2003C17.4795 27.4715 15.2013 28.1483 12.8731 28.1489C12.246 28.1471 11.6199 28.0984 11 28.0033C12.29 29.4399 13.9053 30.545 15.71 31.2259C17.5148 31.9068 19.4562 32.1435 21.3712 31.9161C23.2862 31.6887 25.1187 31.0038 26.7147 29.9191C28.3107 28.8344 29.6236 27.3815 30.5429 25.6825C31.4623 23.9836 31.9612 22.0883 31.9978 20.1559C32.0344 18.2236 31.6076 16.3106 30.7533 14.578C29.899 12.8453 28.6421 11.3435 27.0883 10.1988C25.5346 9.05413 23.7293 8.30004 21.8243 7.99994Z" fill="#EDEDF0"/>
</mask>
<g mask="url(#mask0_1496_236)">
<path d="M22.378 8.10042C22.1936 8.06246 22.0713 8.28148 22.1904 8.42726C23.5422 10.082 24.4334 12.0699 24.7679 14.1889C25.1318 16.4937 24.8214 18.8548 23.8744 20.9864C22.9274 23.1181 21.3843 24.9291 19.4319 26.2002C17.4795 27.4714 15.2013 28.1482 12.8731 28.1489C12.4325 28.1476 11.9923 28.1231 11.5545 28.0757C11.3677 28.0555 11.2513 28.2767 11.3832 28.4105C12.6041 29.6495 14.0798 30.6108 15.71 31.2258C17.5147 31.9067 19.4562 32.1434 21.3712 31.916C23.2862 31.6886 25.1187 31.0037 26.7147 29.919C28.3107 28.8343 29.6236 27.3814 30.5429 25.6824C31.4622 23.9835 31.9612 22.0882 31.9978 20.1558C32.0344 18.2235 31.6076 16.3106 30.7533 14.5779C29.899 12.8452 28.6421 11.3434 27.0883 10.1987C25.6859 9.16554 24.0786 8.45057 22.378 8.10042Z" fill="#817989"/>
<path d="M26.8719 16.6471C26.3971 16.954 25.8198 17.0598 25.267 16.9411C24.7142 16.8224 24.2312 16.489 23.9243 16.0142C23.6173 15.5394 23.5115 14.9621 23.6302 14.4093C23.7489 13.8565 24.0823 13.3735 24.5571 13.0665C25.032 12.7596 25.6093 12.6538 26.1621 12.7725C26.7149 12.8912 27.1979 13.2246 27.5048 13.6994C27.8118 14.1742 27.9175 14.7515 27.7989 15.3043C27.6802 15.8571 27.3467 16.3401 26.8719 16.6471ZM27.0118 26.7308C26.6048 26.9939 26.11 27.0846 25.6361 26.9828C25.1623 26.8811 24.7483 26.5953 24.4852 26.1883C24.2221 25.7813 24.1314 25.2865 24.2332 24.8127C24.3349 24.3389 24.6207 23.9248 25.0277 23.6617C25.4347 23.3986 25.9295 23.308 26.4033 23.4097C26.8771 23.5114 27.2911 23.7972 27.5543 24.2042C27.8174 24.6112 27.908 25.106 27.8063 25.5799C27.7046 26.0537 27.4188 26.4677 27.0118 26.7308ZM28.5812 38.0803C27.5919 38.7199 26.2731 38.4367 25.6335 37.4475C25.4814 37.2124 25.3772 36.9496 25.3267 36.6743C25.2762 36.3989 25.2805 36.1162 25.3392 35.8425C25.398 35.5688 25.5101 35.3093 25.6692 35.0789C25.8283 34.8485 26.0312 34.6517 26.2664 34.4998C27.2557 33.8602 28.5745 34.1434 29.2141 35.1327C29.8536 36.1219 29.5705 37.4408 28.5812 38.0803ZM32.1269 20.424C31.9925 20.5108 31.8423 20.5703 31.6849 20.5991C31.5275 20.6279 31.3659 20.6254 31.2095 20.5918C31.0531 20.5582 30.9048 20.494 30.7731 20.4031C30.6415 20.3122 30.529 20.1962 30.4421 20.0618C30.3553 19.9274 30.2958 19.7772 30.267 19.6198C30.2382 19.4624 30.2407 19.3009 30.2743 19.1444C30.3079 18.988 30.3721 18.8397 30.463 18.708C30.5539 18.5764 30.6699 18.4639 30.8043 18.3771C31.0757 18.2017 31.4057 18.1413 31.7217 18.2092C32.0376 18.2772 32.3136 18.4678 32.489 18.7392C32.6644 19.0107 32.7248 19.3407 32.6569 19.6566C32.5889 19.9725 32.3983 20.2486 32.1269 20.424ZM20.0738 29.3605C19.9382 29.4483 19.8429 29.5863 19.809 29.7442C19.7751 29.9021 19.8053 30.0671 19.893 30.2027C19.9807 30.3384 20.1187 30.4337 20.2767 30.4676C20.4346 30.5015 20.5996 30.4713 20.7352 30.3836C20.8709 30.2959 20.9661 30.1579 21.0001 29.9999C21.034 29.842 21.0037 29.677 20.916 29.5414C20.8283 29.4057 20.6903 29.3104 20.5324 29.2765C20.3745 29.2426 20.2095 29.2728 20.0738 29.3605Z" fill="#A9A4B7"/>
</g>
<path d="M16.8228 10.3384C16.8977 10.1954 17.1023 10.1954 17.1772 10.3384L17.9441 11.8031C17.9721 11.8565 18.0226 11.8944 18.0817 11.9064L19.6585 12.2246C19.8098 12.2551 19.8709 12.4384 19.7682 12.5537L18.6603 13.7974C18.6222 13.8402 18.6042 13.8973 18.6111 13.9542L18.8122 15.6332C18.8311 15.791 18.6675 15.9067 18.525 15.8363L17.0886 15.1264C17.0328 15.0988 16.9672 15.0988 16.9114 15.1264L15.475 15.8363C15.3325 15.9067 15.1689 15.791 15.1878 15.6332L15.3889 13.9542C15.3958 13.8973 15.3778 13.8402 15.3397 13.7974L14.2318 12.5537C14.1291 12.4384 14.1902 12.2551 14.3415 12.2246L15.9183 11.9064C15.9774 11.8944 16.0279 11.8565 16.0559 11.8031L16.8228 10.3384Z" fill="#FFB92E"/>
<path d="M10.8228 17.3383C10.8977 17.1953 11.1023 17.1953 11.1772 17.3383L11.6134 18.1714C11.6414 18.2248 11.692 18.2628 11.7511 18.2747L12.6592 18.4574C12.8104 18.4879 12.8717 18.6707 12.7695 18.7861L12.1272 19.5108C12.0893 19.5536 12.0715 19.6106 12.0783 19.6674L12.1946 20.6332C12.2136 20.7909 12.05 20.9068 11.9075 20.8365L11.0887 20.4323C11.0328 20.4047 10.9672 20.4048 10.9114 20.4325L10.0973 20.8357C9.95486 20.9063 9.79099 20.7904 9.80999 20.6326L9.92616 19.6677C9.93301 19.6108 9.91509 19.5536 9.87695 19.5108L9.23181 18.7863C9.1291 18.671 9.19031 18.4877 9.34171 18.4572L10.2489 18.2747C10.308 18.2628 10.3586 18.2248 10.3866 18.1714L10.8228 17.3383Z" fill="#FFB92E"/>
<path d="M15.8234 21.3371C15.8982 21.1944 16.1024 21.1941 16.1775 21.3366L16.6179 22.1719C16.6459 22.225 16.6963 22.2628 16.7552 22.2747L17.6595 22.4573C17.8107 22.4878 17.8719 22.6706 17.7696 22.786L17.1272 23.5108C17.0893 23.5536 17.0715 23.6106 17.0783 23.6674L17.1946 24.6332C17.2136 24.7909 17.05 24.9068 16.9075 24.8365L16.0887 24.4323C16.0328 24.4047 15.9672 24.4048 15.9114 24.4325L15.0973 24.8357C14.9549 24.9063 14.791 24.7904 14.81 24.6326L14.9262 23.6677C14.933 23.6108 14.9151 23.5536 14.877 23.5108L14.2318 22.7863C14.1291 22.671 14.1903 22.4877 14.3417 22.4572L15.2489 22.2747C15.308 22.2628 15.3586 22.2248 15.3866 22.1714L15.8234 21.3371Z" fill="#FFB92E"/>
</svg>
