<svg width="24" height="24" viewBox="0 0 24 24" fill="none" xmlns="http://www.w3.org/2000/svg">
<path d="M9.07033 21.002C10.6813 21.0067 12.2271 20.3663 13.3628 19.2237L14.4304 18.1559C14.9155 17.6708 14.9154 16.8844 14.4304 16.3993C13.9453 15.9142 13.1588 15.9142 12.6737 16.3993L11.6059 17.467C10.6943 18.3434 9.38835 18.6749 8.16904 18.3397C6.94951 18.0046 5.99651 17.0522 5.6607 15.8331C5.32491 14.6138 5.65572 13.3079 6.53145 12.3956L7.60122 11.3275C8.08676 10.8427 8.08707 10.056 7.60191 9.57085C7.11702 9.08595 6.33085 9.08595 5.84596 9.57085L4.77786 10.6389C3.63953 11.7775 3 13.3213 3 14.9314C3.00022 16.5413 3.63975 18.0853 4.77808 19.2237C5.91642 20.3622 7.46029 21.002 9.07033 21.002Z" fill="#EF3770"/>
<path d="M14.9296 3.00051C13.3187 2.99618 11.7731 3.6366 10.6371 4.77882L9.56953 5.84655C9.08448 6.33165 9.0845 7.11811 9.56958 7.60318C10.0547 8.08828 10.8412 8.08828 11.3263 7.60318L12.394 6.53545C13.3089 5.67706 14.6057 5.35899 15.8142 5.69651C17.0225 6.03403 17.9668 6.97839 18.3044 8.18667C18.6419 9.39518 18.3239 10.692 17.4654 11.6069L16.3977 12.6746C15.9126 13.1597 15.9126 13.9462 16.3977 14.4313C16.8828 14.9164 17.6692 14.9164 18.1543 14.4313L19.2221 13.3635C20.3604 12.225 20.9999 10.6812 20.9999 9.07106C20.9997 7.46118 20.3602 5.91715 19.2218 4.77881C18.0835 3.64025 16.5396 3.00051 14.9296 3.00051Z" fill="#EF3770"/>
<path d="M8.95066 15.0494C8.4658 14.5645 8.4658 13.7784 8.95066 13.2936L13.9171 8.32712C14.402 7.84227 15.1881 7.84227 15.6729 8.32712C16.1578 8.81197 16.1578 9.59807 15.6729 10.0829L10.7065 15.0494C10.2216 15.5342 9.43551 15.5342 8.95066 15.0494Z" fill="#EF3770"/>
</svg>
