<svg width="20" height="20" viewBox="0 0 20 20" fill="none" xmlns="http://www.w3.org/2000/svg">
<path d="M8.07788 4.85714C6.29604 4.85714 4.85158 6.30689 4.85158 8.09524V11.9048C4.85158 13.6931 6.29604 15.1429 8.07788 15.1429H11.8735C13.6553 15.1429 15.0998 13.6931 15.0998 11.9048V11.7143C15.0998 11.2935 15.4397 10.9524 15.8589 10.9524C16.2782 10.9524 16.6181 11.2935 16.6181 11.7143V11.9048C16.6181 14.5347 14.4939 16.6667 11.8735 16.6667H8.07788C5.45753 16.6667 3.33333 14.5347 3.33333 11.9048V8.09524C3.33333 5.46531 5.45753 3.33333 8.07788 3.33333H8.26766C8.68691 3.33333 9.02678 3.67445 9.02678 4.09524C9.02678 4.51603 8.68691 4.85714 8.26766 4.85714H8.07788Z" fill="#C8B8F8"/>
<path d="M15.8008 9.22232C16.284 9.22738 16.6717 8.83832 16.6666 8.35333L16.6271 4.55446C16.6204 3.9087 16.0934 3.37975 15.45 3.37301L11.665 3.33338C11.1817 3.32832 10.7941 3.71738 10.7991 4.20237C10.8042 4.68736 11.2 5.08463 11.6832 5.08969L13.6458 5.11024L10.2256 8.54299C9.88742 8.88239 9.8932 9.43847 10.2385 9.78502C10.5838 10.1316 11.1378 10.1374 11.476 9.79798L14.8962 6.36522L14.9167 8.335C14.9218 8.81999 15.3176 9.21726 15.8008 9.22232Z" fill="#C8B8F8"/>
</svg>
