<svg width="40" height="40" viewBox="0 0 40 40" fill="none" xmlns="http://www.w3.org/2000/svg">
<rect width="40" height="40" rx="20" fill="#FAFAFC"/>
<path opacity="0.5" d="M27.6467 22.1552C27.5278 22.0754 27.4306 21.9628 27.3651 21.8288C27.2996 21.6948 27.2682 21.5444 27.2741 21.3929V18.4079C27.2793 16.9101 26.8816 15.4432 26.1295 14.187C25.3775 12.9307 24.3039 11.9398 23.0403 11.3357C22.9479 10.6854 22.6439 10.0923 22.1834 9.66392C21.723 9.23551 21.1363 9 20.5296 9C19.923 9 19.3363 9.23551 18.8758 9.66392C18.4153 10.0923 18.1114 10.6854 18.019 11.3357C17.1958 11.6914 16.4449 12.2187 15.809 12.8879C15.1525 13.5655 14.6295 14.3804 14.2715 15.2834C13.9135 16.1863 13.7279 17.1586 13.7259 18.1415V21.3929C13.7318 21.5444 13.7004 21.6948 13.6349 21.8288C13.5694 21.9628 13.4722 22.0754 13.3533 22.1552C12.8837 22.4244 12.5037 22.8466 12.2667 23.3622C12.0298 23.8779 11.9478 24.4612 12.0324 25.03C12.1503 25.6886 12.4795 26.2806 12.9616 26.701C13.4437 27.1213 14.0475 27.3428 14.6658 27.3262H17.113C17.113 28.3005 17.4698 29.235 18.105 29.924C18.7402 30.6129 19.6017 31 20.5 31C21.3983 31 22.2598 30.6129 22.895 29.924C23.5302 29.235 23.887 28.3005 23.887 27.3262H26.3342C26.9525 27.3428 27.5563 27.1213 28.0384 26.701C28.5205 26.2806 28.8497 25.6886 28.9676 25.03C29.0522 24.4612 28.9702 23.8779 28.7333 23.3622C28.4963 22.8466 28.1163 22.4244 27.6467 22.1552ZM20.5 29.1631C20.0508 29.1631 19.6201 28.9695 19.3025 28.6251C18.9849 28.2806 18.8065 27.8133 18.8065 27.3262H22.1935C22.1935 27.8133 22.0151 28.2806 21.6975 28.6251C21.3799 28.9695 20.9491 29.1631 20.5 29.1631Z" fill="#160523"/>
</svg>
