<svg width="16" height="16" viewBox="0 0 16 16" fill="none" xmlns="http://www.w3.org/2000/svg">
<path d="M11.6666 9.33337C11.8124 9.33337 11.9584 9.38054 12.0794 9.47571L14.263 11.1934C14.5176 11.3941 14.6666 11.7002 14.6666 12.024V14.6679C14.6666 15.0356 14.3683 15.3334 14 15.3334H9.33329C8.96496 15.3334 8.66663 15.0356 8.66663 14.6679V12.024C8.66663 11.7002 8.81527 11.3937 9.07027 11.1934L11.2545 9.47571C11.3755 9.38054 11.5209 9.33337 11.6666 9.33337ZM12.3333 12.3334C11.965 12.3334 11.6666 12.6312 11.6666 12.9989V13.6644C11.6666 14.0321 11.965 14.3299 12.3333 14.3299H13C13.3683 14.3299 13.6666 14.0321 13.6666 13.6644V12.9989C13.6666 12.6312 13.3683 12.3334 13 12.3334H12.3333Z" fill="#0601EE"/>
<path d="M10.6666 5.33329C10.6666 6.82929 9.49463 7.99996 7.99996 7.99996C6.50529 7.99996 5.33329 6.82929 5.33329 5.33329C5.33329 3.83729 6.50529 2.66663 7.99996 2.66663C9.49463 2.66663 10.6666 3.83729 10.6666 5.33329Z" fill="#0601EE"/>
<path d="M2.66663 12.512C2.66663 12.9656 3.03435 13.3333 3.48796 13.3333H6.99996C7.36815 13.3333 7.66663 13.0348 7.66663 12.6666V11.8747C7.66663 11.4749 7.84606 11.0961 8.15548 10.8429L9.74498 9.54198C9.83772 9.46608 9.79069 9.32499 9.67086 9.32392C9.15037 9.31927 8.24817 9.33329 7.99996 9.33329C5.00929 9.33329 2.66663 10.7293 2.66663 12.512Z" fill="#0601EE"/>
</svg>
