<svg width="24" height="24" viewBox="0 0 24 24" fill="none" xmlns="http://www.w3.org/2000/svg">
<path d="M17.625 3H6.375C5.47982 3 4.62151 3.35548 3.98859 3.98859C3.35553 4.62151 3 5.47977 3 6.375V17.625C3 18.5202 3.35548 19.3785 3.98859 20.0114C4.62151 20.6445 5.47977 21 6.375 21H17.625C18.5202 21 19.3785 20.6445 20.0114 20.0114C20.6445 19.3785 21 18.5202 21 17.625V6.375C21 5.47982 20.6445 4.62151 20.0114 3.98859C19.3785 3.35553 18.5202 3 17.625 3ZM6.375 5.25005H17.625C17.9234 5.25005 18.2094 5.36855 18.4205 5.57944C18.6314 5.79054 18.7499 6.07657 18.7499 6.37498V8.72055L13.6538 13.8167L10.7681 10.9677C10.3469 10.552 9.77916 10.3189 9.18743 10.3189C8.5957 10.3189 8.02798 10.552 7.60675 10.9677L5.24998 13.2936V6.37488C5.24998 6.07648 5.36848 5.79043 5.57937 5.57934C5.79047 5.36845 6.0765 5.24995 6.37491 5.24995L6.375 5.25005ZM5.2501 17.625V16.4354L9.1875 12.5625L15.4709 18.75H6.375C6.0766 18.75 5.79055 18.6315 5.57946 18.4206C5.36857 18.2095 5.25007 17.9235 5.25007 17.6251L5.2501 17.625ZM18.3649 18.4689L15.2569 15.3976L18.75 11.9045V17.6249C18.749 17.9485 18.6086 18.2559 18.3647 18.4687L18.3649 18.4689Z" fill="#807896"/>
<path d="M14.8125 8.0626C14.8125 8.68391 14.3089 9.1875 13.6876 9.1875C13.0663 9.1875 12.5625 8.68391 12.5625 8.0626C12.5625 7.44129 13.0663 6.9375 13.6876 6.9375C14.3089 6.9375 14.8125 7.44129 14.8125 8.0626Z" fill="#807896"/>
</svg>
