<svg width="20" height="20" viewBox="0 0 20 20" fill="none" xmlns="http://www.w3.org/2000/svg">
<path d="M10.825 4.15845C10.825 3.70284 10.4557 3.3335 10 3.3335C9.54443 3.3335 9.17508 3.70284 9.17508 4.15845V9.1752H4.15833C3.70272 9.1752 3.33337 9.54455 3.33337 10.0002C3.33337 10.4558 3.70272 10.8251 4.15833 10.8251L9.17508 10.8251L9.17508 15.8377C9.17508 16.2956 9.5463 16.6668 10.0042 16.6668C10.4621 16.6668 10.8334 16.2956 10.8333 15.8377L10.8332 10.8335L15.8423 10.8263C16.2978 10.8257 16.6667 10.4562 16.6667 10.0008C16.6667 9.54482 16.2971 9.1752 15.8412 9.1752H10.825V4.15845Z" fill="white"/>
<path fill-rule="evenodd" clip-rule="evenodd" d="M9.17508 9.1752V4.15845C9.17508 3.70284 9.54443 3.3335 10 3.3335C10.4557 3.3335 10.825 3.70284 10.825 4.15845V9.1752H15.8412C16.2971 9.1752 16.6667 9.54482 16.6667 10.0008C16.6667 10.4562 16.2978 10.8257 15.8423 10.8263L10.8332 10.8335L10.8333 15.8377C10.8334 16.2956 10.4621 16.6668 10.0042 16.6668C9.5463 16.6668 9.17508 16.2956 9.17508 15.8377L9.17508 10.8251L4.15833 10.8251C3.70272 10.8251 3.33337 10.4558 3.33337 10.0002C3.33337 9.54455 3.70272 9.1752 4.15833 9.1752H9.17508Z" fill="white"/>
</svg>
