<svg width="24" height="25" viewBox="0 0 24 25" fill="none" xmlns="http://www.w3.org/2000/svg">
<path d="M12.99 5.65645C12.99 5.10972 12.5467 4.6665 12 4.6665C11.4533 4.6665 11.0101 5.10972 11.0101 5.65645V11.6766H4.98995C4.44322 11.6766 4 12.1198 4 12.6665C4 13.2132 4.44322 13.6565 4.98995 13.6565L11.0101 13.6565L11.0101 19.6715C11.0101 20.221 11.4555 20.6665 12.005 20.6665C12.5545 20.6665 13 20.221 13 19.6715L12.9998 13.6665L19.0108 13.6579C19.5573 13.6571 20 13.2138 20 12.6672C20 12.1201 19.5565 11.6766 19.0093 11.6766H12.99V5.65645Z" fill="#5D5574"/>
<path fill-rule="evenodd" clip-rule="evenodd" d="M11.0101 11.6766V5.65645C11.0101 5.10972 11.4533 4.6665 12 4.6665C12.5467 4.6665 12.99 5.10972 12.99 5.65645V11.6766H19.0093C19.5565 11.6766 20 12.1201 20 12.6672C20 13.2138 19.5573 13.6571 19.0108 13.6579L12.9998 13.6665L13 19.6715C13 20.221 12.5545 20.6665 12.005 20.6665C11.4555 20.6665 11.0101 20.221 11.0101 19.6715L11.0101 13.6565L4.98995 13.6565C4.44322 13.6565 4 13.2132 4 12.6665C4 12.1198 4.44322 11.6766 4.98995 11.6766H11.0101Z" fill="#5D5574"/>
</svg>
