<svg width="24" height="24" viewBox="0 0 24 24" fill="none" xmlns="http://www.w3.org/2000/svg">
<path d="M18.5403 3.10548H15.0084C14.6752 3.10384 14.3569 3.24345 14.1326 3.48982C13.9082 3.73619 13.7987 4.06591 13.8312 4.3975C13.8681 4.695 14.0141 4.96824 14.2408 5.16454C14.4674 5.36082 14.7587 5.46614 15.0585 5.46019H16.8745L14.2256 8.10903C13.9899 8.33938 13.8571 8.65517 13.8571 8.98466C13.8571 9.31417 13.9899 9.62992 14.2256 9.86028C14.4496 10.0627 14.7428 10.1713 15.0446 10.1635C15.3466 10.1559 15.6338 10.0325 15.8473 9.81901L18.5403 7.12602V8.99206C18.5389 9.32527 18.6785 9.64352 18.9248 9.86789C19.171 10.0923 19.5009 10.2017 19.8325 10.1693C20.13 10.1323 20.4033 9.98635 20.5994 9.7597C20.7956 9.53304 20.901 9.2417 20.895 8.94194V5.46014C20.895 4.83559 20.647 4.23674 20.2054 3.79509C19.7638 3.35344 19.1649 3.10547 18.5403 3.10547L18.5403 3.10548Z" fill="#EF3770"/>
<path fill-rule="evenodd" clip-rule="evenodd" d="M8.2907 6.30281C7.19255 6.30281 6.30233 7.19304 6.30233 8.29119V15.7098C6.30233 16.8079 7.19255 17.6982 8.2907 17.6982H15.7093C16.8074 17.6982 17.6977 16.8079 17.6977 15.7098V13.047C17.6977 12.4112 18.2131 11.8958 18.8488 11.8958C19.4846 11.8958 20 12.4112 20 13.047V15.7098C20 18.0795 18.079 20.0005 15.7093 20.0005H8.2907C5.92101 20.0005 4 18.0795 4 15.7098V8.29119C4 5.9215 5.92101 4.00049 8.2907 4.00049H10.7156C11.3514 4.00049 11.8668 4.51588 11.8668 5.15165C11.8668 5.78742 11.3514 6.30281 10.7156 6.30281H8.2907Z" fill="#EF3770"/>
</svg>
