<svg width="24" height="24" viewBox="0 0 24 24" fill="none" xmlns="http://www.w3.org/2000/svg">
<path d="M12 1.33325C6.10933 1.33325 1.33333 6.10925 1.33333 11.9999C1.33333 17.8906 6.10933 22.6666 12 22.6666C17.8907 22.6666 22.6667 17.8906 22.6667 11.9999C22.6667 6.10925 17.8907 1.33325 12 1.33325ZM12.0053 18.223C10.3991 18.223 8.80444 17.6035 7.60088 16.3999C6.41688 15.2168 5.78577 13.6346 5.78755 11.9999H3.99999L6.66666 9.33325L9.33333 11.9999H7.56266C7.56177 13.1679 8.01333 14.2977 8.85777 15.143C10.3698 16.6559 12.7431 16.8773 14.5058 15.6728L15.5093 17.1395C14.4453 17.8675 13.2222 18.223 12.0053 18.223ZM17.3333 14.6666L14.6667 11.9999H16.4373C16.4382 10.8319 15.9867 9.70214 15.1422 8.85681C13.6293 7.34392 11.2569 7.12347 9.49422 8.32703L8.49066 6.86036C10.9573 5.17236 14.2827 5.48436 16.3982 7.59992C17.5822 8.78303 18.2133 10.3653 18.2115 11.9999H20L17.3333 14.6666Z" fill="#FFB92E"/>
</svg>
