<svg width="20" height="20" viewBox="0 0 20 20" fill="none" xmlns="http://www.w3.org/2000/svg">
<g clip-path="url(#clip0_1373_8164)">
<path d="M9.99948 1.6665C8.3513 1.6665 6.74013 2.15525 5.36972 3.07092C3.99931 3.9866 2.93121 5.28809 2.30048 6.81081C1.66975 8.33353 1.50472 10.0091 1.82626 11.6256C2.14781 13.2421 2.94148 14.727 4.10692 15.8924C5.27236 17.0578 6.75721 17.8515 8.37372 18.1731C9.99023 18.4946 11.6658 18.3296 13.1885 17.6988C14.7112 17.0681 16.0127 16 16.9284 14.6296C17.8441 13.2592 18.3328 11.648 18.3328 9.99984C18.3328 8.90549 18.1173 7.82186 17.6985 6.81081C17.2797 5.79976 16.6659 4.8811 15.892 4.10728C15.1182 3.33346 14.1996 2.71963 13.1885 2.30084C12.1775 1.88205 11.0938 1.6665 9.99948 1.6665ZM9.99948 16.6665C8.68093 16.6665 7.392 16.2755 6.29567 15.543C5.19935 14.8104 4.34486 13.7692 3.84028 12.5511C3.33569 11.3329 3.20367 9.99244 3.46091 8.69924C3.71814 7.40603 4.35308 6.21814 5.28543 5.28579C6.21778 4.35344 7.40567 3.7185 8.69887 3.46127C9.99208 3.20403 11.3325 3.33606 12.5507 3.84064C13.7689 4.34523 14.8101 5.19971 15.5426 6.29604C16.2751 7.39236 16.6661 8.6813 16.6661 9.99984C16.6661 11.7679 15.9638 13.4636 14.7135 14.7139C13.4633 15.9641 11.7676 16.6665 9.99948 16.6665Z" fill="#160523"/>
<path d="M10.0005 5.00006C9.22698 5.00006 8.48512 5.30735 7.93813 5.85433C7.39115 6.40131 7.08386 7.14317 7.08386 7.91672C7.08386 8.13774 7.17166 8.3497 7.32794 8.50598C7.48422 8.66226 7.69618 8.75006 7.9172 8.75006C8.13821 8.75006 8.35017 8.66226 8.50645 8.50598C8.66273 8.3497 8.75053 8.13774 8.75053 7.91672C8.75053 7.6695 8.82384 7.42782 8.96119 7.22226C9.09854 7.0167 9.29377 6.85648 9.52217 6.76187C9.75058 6.66726 10.0019 6.64251 10.2444 6.69074C10.4869 6.73897 10.7096 6.85802 10.8844 7.03284C11.0592 7.20765 11.1783 7.43038 11.2265 7.67286C11.2747 7.91534 11.25 8.16667 11.1554 8.39508C11.0608 8.62348 10.9006 8.81871 10.695 8.95606C10.4894 9.09341 10.2478 9.16672 10.0005 9.16672C9.77952 9.16672 9.56755 9.25452 9.41127 9.4108C9.25499 9.56708 9.1672 9.77904 9.1672 10.0001V11.6667C9.1672 11.8877 9.25499 12.0997 9.41127 12.256C9.56755 12.4123 9.77952 12.5001 10.0005 12.5001C10.2215 12.5001 10.4335 12.4123 10.5898 12.256C10.7461 12.0997 10.8339 11.8877 10.8339 11.6667V10.7001C11.5073 10.5034 12.0869 10.0699 12.4659 9.47959C12.845 8.88924 12.9978 8.18178 12.8963 7.48761C12.7948 6.79344 12.4458 6.15935 11.9137 5.70221C11.3815 5.24508 10.7021 4.9957 10.0005 5.00006Z" fill="#160523"/>
<path d="M9.99947 15.0002C10.4597 15.0002 10.8328 14.6271 10.8328 14.1668C10.8328 13.7066 10.4597 13.3335 9.99947 13.3335C9.53923 13.3335 9.16614 13.7066 9.16614 14.1668C9.16614 14.6271 9.53923 15.0002 9.99947 15.0002Z" fill="#160523"/>
</g>
<defs>
<clipPath id="clip0_1373_8164">
<rect width="20" height="20" fill="white"/>
</clipPath>
</defs>
</svg>
