<svg width="24" height="24" viewBox="0 0 24 24" fill="none" xmlns="http://www.w3.org/2000/svg">
<path d="M12 5C5.25 5 3 11.75 3 11.75C3 11.75 5.25005 18.5 12 18.5C18.75 18.5002 21 11.75 21 11.75C21 11.75 18.7499 5 12 5ZM12 16.25C8.08495 16.25 6.13594 13.1815 5.43834 11.7499C6.1387 10.3129 8.08781 7.25 12 7.25C15.9122 7.25 17.8641 10.3183 18.5617 11.7499C17.8613 13.1871 15.9122 16.25 12 16.25Z" fill="#807896"/>
<path d="M13.9688 11.7499C13.9688 12.8372 13.0873 13.7186 12.0001 13.7186C10.9128 13.7186 10.0314 12.8372 10.0314 11.7499C10.0314 10.6627 10.9128 9.78125 12.0001 9.78125C13.0873 9.78125 13.9688 10.6627 13.9688 11.7499Z" fill="#807896"/>
</svg>
