<svg width="16" height="16" viewBox="0 0 16 16" fill="none" xmlns="http://www.w3.org/2000/svg">
<path d="M11.8833 9.33333C11.6083 8.55667 10.87 8 10 8C8.895 8 8 8.895 8 10C8 11.105 8.895 12 10 12C10.87 12 11.6083 11.4433 11.8833 10.6667H13.3333V11.3333C13.3333 11.7015 13.6318 12 14 12Lnan nanLnan nanL14 12C14.3682 12 14.6667 11.7015 14.6667 11.3333V10.6667Lnan nanL14.6667 10.6667C15.0349 10.6667 15.3333 10.3682 15.3333 10Lnan nanLnan nanL15.3333 10C15.3333 9.63181 15.0349 9.33333 14.6667 9.33333H11.8833ZM10 10.6667C9.63167 10.6667 9.33333 10.3683 9.33333 10C9.33333 9.63167 9.63167 9.33333 10 9.33333C10.3683 9.33333 10.6667 9.63167 10.6667 10C10.6667 10.3683 10.3683 10.6667 10 10.6667Z" fill="#160523"/>
<path d="M9.77066 7.34301C10.323 6.85794 10.6666 6.1433 10.6666 5.33329C10.6666 3.83729 9.49463 2.66663 7.99996 2.66663C6.50529 2.66663 5.33329 3.83729 5.33329 5.33329C5.33329 6.82929 6.50529 7.99996 7.99996 7.99996C8.49297 7.99996 9.13297 7.90301 9.77066 7.34301Z" fill="#160523"/>
<path d="M7.41263 9.3515C7.36081 9.55907 7.33329 9.77629 7.33329 9.99996C7.33329 10.4074 7.42459 10.7935 7.58786 11.1388C7.33217 11.5651 7.1392 12.1093 6.99258 12.7784C6.92287 13.0964 6.64752 13.3333 6.32188 13.3333H3.48796C3.03435 13.3333 2.66663 12.9656 2.66663 12.512C2.66663 10.8478 4.70818 9.5206 7.41263 9.3515Z" fill="#160523"/>
<path d="M12.845 12C13.0756 12.3985 13.5065 12.6666 14 12.6666C14.4362 12.6666 14.8235 12.4572 15.0668 12.1333C15.2286 12.255 15.3333 12.4486 15.3333 12.6666C15.3333 13.0348 15.0349 13.3333 14.6667 13.3333V14C14.6667 14.3682 14.3682 14.6666 14 14.6666C13.6318 14.6666 13.3333 14.3682 13.3333 14V13.3333H11.8833C11.6083 14.11 10.87 14.6666 10 14.6666C8.895 14.6666 8 13.7716 8 12.6666C8 12.4013 8.05161 12.148 8.14535 11.9164C8.47319 12.2337 8.88225 12.4676 9.3384 12.584C9.33506 12.6111 9.33333 12.6387 9.33333 12.6666C9.33333 13.035 9.63167 13.3333 10 13.3333C10.3683 13.3333 10.6667 13.035 10.6667 12.6666C10.6667 12.6386 10.6649 12.6109 10.6616 12.5838C11.117 12.4673 11.5248 12.2333 11.8516 11.9165C11.8628 11.944 11.8734 11.9718 11.8833 12H12.845Z" fill="#160523"/>
</svg>
