<?xml version="1.0" encoding="UTF-8" standalone="no"?>
<svg
   width="25"
   height="24"
   viewBox="0 0 25 24"
   fill="none"
   version="1.1"
   id="svg6"
   sodipodi:docname="upload_d.svg"
   inkscape:version="1.1.2 (0a00cf5339, 2022-02-04)"
   xmlns:inkscape="http://www.inkscape.org/namespaces/inkscape"
   xmlns:sodipodi="http://sodipodi.sourceforge.net/DTD/sodipodi-0.dtd"
   xmlns="http://www.w3.org/2000/svg"
   xmlns:svg="http://www.w3.org/2000/svg">
  <defs
     id="defs10" />
  <sodipodi:namedview
     id="namedview8"
     pagecolor="#ffffff"
     bordercolor="#666666"
     borderopacity="1.0"
     inkscape:pageshadow="2"
     inkscape:pageopacity="0.0"
     inkscape:pagecheckerboard="0"
     showgrid="false"
     inkscape:zoom="26.833333"
     inkscape:cx="12.484472"
     inkscape:cy="12"
     inkscape:window-width="1920"
     inkscape:window-height="1007"
     inkscape:window-x="0"
     inkscape:window-y="0"
     inkscape:window-maximized="1"
     inkscape:current-layer="svg6" />
  <path
     d="M10.9338 5.66572L8.43637 8.16314C8.1996 8.39759 8.07328 8.72135 8.08883 9.05421C8.10436 9.38709 8.26014 9.69762 8.51755 9.90916C8.75404 10.0934 9.05047 10.1834 9.34955 10.1619C9.64861 10.1404 9.92908 10.0089 10.1368 9.79272L11.4209 8.50865L11.4209 12.2547C11.4171 12.5842 11.5465 12.9014 11.7795 13.1344C12.0125 13.3674 12.3297 13.4968 12.6592 13.493C12.9608 13.4778 13.2449 13.3473 13.4527 13.1283C13.6609 12.9094 13.7768 12.6191 13.7768 12.3171V8.50864L15.0962 9.82813C15.3308 10.0648 15.6546 10.1911 15.9875 10.1755C16.3202 10.1601 16.6309 10.0042 16.8424 9.74682C17.0266 9.51033 17.1166 9.21389 17.095 8.91496C17.0735 8.6159 16.942 8.33543 16.7258 8.12767L14.2638 5.66567C13.8222 5.22404 13.2234 4.97596 12.5988 4.97593C11.9743 4.9759 11.3754 5.22404 10.9338 5.66567L10.9338 5.66572Z"
     fill="#EF3770"
     id="path2"
     style="fill:#180d37;fill-opacity:1" />
  <path
     fill-rule="evenodd"
     clip-rule="evenodd"
     d="M5.58642 12.9004C6.18643 12.9004 6.67284 13.3868 6.67284 13.9868V16.4559C6.67284 17.4923 7.513 18.3325 8.54938 18.3325H16.4506C17.487 18.3325 18.3272 17.4923 18.3272 16.4559V13.9868C18.3272 13.3868 18.8136 12.9004 19.4136 12.9004C20.0136 12.9004 20.5 13.3868 20.5 13.9868V16.4559C20.5 18.6924 18.687 20.5053 16.4506 20.5053H8.54938C6.31297 20.5053 4.5 18.6924 4.5 16.4559V13.9868C4.5 13.3868 4.98641 12.9004 5.58642 12.9004Z"
     fill="#EF3770"
     id="path4"
     style="fill:#180d37;fill-opacity:1" />
</svg>
