<svg width="25" height="24" viewBox="0 0 25 24" fill="none" xmlns="http://www.w3.org/2000/svg">
<path d="M10.9339 5.66523L8.4365 8.16265C8.19972 8.3971 8.0734 8.72086 8.08895 9.05372C8.10449 9.3866 8.26026 9.69714 8.51767 9.90867C8.75416 10.0929 9.05059 10.1829 9.34967 10.1614C9.64873 10.1399 9.9292 10.0084 10.137 9.79223L11.421 8.50816L11.421 12.2542C11.4173 12.5837 11.5466 12.901 11.7796 13.1339C12.0126 13.3669 12.3298 13.4963 12.6594 13.4925C12.9609 13.4773 13.245 13.3468 13.4529 13.1278C13.6611 12.9089 13.7769 12.6186 13.7769 12.3166V8.50815L15.0964 9.82764C15.331 10.0643 15.6547 10.1906 15.9876 10.175C16.3203 10.1597 16.631 10.0037 16.8425 9.74633C17.0268 9.50984 17.1168 9.21341 17.0951 8.91447C17.0737 8.61541 16.9421 8.33494 16.726 8.12718L14.264 5.66518C13.8223 5.22355 13.2235 4.97548 12.5989 4.97545C11.9744 4.97542 11.3756 5.22356 10.9339 5.66518L10.9339 5.66523Z" fill="#EF3770"/>
<path fill-rule="evenodd" clip-rule="evenodd" d="M5.58642 12.9004C6.18643 12.9004 6.67284 13.3868 6.67284 13.9868V16.4559C6.67284 17.4923 7.513 18.3325 8.54938 18.3325H16.4506C17.487 18.3325 18.3272 17.4923 18.3272 16.4559V13.9868C18.3272 13.3868 18.8136 12.9004 19.4136 12.9004C20.0136 12.9004 20.5 13.3868 20.5 13.9868V16.4559C20.5 18.6924 18.687 20.5053 16.4506 20.5053H8.54938C6.31297 20.5053 4.5 18.6924 4.5 16.4559V13.9868C4.5 13.3868 4.98641 12.9004 5.58642 12.9004Z" fill="#EF3770"/>
</svg>
