<svg width="24" height="24" viewBox="0 0 24 24" fill="none" xmlns="http://www.w3.org/2000/svg">
<path d="M11.9983 3C10.0647 3.0002 8.18273 3.62326 6.631 4.77683C5.07922 5.93019 3.94017 7.55279 3.38239 9.404C2.82482 11.2554 2.87821 13.2372 3.53463 15.0561C4.19124 16.8747 5.41602 18.4335 7.02767 19.5018C8.63932 20.57 10.5521 21.0909 12.4829 20.9871C14.4137 20.8833 16.2598 20.1606 17.7477 18.9258C19.2356 17.691 20.2861 16.0099 20.744 14.1313C21.2019 12.2528 21.0426 10.2767 20.2898 8.49577C19.6008 6.8663 18.4471 5.47593 16.9724 4.49855C15.4977 3.52116 13.7677 2.9999 11.9986 3.0003L11.9983 3ZM8.15647 17.546C8.96746 16.1992 10.4247 15.3756 11.9969 15.3756C13.569 15.3756 15.0262 16.1992 15.8374 17.546C14.71 18.3294 13.3698 18.7492 11.9969 18.7492C10.6241 18.7492 9.28392 18.3294 8.15647 17.546ZM10.3108 11.4374C10.3108 10.9899 10.4887 10.5607 10.8052 10.2442C11.1216 9.92759 11.5509 9.74984 11.9983 9.74984C12.4458 9.74984 12.8751 9.92759 13.1915 10.2442C13.508 10.5607 13.6859 10.9899 13.6859 11.4374C13.6859 11.8849 13.508 12.3142 13.1915 12.6306C12.8751 12.9471 12.4458 13.1248 11.9983 13.1248C11.5509 13.1248 11.1216 12.947 10.8052 12.6306C10.4887 12.3142 10.3108 11.8849 10.3108 11.4374ZM17.4715 15.9373C16.8489 15.0772 16.0341 14.3743 15.0922 13.8842C15.711 13.1075 16.0133 12.1256 15.9387 11.1353C15.8641 10.145 15.4183 9.21943 14.6902 8.54394C13.962 7.86869 13.0056 7.49338 12.0126 7.49338C11.0193 7.49338 10.0629 7.86868 9.33489 8.54394C8.60666 9.21938 8.16074 10.145 8.0862 11.1353C8.01165 12.1257 8.31397 13.1076 8.93291 13.8842C7.98064 14.3706 7.15608 15.0739 6.52533 15.9373C5.55051 14.5867 5.1095 12.9235 5.28704 11.2674C5.46439 9.61117 6.24815 8.07922 7.48705 6.96589C8.72594 5.85275 10.3329 5.23692 11.9985 5.23692C13.664 5.23692 15.271 5.85275 16.5099 6.96589C17.7488 8.07922 18.5325 9.61122 18.7099 11.2674C18.8874 12.9236 18.4464 14.5868 17.4716 15.9373H17.4715Z" fill="white"/>
</svg>
