<svg width="720" height="932" viewBox="0 0 720 932" fill="none" xmlns="http://www.w3.org/2000/svg">
<g clip-path="url(#clip0_291_12060)">
<rect x="-1.08691" width="720" height="932" fill="#180D37"/>
<mask id="mask0_291_12060" style="mask-type:alpha" maskUnits="userSpaceOnUse" x="-2" y="0" width="721" height="932">
<rect x="-1.08691" width="720" height="932" fill="#180D37"/>
</mask>
<g mask="url(#mask0_291_12060)">
<path d="M681.469 552.85C660.804 548.079 634 558.5 619.5 568.5C605 578.5 593.38 601.225 590.731 616.466C588.242 630.784 596.692 659.539 596.692 688.696C593.913 723 552.414 727 544.913 768C542.652 780.361 545.791 801.339 552.414 811.5C612.023 896.984 681.925 847.772 702.913 839.5C724.77 830.885 872.216 815.928 864.268 748.999C856.321 682.07 835.126 652.912 819.893 639.659C804.66 626.406 768.895 617.791 752.337 611.827C735.779 605.863 707.299 558.814 681.469 552.85Z" fill="#FEB840"/>
</g>
<path d="M320.358 482.495C320.358 482.231 320.589 482 320.854 482H330.338C336.815 482 338.038 486.191 338.038 488.996C338.038 491.801 336.815 495.926 330.338 495.926H324.324V504.11C324.324 504.374 324.092 504.605 323.828 504.605H320.854C320.589 504.605 320.358 504.374 320.358 504.11V482.495ZM324.291 492.692H330.074C331.858 492.692 334.039 491.801 334.039 488.963C334.039 485.993 332.222 485.234 330.14 485.234H324.291V492.692Z" fill="white"/>
<path d="M340.616 482H343.26C343.524 482 343.756 482.231 343.756 482.495V504.11C343.756 504.374 343.524 504.605 343.26 504.605H340.616C340.352 504.605 340.12 504.374 340.12 504.11V482.495C340.12 482.231 340.352 482 340.616 482Z" fill="white"/>
<path d="M364.541 488.237H366.986C367.251 488.237 367.482 488.468 367.482 488.732V490.646L367.548 490.712C368.672 488.897 370.489 487.808 372.637 487.808C376.206 487.808 378.42 489.689 378.42 493.385V504.143C378.42 504.407 378.189 504.638 377.925 504.638H375.281C375.016 504.638 374.785 504.407 374.785 504.143V494.309C374.686 491.768 373.761 490.679 371.679 490.646C369.432 490.613 367.614 492.461 367.614 494.705V504.11C367.614 504.374 367.383 504.605 367.118 504.605H364.475C364.21 504.605 363.979 504.374 363.979 504.11V488.732C364.045 488.435 364.276 488.237 364.541 488.237Z" fill="white"/>
<path d="M382.154 488.237H384.6C384.864 488.237 385.095 488.468 385.095 488.732V490.646L385.161 490.712C386.285 488.897 388.103 487.808 390.251 487.808C393.82 487.808 396.034 489.689 396.034 493.385V504.143C396.034 504.407 395.802 504.638 395.538 504.638H392.894C392.63 504.638 392.399 504.407 392.399 504.143V494.309C392.299 491.768 391.374 490.679 389.292 490.646C387.045 490.613 385.227 492.461 385.227 494.705V504.11C385.227 504.374 384.996 504.605 384.732 504.605H382.088C381.824 504.605 381.592 504.374 381.592 504.11V488.732C381.692 488.435 381.89 488.237 382.154 488.237Z" fill="white"/>
<path d="M399.834 482H402.477C402.742 482 402.973 482.231 402.973 482.495V504.11C402.973 504.374 402.742 504.605 402.477 504.605H399.834C399.569 504.605 399.338 504.374 399.338 504.11V482.495C399.338 482.231 399.569 482 399.834 482Z" fill="white"/>
<path d="M405.287 488.237H408.195C408.393 488.237 408.591 488.369 408.657 488.567L412.821 500.447H412.887L416.919 488.567C416.985 488.369 417.183 488.237 417.382 488.237H420.091C420.422 488.237 420.653 488.567 420.554 488.897L414.441 505.463C413.284 508.4 412.458 511.074 408.657 511.074C407.963 511.074 407.269 511.041 406.576 510.942C406.344 510.909 406.146 510.711 406.146 510.447V508.433C406.146 508.136 406.41 507.905 406.708 507.938C407.071 508.004 407.435 508.07 407.831 508.07C409.484 508.07 409.946 507.179 410.376 505.793L410.772 504.539L404.824 488.897C404.692 488.567 404.956 488.237 405.287 488.237Z" fill="white"/>
<path d="M354.263 487.775C350.794 487.775 347.39 488.897 346.861 492.659C346.828 492.956 347.059 493.22 347.357 493.22H350C350.232 493.22 350.43 493.055 350.463 492.824C350.794 491.306 352.148 490.613 354.032 490.613C355.453 490.613 357.436 490.943 357.436 492.824C357.436 494.969 355.156 494.639 352.512 495.134C349.472 495.497 346.2 496.157 346.2 500.216C346.2 503.417 348.877 505.001 351.818 505.001C353.9 505.001 355.85 504.44 357.403 502.031V504.077C357.403 504.341 357.634 504.572 357.898 504.572H360.212C360.245 504.572 360.344 504.572 360.344 504.572H360.443C360.641 504.572 360.807 504.407 360.807 504.209V503.054V495.794V492.56C360.807 489.095 357.469 487.775 354.263 487.775ZM357.204 498.005C357.204 501.008 354.726 502.163 353.14 502.163C351.884 502.163 349.802 501.734 349.802 500.084C349.802 498.17 351.19 497.609 352.743 497.378C354.362 497.081 356.081 497.114 357.171 496.388V498.005H357.204Z" fill="white"/>
<path d="M359.195 333C359.609 336.308 359.609 339.72 359.195 343.235C354.33 343.338 348.739 345.923 344.909 349.851C343.045 351.816 340.871 354.814 340.043 358.949C336.316 359.569 332.692 360.81 329.483 362.774C329.483 362.774 329.38 362.774 329.38 362.878C329.38 359.156 330.104 355.537 331.45 352.126C332.796 348.714 334.867 345.613 337.558 342.821C343.252 336.825 351.534 333.103 359.195 333Z" fill="url(#paint0_linear_291_12060)"/>
<path d="M431.25 363.602C431.25 371.769 428.041 379.419 422.243 385.209C417.688 389.757 411.89 392.652 405.679 393.686C404.851 390.378 404.437 386.966 405.679 383.244C414.479 380.97 421.001 373.009 421.001 363.602C421.001 362.878 421.001 362.154 420.897 361.534H431.25C431.25 362.154 431.25 362.878 431.25 363.602Z" fill="url(#paint1_linear_291_12060)"/>
<path d="M368.098 428.939C367.27 429.456 366.442 429.663 365.51 429.663C363.75 429.663 361.99 428.733 361.059 427.079L344.908 399.165L353.915 394.203L369.962 421.909C371.411 424.391 370.48 427.492 368.098 428.939Z" fill="url(#paint2_linear_291_12060)"/>
<path d="M405.68 363.705C405.68 366.496 403.402 368.874 400.503 368.874L345.427 368.77C341.7 368.77 338.284 369.597 335.178 371.251L330.105 362.361C333.107 360.706 336.524 359.569 339.94 358.949C341.7 358.639 343.564 358.535 345.427 358.535L400.503 358.639C403.402 358.639 405.68 360.913 405.68 363.705Z" fill="url(#paint3_linear_291_12060)"/>
<path d="M395.222 432.454C393.048 440.312 387.975 446.928 380.936 451.063C378.037 452.718 374.931 453.958 371.722 454.578C371.204 450.96 371.1 447.342 371.722 444.033C373.171 443.62 374.517 443 375.759 442.276C385.491 436.693 388.907 424.184 383.213 414.466L371.618 394.203H383.42L392.013 409.297C396.257 416.327 397.293 424.597 395.222 432.454Z" fill="url(#paint4_linear_291_12060)"/>
<path d="M347.807 434.625L339.111 440.105C339.007 440.001 339.007 439.898 338.904 439.795L321.408 409.4C324.306 407.539 327.516 406.299 332.278 407.643L347.807 434.625Z" fill="url(#paint5_linear_291_12060)"/>
<path d="M371.618 443.93V454.475C369.651 454.889 367.58 455.095 365.51 455.095C362.818 455.095 360.127 454.785 357.435 454.061C349.567 451.994 343.045 447.031 339.007 440.105C341.285 437.624 344.287 435.866 347.703 434.625C350.395 439.381 354.847 442.689 360.127 444.137C364.061 445.171 367.995 445.067 371.618 443.93Z" fill="url(#paint6_linear_291_12060)"/>
<path d="M327.205 398.958L333.21 409.4H321.408L318.302 404.024C312.919 394.306 312.919 383.037 318.406 373.733C321.097 369.287 324.824 365.462 329.379 362.878C329.379 362.878 329.483 362.878 329.483 362.774C329.69 362.671 330.001 362.464 330.208 362.361C333.21 364.532 334.866 367.53 335.28 371.252C331.968 373.009 329.172 375.594 327.205 378.902C323.582 385.105 323.582 392.445 327.205 398.958Z" fill="url(#paint7_linear_291_12060)"/>
<path d="M404.747 333.31C405.265 336.722 405.161 340.237 404.747 343.752C403.401 343.442 401.952 343.338 400.606 343.338H359.506C359.402 343.338 359.299 343.338 359.195 343.338V333C359.299 333 359.402 333 359.506 333H400.606C402.056 333 403.401 333.103 404.747 333.31Z" fill="url(#paint8_linear_291_12060)"/>
<path d="M431.25 361.43C428.144 362.051 424.935 362.464 420.897 361.43C420.379 356.778 418.412 352.539 414.996 349.128C412.097 346.233 408.577 344.372 404.747 343.545V333.31C411.373 334.241 417.481 337.239 422.243 341.994C427.626 347.267 430.732 354.09 431.25 361.43Z" fill="url(#paint9_linear_291_12060)"/>
<path d="M405.678 383.244V393.686C404.022 393.996 402.366 394.099 400.606 394.099H383.42H371.618H353.915C353.19 390.377 353.087 386.862 353.915 383.864H374.62H400.606C402.366 383.864 404.126 383.658 405.678 383.244Z" fill="url(#paint10_linear_291_12060)"/>
<path d="M353.916 383.968V394.203C351.121 396.891 348.118 398.648 344.909 399.165L340.561 391.618C339.629 390.067 339.629 388.103 340.561 386.449C341.493 384.898 343.149 383.864 345.013 383.864L353.916 383.968Z" fill="url(#paint11_linear_291_12060)"/>
<path d="M40.5 551.5C30.3441 540.461 24.5 507 -25.5867 501C-38.0865 492 -75.0869 505.5 -90.0869 510C-105.087 514.5 -139.587 539.5 -141.087 553.5C-142.587 567.5 -175.587 608.5 -196.087 624.5C-216.587 640.5 -206.587 734 -196.087 769.5C-185.587 805 -48.0867 819 -5.58672 824C36.9133 829 69.9133 808.5 88.4133 790C106.913 771.5 111.913 741.5 111.913 734.5V723.295C111.913 710.18 114.112 697.175 117.072 684.398C121.653 664.627 124.913 642.614 124.913 634C124.913 619.5 120.981 605.443 115.5 598.5C93 570 52 564 40.5 551.5Z" fill="#EF3770"/>
<path d="M344.413 787.5C332.366 785.413 313.713 784.5 296.5 798C279.287 811.5 277.913 824 275.913 835.5C274.034 846.304 280.413 868 280.413 890C281.223 896.155 277.341 912.732 255.825 930.918C254.577 931.973 253.488 933.229 252.935 934.767C249.453 944.454 249.311 964.444 253.913 971.5C298.913 1036 405.068 1028.24 420.913 1022C437.413 1015.5 488.413 986 482.413 935.5C476.413 885 460.413 863 448.913 853C437.413 843 410.413 836.5 397.913 832C385.413 827.5 367.5 791.5 344.413 787.5Z" fill="#C124EB"/>
</g>
<defs>
<linearGradient id="paint0_linear_291_12060" x1="329.369" y1="347.945" x2="359.506" y2="347.945" gradientUnits="userSpaceOnUse">
<stop stop-color="#FFB92E"/>
<stop offset="0.9944" stop-color="#FFAB32"/>
</linearGradient>
<linearGradient id="paint1_linear_291_12060" x1="402.017" y1="389.823" x2="432.857" y2="363.909" gradientUnits="userSpaceOnUse">
<stop stop-color="#FF7641"/>
<stop offset="0.5206" stop-color="#FF833D"/>
<stop offset="1" stop-color="#FF883B"/>
</linearGradient>
<linearGradient id="paint2_linear_291_12060" x1="349.098" y1="396.686" x2="368.346" y2="428.764" gradientUnits="userSpaceOnUse">
<stop stop-color="#FF5D47"/>
<stop offset="1" stop-color="#FF4B4C"/>
</linearGradient>
<linearGradient id="paint3_linear_291_12060" x1="330.199" y1="364.913" x2="405.708" y2="364.913" gradientUnits="userSpaceOnUse">
<stop stop-color="#EE2E7D"/>
<stop offset="0.39" stop-color="#F3336F"/>
<stop offset="0.9944" stop-color="#FE3E51"/>
</linearGradient>
<linearGradient id="paint4_linear_291_12060" x1="383.712" y1="454.53" x2="383.712" y2="394.173" gradientUnits="userSpaceOnUse">
<stop stop-color="#D212C6"/>
<stop offset="0.9944" stop-color="#C301EE"/>
</linearGradient>
<linearGradient id="paint5_linear_291_12060" x1="343.539" y1="437.511" x2="325.84" y2="406.813" gradientUnits="userSpaceOnUse">
<stop stop-color="#DC1DA8"/>
<stop offset="0.9944" stop-color="#E42496"/>
</linearGradient>
<linearGradient id="paint6_linear_291_12060" x1="341.041" y1="436.512" x2="372.072" y2="453.737" gradientUnits="userSpaceOnUse">
<stop stop-color="#DE1FA2"/>
<stop offset="0.3166" stop-color="#DD1EA6"/>
<stop offset="0.6442" stop-color="#D819B3"/>
<stop offset="0.9757" stop-color="#D212C7"/>
<stop offset="1" stop-color="#D111C9"/>
</linearGradient>
<linearGradient id="paint7_linear_291_12060" x1="324.789" y1="409.404" x2="324.789" y2="362.373" gradientUnits="userSpaceOnUse">
<stop stop-color="#E32398"/>
<stop offset="0.9944" stop-color="#EE2E7C"/>
</linearGradient>
<linearGradient id="paint8_linear_291_12060" x1="359.205" y1="338.337" x2="405.105" y2="338.337" gradientUnits="userSpaceOnUse">
<stop stop-color="#FFAB32"/>
<stop offset="0.9944" stop-color="#FF9638"/>
</linearGradient>
<linearGradient id="paint9_linear_291_12060" x1="416.593" y1="332.456" x2="418.7" y2="362.641" gradientUnits="userSpaceOnUse">
<stop stop-color="#FF9638"/>
<stop offset="0.5288" stop-color="#FF9039"/>
<stop offset="0.9944" stop-color="#FF863C"/>
</linearGradient>
<linearGradient id="paint10_linear_291_12060" x1="353.374" y1="388.718" x2="405.706" y2="388.718" gradientUnits="userSpaceOnUse">
<stop stop-color="#FF5C47"/>
<stop offset="0.0528065" stop-color="#FF5E46"/>
<stop offset="0.6159" stop-color="#FF7242"/>
<stop offset="1" stop-color="#FF7940"/>
</linearGradient>
<linearGradient id="paint11_linear_291_12060" x1="339.897" y1="391.56" x2="353.934" y2="391.56" gradientUnits="userSpaceOnUse">
<stop stop-color="#FF5D47"/>
<stop offset="1" stop-color="#FF5C47"/>
</linearGradient>
<clipPath id="clip0_291_12060">
<rect width="720" height="932" fill="white"/>
</clipPath>
</defs>
</svg>