<svg width="200" height="85" viewBox="0 0 200 85" fill="none" xmlns="http://www.w3.org/2000/svg">
<path d="M38.848 22.8252C38.9818 23.9236 38.9818 25.0332 38.848 26.1316C37.0272 26.2372 35.3153 26.9992 34.0558 28.2648C33.2345 29.0748 32.6673 30.09 32.419 31.1945C31.1672 31.3932 29.963 31.8064 28.864 32.4144H28.8327C28.8294 31.2311 29.0654 30.0585 29.5277 28.9614C30 27.8448 30.6926 26.8263 31.5676 25.9616C33.4928 24.0551 36.2729 22.8519 38.848 22.8252Z" fill="url(#paint0_linear_488_14326)"/>
<path d="M63.049 32.6637C63.043 34.9944 62.1772 37.2478 60.6048 39.0249C59.0325 40.802 56.8552 41.988 54.4585 42.3729C54.1071 41.2727 54.1071 40.0967 54.4585 38.9965C55.9235 38.6334 57.2217 37.815 58.1503 36.6692C59.0789 35.5234 59.5857 34.1149 59.5913 32.6637C59.5913 32.4411 59.5797 32.2186 59.5565 31.9971H63.0317C63.0421 32.2171 63.049 32.447 63.049 32.6637Z" fill="url(#paint1_linear_488_14326)"/>
<path d="M41.8193 53.7396C41.4219 53.9566 40.9513 54.0147 40.5096 53.9011C40.0679 53.7875 39.6906 53.5115 39.4597 53.133L34.0559 44.147L37.0758 42.5371L42.4518 51.4831C42.6759 51.8636 42.7352 52.3134 42.6169 52.7354C42.4986 53.1575 42.2122 53.5181 41.8193 53.7396Z" fill="url(#paint2_linear_488_14326)"/>
<path d="M46.9946 42.5264L46.9981 42.5333H43.019L46.9946 42.5264Z" fill="url(#paint3_linear_488_14326)"/>
<path d="M54.459 32.7205C54.459 33.1624 54.2759 33.5863 53.95 33.8989C53.6242 34.2114 53.1822 34.387 52.7214 34.387L34.2477 34.3637C33.0546 34.3586 31.8784 34.6332 30.8212 35.1636L29.1045 32.2938C30.1368 31.758 31.2548 31.3908 32.4128 31.2072C33.0201 31.108 33.6351 31.059 34.2511 31.0606L52.7249 31.0806C53.1803 31.0814 53.6172 31.2537 53.9416 31.5604C54.2659 31.8671 54.4517 32.2837 54.459 32.7205Z" fill="url(#paint4_linear_488_14326)"/>
<path d="M50.9244 54.8724C50.5779 56.128 49.9745 57.305 49.1494 58.335C48.3243 59.365 47.294 60.2273 46.1183 60.8719C45.1553 61.4064 44.1085 61.7879 43.0185 62.0019C42.8169 60.8724 42.8169 59.7183 43.0185 58.5888C43.9981 58.2946 44.8962 57.7932 45.6468 57.1216C46.3973 56.4501 46.9811 55.6254 47.355 54.7086C47.7288 53.7917 47.8833 52.8061 47.8071 51.8243C47.7308 50.8426 47.4256 49.8897 46.9141 49.0362L43.0324 42.54H47.0114L49.9132 47.393C50.5884 48.5138 51.0255 49.7519 51.1991 51.0356C51.3726 52.3194 51.2793 53.6234 50.9244 54.8724Z" fill="url(#paint5_linear_488_14326)"/>
<path d="M35.0121 55.5823L32.0826 57.3288L32.0201 57.2288L26.161 47.4429C26.6769 47.0779 27.2757 46.8356 27.9082 46.7359C28.5408 46.6363 29.189 46.6821 29.7995 46.8696L35.0121 55.5823Z" fill="url(#paint6_linear_488_14326)"/>
<path d="M43.0185 58.5787V61.9951C42.347 62.1257 41.6637 62.1915 40.9786 62.1917C40.0696 62.1931 39.1642 62.0811 38.2854 61.8584C35.6767 61.1903 33.4479 59.5628 32.0823 57.3288C32.9004 56.5295 33.9043 55.9276 35.0118 55.5723C35.7916 56.8678 37.0076 57.8705 38.4601 58.4157C39.9125 58.9608 41.5151 59.0159 43.0046 58.572L43.0185 58.5787Z" fill="url(#paint7_linear_488_14326)"/>
<path d="M28.1207 44.0636L30.1432 47.4433H26.1607L25.1182 45.6935C25.1198 45.688 25.1198 45.6822 25.1182 45.6768C24.2303 44.1948 23.7668 42.5139 23.7748 40.8047C23.7827 39.0954 24.2617 37.4186 25.1633 35.9442C26.0584 34.4919 27.3251 33.2827 28.8435 32.4312H28.8748L29.1215 32.2979C29.6057 32.63 30.0096 33.0582 30.3058 33.5534C30.602 34.0485 30.7836 34.5991 30.8382 35.1676C29.7171 35.7337 28.7822 36.5877 28.138 37.6341C27.5388 38.6073 27.2212 39.7163 27.2181 40.8466C27.2151 41.9769 27.5266 43.0874 28.1207 44.0636Z" fill="url(#paint8_linear_488_14326)"/>
<path d="M54.1458 22.9017C54.2918 24.0139 54.2918 25.1393 54.1458 26.2515C53.6884 26.1612 53.2227 26.1154 52.7558 26.1148L38.9526 26.1315H38.8588V22.8251H38.9491H52.7558C53.2204 22.8191 53.6849 22.8447 54.1458 22.9017Z" fill="url(#paint9_linear_488_14326)"/>
<path d="M63.0247 31.9973C61.8824 32.2595 60.6918 32.2595 59.5496 31.9973C59.3939 30.5001 58.6983 29.102 57.5826 28.0443C56.642 27.138 55.4444 26.5168 54.1388 26.2578V22.9014C56.4851 23.2051 58.6503 24.2759 60.2691 25.9329C61.8879 27.59 62.8612 29.7319 63.0247 31.9973Z" fill="url(#paint10_linear_488_14326)"/>
<path d="M54.459 38.9971V42.3735C53.8939 42.4633 53.322 42.5079 52.7492 42.5068H46.9944H43.0189H37.0799C36.829 41.4189 36.829 40.2916 37.0799 39.2037H44.0301H52.7527C53.3282 39.2027 53.9013 39.1332 54.459 38.9971Z" fill="url(#paint11_linear_488_14326)"/>
<path d="M37.0795 39.2334V42.5365C36.2678 43.3579 35.2123 43.9199 34.0561 44.1463L32.5931 41.7132C32.447 41.4612 32.3715 41.1772 32.3741 40.8889C32.3766 40.6006 32.4571 40.3179 32.6077 40.0683C32.7583 39.8188 32.9738 39.611 33.2331 39.4652C33.4925 39.3195 33.7868 39.2407 34.0874 39.2367L37.0795 39.2334Z" fill="url(#paint12_linear_488_14326)"/>
<path d="M70.7981 31.6007C70.7981 31.4699 70.8523 31.3444 70.9487 31.2519C71.0452 31.1594 71.176 31.1074 71.3124 31.1074H81.293C88.0868 31.1074 89.3865 35.3271 89.3865 38.1702C89.3865 41.0133 88.0868 45.1697 81.293 45.1697H74.9613V53.429C74.9613 53.5598 74.9071 53.6853 74.8106 53.7778C74.7142 53.8703 74.5834 53.9223 74.447 53.9223H71.3194C71.183 53.9223 71.0521 53.8703 70.9557 53.7778C70.8592 53.6853 70.805 53.5598 70.805 53.429L70.7981 31.6007ZM74.9682 41.9066H81.0671C82.9297 41.9066 85.2372 41.0133 85.2372 38.1369C85.2372 35.1371 83.3363 34.3672 81.14 34.3672H74.9613L74.9682 41.9066Z" fill="#160523"/>
<path d="M92.1184 31.1074H94.8985C95.0349 31.1074 95.1658 31.1594 95.2622 31.2519C95.3587 31.3444 95.4129 31.4699 95.4129 31.6007V53.429C95.4129 53.5598 95.3587 53.6853 95.2622 53.7778C95.1658 53.8703 95.0349 53.9223 94.8985 53.9223H92.1184C92.0509 53.9223 91.984 53.9095 91.9216 53.8847C91.8592 53.86 91.8025 53.8236 91.7548 53.7778C91.707 53.732 91.6691 53.6776 91.6433 53.6178C91.6174 53.5579 91.6041 53.4938 91.6041 53.429V31.6007C91.6041 31.5359 91.6174 31.4718 91.6433 31.4119C91.6691 31.3521 91.707 31.2977 91.7548 31.2519C91.8025 31.2061 91.8592 31.1698 91.9216 31.145C91.984 31.1202 92.0509 31.1074 92.1184 31.1074Z" fill="#160523"/>
<path d="M117.281 37.4041H119.85C119.986 37.4041 120.117 37.456 120.213 37.5486C120.31 37.6411 120.364 37.7665 120.364 37.8974V39.8305L120.43 39.8939C120.98 38.9973 121.765 38.2542 122.706 37.7385C123.648 37.2228 124.714 36.9524 125.799 36.9541C129.563 36.9541 131.894 38.8406 131.894 42.5803V53.4295C131.894 53.5603 131.84 53.6858 131.744 53.7783C131.647 53.8708 131.516 53.9228 131.38 53.9228H128.6C128.532 53.9228 128.466 53.91 128.403 53.8852C128.341 53.8604 128.284 53.8241 128.236 53.7783C128.188 53.7325 128.151 53.6781 128.125 53.6183C128.099 53.5584 128.086 53.4943 128.086 53.4295V43.5369C127.988 40.9871 127.015 39.8705 124.819 39.8305C124.258 39.8283 123.703 39.9327 123.184 40.1377C122.666 40.3427 122.195 40.6442 121.799 41.0248C121.403 41.4054 121.089 41.8576 120.876 42.3551C120.663 42.8527 120.555 43.3858 120.559 43.9236V53.4295C120.559 53.4943 120.545 53.5584 120.519 53.6183C120.494 53.6781 120.456 53.7325 120.408 53.7783C120.36 53.8241 120.303 53.8604 120.241 53.8852C120.179 53.91 120.112 53.9228 120.044 53.9228H117.264C117.13 53.9193 117.003 53.8658 116.909 53.7737C116.816 53.6815 116.764 53.558 116.764 53.4295V37.8974C116.764 37.8323 116.777 37.7679 116.803 37.7078C116.829 37.6478 116.867 37.5932 116.916 37.5474C116.964 37.5015 117.021 37.4653 117.084 37.4407C117.146 37.4161 117.214 37.4036 117.281 37.4041Z" fill="#160523"/>
<path d="M135.815 37.4041H138.383C138.519 37.4041 138.65 37.456 138.746 37.5486C138.843 37.6411 138.897 37.7665 138.897 37.8974V39.8305L138.967 39.8939C139.515 38.9976 140.299 38.2546 141.239 37.7388C142.18 37.2231 143.245 36.9525 144.329 36.9541C148.092 36.9541 150.424 38.8406 150.424 42.5803V53.4295C150.424 53.5603 150.37 53.6858 150.273 53.7783C150.177 53.8708 150.046 53.9228 149.91 53.9228H147.13C146.993 53.9228 146.862 53.8708 146.766 53.7783C146.669 53.6858 146.615 53.5603 146.615 53.4295V43.5369C146.518 40.9871 145.545 39.8705 143.349 39.8305C142.788 39.8283 142.232 39.9327 141.714 40.1377C141.195 40.3427 140.725 40.6442 140.328 41.0248C139.932 41.4054 139.619 41.8576 139.406 42.3551C139.193 42.8527 139.085 43.3858 139.088 43.9236V53.4295C139.088 53.5603 139.034 53.6858 138.938 53.7783C138.841 53.8708 138.71 53.9228 138.574 53.9228H135.794C135.726 53.9228 135.659 53.91 135.597 53.8852C135.535 53.8604 135.478 53.8241 135.43 53.7783C135.382 53.7325 135.344 53.6781 135.319 53.6183C135.293 53.5584 135.279 53.4943 135.279 53.4295V37.8974C135.279 37.8309 135.293 37.765 135.32 37.7039C135.348 37.6427 135.387 37.5874 135.437 37.5413C135.487 37.4952 135.547 37.4593 135.611 37.4357C135.676 37.4121 135.745 37.4014 135.815 37.4041Z" fill="#160523"/>
<path d="M154.389 31.1074H157.169C157.237 31.1074 157.303 31.1202 157.365 31.145C157.428 31.1699 157.484 31.2063 157.532 31.2521C157.579 31.298 157.617 31.3524 157.642 31.4122C157.668 31.472 157.68 31.5361 157.68 31.6007V53.429C157.68 53.4936 157.668 53.5577 157.642 53.6175C157.617 53.6774 157.579 53.7318 157.532 53.7776C157.484 53.8235 157.428 53.8599 157.365 53.8847C157.303 53.9095 157.237 53.9223 157.169 53.9223H154.389C154.322 53.9223 154.255 53.9095 154.193 53.8847C154.131 53.8599 154.074 53.8235 154.027 53.7776C153.979 53.7318 153.942 53.6774 153.916 53.6175C153.891 53.5577 153.878 53.4936 153.878 53.429V31.6007C153.878 31.5361 153.891 31.472 153.916 31.4122C153.942 31.3524 153.979 31.298 154.027 31.2521C154.074 31.2063 154.131 31.1699 154.193 31.145C154.255 31.1202 154.322 31.1074 154.389 31.1074Z" fill="#160523"/>
<path d="M160.126 37.4033H163.181C163.288 37.4025 163.392 37.4344 163.479 37.4943C163.566 37.5542 163.63 37.6391 163.664 37.7366L168.042 49.7357H168.108L172.355 37.7366C172.39 37.6394 172.455 37.555 172.543 37.4952C172.63 37.4355 172.734 37.4033 172.841 37.4033H175.698C175.781 37.4031 175.863 37.4222 175.937 37.4591C176.011 37.496 176.074 37.5495 176.122 37.6151C176.169 37.6807 176.2 37.7563 176.21 37.8355C176.22 37.9148 176.21 37.9952 176.181 38.07L169.742 54.8186C168.508 57.7917 167.657 60.4849 163.643 60.4849C162.914 60.4855 162.187 60.442 161.464 60.3549C161.339 60.3402 161.224 60.2823 161.141 60.192C161.058 60.1018 161.012 59.9854 161.012 59.8649V57.8117C161.012 57.7395 161.028 57.6682 161.06 57.6027C161.092 57.5372 161.138 57.4793 161.196 57.4328C161.254 57.3864 161.321 57.3527 161.394 57.3341C161.467 57.3155 161.543 57.3124 161.617 57.3251C162.01 57.4018 162.411 57.4442 162.812 57.4518C164.55 57.4518 165.043 56.5552 165.478 55.1486L165.909 53.872L159.653 38.0833C159.621 38.0087 159.608 37.9274 159.616 37.8469C159.624 37.7663 159.652 37.6889 159.699 37.6215C159.746 37.5542 159.809 37.499 159.884 37.4609C159.958 37.4228 160.042 37.4031 160.126 37.4033Z" fill="#160523"/>
<path d="M106.461 36.957C102.805 36.957 99.2394 38.0903 98.6903 41.89C98.6804 41.96 98.6862 42.0312 98.7073 42.099C98.7285 42.1667 98.7644 42.2293 98.8127 42.2826C98.8611 42.3359 98.9208 42.3787 98.9877 42.4081C99.0547 42.4376 99.1275 42.453 99.2012 42.4533H101.981C102.099 42.4527 102.212 42.4138 102.303 42.3428C102.394 42.2719 102.457 42.1733 102.482 42.0633C102.829 40.5401 104.247 39.8301 106.221 39.8301C107.719 39.8301 109.783 40.1634 109.783 42.0666C109.783 44.2398 107.385 43.8898 104.619 44.3998C101.422 44.7331 97.9918 45.423 97.9918 49.546C97.9918 52.7725 100.789 54.369 103.9 54.369C106.082 54.369 108.153 53.8057 109.766 51.3692V53.4324C109.766 53.5612 109.82 53.6845 109.915 53.7755C110.01 53.8666 110.139 53.9182 110.273 53.919H112.963C113.015 53.9195 113.067 53.9099 113.116 53.8908C113.165 53.8717 113.209 53.8434 113.246 53.8078C113.283 53.7721 113.313 53.7297 113.333 53.6829C113.353 53.6362 113.363 53.5862 113.362 53.5357V41.75C113.359 38.2669 109.814 36.957 106.461 36.957ZM109.56 47.2896C109.577 47.8363 109.479 48.3807 109.272 48.8905C109.066 49.4002 108.754 49.8649 108.356 50.257C107.959 50.649 107.483 50.9604 106.957 51.1726C106.432 51.3849 105.867 51.4937 105.297 51.4926C103.962 51.4926 101.797 51.0459 101.797 49.3861C101.797 47.4695 103.264 46.8929 104.897 46.6363C106.596 46.3496 108.396 46.383 109.56 45.6364V47.2896Z" fill="#160523"/>
<defs>
<linearGradient id="paint0_linear_488_14326" x1="28.8327" y1="27.6282" x2="38.9487" y2="27.6282" gradientUnits="userSpaceOnUse">
<stop stop-color="#FFB92E"/>
<stop offset="0.99" stop-color="#FFAB32"/>
</linearGradient>
<linearGradient id="paint1_linear_488_14326" x1="53.2179" y1="41.1297" x2="63.2208" y2="32.3758" gradientUnits="userSpaceOnUse">
<stop stop-color="#FF7641"/>
<stop offset="0.52" stop-color="#FF833D"/>
<stop offset="1" stop-color="#FF883B"/>
</linearGradient>
<linearGradient id="paint2_linear_488_14326" x1="35.4564" y1="43.3437" x2="41.5414" y2="53.9005" gradientUnits="userSpaceOnUse">
<stop stop-color="#FF5D47"/>
<stop offset="1" stop-color="#FF4B4C"/>
</linearGradient>
<linearGradient id="paint3_linear_488_14326" x1="43.019" y1="42.5298" x2="46.9981" y2="42.5298" gradientUnits="userSpaceOnUse">
<stop stop-color="#EE2E7D"/>
<stop offset="0.39" stop-color="#F3336F"/>
<stop offset="0.99" stop-color="#FE3E51"/>
</linearGradient>
<linearGradient id="paint4_linear_488_14326" x1="2153.05" y1="438.493" x2="4002.4" y2="438.493" gradientUnits="userSpaceOnUse">
<stop stop-color="#EE2E7D"/>
<stop offset="0.39" stop-color="#F3336F"/>
<stop offset="0.99" stop-color="#FE3E51"/>
</linearGradient>
<linearGradient id="paint5_linear_488_14326" x1="47.074" y1="61.9919" x2="47.074" y2="42.5334" gradientUnits="userSpaceOnUse">
<stop stop-color="#D212C6"/>
<stop offset="0.99" stop-color="#C301EE"/>
</linearGradient>
<linearGradient id="paint6_linear_488_14326" x1="33.5908" y1="56.5055" x2="27.9995" y2="46.4108" gradientUnits="userSpaceOnUse">
<stop stop-color="#DC1DA8"/>
<stop offset="0.99" stop-color="#E42496"/>
</linearGradient>
<linearGradient id="paint7_linear_488_14326" x1="32.7495" y1="56.1822" x2="42.966" y2="62.0834" gradientUnits="userSpaceOnUse">
<stop stop-color="#DE1FA2"/>
<stop offset="0.32" stop-color="#DD1EA6"/>
<stop offset="0.64" stop-color="#D819B3"/>
<stop offset="0.98" stop-color="#D212C7"/>
<stop offset="1" stop-color="#D111C9"/>
</linearGradient>
<linearGradient id="paint8_linear_488_14326" x1="27.2936" y1="47.4433" x2="27.2936" y2="32.2812" gradientUnits="userSpaceOnUse">
<stop stop-color="#E32398"/>
<stop offset="0.99" stop-color="#EE2E7C"/>
</linearGradient>
<linearGradient id="paint9_linear_488_14326" x1="38.8483" y1="24.5316" x2="54.2535" y2="24.5316" gradientUnits="userSpaceOnUse">
<stop stop-color="#FFAB32"/>
<stop offset="0.99" stop-color="#FF9638"/>
</linearGradient>
<linearGradient id="paint10_linear_488_14326" x1="58.1109" y1="22.6347" x2="58.7633" y2="32.3677" gradientUnits="userSpaceOnUse">
<stop stop-color="#FF9638"/>
<stop offset="0.53" stop-color="#FF9039"/>
<stop offset="0.99" stop-color="#FF863C"/>
</linearGradient>
<linearGradient id="paint11_linear_488_14326" x1="36.8923" y1="40.7736" x2="54.459" y2="40.7736" gradientUnits="userSpaceOnUse">
<stop stop-color="#FF5C47"/>
<stop offset="0.05" stop-color="#FF5E46"/>
<stop offset="0.62" stop-color="#FF7242"/>
<stop offset="1" stop-color="#FF7940"/>
</linearGradient>
<linearGradient id="paint12_linear_488_14326" x1="32.3672" y1="41.6899" x2="37.0795" y2="41.6899" gradientUnits="userSpaceOnUse">
<stop stop-color="#FF5D47"/>
<stop offset="1" stop-color="#FF5C47"/>
</linearGradient>
</defs>
</svg>
