<svg width="199" height="53" viewBox="0 0 199 53" fill="none" xmlns="http://www.w3.org/2000/svg">
<g clip-path="url(#clip0_121_5141)">
<path d="M15.078 13.9947C15.8545 14.9733 16.507 16.0397 17.0224 17.1723C15.3082 18.322 14.0862 20.0398 13.6017 21.9811C13.2768 23.2324 13.3205 24.5346 13.7278 25.739C12.6235 26.6505 11.6916 27.7409 10.977 28.958L10.9465 28.976C10.2474 27.8407 9.78802 26.5778 9.59387 25.2573C9.39802 23.9124 9.47475 22.5348 9.81985 21.2001C10.5769 18.2596 12.5815 15.5028 15.078 13.9947Z" fill="#5F369D"/>
<path d="M44.4741 9.51823C45.8389 11.7616 46.3194 14.4257 45.8305 17.0387C45.3417 19.6517 43.915 22.045 41.8032 23.7946C40.8133 22.9396 40.1218 21.8094 39.8176 20.5497C41.0332 19.3574 41.8185 17.8235 42.0506 16.1878C42.2828 14.5521 41.9488 12.9067 41.1008 11.5088C40.97 11.2948 40.8278 11.0877 40.6749 10.8882L44.0652 8.88759C44.2047 9.093 44.3467 9.31002 44.4741 9.51823Z" fill="#5F369D"/>
<path d="M36.1565 41.9938C35.8965 42.4312 35.4715 42.7579 34.9738 42.9031C34.4761 43.0482 33.9458 43.0001 33.4978 42.7692L22.9416 37.2443L24.941 33.9586L35.4466 39.4612C35.889 39.6978 36.2114 40.0959 36.3442 40.5697C36.477 41.0434 36.4096 41.5548 36.1565 41.9938Z" fill="#5F369D"/>
<path d="M34.6116 28.2388L34.6191 28.2434L30.7372 30.5341L34.6116 28.2388Z" fill="#5F369D"/>
<path d="M36.1271 14.5179C36.387 14.9427 36.4577 15.4555 36.3236 15.9434C36.1895 16.4314 35.8616 16.8545 35.412 17.1198L17.3757 27.7324C16.2088 28.4144 15.2228 29.3555 14.5034 30.4738L11.1409 28.7041C11.8329 27.5949 12.7077 26.5984 13.7295 25.7553C14.2636 25.3104 14.8347 24.9092 15.4367 24.5561L33.471 13.9402C33.9158 13.6788 34.4434 13.5929 34.9401 13.7009C35.4369 13.809 35.8631 14.1024 36.1271 14.5179Z" fill="#5F369D"/>
<path d="M45.7057 37.8412C46.106 39.2474 46.2095 40.7259 46.0103 42.1907C45.8111 43.6555 45.313 45.0775 44.5452 46.3738C43.9199 47.4418 43.1231 48.4111 42.1855 49.2442C41.3246 48.2748 40.6459 47.1656 40.1784 45.9641C40.961 45.1175 41.5424 44.1185 41.8797 43.0411C42.2169 41.9636 42.3015 40.835 42.1271 39.7387C41.9527 38.6423 41.5237 37.6061 40.872 36.7065C40.2202 35.8069 39.3622 35.0669 38.3612 34.5411L30.7541 30.5327L34.6359 28.242L40.3207 31.2354C41.6386 31.9238 42.7931 32.862 43.7173 33.9958C44.6416 35.1297 45.3174 36.4366 45.7057 37.8412Z" fill="#5F369D"/>
<path d="M30.5996 47.6841L28.7687 51.049L28.6489 50.9889L17.1781 44.9573C17.4666 44.3095 17.9084 43.7319 18.4668 43.272C19.0253 42.8121 19.6846 42.4829 20.3905 42.3117L30.5996 47.6841Z" fill="#5F369D"/>
<path d="M40.1725 45.9544L42.1816 49.2377C41.6034 49.7497 40.9754 50.2064 40.3072 50.601C39.4212 51.1257 38.4721 51.5392 37.4837 51.8312C34.5459 52.6908 31.4147 52.4098 28.7687 51.049C29.0968 49.8099 29.7219 48.6535 30.5934 47.6744C32.116 48.4706 33.892 48.7342 35.6295 48.422C37.3671 48.1097 38.963 47.2401 40.155 45.956L40.1725 45.9544Z" fill="#5F369D"/>
<path d="M17.1023 40.581L21.063 42.6647L17.1781 44.9573L15.1317 43.8759C15.1301 43.8697 15.1267 43.8641 15.1219 43.8598C13.3841 42.9467 11.9435 41.5981 10.9461 39.9509C9.94867 38.3037 9.42992 36.4164 9.44244 34.4805C9.46156 32.5695 9.98622 30.6782 10.9668 28.9857L10.9973 28.9677L11.1596 28.6975C11.8272 28.7379 12.4731 28.9169 13.0533 29.2223C13.6335 29.5277 14.1344 29.9523 14.522 30.4672C13.7612 31.6566 13.3514 33.0155 13.3383 34.392C13.3259 35.6723 13.6683 36.9209 14.33 38.0089C14.9917 39.0969 15.9488 39.9848 17.1023 40.581Z" fill="#5F369D"/>
<path d="M30.0471 5.26151C30.8436 6.24635 31.5054 7.32785 32.017 8.48073C31.5178 8.65733 31.0365 8.88143 30.5806 9.14963L17.1243 17.1119L17.0328 17.1659L15.0883 13.9884L28.6459 5.98807C29.0958 5.71485 29.564 5.47206 30.0471 5.26151Z" fill="#5F369D"/>
<path d="M44.0584 8.89174C43.0982 9.80131 41.9367 10.4867 40.6681 10.8923C39.6358 9.54307 38.135 8.59992 36.4246 8.22563C34.9739 7.89621 33.4403 7.98858 32.0142 8.49128L30.0404 5.26566C32.508 4.20684 35.2501 3.98937 37.8038 4.64996C40.3576 5.31055 42.5667 6.80874 44.0584 8.89174Z" fill="#5F369D"/>
<path d="M39.8176 20.5497L41.8032 23.7946C41.3048 24.2063 40.7735 24.5783 40.214 24.9069L24.9274 33.9275C24.0429 33.0265 23.3799 31.9431 22.9849 30.7531L38.275 21.7306C38.8358 21.3982 39.3536 21.0017 39.8176 20.5497Z" fill="#5F369D"/>
<path d="M23.0022 30.7821L24.9447 33.9565C24.6358 35.2132 23.9363 36.3611 22.9416 37.2443L20.0837 35.7481C19.793 35.59 19.5524 35.3605 19.3853 35.082C19.2183 34.8034 19.1305 34.4854 19.1307 34.1589C19.1308 33.8324 19.2188 33.5086 19.3862 33.2192C19.5535 32.9298 19.7943 32.6847 20.0852 32.5078L23.0022 30.7821Z" fill="#5F369D"/>
<path d="M55.2854 14.3824C55.2854 14.207 55.3591 14.0387 55.4903 13.9146C55.6214 13.7905 55.7994 13.7208 55.9849 13.7208H69.5584C78.798 13.7208 80.5656 19.3801 80.5656 23.1933C80.5656 27.0064 78.798 32.5808 69.5584 32.5808H60.9473V43.658C60.9473 43.8335 60.8736 44.0017 60.7425 44.1258C60.6113 44.2499 60.4334 44.3196 60.2479 44.3196H55.9943C55.8088 44.3196 55.6309 44.2499 55.4997 44.1258C55.3686 44.0017 55.2949 43.8335 55.2949 43.658L55.2854 14.3824ZM60.9568 28.2044H69.2512C71.7844 28.2044 74.9226 27.0064 74.9226 23.1486C74.9226 19.1253 72.3374 18.0927 69.3505 18.0927H60.9473L60.9568 28.2044Z" fill="#FEFDFD"/>
<path d="M84.2811 13.7209H88.0621C88.2476 13.7209 88.4255 13.7906 88.5567 13.9146C88.6878 14.0387 88.7615 14.207 88.7615 14.3824V43.658C88.7615 43.8335 88.6878 44.0018 88.5567 44.1258C88.4255 44.2499 88.2476 44.3196 88.0621 44.3196H84.2811C84.1893 44.3196 84.0983 44.3025 84.0135 44.2693C83.9286 44.236 83.8515 44.1873 83.7865 44.1258C83.7216 44.0644 83.6701 43.9915 83.6349 43.9112C83.5997 43.8309 83.5817 43.7449 83.5817 43.658V14.3824C83.5817 14.2956 83.5997 14.2095 83.6349 14.1293C83.6701 14.049 83.7216 13.9761 83.7865 13.9146C83.8515 13.8532 83.9286 13.8045 84.0135 13.7712C84.0983 13.738 84.1893 13.7209 84.2811 13.7209V13.7209Z" fill="#FEFDFD"/>
<path d="M118.503 22.165H121.996C122.181 22.165 122.359 22.2347 122.49 22.3588C122.621 22.4829 122.695 22.6512 122.695 22.8266V25.4194L122.785 25.5043C123.533 24.3018 124.6 23.3052 125.881 22.6136C127.162 21.9219 128.612 21.5593 130.087 21.5616C135.205 21.5616 138.376 24.0917 138.376 29.1073V43.6579C138.376 43.8334 138.303 44.0017 138.172 44.1258C138.04 44.2498 137.862 44.3195 137.677 44.3195H133.896C133.804 44.3195 133.713 44.3024 133.628 44.2692C133.543 44.2359 133.466 44.1872 133.401 44.1258C133.336 44.0643 133.285 43.9914 133.25 43.9111C133.215 43.8309 133.197 43.7448 133.197 43.6579V30.3903C133.064 26.9705 131.741 25.473 128.754 25.4194C127.991 25.4164 127.236 25.5564 126.531 25.8314C125.826 26.1063 125.185 26.5107 124.646 27.0211C124.108 27.5316 123.681 28.138 123.392 28.8053C123.102 29.4726 122.955 30.1875 122.96 30.9088V43.6579C122.96 43.7448 122.942 43.8309 122.906 43.9111C122.871 43.9914 122.82 44.0643 122.755 44.1258C122.69 44.1872 122.613 44.2359 122.528 44.2692C122.443 44.3024 122.352 44.3195 122.26 44.3195H118.479C118.297 44.3149 118.124 44.2431 117.997 44.1196C117.87 43.996 117.799 43.8304 117.799 43.6579V22.8266C117.799 22.7394 117.817 22.653 117.852 22.5724C117.888 22.4919 117.94 22.4187 118.005 22.3572C118.071 22.2957 118.148 22.2471 118.234 22.2141C118.319 22.1811 118.411 22.1645 118.503 22.165V22.165Z" fill="#FEFDFD"/>
<path d="M143.708 22.1651H147.2C147.386 22.1651 147.564 22.2348 147.695 22.3589C147.826 22.4829 147.9 22.6512 147.9 22.8267V25.4194L147.994 25.5043C148.74 24.3022 149.806 23.3058 151.085 22.6141C152.365 21.9224 153.813 21.5595 155.287 21.5616C160.405 21.5616 163.577 24.0917 163.577 29.1074V43.658C163.577 43.8334 163.503 44.0017 163.372 44.1258C163.241 44.2499 163.063 44.3196 162.877 44.3196H159.096C158.911 44.3196 158.733 44.2499 158.602 44.1258C158.47 44.0017 158.397 43.8334 158.397 43.658V30.3903C158.264 26.9706 156.941 25.4731 153.954 25.4194C153.192 25.4164 152.436 25.5565 151.731 25.8314C151.026 26.1063 150.385 26.5107 149.847 27.0212C149.308 27.5316 148.881 28.138 148.592 28.8053C148.302 29.4726 148.155 30.1876 148.16 30.9089V43.658C148.16 43.8334 148.086 44.0017 147.955 44.1258C147.824 44.2499 147.646 44.3196 147.46 44.3196H143.679C143.588 44.3196 143.497 44.3025 143.412 44.2692C143.327 44.236 143.25 44.1872 143.185 44.1258C143.12 44.0644 143.068 43.9914 143.033 43.9112C142.998 43.8309 142.98 43.7449 142.98 43.658V22.8267C142.98 22.7375 142.999 22.6492 143.036 22.5671C143.073 22.4851 143.127 22.4109 143.195 22.3491C143.263 22.2873 143.343 22.2391 143.431 22.2075C143.52 22.1759 143.614 22.1615 143.708 22.1651V22.1651Z" fill="#FEFDFD"/>
<path d="M168.969 13.7209H172.75C172.842 13.7209 172.932 13.738 173.017 13.7713C173.102 13.8046 173.178 13.8534 173.243 13.9149C173.308 13.9764 173.359 14.0494 173.393 14.1296C173.428 14.2098 173.445 14.2958 173.445 14.3824V43.658C173.445 43.7447 173.428 43.8306 173.393 43.9109C173.359 43.9911 173.308 44.0641 173.243 44.1256C173.178 44.1871 173.102 44.2359 173.017 44.2692C172.932 44.3025 172.842 44.3196 172.75 44.3196H168.969C168.878 44.3196 168.787 44.3025 168.702 44.2692C168.618 44.2359 168.541 44.1871 168.476 44.1256C168.412 44.0641 168.361 43.9911 168.326 43.9109C168.291 43.8306 168.274 43.7447 168.274 43.658V14.3824C168.274 14.2958 168.291 14.2098 168.326 14.1296C168.361 14.0494 168.412 13.9764 168.476 13.9149C168.541 13.8534 168.618 13.8046 168.702 13.7713C168.787 13.738 168.878 13.7209 168.969 13.7209V13.7209Z" fill="#FEFDFD"/>
<path d="M176.771 22.1651H180.926C181.071 22.164 181.213 22.2067 181.331 22.2871C181.45 22.3674 181.538 22.4813 181.583 22.6121L187.538 38.7049H187.627L193.403 22.6121C193.45 22.4816 193.539 22.3684 193.658 22.2883C193.777 22.2081 193.919 22.1651 194.064 22.1651H197.949C198.063 22.1647 198.174 22.1904 198.275 22.2399C198.375 22.2894 198.461 22.3611 198.526 22.4491C198.59 22.537 198.632 22.6385 198.646 22.7447C198.66 22.851 198.646 22.9589 198.606 23.0591L189.849 45.5221C188.171 49.5095 187.013 53.1215 181.554 53.1215C180.564 53.1223 179.574 53.064 178.591 52.9471C178.421 52.9275 178.265 52.8498 178.152 52.7287C178.039 52.6077 177.977 52.4516 177.977 52.29V49.5363C177.976 49.4395 177.999 49.3438 178.042 49.256C178.085 49.1682 178.148 49.0904 178.226 49.0282C178.305 48.9659 178.397 48.9207 178.496 48.8957C178.595 48.8708 178.698 48.8667 178.799 48.8837C179.334 48.9865 179.879 49.0434 180.425 49.0535C182.788 49.0535 183.459 47.851 184.05 45.9646L184.636 44.2525L176.129 23.077C176.084 22.9769 176.067 22.868 176.077 22.7599C176.088 22.6518 176.127 22.548 176.191 22.4577C176.255 22.3673 176.341 22.2933 176.442 22.2423C176.544 22.1912 176.657 22.1647 176.771 22.1651V22.1651Z" fill="#FEFDFD"/>
<path d="M103.786 21.5659C98.8145 21.5659 93.9655 23.0858 93.2187 28.1819C93.2053 28.2758 93.2132 28.3713 93.2419 28.4621C93.2706 28.5529 93.3195 28.6369 93.3852 28.7084C93.451 28.7799 93.5321 28.8373 93.6232 28.8768C93.7143 28.9163 93.8133 28.9369 93.9135 28.9373H97.6944C97.8539 28.9366 98.0083 28.8844 98.1321 28.7892C98.2559 28.6941 98.3416 28.5618 98.375 28.4143C98.8476 26.3714 100.776 25.4193 103.46 25.4193C105.497 25.4193 108.305 25.8663 108.305 28.4188C108.305 31.3334 105.044 30.864 101.282 31.548C96.9335 31.995 92.2688 32.9203 92.2688 38.45C92.2688 42.7772 96.0734 44.9184 100.303 44.9184C103.271 44.9184 106.088 44.163 108.281 40.8952V43.6623C108.282 43.835 108.355 44.0004 108.485 44.1225C108.614 44.2446 108.788 44.3138 108.971 44.315H112.629C112.701 44.3156 112.772 44.3027 112.838 44.277C112.904 44.2514 112.964 44.2136 113.015 44.1657C113.065 44.1179 113.105 44.061 113.133 43.9983C113.16 43.9357 113.173 43.8686 113.173 43.8009V27.9941C113.168 23.3227 108.347 21.5659 103.786 21.5659ZM108.002 35.4237C108.025 36.157 107.892 36.8871 107.61 37.5708C107.329 38.2545 106.905 38.8777 106.365 39.4035C105.824 39.9293 105.177 40.3469 104.462 40.6316C103.747 40.9162 102.979 41.0621 102.203 41.0606C100.388 41.0606 97.4439 40.4616 97.4439 38.2354C97.4439 35.665 99.4384 34.8917 101.66 34.5475C103.971 34.163 106.419 34.2078 108.002 33.2064V35.4237Z" fill="#FEFDFD"/>
</g>
<defs>
<clipPath id="clip0_121_5141">
<rect width="199" height="53" fill="white"/>
</clipPath>
</defs>
</svg>
