<svg width="32" height="42" viewBox="0 0 32 42" fill="none" xmlns="http://www.w3.org/2000/svg">
<path d="M6.06315 7.25246C6.6598 8.14934 7.15 9.11264 7.52382 10.1229C6.05436 10.9861 4.9656 12.373 4.47592 14.0053C4.14987 15.0565 4.1261 16.1783 4.40732 17.2423C3.45278 17.9452 2.63262 18.8142 1.98608 19.8077L1.96004 19.821C1.43453 18.7951 1.11301 17.677 1.0133 16.5287C0.913306 15.3593 1.04007 14.1815 1.38663 13.0601C2.14744 10.5892 3.93077 8.3667 6.06315 7.25246Z" fill="#5F369D"/>
<path d="M30.5611 5.5399C31.5857 7.56585 31.8603 9.88906 31.3361 12.098C30.812 14.307 29.523 16.2592 27.6974 17.6089C26.9187 16.8026 26.3992 15.7817 26.2058 14.6777C27.2652 13.7417 27.9846 12.4811 28.2517 11.0929C28.5187 9.70477 28.3184 8.26725 27.682 7.005C27.5837 6.81171 27.4757 6.62348 27.3586 6.441L30.2522 4.96854C30.358 5.1551 30.4654 5.35182 30.5611 5.5399Z" fill="#5F369D"/>
<path d="M22.1942 32.8316C21.9592 33.1884 21.593 33.4382 21.175 33.5268C20.7571 33.6153 20.321 33.5356 19.9615 33.3047L11.4922 27.7933L13.2955 25.1161L21.724 30.6046C22.0788 30.84 22.3268 31.2054 22.4148 31.6219C22.5027 32.0384 22.4235 32.4729 22.1942 32.8316Z" fill="#5F369D"/>
<path d="M21.5501 20.9045L21.5559 20.9089L18.2428 22.5948L21.5501 20.9045Z" fill="#5F369D"/>
<path d="M23.4334 9.22881C23.6286 9.61252 23.6635 10.0581 23.5302 10.4675C23.397 10.8769 23.1065 11.2166 22.7228 11.4118L7.33012 19.2192C6.33447 19.7203 5.47635 20.4571 4.83042 21.3655L2.1332 19.6015C2.75603 18.6989 3.52477 17.9064 4.40789 17.2564C4.86972 16.9129 5.36016 16.6097 5.87381 16.3501L21.265 8.53991C21.6446 8.34764 22.0845 8.3121 22.4901 8.44094C22.8956 8.56979 23.2344 8.85271 23.4334 9.22881Z" fill="#5F369D"/>
<path d="M30.2763 29.9574C30.5424 31.1943 30.56 32.4718 30.328 33.7155C30.096 34.9593 29.619 36.1445 28.9249 37.2023C28.3591 38.0743 27.656 38.8491 26.8429 39.4966C26.1761 38.6015 25.6662 37.5996 25.3351 36.5336C26.0208 35.8631 26.5472 35.0473 26.8754 34.1463C27.2037 33.2452 27.3255 32.282 27.2318 31.3276C27.1381 30.3732 26.8313 29.452 26.334 28.6321C25.8368 27.8121 25.1618 27.1142 24.3588 26.5899L18.2568 22.595L21.57 20.909L26.1301 23.8926C27.1875 24.5796 28.0984 25.4692 28.81 26.5101C29.5217 27.5511 30.02 28.7227 30.2763 29.9574Z" fill="#5F369D"/>
<path d="M17.3404 37.316L15.6726 40.0735L15.5764 40.0132L6.37465 34.0002C6.64291 33.4647 7.0345 33.0006 7.51717 32.6461C7.99984 32.2915 8.55981 32.0567 9.15098 31.9608L17.3404 37.316Z" fill="#5F369D"/>
<path d="M25.3307 36.5249L26.84 39.4908C26.3386 39.8886 25.7987 40.2354 25.2283 40.5258C24.4721 40.9122 23.6687 41.1985 22.8386 41.3776C20.3713 41.9029 17.7967 41.4343 15.6726 40.0735C16.0008 39.033 16.5706 38.0851 17.3357 37.3074C18.5574 38.1017 20.0129 38.457 21.4631 38.3148C22.9133 38.1726 24.2721 37.5414 25.3162 36.525L25.3307 36.5249Z" fill="#5F369D"/>
<path d="M6.51336 30.2357L9.69051 32.3128L6.37465 34.0002L4.73332 32.9229C4.73229 32.9175 4.72973 32.9124 4.72596 32.9084C3.33195 31.998 2.20349 30.7351 1.455 29.2479C0.706516 27.7607 0.364628 26.1019 0.46401 24.44C0.567688 22.7999 1.08823 21.2134 1.97637 19.8308L2.00241 19.8175L2.14896 19.5972C2.69882 19.6804 3.22433 19.881 3.68975 20.1854C4.15517 20.4898 4.54958 20.8908 4.84618 21.3612C4.16278 22.3277 3.76161 23.4652 3.68747 24.6466C3.61841 25.7454 3.84391 26.8427 4.34069 27.8253C4.83746 28.8078 5.58751 29.6399 6.51336 30.2357Z" fill="#5F369D"/>
<path d="M18.8348 0.836972C19.4477 1.74068 19.9448 2.71765 20.3146 3.74504C19.8939 3.86052 19.4859 4.01809 19.0968 4.21539L7.61081 10.0784L7.53268 10.1182L6.07201 7.24775L17.6435 1.3594C18.0278 1.15735 18.4259 0.982771 18.8348 0.836972Z" fill="#5F369D"/>
<path d="M30.2463 4.97161C29.4111 5.68324 28.4197 6.18773 27.3527 6.44407C26.5618 5.21024 25.3649 4.29124 23.9686 3.84567C22.785 3.45747 21.5134 3.42556 20.3118 3.7539L18.8291 0.840044C20.9169 0.109581 23.1929 0.12171 25.2728 0.874385C27.3528 1.62706 29.1094 3.0742 30.2463 4.97161Z" fill="#5F369D"/>
<path d="M26.2058 14.6777L27.6974 17.6089C27.2666 17.9263 26.8104 18.2073 26.333 18.449L13.2857 25.0883C12.5962 24.2502 12.0982 23.2715 11.8265 22.2207L24.8767 15.58C25.3554 15.3352 25.8016 15.0322 26.2058 14.6777Z" fill="#5F369D"/>
<path d="M11.8395 22.2469L13.2987 25.1145C12.9857 26.1715 12.3548 27.1068 11.4922 27.7933L9.19936 26.3007C8.96638 26.1439 8.77807 25.9293 8.65284 25.6779C8.5276 25.4266 8.46972 25.147 8.48486 24.8666C8.5 24.5861 8.58763 24.3144 8.73919 24.078C8.89076 23.8415 9.10107 23.6485 9.34958 23.5176L11.8395 22.2469Z" fill="#5F369D"/>
</svg>
