<svg width="177" height="51" viewBox="0 0 177 51" fill="none" xmlns="http://www.w3.org/2000/svg">
<g clip-path="url(#clip0_2855_7426)">
<path d="M12.861 0C12.9795 0.948349 12.9795 1.92633 12.861 2.93395C11.4682 2.96359 9.86803 3.70449 8.77161 4.83065C8.23822 5.39373 7.61592 6.25318 7.37886 7.43861C6.31207 7.61643 5.27492 7.97206 4.35629 8.53514C4.35629 8.53514 4.32666 8.53514 4.32666 8.56478C4.32666 7.49788 4.53409 6.46063 4.91932 5.48264C5.30455 4.50466 5.89721 3.61558 6.66767 2.81541C8.29748 1.09653 10.6681 0.0296359 12.861 0Z" fill="url(#paint0_linear_2855_7426)"/>
<path d="M33.4857 8.77216C33.4857 11.1134 32.5671 13.3065 30.9076 14.9661C29.6038 16.27 27.9443 17.0999 26.1663 17.3962C25.9293 16.4479 25.8107 15.4699 26.1663 14.403C28.6851 13.751 30.552 11.469 30.552 8.77216C30.552 8.56471 30.552 8.35726 30.5224 8.17944H33.4857C33.4857 8.35726 33.4857 8.56471 33.4857 8.77216Z" fill="url(#paint1_linear_2855_7426)"/>
<path d="M15.4093 27.5021C15.1722 27.6503 14.9352 27.7096 14.6685 27.7096C14.1647 27.7096 13.6609 27.4428 13.3942 26.9687L8.77148 18.967L11.3496 17.5444L15.9427 25.4869C16.3575 26.1981 16.0908 27.0872 15.4093 27.5021Z" fill="url(#paint2_linear_2855_7426)"/>
<path d="M26.1663 8.80186C26.1663 9.60203 25.5143 10.2837 24.6846 10.2837L8.91986 10.254C7.85308 10.254 6.87519 10.4911 5.9862 10.9653L4.53418 8.4166C5.39354 7.94242 6.37143 7.61643 7.34931 7.43861C7.85308 7.3497 8.38647 7.32007 8.91986 7.32007L24.6846 7.3497C25.5143 7.3497 26.1663 8.00169 26.1663 8.80186Z" fill="url(#paint3_linear_2855_7426)"/>
<path d="M23.1734 28.5097C22.5511 30.7621 21.0991 32.6588 19.084 33.8442C18.2543 34.3184 17.3653 34.674 16.4467 34.8518C16.2985 33.8146 16.2689 32.7773 16.4467 31.8289C16.8616 31.7104 17.2468 31.5326 17.6024 31.3251C20.3879 29.7248 21.3658 26.1389 19.736 23.3531L16.4171 17.5444H19.7952L22.2548 21.8713C23.4697 23.8865 23.7661 26.2574 23.1734 28.5097Z" fill="url(#paint4_linear_2855_7426)"/>
<path d="M9.60134 29.1321L7.11216 30.7028C7.08253 30.6731 7.08253 30.6435 7.0529 30.6139L2.04492 21.9009C2.87465 21.3675 3.79327 21.0118 5.15639 21.3971L9.60134 29.1321Z" fill="url(#paint5_linear_2855_7426)"/>
<path d="M16.4169 31.7993V34.8222C15.8539 34.9407 15.2612 35 14.6686 35C13.8981 35 13.1277 34.9111 12.3572 34.7036C10.1051 34.1109 8.23821 32.6884 7.08252 30.7028C7.73445 29.9915 8.5938 29.4877 9.57169 29.1321C10.3421 30.4953 11.6164 31.4437 13.1277 31.8586C14.2537 32.1549 15.3798 32.1253 16.4169 31.7993Z" fill="url(#paint6_linear_2855_7426)"/>
<path d="M3.70435 18.9076L5.42307 21.9008H2.04491L1.15592 20.3598C-0.385 17.574 -0.385001 14.3437 1.18555 11.6765C1.95601 10.4021 3.02279 9.30558 4.32665 8.56468C4.32665 8.56468 4.35628 8.56468 4.35628 8.53505C4.41555 8.50541 4.50445 8.44614 4.56371 8.4165C5.42307 9.03886 5.8972 9.8983 6.01573 10.9652C5.06747 11.469 4.26738 12.2099 3.70435 13.1582C2.6672 14.9364 2.6672 17.0406 3.70435 18.9076Z" fill="url(#paint7_linear_2855_7426)"/>
<path d="M25.8994 0.0889077C26.0475 1.06689 26.0179 2.07451 25.8994 3.08213C25.5141 2.99323 25.0993 2.96359 24.714 2.96359H12.9497C12.9201 2.96359 12.8905 2.96359 12.8608 2.96359V0C12.8905 0 12.9201 0 12.9497 0H24.714C25.1289 0 25.5141 0.0296359 25.8994 0.0889077Z" fill="url(#paint8_linear_2855_7426)"/>
<path d="M33.4855 8.14983C32.5965 8.32765 31.6779 8.44619 30.5222 8.14983C30.374 6.81622 29.811 5.60115 28.8331 4.62316C28.0034 3.79336 26.9958 3.25991 25.8994 3.02282V0.0888672C27.7959 0.35559 29.5443 1.21503 30.9074 2.57828C32.4483 4.08971 33.3373 6.04568 33.4855 8.14983Z" fill="url(#paint9_linear_2855_7426)"/>
<path d="M26.166 14.4031V17.3963C25.6919 17.4852 25.2177 17.5148 24.714 17.5148H19.7949H16.4167H11.3495C11.1421 16.448 11.1124 15.4403 11.3495 14.5809H17.2761H24.714C25.2177 14.5809 25.7215 14.5216 26.166 14.4031Z" fill="url(#paint10_linear_2855_7426)"/>
<path d="M11.3498 14.6104V17.5444C10.5497 18.3149 9.69038 18.8187 8.77176 18.9669L7.52717 16.8035C7.26047 16.359 7.26047 15.7959 7.52717 15.3217C7.79387 14.8772 8.268 14.5808 8.80139 14.5808L11.3498 14.6104Z" fill="url(#paint11_linear_2855_7426)"/>
<path d="M40.1235 7.82393C40.1235 7.58685 40.331 7.37939 40.568 7.37939H49.0727C54.8808 7.37939 55.9772 11.1432 55.9772 13.6622C55.9772 16.1813 54.8808 19.8857 49.0727 19.8857H43.6795V27.2354C43.6795 27.4725 43.4721 27.68 43.235 27.68H40.568C40.331 27.68 40.1235 27.4725 40.1235 27.2354V7.82393ZM43.6499 16.9814H48.8357C50.4358 16.9814 52.3916 16.1813 52.3916 13.6326C52.3916 10.9653 50.7618 10.2837 48.8949 10.2837H43.6499V16.9814Z" fill="white"/>
<path d="M58.2887 7.37939H60.6594C60.8964 7.37939 61.1039 7.58685 61.1039 7.82393V27.2354C61.1039 27.4725 60.8964 27.68 60.6594 27.68H58.2887C58.0517 27.68 57.8442 27.4725 57.8442 27.2354V7.82393C57.8442 7.58685 58.0517 7.37939 58.2887 7.37939Z" fill="white"/>
<path d="M79.743 12.9805H81.9359C82.1729 12.9805 82.3804 13.1879 82.3804 13.425V15.1439L82.4396 15.2032C83.4472 13.5732 85.077 12.5952 87.0031 12.5952C90.2035 12.5952 92.1889 14.2845 92.1889 17.6037V27.265C92.1889 27.5021 91.9815 27.7095 91.7444 27.7095H89.3738C89.1367 27.7095 88.9293 27.5021 88.9293 27.265V18.4335C88.8404 16.1515 88.0106 15.1735 86.1438 15.1439C84.1287 15.1143 82.4989 16.7739 82.4989 18.7891V27.2353C82.4989 27.4724 82.2915 27.6799 82.0544 27.6799H79.6838C79.4467 27.6799 79.2393 27.4724 79.2393 27.2353V13.425C79.2985 13.1583 79.506 12.9805 79.743 12.9805Z" fill="white"/>
<path d="M95.5374 12.9805H97.7303C97.9674 12.9805 98.1748 13.1879 98.1748 13.425V15.1439L98.2341 15.2032C99.2416 13.5732 100.871 12.5952 102.798 12.5952C105.998 12.5952 107.983 14.2845 107.983 17.6037V27.265C107.983 27.5021 107.776 27.7095 107.539 27.7095H105.168C104.931 27.7095 104.724 27.5021 104.724 27.265V18.4335C104.635 16.1515 103.805 15.1735 101.938 15.1439C99.9231 15.1143 98.2933 16.7739 98.2933 18.7891V27.2353C98.2933 27.4724 98.0859 27.6799 97.8488 27.6799H95.4782C95.2411 27.6799 95.0337 27.4724 95.0337 27.2353V13.425C95.1226 13.1583 95.3004 12.9805 95.5374 12.9805Z" fill="white"/>
<path d="M111.391 7.37939H113.761C113.999 7.37939 114.206 7.58685 114.206 7.82393V27.2354C114.206 27.4725 113.999 27.68 113.761 27.68H111.391C111.154 27.68 110.946 27.4725 110.946 27.2354V7.82393C110.946 7.58685 111.154 7.37939 111.391 7.37939Z" fill="white"/>
<path d="M116.281 12.9805H118.888C119.066 12.9805 119.244 13.099 119.303 13.2768L123.037 23.9458H123.096L126.711 13.2768C126.771 13.099 126.948 12.9805 127.126 12.9805H129.556C129.852 12.9805 130.06 13.2768 129.971 13.5732L124.489 28.4504C123.452 31.088 122.711 33.4885 119.303 33.4885C118.681 33.4885 118.058 33.4589 117.436 33.37C117.229 33.3403 117.051 33.1625 117.051 32.9254V31.1176C117.051 30.8509 117.288 30.6435 117.555 30.6731C117.881 30.7324 118.207 30.7916 118.562 30.7916C120.044 30.7916 120.459 29.9915 120.844 28.7468L121.2 27.6206L115.866 13.5732C115.747 13.2768 115.984 12.9805 116.281 12.9805Z" fill="white"/>
<path d="M70.5268 12.5657C67.4154 12.5657 64.3632 13.5733 63.889 16.9518C63.8594 17.2185 64.0668 17.4556 64.3335 17.4556H66.7042C66.9116 17.4556 67.0894 17.3074 67.119 17.1C67.4154 15.7367 68.6303 15.1144 70.3194 15.1144C71.5936 15.1144 73.3716 15.4107 73.3716 17.1C73.3716 19.0263 71.3269 18.7299 68.9563 19.1745C66.2301 19.5005 63.2964 20.0932 63.2964 23.7384C63.2964 26.6131 65.6967 28.0356 68.334 28.0356C70.2009 28.0356 71.9492 27.5318 73.342 25.3684V27.2058C73.342 27.4429 73.5494 27.6504 73.7865 27.6504H75.8608C75.8904 27.6504 75.9793 27.6504 75.9793 27.6504H76.0682C76.246 27.6504 76.3942 27.5022 76.3942 27.3244V26.2871V19.7672V16.8629C76.3942 13.7511 73.4012 12.5657 70.5268 12.5657ZM73.1642 21.7528C73.1642 24.4497 70.9417 25.4869 69.5193 25.4869C68.3933 25.4869 66.5264 25.1017 66.5264 23.6199C66.5264 21.901 67.771 21.3972 69.1637 21.1897C70.6157 20.923 72.1567 20.9526 73.1345 20.3006V21.7528H73.1642Z" fill="white"/>
</g>
<defs>
<linearGradient id="paint0_linear_2855_7426" x1="4.32361" y1="4.28425" x2="12.9499" y2="4.28425" gradientUnits="userSpaceOnUse">
<stop stop-color="#FFB92E"/>
<stop offset="0.9944" stop-color="#FFAB32"/>
</linearGradient>
<linearGradient id="paint1_linear_2855_7426" x1="25.1181" y1="16.2888" x2="33.9565" y2="8.8732" gradientUnits="userSpaceOnUse">
<stop stop-color="#FF7641"/>
<stop offset="0.5206" stop-color="#FF833D"/>
<stop offset="1" stop-color="#FF883B"/>
</linearGradient>
<linearGradient id="paint2_linear_2855_7426" x1="9.97073" y1="18.2562" x2="15.4922" y2="27.4446" gradientUnits="userSpaceOnUse">
<stop stop-color="#FF5D47"/>
<stop offset="1" stop-color="#FF4B4C"/>
</linearGradient>
<linearGradient id="paint3_linear_2855_7426" x1="4.56112" y1="9.14819" x2="26.1743" y2="9.14819" gradientUnits="userSpaceOnUse">
<stop stop-color="#EE2E7D"/>
<stop offset="0.39" stop-color="#F3336F"/>
<stop offset="0.9944" stop-color="#FE3E51"/>
</linearGradient>
<linearGradient id="paint4_linear_2855_7426" x1="19.8787" y1="34.838" x2="19.8787" y2="17.5359" gradientUnits="userSpaceOnUse">
<stop stop-color="#D212C6"/>
<stop offset="0.9944" stop-color="#C301EE"/>
</linearGradient>
<linearGradient id="paint5_linear_2855_7426" x1="8.37954" y1="29.9592" x2="3.3023" y2="21.166" gradientUnits="userSpaceOnUse">
<stop stop-color="#DC1DA8"/>
<stop offset="0.9944" stop-color="#E42496"/>
</linearGradient>
<linearGradient id="paint6_linear_2855_7426" x1="7.66481" y1="29.6729" x2="16.553" y2="34.5993" gradientUnits="userSpaceOnUse">
<stop stop-color="#DE1FA2"/>
<stop offset="0.3166" stop-color="#DD1EA6"/>
<stop offset="0.6442" stop-color="#D819B3"/>
<stop offset="0.9757" stop-color="#D212C7"/>
<stop offset="1" stop-color="#D111C9"/>
</linearGradient>
<linearGradient id="paint7_linear_2855_7426" x1="3.01266" y1="21.902" x2="3.01266" y2="8.42015" gradientUnits="userSpaceOnUse">
<stop stop-color="#E32398"/>
<stop offset="0.9944" stop-color="#EE2E7C"/>
</linearGradient>
<linearGradient id="paint8_linear_2855_7426" x1="12.8634" y1="1.52992" x2="26.0018" y2="1.52992" gradientUnits="userSpaceOnUse">
<stop stop-color="#FFAB32"/>
<stop offset="0.9944" stop-color="#FF9638"/>
</linearGradient>
<linearGradient id="paint9_linear_2855_7426" x1="29.2901" y1="-0.155836" x2="29.8952" y2="8.49665" gradientUnits="userSpaceOnUse">
<stop stop-color="#FF9638"/>
<stop offset="0.5288" stop-color="#FF9039"/>
<stop offset="0.9944" stop-color="#FF863C"/>
</linearGradient>
<linearGradient id="paint10_linear_2855_7426" x1="11.1947" y1="15.9723" x2="26.174" y2="15.9723" gradientUnits="userSpaceOnUse">
<stop stop-color="#FF5C47"/>
<stop offset="0.0528065" stop-color="#FF5E46"/>
<stop offset="0.6159" stop-color="#FF7242"/>
<stop offset="1" stop-color="#FF7940"/>
</linearGradient>
<linearGradient id="paint11_linear_2855_7426" x1="7.33708" y1="16.7868" x2="11.355" y2="16.7868" gradientUnits="userSpaceOnUse">
<stop stop-color="#FF5D47"/>
<stop offset="1" stop-color="#FF5C47"/>
</linearGradient>
<clipPath id="clip0_2855_7426">
<rect width="130" height="35" fill="white"/>
</clipPath>
</defs>
</svg>
