<svg xmlns="http://www.w3.org/2000/svg" xmlns:xlink="http://www.w3.org/1999/xlink" width="500" zoomAndPan="magnify" viewBox="0 0 375 374.999991" height="500" preserveAspectRatio="xMidYMid meet" version="1.0"><defs><clipPath id="355636d686"><path d="M 56 153 L 75 153 L 75 188 L 56 188 Z M 56 153 " clip-rule="nonzero"/></clipPath><clipPath id="46ab98582b"><path d="M 23.191406 147.347656 L 124.15625 93.554688 L 195.585938 227.625 L 94.621094 281.417969 Z M 23.191406 147.347656 " clip-rule="nonzero"/></clipPath><clipPath id="bcc959fd56"><path d="M 8.992188 120.699219 L 350.785156 -61.402344 L 452.640625 129.769531 L 110.847656 311.871094 Z M 8.992188 120.699219 " clip-rule="nonzero"/></clipPath><clipPath id="09d896aaa1"><path d="M 8.992188 120.699219 L 350.785156 -61.402344 L 452.640625 129.769531 L 110.847656 311.871094 Z M 8.992188 120.699219 " clip-rule="nonzero"/></clipPath><clipPath id="5f3d68f34b"><path d="M 70.480469 153.78125 C 72.09375 156.085938 73.417969 158.574219 74.433594 161.199219 C 70.492188 163.601562 67.582031 167.347656 66.28125 171.683594 C 65.414062 174.476562 65.359375 177.429688 66.125 180.203125 C 63.570312 182.136719 61.375 184.496094 59.644531 187.167969 L 59.574219 187.203125 C 58.15625 184.554688 57.28125 181.644531 57 178.632812 C 56.722656 175.566406 57.050781 172.457031 57.972656 169.476562 C 59.992188 162.910156 64.765625 156.90625 70.480469 153.78125 Z M 70.480469 153.78125 " clip-rule="nonzero"/></clipPath><linearGradient x1="4.007646" gradientTransform="matrix(2.390164, -1.273449, 1.271914, 2.387283, 9.042427, 120.795377)" y1="25.955" x2="15.581985" gradientUnits="userSpaceOnUse" y2="25.955" id="8964deed3d"><stop stop-opacity="1" stop-color="rgb(100%, 72.499084%, 17.999268%)" offset="0"/><stop stop-opacity="1" stop-color="rgb(100%, 72.499084%, 17.999268%)" offset="0.0625"/><stop stop-opacity="1" stop-color="rgb(100%, 72.499084%, 17.999268%)" offset="0.078125"/><stop stop-opacity="1" stop-color="rgb(63.349915%, 42.149353%, 34.498596%)" offset="0.0820312"/><stop stop-opacity="1" stop-color="rgb(26.699829%, 11.799622%, 50.999451%)" offset="0.0859375"/><stop stop-opacity="1" stop-color="rgb(26.699829%, 11.799622%, 50.999451%)" offset="0.09375"/><stop stop-opacity="1" stop-color="rgb(26.699829%, 11.799622%, 50.999451%)" offset="0.125"/><stop stop-opacity="1" stop-color="rgb(26.699829%, 11.799622%, 50.999451%)" offset="0.25"/><stop stop-opacity="1" stop-color="rgb(26.699829%, 11.799622%, 50.999451%)" offset="0.5"/><stop stop-opacity="1" stop-color="rgb(26.699829%, 11.799622%, 50.999451%)" offset="1"/></linearGradient><clipPath id="e911491403"><path d="M 124 145 L 140 145 L 140 180 L 124 180 Z M 124 145 " clip-rule="nonzero"/></clipPath><clipPath id="c7f3b4bb33"><path d="M 23.191406 147.347656 L 124.15625 93.554688 L 195.585938 227.625 L 94.621094 281.417969 Z M 23.191406 147.347656 " clip-rule="nonzero"/></clipPath><clipPath id="9d09f7f0ae"><path d="M 8.992188 120.699219 L 350.785156 -61.402344 L 452.640625 129.769531 L 110.847656 311.871094 Z M 8.992188 120.699219 " clip-rule="nonzero"/></clipPath><clipPath id="895d6c5141"><path d="M 8.992188 120.699219 L 350.785156 -61.402344 L 452.640625 129.769531 L 110.847656 311.871094 Z M 8.992188 120.699219 " clip-rule="nonzero"/></clipPath><clipPath id="cc3e5fccbd"><path d="M 136.28125 147.054688 C 139.054688 152.289062 139.8125 158.375 138.425781 164.230469 C 137.035156 170.085938 133.59375 175.335938 128.699219 179.050781 C 126.601562 177.003906 125.195312 174.363281 124.664062 171.480469 C 127.503906 168.921875 129.425781 165.542969 130.128906 161.867188 C 130.832031 158.191406 130.28125 154.429688 128.558594 151.167969 C 128.292969 150.671875 128.003906 150.183594 127.6875 149.714844 L 135.445312 145.582031 C 135.730469 146.0625 136.023438 146.570312 136.28125 147.054688 Z M 136.28125 147.054688 " clip-rule="nonzero"/></clipPath><clipPath id="a4fe7e6e93"><path d="M 85 200 L 115 200 L 115 222 L 85 222 Z M 85 200 " clip-rule="nonzero"/></clipPath><clipPath id="5cb67a194a"><path d="M 23.191406 147.347656 L 124.15625 93.554688 L 195.585938 227.625 L 94.621094 281.417969 Z M 23.191406 147.347656 " clip-rule="nonzero"/></clipPath><clipPath id="8b8299801e"><path d="M 8.992188 120.699219 L 350.785156 -61.402344 L 452.640625 129.769531 L 110.847656 311.871094 Z M 8.992188 120.699219 " clip-rule="nonzero"/></clipPath><clipPath id="cc44009ce9"><path d="M 8.992188 120.699219 L 350.785156 -61.402344 L 452.640625 129.769531 L 110.847656 311.871094 Z M 8.992188 120.699219 " clip-rule="nonzero"/></clipPath><clipPath id="765e6e33a8"><path d="M 114.058594 219.578125 C 113.429688 220.539062 112.449219 221.230469 111.324219 221.5 C 110.203125 221.769531 109.03125 221.601562 108.0625 221.027344 L 85.257812 207.300781 L 90.078125 200.097656 L 112.773438 213.765625 C 113.726562 214.351562 114.398438 215.292969 114.636719 216.378906 C 114.878906 217.464844 114.667969 218.617188 114.058594 219.578125 Z M 114.058594 219.578125 " clip-rule="nonzero"/></clipPath><clipPath id="1edd8cbc57"><path d="M 103 188 L 113 188 L 113 194 L 103 194 Z M 103 188 " clip-rule="nonzero"/></clipPath><clipPath id="74a967b00d"><path d="M 23.191406 147.347656 L 124.15625 93.554688 L 195.585938 227.625 L 94.621094 281.417969 Z M 23.191406 147.347656 " clip-rule="nonzero"/></clipPath><clipPath id="8970f14800"><path d="M 8.992188 120.699219 L 350.785156 -61.402344 L 452.640625 129.769531 L 110.847656 311.871094 Z M 8.992188 120.699219 " clip-rule="nonzero"/></clipPath><clipPath id="f0e9846d9f"><path d="M 8.992188 120.699219 L 350.785156 -61.402344 L 452.640625 129.769531 L 110.847656 311.871094 Z M 8.992188 120.699219 " clip-rule="nonzero"/></clipPath><clipPath id="7b956200f0"><path d="M 112.214844 188.277344 L 112.230469 188.285156 L 103.347656 193.019531 Z M 112.214844 188.277344 " clip-rule="nonzero"/></clipPath><clipPath id="2efddd181c"><path d="M 60 155 L 118 155 L 118 192 L 60 192 Z M 60 155 " clip-rule="nonzero"/></clipPath><clipPath id="5fc74af324"><path d="M 23.191406 147.347656 L 124.15625 93.554688 L 195.585938 227.625 L 94.621094 281.417969 Z M 23.191406 147.347656 " clip-rule="nonzero"/></clipPath><clipPath id="194295583a"><path d="M 8.992188 120.699219 L 350.785156 -61.402344 L 452.640625 129.769531 L 110.847656 311.871094 Z M 8.992188 120.699219 " clip-rule="nonzero"/></clipPath><clipPath id="b3643d4a17"><path d="M 8.992188 120.699219 L 350.785156 -61.402344 L 452.640625 129.769531 L 110.847656 311.871094 Z M 8.992188 120.699219 " clip-rule="nonzero"/></clipPath><clipPath id="c9bc3c45ec"><path d="M 117.167969 157.402344 C 117.695312 158.394531 117.792969 159.5625 117.4375 160.652344 C 117.085938 161.738281 116.308594 162.660156 115.277344 163.207031 L 73.996094 185.132812 C 71.328125 186.542969 69.027344 188.558594 67.300781 191.003906 L 60.039062 186.613281 C 61.703125 184.183594 63.761719 182.027344 66.128906 180.238281 C 67.367188 179.292969 68.679688 178.453125 70.058594 177.722656 L 111.335938 155.789062 C 112.351562 155.25 113.535156 155.113281 114.625 155.417969 C 115.714844 155.71875 116.628906 156.433594 117.167969 157.402344 Z M 117.167969 157.402344 " clip-rule="nonzero"/></clipPath><clipPath id="51b5af128d"><path d="M 103 188 L 137 188 L 137 237 L 103 237 Z M 103 188 " clip-rule="nonzero"/></clipPath><clipPath id="1ca4bbd64b"><path d="M 23.191406 147.347656 L 124.15625 93.554688 L 195.585938 227.625 L 94.621094 281.417969 Z M 23.191406 147.347656 " clip-rule="nonzero"/></clipPath><clipPath id="81db5cfbdc"><path d="M 8.992188 120.699219 L 350.785156 -61.402344 L 452.640625 129.769531 L 110.847656 311.871094 Z M 8.992188 120.699219 " clip-rule="nonzero"/></clipPath><clipPath id="68d21d890a"><path d="M 8.992188 120.699219 L 350.785156 -61.402344 L 452.640625 129.769531 L 110.847656 311.871094 Z M 8.992188 120.699219 " clip-rule="nonzero"/></clipPath><clipPath id="654df84c16"><path d="M 135.742188 211.289062 C 136.46875 214.515625 136.527344 217.875 135.917969 221.164062 C 135.304688 224.457031 134.035156 227.617188 132.179688 230.460938 C 130.667969 232.804688 128.785156 234.90625 126.609375 236.683594 C 124.808594 234.390625 123.429688 231.800781 122.53125 229.03125 C 124.367188 227.203125 125.773438 225.011719 126.644531 222.613281 C 127.519531 220.214844 127.835938 217.667969 127.578125 215.167969 C 127.316406 212.667969 126.484375 210.273438 125.140625 208.160156 C 123.796875 206.050781 121.976562 204.277344 119.816406 202.96875 L 103.382812 193.019531 L 112.269531 188.285156 L 124.546875 195.71875 C 127.394531 197.425781 129.851562 199.683594 131.773438 202.355469 C 133.695312 205.03125 135.042969 208.066406 135.742188 211.289062 Z M 135.742188 211.289062 " clip-rule="nonzero"/></clipPath><clipPath id="48539ca3cc"><path d="M 71 218 L 102 218 L 102 240 L 71 240 Z M 71 218 " clip-rule="nonzero"/></clipPath><clipPath id="6212dc0ca7"><path d="M 23.191406 147.347656 L 124.15625 93.554688 L 195.585938 227.625 L 94.621094 281.417969 Z M 23.191406 147.347656 " clip-rule="nonzero"/></clipPath><clipPath id="e5afbc093f"><path d="M 8.992188 120.699219 L 350.785156 -61.402344 L 452.640625 129.769531 L 110.847656 311.871094 Z M 8.992188 120.699219 " clip-rule="nonzero"/></clipPath><clipPath id="6bc406b3e1"><path d="M 8.992188 120.699219 L 350.785156 -61.402344 L 452.640625 129.769531 L 110.847656 311.871094 Z M 8.992188 120.699219 " clip-rule="nonzero"/></clipPath><clipPath id="e5a1758b05"><path d="M 101.058594 231.8125 L 96.601562 239.214844 L 96.34375 239.066406 L 71.566406 224.089844 C 72.28125 222.65625 73.332031 221.398438 74.625 220.425781 C 75.917969 219.449219 77.421875 218.78125 79.007812 218.472656 Z M 101.058594 231.8125 " clip-rule="nonzero"/></clipPath><clipPath id="b2ecf6c3e3"><path d="M 96 229 L 127 229 L 127 243 L 96 243 Z M 96 229 " clip-rule="nonzero"/></clipPath><clipPath id="38bebedb39"><path d="M 23.191406 147.347656 L 124.15625 93.554688 L 195.585938 227.625 L 94.621094 281.417969 Z M 23.191406 147.347656 " clip-rule="nonzero"/></clipPath><clipPath id="c313c20be5"><path d="M 8.992188 120.699219 L 350.785156 -61.402344 L 452.640625 129.769531 L 110.847656 311.871094 Z M 8.992188 120.699219 " clip-rule="nonzero"/></clipPath><clipPath id="2218b1f5f3"><path d="M 8.992188 120.699219 L 350.785156 -61.402344 L 452.640625 129.769531 L 110.847656 311.871094 Z M 8.992188 120.699219 " clip-rule="nonzero"/></clipPath><clipPath id="e964bc69dd"><path d="M 122.519531 229.007812 L 126.601562 236.667969 C 125.257812 237.761719 123.808594 238.722656 122.28125 239.535156 C 120.25 240.621094 118.097656 241.445312 115.867188 241.992188 C 109.242188 243.597656 102.320312 242.601562 96.601562 239.214844 C 97.476562 236.449219 98.996094 233.90625 101.046875 231.789062 C 104.335938 233.769531 108.25 234.570312 112.144531 234.066406 C 116.039062 233.558594 119.683594 231.777344 122.480469 229.007812 Z M 122.519531 229.007812 " clip-rule="nonzero"/></clipPath><clipPath id="7e4899a50b"><path d="M 55 186 L 81 186 L 81 225 L 55 225 Z M 55 186 " clip-rule="nonzero"/></clipPath><clipPath id="95193c6aef"><path d="M 23.191406 147.347656 L 124.15625 93.554688 L 195.585938 227.625 L 94.621094 281.417969 Z M 23.191406 147.347656 " clip-rule="nonzero"/></clipPath><clipPath id="6b48cb3d3f"><path d="M 8.992188 120.699219 L 350.785156 -61.402344 L 452.640625 129.769531 L 110.847656 311.871094 Z M 8.992188 120.699219 " clip-rule="nonzero"/></clipPath><clipPath id="cba32cc234"><path d="M 8.992188 120.699219 L 350.785156 -61.402344 L 452.640625 129.769531 L 110.847656 311.871094 Z M 8.992188 120.699219 " clip-rule="nonzero"/></clipPath><clipPath id="efdd22daa1"><path d="M 71.90625 214.175781 L 80.460938 219.351562 L 71.566406 224.089844 L 67.148438 221.40625 C 67.144531 221.390625 67.136719 221.378906 67.128906 221.367188 C 63.375 219.101562 60.332031 215.882812 58.304688 212.039062 C 56.28125 208.195312 55.347656 203.867188 55.597656 199.484375 C 55.863281 195.164062 57.246094 190.945312 59.621094 187.230469 L 59.691406 187.191406 L 60.082031 186.597656 C 61.558594 186.769531 62.972656 187.246094 64.226562 188.003906 C 65.480469 188.765625 66.542969 189.78125 67.34375 190.992188 C 65.515625 193.597656 64.449219 196.625 64.261719 199.738281 C 64.085938 202.632812 64.703125 205.496094 66.046875 208.035156 C 67.390625 210.574219 69.414062 212.695312 71.90625 214.175781 Z M 71.90625 214.175781 " clip-rule="nonzero"/></clipPath><clipPath id="3212371180"><path d="M 70 135 L 109 135 L 109 162 L 70 162 Z M 70 135 " clip-rule="nonzero"/></clipPath><clipPath id="e5740ba04f"><path d="M 23.191406 147.347656 L 124.15625 93.554688 L 195.585938 227.625 L 94.621094 281.417969 Z M 23.191406 147.347656 " clip-rule="nonzero"/></clipPath><clipPath id="36a4ce1135"><path d="M 8.992188 120.699219 L 350.785156 -61.402344 L 452.640625 129.769531 L 110.847656 311.871094 Z M 8.992188 120.699219 " clip-rule="nonzero"/></clipPath><clipPath id="9e3d965bd0"><path d="M 8.992188 120.699219 L 350.785156 -61.402344 L 452.640625 129.769531 L 110.847656 311.871094 Z M 8.992188 120.699219 " clip-rule="nonzero"/></clipPath><clipPath id="1bfd813b79"><path d="M 104.734375 135.753906 C 106.390625 138.074219 107.734375 140.597656 108.738281 143.265625 C 107.609375 143.609375 106.515625 144.058594 105.46875 144.613281 L 74.667969 161.074219 L 74.457031 161.183594 L 70.507812 153.769531 L 70.707031 153.660156 L 101.539062 137.234375 C 102.570312 136.667969 103.636719 136.175781 104.734375 135.753906 Z M 104.734375 135.753906 " clip-rule="nonzero"/></clipPath><linearGradient x1="13.01722" gradientTransform="matrix(2.390164, -1.273449, 1.271914, 2.387283, 9.042427, 120.795377)" y1="23.046" x2="29.891296" gradientUnits="userSpaceOnUse" y2="23.046" id="de766997ee"><stop stop-opacity="1" stop-color="rgb(100%, 67.098999%, 19.599915%)" offset="0"/><stop stop-opacity="1" stop-color="rgb(100%, 67.098999%, 19.599915%)" offset="0.0625"/><stop stop-opacity="1" stop-color="rgb(100%, 67.098999%, 19.599915%)" offset="0.0703125"/><stop stop-opacity="1" stop-color="rgb(63.349915%, 39.448547%, 35.299683%)" offset="0.0742188"/><stop stop-opacity="1" stop-color="rgb(26.699829%, 11.799622%, 50.999451%)" offset="0.078125"/><stop stop-opacity="1" stop-color="rgb(26.699829%, 11.799622%, 50.999451%)" offset="0.09375"/><stop stop-opacity="1" stop-color="rgb(26.699829%, 11.799622%, 50.999451%)" offset="0.125"/><stop stop-opacity="1" stop-color="rgb(26.699829%, 11.799622%, 50.999451%)" offset="0.25"/><stop stop-opacity="1" stop-color="rgb(26.699829%, 11.799622%, 50.999451%)" offset="0.5"/><stop stop-opacity="1" stop-color="rgb(26.699829%, 11.799622%, 50.999451%)" offset="1"/></linearGradient><clipPath id="55e66a43ca"><path d="M 104 134 L 136 134 L 136 150 L 104 150 Z M 104 134 " clip-rule="nonzero"/></clipPath><clipPath id="d0f1aabca8"><path d="M 23.191406 147.347656 L 124.15625 93.554688 L 195.585938 227.625 L 94.621094 281.417969 Z M 23.191406 147.347656 " clip-rule="nonzero"/></clipPath><clipPath id="1815022724"><path d="M 8.992188 120.699219 L 350.785156 -61.402344 L 452.640625 129.769531 L 110.847656 311.871094 Z M 8.992188 120.699219 " clip-rule="nonzero"/></clipPath><clipPath id="281051e4a6"><path d="M 8.992188 120.699219 L 350.785156 -61.402344 L 452.640625 129.769531 L 110.847656 311.871094 Z M 8.992188 120.699219 " clip-rule="nonzero"/></clipPath><clipPath id="f528e55660"><path d="M 135.429688 145.589844 C 133.191406 147.539062 130.535156 148.953125 127.671875 149.722656 C 125.535156 146.550781 122.308594 144.242188 118.554688 143.199219 C 115.371094 142.285156 111.953125 142.316406 108.730469 143.289062 L 104.71875 135.761719 C 110.320312 133.652344 116.4375 133.476562 122.03125 135.269531 C 127.625 137.058594 132.359375 140.703125 135.429688 145.589844 Z M 135.429688 145.589844 " clip-rule="nonzero"/></clipPath><linearGradient x1="32.230114" gradientTransform="matrix(2.390164, -1.273449, 1.271914, 2.387283, 9.042427, 120.795377)" y1="20.360204" x2="33.001593" gradientUnits="userSpaceOnUse" y2="31.812144" id="45da8a4df8"><stop stop-opacity="1" stop-color="rgb(100%, 58.799744%, 21.998596%)" offset="0"/><stop stop-opacity="1" stop-color="rgb(100%, 58.799744%, 21.998596%)" offset="0.0625"/><stop stop-opacity="1" stop-color="rgb(100%, 58.799744%, 21.998596%)" offset="0.0751267"/><stop stop-opacity="1" stop-color="rgb(100%, 58.799744%, 21.998596%)" offset="0.078125"/><stop stop-opacity="1" stop-color="rgb(63.349915%, 35.299683%, 36.499023%)" offset="0.0820313"/><stop stop-opacity="1" stop-color="rgb(26.699829%, 11.799622%, 50.999451%)" offset="0.0859375"/><stop stop-opacity="1" stop-color="rgb(26.699829%, 11.799622%, 50.999451%)" offset="0.09375"/><stop stop-opacity="1" stop-color="rgb(26.699829%, 11.799622%, 50.999451%)" offset="0.125"/><stop stop-opacity="1" stop-color="rgb(26.699829%, 11.799622%, 50.999451%)" offset="0.25"/><stop stop-opacity="1" stop-color="rgb(26.699829%, 11.799622%, 50.999451%)" offset="0.5"/><stop stop-opacity="1" stop-color="rgb(26.699829%, 11.799622%, 50.999451%)" offset="0.924873"/><stop stop-opacity="1" stop-color="rgb(26.699829%, 11.799622%, 50.999451%)" offset="1"/></linearGradient><clipPath id="829d5fa496"><path d="M 86 171 L 129 171 L 129 201 L 86 201 Z M 86 171 " clip-rule="nonzero"/></clipPath><clipPath id="f46070f4c4"><path d="M 23.191406 147.347656 L 124.15625 93.554688 L 195.585938 227.625 L 94.621094 281.417969 Z M 23.191406 147.347656 " clip-rule="nonzero"/></clipPath><clipPath id="0b169b87ef"><path d="M 8.992188 120.699219 L 350.785156 -61.402344 L 452.640625 129.769531 L 110.847656 311.871094 Z M 8.992188 120.699219 " clip-rule="nonzero"/></clipPath><clipPath id="1435286f3f"><path d="M 8.992188 120.699219 L 350.785156 -61.402344 L 452.640625 129.769531 L 110.847656 311.871094 Z M 8.992188 120.699219 " clip-rule="nonzero"/></clipPath><clipPath id="4a91442417"><path d="M 124.667969 171.480469 L 128.699219 179.050781 C 127.546875 179.925781 126.324219 180.707031 125.042969 181.382812 L 112.191406 188.230469 L 103.3125 192.960938 L 90.050781 200.027344 C 88.191406 197.886719 86.84375 195.355469 86.105469 192.617188 L 101.625 184.351562 L 121.101562 173.972656 C 122.386719 173.285156 123.582031 172.449219 124.667969 171.480469 Z M 124.667969 171.480469 " clip-rule="nonzero"/></clipPath><clipPath id="25f1676388"><path d="M 77 192 L 91 192 L 91 208 L 77 208 Z M 77 192 " clip-rule="nonzero"/></clipPath><clipPath id="fc0f7d97d9"><path d="M 23.191406 147.347656 L 124.15625 93.554688 L 195.585938 227.625 L 94.621094 281.417969 Z M 23.191406 147.347656 " clip-rule="nonzero"/></clipPath><clipPath id="7feb0d6595"><path d="M 8.992188 120.699219 L 350.785156 -61.402344 L 452.640625 129.769531 L 110.847656 311.871094 Z M 8.992188 120.699219 " clip-rule="nonzero"/></clipPath><clipPath id="66a4694d37"><path d="M 8.992188 120.699219 L 350.785156 -61.402344 L 452.640625 129.769531 L 110.847656 311.871094 Z M 8.992188 120.699219 " clip-rule="nonzero"/></clipPath><clipPath id="c7cb0774ec"><path d="M 86.140625 192.6875 L 90.085938 200.09375 C 89.253906 202.902344 87.570312 205.417969 85.257812 207.300781 L 79.085938 203.585938 C 78.457031 203.195312 77.949219 202.648438 77.609375 201.996094 C 77.273438 201.347656 77.113281 200.617188 77.152344 199.878906 C 77.191406 199.140625 77.421875 198.417969 77.828125 197.78125 C 78.234375 197.148438 78.796875 196.621094 79.460938 196.253906 Z M 86.140625 192.6875 " clip-rule="nonzero"/></clipPath><clipPath id="e370177a8b"><path d="M 152 118 L 196 118 L 196 186 L 152 186 Z M 152 118 " clip-rule="nonzero"/></clipPath><clipPath id="e395d68fa3"><path d="M 23.191406 147.347656 L 124.15625 93.554688 L 195.585938 227.625 L 94.621094 281.417969 Z M 23.191406 147.347656 " clip-rule="nonzero"/></clipPath><clipPath id="d6b50fc990"><path d="M 8.992188 120.699219 L 350.785156 -61.402344 L 452.640625 129.769531 L 110.847656 311.871094 Z M 8.992188 120.699219 " clip-rule="nonzero"/></clipPath><clipPath id="c01e88a370"><path d="M 8.992188 120.699219 L 350.785156 -61.402344 L 452.640625 129.769531 L 110.847656 311.871094 Z M 8.992188 120.699219 " clip-rule="nonzero"/></clipPath></defs><g clip-path="url(#355636d686)"><g clip-path="url(#46ab98582b)"><g clip-path="url(#bcc959fd56)"><g clip-path="url(#09d896aaa1)"><g clip-path="url(#5f3d68f34b)"><path fill="url(#8964deed3d)" d="M 42.851562 161.171875 L 60.636719 194.554688 L 88.300781 179.816406 L 70.515625 146.433594 Z M 42.851562 161.171875 " fill-rule="nonzero"/></g></g></g></g></g><g clip-path="url(#e911491403)"><g clip-path="url(#c7f3b4bb33)"><g clip-path="url(#9d09f7f0ae)"><g clip-path="url(#895d6c5141)"><g clip-path="url(#cc3e5fccbd)"><path fill="#441e82" d="M 110.777344 152.980469 L 128.015625 185.335938 L 153.703125 171.652344 L 136.464844 139.296875 Z M 110.777344 152.980469 " fill-opacity="1" fill-rule="nonzero"/></g></g></g></g></g><g clip-path="url(#a4fe7e6e93)"><g clip-path="url(#5cb67a194a)"><g clip-path="url(#8b8299801e)"><g clip-path="url(#cc44009ce9)"><g clip-path="url(#765e6e33a8)"><path fill="#441e82" d="M 76.265625 204.890625 L 91.808594 234.0625 L 123.871094 216.980469 L 108.328125 187.808594 Z M 76.265625 204.890625 " fill-opacity="1" fill-rule="nonzero"/></g></g></g></g></g><g clip-path="url(#1edd8cbc57)"><g clip-path="url(#74a967b00d)"><g clip-path="url(#8970f14800)"><g clip-path="url(#f0e9846d9f)"><g clip-path="url(#7b956200f0)"><path fill="#441e82" d="M 101.378906 189.324219 L 105.3125 196.707031 L 114.199219 191.972656 L 110.265625 184.589844 Z M 101.378906 189.324219 " fill-opacity="1" fill-rule="nonzero"/></g></g></g></g></g><g clip-path="url(#2efddd181c)"><g clip-path="url(#5fc74af324)"><g clip-path="url(#194295583a)"><g clip-path="url(#b3643d4a17)"><g clip-path="url(#c9bc3c45ec)"><path fill="#441e82" d="M 45.144531 163.050781 L 72.808594 214.972656 L 132.6875 183.070312 L 105.023438 131.148438 Z M 45.144531 163.050781 " fill-opacity="1" fill-rule="nonzero"/></g></g></g></g></g><g clip-path="url(#51b5af128d)"><g clip-path="url(#1ca4bbd64b)"><g clip-path="url(#81db5cfbdc)"><g clip-path="url(#68d21d890a)"><g clip-path="url(#654df84c16)"><path fill="#441e82" d="M 83.300781 198.988281 L 110.710938 250.4375 L 156.613281 225.984375 L 129.199219 174.53125 Z M 83.300781 198.988281 " fill-opacity="1" fill-rule="nonzero"/></g></g></g></g></g><g clip-path="url(#48539ca3cc)"><g clip-path="url(#6212dc0ca7)"><g clip-path="url(#e5afbc093f)"><g clip-path="url(#6bc406b3e1)"><g clip-path="url(#e5a1758b05)"><path fill="#441e82" d="M 62.960938 223.058594 L 78.085938 251.453125 L 109.664062 234.628906 L 94.539062 206.234375 Z M 62.960938 223.058594 " fill-opacity="1" fill-rule="nonzero"/></g></g></g></g></g><g clip-path="url(#b2ecf6c3e3)"><g clip-path="url(#38bebedb39)"><g clip-path="url(#c313c20be5)"><g clip-path="url(#2218b1f5f3)"><g clip-path="url(#e964bc69dd)"><path fill="#441e82" d="M 90.546875 232.234375 L 103.234375 256.046875 L 132.65625 240.371094 L 119.96875 216.558594 Z M 90.546875 232.234375 " fill-opacity="1" fill-rule="nonzero"/></g></g></g></g></g><g clip-path="url(#7e4899a50b)"><g clip-path="url(#95193c6aef)"><g clip-path="url(#6b48cb3d3f)"><g clip-path="url(#cba32cc234)"><g clip-path="url(#efdd22daa1)"><path fill="#441e82" d="M 39.789062 194.886719 L 60.898438 234.511719 L 96.019531 215.800781 L 74.90625 176.179688 Z M 39.789062 194.886719 " fill-opacity="1" fill-rule="nonzero"/></g></g></g></g></g><g clip-path="url(#3212371180)"><g clip-path="url(#e5740ba04f)"><g clip-path="url(#36a4ce1135)"><g clip-path="url(#9e3d965bd0)"><g clip-path="url(#1bfd813b79)"><path fill="url(#de766997ee)" d="M 59.953125 141.375 L 78.960938 177.050781 L 119.292969 155.5625 L 100.285156 119.886719 Z M 59.953125 141.375 " fill-rule="nonzero"/></g></g></g></g></g><g clip-path="url(#55e66a43ca)"><g clip-path="url(#d0f1aabca8)"><g clip-path="url(#1815022724)"><g clip-path="url(#281051e4a6)"><g clip-path="url(#f528e55660)"><path fill="url(#45da8a4df8)" d="M 97.976562 137.070312 L 111.507812 162.46875 L 142.171875 146.132812 L 128.640625 120.734375 Z M 97.976562 137.070312 " fill-rule="nonzero"/></g></g></g></g></g><g clip-path="url(#829d5fa496)"><g clip-path="url(#f46070f4c4)"><g clip-path="url(#0b169b87ef)"><g clip-path="url(#1435286f3f)"><g clip-path="url(#4a91442417)"><path fill="#441e82" d="M 74.257812 177.789062 L 95.523438 217.703125 L 140.546875 193.714844 L 119.28125 153.800781 Z M 74.257812 177.789062 " fill-opacity="1" fill-rule="nonzero"/></g></g></g></g></g><g clip-path="url(#25f1676388)"><g clip-path="url(#fc0f7d97d9)"><g clip-path="url(#7feb0d6595)"><g clip-path="url(#66a4694d37)"><g clip-path="url(#c7cb0774ec)"><path fill="#441e82" d="M 71.046875 195.917969 L 79.980469 212.6875 L 96.152344 204.070312 L 87.21875 187.304688 Z M 71.046875 195.917969 " fill-opacity="1" fill-rule="nonzero"/></g></g></g></g></g><g clip-path="url(#e370177a8b)"><g clip-path="url(#e395d68fa3)"><g clip-path="url(#d6b50fc990)"><g clip-path="url(#c01e88a370)"><path fill="#fefdfd" d="M 152.316406 135.453125 C 152.160156 135.160156 152.128906 134.8125 152.234375 134.492188 C 152.339844 134.167969 152.570312 133.894531 152.875 133.734375 L 175.160156 121.859375 C 190.332031 113.777344 198.277344 121.695312 201.675781 128.070312 C 205.070312 134.445312 207.136719 145.3125 191.964844 153.398438 L 177.824219 160.929688 L 187.695312 179.453125 C 187.851562 179.746094 187.878906 180.09375 187.773438 180.414062 C 187.671875 180.738281 187.441406 181.011719 187.136719 181.171875 L 180.152344 184.894531 C 179.847656 185.054688 179.492188 185.09375 179.167969 185.003906 C 178.839844 184.910156 178.570312 184.691406 178.414062 184.398438 Z M 173.941406 153.605469 L 187.5625 146.347656 C 191.71875 144.132812 195.804688 139.382812 192.367188 132.933594 C 188.785156 126.203125 183.621094 126.738281 178.714844 129.351562 L 164.917969 136.703125 Z M 173.941406 153.605469 " fill-opacity="1" fill-rule="nonzero"/></g></g></g></g><path fill="#000000" d="M 155.289062 168.359375 C 155.289062 168.132812 155.382812 167.914062 155.550781 167.753906 C 155.714844 167.597656 155.941406 167.507812 156.175781 167.507812 L 173.359375 167.507812 C 185.054688 167.507812 187.292969 174.792969 187.292969 179.703125 C 187.292969 184.613281 185.054688 191.792969 173.359375 191.792969 L 162.457031 191.792969 L 162.457031 206.058594 C 162.457031 206.28125 162.363281 206.5 162.199219 206.660156 C 162.03125 206.820312 161.808594 206.910156 161.574219 206.910156 L 156.1875 206.910156 C 155.953125 206.910156 155.726562 206.820312 155.5625 206.660156 C 155.394531 206.5 155.300781 206.28125 155.300781 206.058594 Z M 162.46875 186.15625 L 172.96875 186.15625 C 176.175781 186.15625 180.148438 184.613281 180.148438 179.644531 C 180.148438 174.464844 176.875 173.136719 173.09375 173.136719 L 162.457031 173.136719 Z M 162.46875 186.15625 " fill-opacity="1" fill-rule="nonzero"/><path fill="#000000" d="M 191.996094 167.507812 L 196.78125 167.507812 C 197.015625 167.507812 197.242188 167.597656 197.40625 167.753906 C 197.574219 167.914062 197.664062 168.132812 197.664062 168.359375 L 197.664062 206.058594 C 197.664062 206.28125 197.574219 206.5 197.40625 206.660156 C 197.242188 206.820312 197.015625 206.910156 196.78125 206.910156 L 191.996094 206.910156 C 191.878906 206.910156 191.761719 206.886719 191.65625 206.84375 C 191.546875 206.800781 191.449219 206.738281 191.367188 206.660156 C 191.285156 206.582031 191.222656 206.488281 191.175781 206.382812 C 191.132812 206.28125 191.109375 206.167969 191.109375 206.058594 L 191.109375 168.359375 C 191.109375 168.246094 191.132812 168.136719 191.175781 168.03125 C 191.222656 167.929688 191.285156 167.835938 191.367188 167.753906 C 191.449219 167.675781 191.546875 167.613281 191.65625 167.570312 C 191.761719 167.527344 191.878906 167.507812 191.996094 167.507812 Z M 191.996094 167.507812 " fill-opacity="1" fill-rule="nonzero"/><path fill="#000000" d="M 235.3125 178.378906 L 239.734375 178.378906 C 239.96875 178.378906 240.195312 178.46875 240.359375 178.628906 C 240.527344 178.789062 240.621094 179.007812 240.621094 179.230469 L 240.621094 182.570312 L 240.734375 182.679688 C 241.679688 181.132812 243.03125 179.847656 244.652344 178.957031 C 246.273438 178.066406 248.109375 177.601562 249.976562 177.601562 C 256.457031 177.601562 260.46875 180.859375 260.46875 187.320312 L 260.46875 206.058594 C 260.46875 206.28125 260.375 206.5 260.210938 206.660156 C 260.042969 206.820312 259.820312 206.910156 259.582031 206.910156 L 254.796875 206.910156 C 254.683594 206.910156 254.566406 206.886719 254.460938 206.84375 C 254.351562 206.800781 254.253906 206.738281 254.171875 206.660156 C 254.089844 206.582031 254.023438 206.488281 253.980469 206.382812 C 253.9375 206.28125 253.914062 206.167969 253.914062 206.058594 L 253.914062 188.972656 C 253.746094 184.566406 252.070312 182.640625 248.289062 182.570312 C 247.324219 182.566406 246.367188 182.746094 245.476562 183.101562 C 244.582031 183.457031 243.773438 183.976562 243.089844 184.632812 C 242.410156 185.289062 241.867188 186.070312 241.5 186.929688 C 241.136719 187.789062 240.949219 188.710938 240.957031 189.640625 L 240.957031 206.058594 C 240.957031 206.167969 240.933594 206.28125 240.886719 206.382812 C 240.84375 206.488281 240.777344 206.582031 240.695312 206.660156 C 240.613281 206.738281 240.515625 206.800781 240.410156 206.84375 C 240.300781 206.886719 240.1875 206.910156 240.070312 206.910156 L 235.285156 206.910156 C 235.054688 206.902344 234.832031 206.8125 234.671875 206.652344 C 234.511719 206.492188 234.421875 206.277344 234.421875 206.058594 L 234.421875 179.230469 C 234.421875 179.121094 234.445312 179.007812 234.492188 178.90625 C 234.535156 178.800781 234.601562 178.707031 234.683594 178.628906 C 234.765625 178.546875 234.863281 178.484375 234.972656 178.441406 C 235.082031 178.402344 235.195312 178.378906 235.3125 178.378906 Z M 235.3125 178.378906 " fill-opacity="1" fill-rule="nonzero"/><path fill="#000000" d="M 267.21875 178.378906 L 271.640625 178.378906 C 271.875 178.378906 272.101562 178.46875 272.265625 178.628906 C 272.433594 178.789062 272.527344 179.007812 272.527344 179.230469 L 272.527344 182.570312 L 272.644531 182.679688 C 273.589844 181.132812 274.9375 179.847656 276.558594 178.957031 C 278.179688 178.066406 280.011719 177.601562 281.875 177.601562 C 288.355469 177.601562 292.371094 180.859375 292.371094 187.320312 L 292.371094 206.058594 C 292.371094 206.28125 292.277344 206.5 292.109375 206.660156 C 291.945312 206.820312 291.71875 206.910156 291.484375 206.910156 L 286.699219 206.910156 C 286.464844 206.910156 286.238281 206.820312 286.070312 206.660156 C 285.90625 206.5 285.8125 206.28125 285.8125 206.058594 L 285.8125 188.972656 C 285.644531 184.566406 283.96875 182.640625 280.191406 182.570312 C 279.226562 182.566406 278.269531 182.746094 277.375 183.101562 C 276.484375 183.457031 275.671875 183.976562 274.992188 184.632812 C 274.308594 185.289062 273.769531 186.070312 273.402344 186.929688 C 273.035156 187.789062 272.847656 188.710938 272.855469 189.640625 L 272.855469 206.058594 C 272.855469 206.28125 272.761719 206.5 272.59375 206.660156 C 272.429688 206.820312 272.203125 206.910156 271.96875 206.910156 L 267.183594 206.910156 C 267.066406 206.910156 266.953125 206.886719 266.84375 206.84375 C 266.738281 206.800781 266.640625 206.738281 266.554688 206.660156 C 266.476562 206.582031 266.410156 206.488281 266.363281 206.382812 C 266.320312 206.28125 266.296875 206.167969 266.296875 206.058594 L 266.296875 179.230469 C 266.296875 179.117188 266.324219 179.003906 266.367188 178.898438 C 266.414062 178.792969 266.484375 178.695312 266.570312 178.617188 C 266.65625 178.539062 266.757812 178.476562 266.871094 178.433594 C 266.980469 178.394531 267.101562 178.375 267.21875 178.378906 Z M 267.21875 178.378906 " fill-opacity="1" fill-rule="nonzero"/><path fill="#000000" d="M 299.195312 167.507812 L 303.980469 167.507812 C 304.097656 167.507812 304.210938 167.527344 304.320312 167.570312 C 304.425781 167.613281 304.523438 167.675781 304.605469 167.757812 C 304.6875 167.835938 304.75 167.929688 304.796875 168.03125 C 304.839844 168.136719 304.863281 168.246094 304.863281 168.359375 L 304.863281 206.058594 C 304.863281 206.167969 304.839844 206.28125 304.796875 206.382812 C 304.75 206.484375 304.6875 206.578125 304.605469 206.660156 C 304.523438 206.738281 304.425781 206.800781 304.320312 206.84375 C 304.210938 206.886719 304.097656 206.910156 303.980469 206.910156 L 299.195312 206.910156 C 299.078125 206.910156 298.964844 206.886719 298.859375 206.84375 C 298.75 206.800781 298.652344 206.738281 298.570312 206.660156 C 298.488281 206.578125 298.425781 206.484375 298.382812 206.382812 C 298.335938 206.28125 298.316406 206.167969 298.316406 206.058594 L 298.316406 168.359375 C 298.316406 168.246094 298.335938 168.136719 298.382812 168.03125 C 298.425781 167.929688 298.488281 167.835938 298.570312 167.757812 C 298.652344 167.675781 298.75 167.613281 298.859375 167.570312 C 298.964844 167.527344 299.078125 167.507812 299.195312 167.507812 Z M 299.195312 167.507812 " fill-opacity="1" fill-rule="nonzero"/><path fill="#000000" d="M 309.070312 178.378906 L 314.332031 178.378906 C 314.515625 178.378906 314.695312 178.433594 314.84375 178.539062 C 314.996094 178.640625 315.105469 178.789062 315.160156 178.957031 L 322.699219 199.679688 L 322.8125 199.679688 L 330.125 178.957031 C 330.183594 178.789062 330.296875 178.640625 330.445312 178.539062 C 330.597656 178.4375 330.777344 178.378906 330.960938 178.378906 L 335.878906 178.378906 C 336.023438 178.378906 336.164062 178.414062 336.292969 178.476562 C 336.417969 178.539062 336.527344 178.632812 336.609375 178.746094 C 336.691406 178.859375 336.742188 178.988281 336.761719 179.125 C 336.777344 179.261719 336.761719 179.402344 336.710938 179.53125 L 325.625 208.457031 C 323.5 213.59375 322.035156 218.242188 315.125 218.242188 C 313.871094 218.246094 312.617188 218.167969 311.375 218.019531 C 311.160156 217.992188 310.960938 217.894531 310.820312 217.738281 C 310.675781 217.582031 310.597656 217.382812 310.597656 217.171875 L 310.597656 213.628906 C 310.597656 213.503906 310.625 213.378906 310.679688 213.265625 C 310.734375 213.152344 310.816406 213.054688 310.914062 212.972656 C 311.011719 212.890625 311.128906 212.835938 311.253906 212.800781 C 311.378906 212.769531 311.511719 212.765625 311.640625 212.785156 C 312.316406 212.917969 313.003906 212.992188 313.695312 213.003906 C 316.6875 213.003906 317.535156 211.457031 318.285156 209.027344 L 319.027344 206.824219 L 308.257812 179.554688 C 308.203125 179.425781 308.179688 179.285156 308.191406 179.144531 C 308.207031 179.007812 308.253906 178.875 308.335938 178.757812 C 308.417969 178.640625 308.527344 178.546875 308.65625 178.480469 C 308.78125 178.414062 308.925781 178.378906 309.070312 178.378906 Z M 309.070312 178.378906 " fill-opacity="1" fill-rule="nonzero"/><path fill="#000000" d="M 216.683594 177.609375 C 210.390625 177.609375 204.253906 179.566406 203.308594 186.128906 C 203.292969 186.25 203.300781 186.371094 203.335938 186.488281 C 203.375 186.605469 203.4375 186.714844 203.519531 186.804688 C 203.601562 186.898438 203.703125 186.972656 203.820312 187.023438 C 203.933594 187.074219 204.0625 187.101562 204.1875 187.101562 L 208.972656 187.101562 C 209.175781 187.101562 209.371094 187.03125 209.527344 186.910156 C 209.683594 186.789062 209.792969 186.617188 209.835938 186.425781 C 210.433594 183.796875 212.875 182.570312 216.273438 182.570312 C 218.851562 182.570312 222.40625 183.144531 222.40625 186.433594 C 222.40625 190.1875 218.277344 189.582031 213.515625 190.460938 C 208.011719 191.039062 202.105469 192.230469 202.105469 199.351562 C 202.105469 204.921875 206.921875 207.679688 212.277344 207.679688 C 216.03125 207.679688 219.597656 206.707031 222.375 202.5 L 222.375 206.0625 C 222.375 206.285156 222.46875 206.496094 222.632812 206.65625 C 222.796875 206.8125 223.015625 206.902344 223.246094 206.902344 L 227.878906 206.902344 C 227.96875 206.902344 228.058594 206.886719 228.140625 206.855469 C 228.226562 206.820312 228.300781 206.773438 228.367188 206.710938 C 228.429688 206.648438 228.480469 206.574219 228.515625 206.496094 C 228.550781 206.414062 228.566406 206.328125 228.566406 206.242188 L 228.566406 185.886719 C 228.558594 179.871094 222.457031 177.609375 216.683594 177.609375 Z M 222.019531 195.453125 C 222.050781 196.398438 221.882812 197.339844 221.527344 198.21875 C 221.167969 199.097656 220.632812 199.902344 219.949219 200.578125 C 219.265625 201.253906 218.445312 201.792969 217.539062 202.160156 C 216.636719 202.527344 215.664062 202.714844 214.679688 202.710938 C 212.382812 202.710938 208.65625 201.941406 208.65625 199.074219 C 208.65625 195.765625 211.179688 194.769531 213.992188 194.324219 C 216.917969 193.828125 220.015625 193.886719 222.019531 192.597656 Z M 222.019531 195.453125 " fill-opacity="1" fill-rule="nonzero"/></svg>