<svg width="300" height="212" viewBox="0 0 300 212" fill="none" xmlns="http://www.w3.org/2000/svg">
<g clip-path="url(#clip0_512_23673)">
<path d="M124.592 208.377C124.592 208.377 169.226 219.137 193.331 207.422C204.44 202.023 207.41 190.739 218.205 188.44C229.001 186.141 238.728 180.649 245.557 172.998L253.715 163.856C267.581 148.32 261.607 127.021 241.498 120.29C225.312 114.873 217.682 99.5761 223.92 85.0521L224.626 83.4107C230.265 70.2826 225.309 56.2381 212.419 48.8242L196.875 39.8831C181.508 31.0434 180.086 37.5174 159.273 39.1977C138.46 40.8779 128.725 65.8579 114.522 63.6416L108.353 62.679C90.6354 59.9141 74.3525 74.2116 67.0114 88.7949L62.305 98.1443C57.6487 107.394 59.0248 117.664 65.9149 125.085C73.836 133.617 74.3758 145.777 67.2763 155.747L65.2075 158.652C52.2857 176.798 61.607 199.12 84.4306 204.687L98.4891 208.116C106.834 210.151 115.84 210.241 124.592 208.377Z" fill="#EBCFE4"/>
<path d="M116.439 177.32C116.614 179.642 123.493 188.338 148.646 188.338C153.468 188.338 158.353 187.93 162.986 187.154L172.042 107.22C167.185 107.667 162.974 107.521 158.996 107.383C155.637 107.267 152.444 107.156 149.166 107.412C148.928 107.642 134.053 105.797 129.204 104.056L128.738 103.888C124.024 102.198 119.02 100.403 114.291 96.0908C112.436 96.4623 112.855 107.411 113.417 122.116C113.746 130.728 114.124 135.613 114.124 145.431C114.124 145.469 115.726 167.511 116.265 174.922L116.266 174.935L116.439 177.32Z" fill="white"/>
<path fill-rule="evenodd" clip-rule="evenodd" d="M151.981 85.2303H156.581L155.613 86.2953L151.981 85.2303Z" fill="#290568"/>
<path fill-rule="evenodd" clip-rule="evenodd" d="M112.741 162.301C112.364 156.099 112 150.105 111.689 148.004L107.589 95.2614C107.455 83.5381 145.48 82.3929 157.232 82.3929C158.014 82.3929 158.485 82.3986 158.579 82.3997L158.596 82.3999C158.753 82.0233 158.883 81.6363 158.986 81.2416C159.92 76.4291 160.124 73.3614 160.254 71.4143C160.445 68.547 160.475 68.1099 162.43 68.1099C162.478 68.1099 182.602 68.678 186.359 68.8404C187.78 68.9021 188.382 68.9758 188.382 74.9982C188.382 79.0692 187.789 81.6928 187.096 84.757C186.97 85.3131 186.841 85.8838 186.712 86.4803C195.853 89.591 197.006 91.6218 197.754 92.9389C198.004 93.3799 198.209 93.7408 198.653 94.0355C198.772 94.1142 198.832 95.7779 198.832 96.6358C198.832 96.7772 197.768 105.557 197.145 110.574L190.311 149.316C190.311 149.485 190.343 150.778 190.377 152.189L190.377 152.193C190.419 153.884 190.464 155.743 190.464 156.035V156.806C188.665 169.602 188.185 176.281 188.12 177.192C188.116 177.251 188.113 177.286 188.112 177.297C187.384 185.361 164.875 191 148.272 191C142.769 191 120.981 190.278 114.183 179.442C113.741 178.738 113.23 170.345 112.741 162.301ZM110.383 94.3845C112.246 89.2476 129.881 86.5124 133.491 86.4427L110.383 94.3845ZM151.981 85.2303H156.581L155.613 86.2953L151.981 85.2303ZM185.73 74.9234C185.73 84.6948 181.404 96.559 172.042 98.7066C168.432 93.9192 163.712 90.3963 158.441 87.4911C161.966 84.176 162.395 78.4479 162.783 73.2752C162.847 72.4184 162.91 71.5767 162.986 70.7638L185.507 71.4287C185.7 72.583 185.774 73.754 185.73 74.9234ZM195.658 95.0664C195.658 96.5204 193.305 98.0748 191.952 98.6609C191.27 97.0121 190.254 95.5221 188.968 94.2844C187.682 93.0467 186.155 92.0882 184.481 91.4688L185.682 88.9568C192.309 90.9157 195.659 93.2558 195.659 95.0664H195.658ZM184.591 178.927C179.797 182.832 171.855 185.668 162.986 187.154C158.353 187.93 153.468 188.338 148.646 188.338C123.493 188.338 116.614 179.642 116.439 177.32L116.266 174.935L116.265 174.922C115.726 167.511 114.124 145.469 114.124 145.431C114.124 135.613 113.746 130.727 113.417 122.116C112.855 107.411 112.436 96.4623 114.291 96.0907C119.02 100.403 124.025 102.198 128.738 103.888C128.894 103.944 129.049 104 129.204 104.056C134.054 105.797 148.929 107.642 149.166 107.412C152.444 107.156 155.638 107.267 158.996 107.383C162.974 107.521 167.185 107.667 172.042 107.22C178.463 106.629 186.015 105.001 195.658 100.949C195.658 100.949 187.803 147.136 187.803 151.348C187.803 151.837 187.805 152.359 187.807 152.96C187.809 153.733 187.812 154.635 187.813 155.76L187.723 158.767C185.468 178.313 185.342 178.401 184.725 178.829C184.683 178.858 184.639 178.889 184.591 178.927ZM144.237 87.0274C159.309 87.0274 170.51 98.8605 170.51 102.578C170.506 103.056 170.374 103.523 170.128 103.932L161.934 104.573L159.07 104.607C158.971 104.615 158.894 104.624 158.817 104.632C158.339 104.684 157.843 104.738 152.105 104.738C150.122 104.738 149.658 104.602 149.352 104.512C149.201 104.468 149.089 104.435 148.853 104.435C137.728 102.865 118.121 97.9529 116.801 95.1135L127.034 91.6082C127.188 91.5254 137.8 87.0274 144.237 87.0274Z" fill="#290568"/>
<path d="M187.723 158.767L187.813 155.76C187.812 154.635 187.809 153.733 187.807 152.96C187.805 152.359 187.803 151.837 187.803 151.348C187.803 147.136 195.658 100.949 195.658 100.949C186.015 105.001 178.463 106.629 172.042 107.22L162.986 187.154C171.855 185.668 179.797 182.832 184.591 178.927C184.639 178.889 184.683 178.858 184.725 178.829C185.342 178.401 185.468 178.313 187.723 158.767Z" fill="#290568"/>
<path fill-rule="evenodd" clip-rule="evenodd" d="M140.563 59.129C135.719 57.2394 124.98 53.0508 121.572 42.7462C120.653 39.9676 120.897 39.3157 121.052 38.9001C121.125 38.7057 121.178 38.5631 121.084 38.2788C120.99 38.0169 120.8 37.8001 120.554 37.6713C120.307 37.5424 120.021 37.511 119.752 37.5832L119.687 37.6045C119.425 37.6913 119.296 37.8293 114.888 42.5345C112.785 44.7801 109.707 48.0659 105.176 52.883C104.994 53.0451 104.864 53.257 104.802 53.4923C104.74 53.7276 104.749 53.976 104.827 54.2064C104.853 54.2864 104.878 54.3411 104.903 54.397C104.93 54.4552 104.956 54.5147 104.986 54.6052C105.074 54.8695 105.099 55.1734 105.134 55.5938C105.206 56.4474 105.318 57.7814 106.07 60.24C112.587 79.008 128.815 79.5001 129.473 79.2822C129.988 79.111 143.385 61.5443 142.97 60.2894C142.885 60.0348 141.974 59.6794 140.563 59.129ZM108.133 59.5301C111.941 71.0459 123.801 78.5051 128.526 76.9424C129.244 76.705 140.083 61.5643 140.259 61.2712C125.11 55.9224 120.934 47.6475 119.402 43.0171C119.325 42.7839 119.249 42.5467 119.17 42.3036C119.088 42.048 119.003 41.7858 118.914 41.5148L118.909 41.4988C118.803 41.5885 118.75 41.6278 118.7 41.6695C118.403 41.9149 118.177 42.2453 107.644 53.3986C106.519 54.5904 108.107 59.452 108.133 59.5301Z" fill="#290568"/>
<path d="M190.683 16.5769C193.297 25.3037 193.102 45.8824 173.282 53.8373C170.968 54.4203 172.322 55.0656 156.959 39.1872C156.58 38.843 156.288 38.4137 156.106 37.9347C155.654 36.4255 157.717 36.6969 160.13 32.058C162.271 27.94 164.054 21.0681 162.406 15.5635C161.846 13.6952 161.228 13.0561 161.076 12.5486C160.863 11.8357 161.227 10.6187 161.897 10.4182C162.458 10.2501 185.608 13.3499 188.918 13.9069C189.689 14.0366 190.048 14.4542 190.683 16.5769Z" fill="#290568"/>
<path d="M214.697 59.9756C214.647 59.9124 214.585 59.8601 214.514 59.8219C213.927 59.5067 199.552 61.3698 197.971 61.1991C197.827 61.164 197.676 61.1777 197.542 61.2381C197.407 61.2985 197.296 61.4021 197.226 61.5325C195.852 64.0927 194.506 79.8116 203.808 84.805C204.005 84.911 218.216 79.6773 218.839 78.518C219.268 77.7168 217.833 77.6662 216.644 74.9099C212.051 64.2636 216.802 61.1058 214.697 59.9756Z" fill="#290568"/>
</g>
<defs>
<clipPath id="clip0_512_23673">
<rect width="300" height="211.929" fill="white"/>
</clipPath>
</defs>
</svg>
