<svg width="16" height="16" viewBox="0 0 16 16" fill="none" xmlns="http://www.w3.org/2000/svg">
<path d="M3.8 4C3.35817 4 3 4.35817 3 4.8V4.8C3 5.24183 3.35817 5.6 3.8 5.6H3.86667C4.30849 5.6 4.66667 5.24183 4.66667 4.8V4.8C4.66667 4.35817 4.30849 4 3.86667 4H3.8ZM7.13333 4C6.6915 4 6.33333 4.35817 6.33333 4.8V4.8C6.33333 5.24183 6.69151 5.6 7.13333 5.6H12.2C12.6418 5.6 13 5.24183 13 4.8V4.8C13 4.35817 12.6418 4 12.2 4H7.13333ZM3.8 7.2C3.35817 7.2 3 7.55817 3 8V8C3 8.44183 3.35817 8.8 3.8 8.8H3.86667C4.30849 8.8 4.66667 8.44183 4.66667 8V8C4.66667 7.55817 4.30849 7.2 3.86667 7.2H3.8ZM7.13333 7.2C6.6915 7.2 6.33333 7.55817 6.33333 8V8C6.33333 8.44183 6.69151 8.8 7.13333 8.8H12.2C12.6418 8.8 13 8.44183 13 8V8C13 7.55817 12.6418 7.2 12.2 7.2H7.13333ZM3.8 10.4C3.35817 10.4 3 10.7582 3 11.2V11.2C3 11.6418 3.35817 12 3.8 12H3.86667C4.30849 12 4.66667 11.6418 4.66667 11.2V11.2C4.66667 10.7582 4.30849 10.4 3.86667 10.4H3.8ZM7.13333 10.4C6.6915 10.4 6.33333 10.7582 6.33333 11.2V11.2C6.33333 11.6418 6.69151 12 7.13333 12H12.2C12.6418 12 13 11.6418 13 11.2V11.2C13 10.7582 12.6418 10.4 12.2 10.4H7.13333Z" fill="white"/>
</svg>
