<svg width="24" height="24" viewBox="0 0 24 24" fill="none" xmlns="http://www.w3.org/2000/svg">
<path d="M19.9648 7.83027L13.3132 3.39767C12.9242 3.13851 12.4673 3 11.9998 3C11.5323 3 11.0754 3.13851 10.6864 3.39767L4.03781 7.83027C3.38923 8.26167 2.9996 8.98912 3 9.76798V18.1633C3 18.9092 3.29624 19.6247 3.82376 20.152C4.3511 20.6796 5.06658 20.9758 5.8125 20.9758H18.1875C18.9334 20.9758 19.6489 20.6795 20.1762 20.152C20.7038 19.6247 21 18.9092 21 18.1633V9.76798C21.0016 8.98952 20.6129 8.26188 19.9651 7.83027H19.9648ZM18.7496 18.1632C18.7496 18.3125 18.6904 18.4555 18.585 18.561C18.4795 18.6664 18.3365 18.7256 18.1872 18.7256H5.81219C5.50143 18.7256 5.24974 18.4739 5.24974 18.1632V9.76789C5.24954 9.74219 5.26229 9.71806 5.28348 9.70334L11.935 5.26803C11.9745 5.24233 12.0251 5.24233 12.0645 5.26803L18.7161 9.70334C18.7373 9.71805 18.75 9.74218 18.7498 9.76789L18.7496 18.1632Z" fill="white"/>
<path d="M7.5 15.9131C7.5 15.2918 8.00369 14.7881 8.62502 14.7881H15.375C15.9963 14.7881 16.5 15.2918 16.5 15.9131C16.5 16.5344 15.9963 17.0381 15.375 17.0381H8.62502C8.00369 17.0381 7.5 16.5344 7.5 15.9131Z" fill="white"/>
</svg>
