<svg width="24" height="24" viewBox="0 0 24 24" fill="none" xmlns="http://www.w3.org/2000/svg">
<path d="M5.28401 16.401C5.59301 16.8874 5.95929 17.3351 6.37526 17.7341V18.651C6.37526 19.2478 6.61226 19.8201 7.03426 20.2421C7.45627 20.6641 8.02857 20.9011 8.6254 20.9011H16.5007C17.0974 20.9011 17.6696 20.6641 18.0917 20.2421C18.5137 19.8201 18.7507 19.2478 18.7507 18.651V17.7369C20.3293 16.217 21.1462 14.0715 20.9784 11.8867C20.9194 11.1048 20.7293 10.3385 20.4158 9.61984C21.1581 8.2292 21.1189 6.55177 20.3124 5.19764C19.5058 3.84332 18.0497 3.00973 16.4734 3.00008C14.8972 2.99047 13.4311 3.80625 12.608 5.15053H11.5925C10.7744 4.42503 9.71868 4.02478 8.62532 4.02538C8.02849 4.02538 7.45623 4.26258 7.03418 4.68439C6.61217 5.1064 6.37518 5.6787 6.37518 6.27553V7.19254C5.95925 7.5916 5.59297 8.03909 5.28393 8.52568C4.65631 8.58728 4.0742 8.88098 3.65181 9.34912C3.2294 9.81743 2.99692 10.4264 3.00003 11.057V13.8696C2.99689 14.5002 3.22938 15.1094 3.65181 15.5775C4.07423 16.0456 4.65631 16.3393 5.28393 16.4011L5.28401 16.401ZM16.5008 5.15053C17.0975 5.15053 17.6697 5.38754 18.0918 5.80954C18.5138 6.23154 18.7508 6.80385 18.7508 7.40048C18.7508 7.99731 18.5138 8.56957 18.0918 8.99162C17.6698 9.41366 17.0975 9.65062 16.5008 9.65062C15.904 9.65062 15.3317 9.41362 14.9097 8.99162C14.4877 8.56961 14.2507 7.99731 14.2507 7.40048C14.2507 6.80385 14.4877 6.23158 14.9097 5.80954C15.3317 5.3875 15.904 5.15053 16.5008 5.15053ZM5.25036 11.057C5.25036 10.9016 5.37612 10.7759 5.5315 10.7759H6.68473C7.042 9.74491 7.72259 8.85713 8.62549 8.24443V6.27565C9.03474 6.2778 9.43557 6.3916 9.78499 6.60466C10.1344 6.81792 10.4191 7.12223 10.6084 7.48496C10.8821 7.43415 11.1598 7.4059 11.4382 7.4006H12.0006C12.0012 8.9823 12.8321 10.4475 14.1891 11.2599C15.546 12.0724 17.2299 12.1127 18.6243 11.3664C18.679 11.594 18.7167 11.8253 18.7369 12.0584C18.8105 12.9585 18.642 13.8618 18.2488 14.675C17.8556 15.4881 17.2521 16.181 16.5009 16.6823V18.6511H14.2507V17.8074C14.2507 17.7327 14.2211 17.6613 14.1683 17.6085C14.1156 17.5557 14.044 17.5261 13.9694 17.5261H11.1568C11.0014 17.5261 10.8756 17.6521 10.8756 17.8075V18.6513L8.6255 18.6511V16.6823C7.7226 16.0698 7.04204 15.1818 6.68474 14.1511H5.53152C5.37613 14.1511 5.25037 14.0251 5.25037 13.8697L5.25036 11.057Z" fill="white"/>
</svg>
