<svg width="16" height="16" viewBox="0 0 16 16" fill="none" xmlns="http://www.w3.org/2000/svg">
<path d="M10.7 3C8.963 3 8 4.25286 8 4.25286C8 4.25286 7.037 3 5.3 3C3.4772 3 2 4.47586 2 6.297C2 8.79733 4.9472 11.2203 5.7686 11.9858C6.7148 12.867 8 14 8 14C8 14 9.2852 12.867 10.2314 11.9858C11.0528 11.2203 14 8.79733 14 6.297C14 4.47586 12.5228 3 10.7 3ZM9.6866 10.8589C9.5804 10.9548 9.488 11.0381 9.413 11.1082C8.9624 11.5278 8.4296 12.0092 8 12.3941C7.5704 12.0092 7.037 11.5272 6.587 11.1082C6.5114 11.0381 6.419 10.9542 6.3134 10.8589C5.4614 10.0898 3.2 8.04681 3.2 6.297C3.2 5.14005 4.142 4.19891 5.3 4.19891C6.3962 4.19891 7.0316 4.96322 7.0484 4.983L8 5.99727L8.9516 4.983C8.9576 4.9752 9.6038 4.19891 10.7 4.19891C11.858 4.19891 12.8 5.14005 12.8 6.297C12.8 8.04681 10.5386 10.0898 9.6866 10.8589Z" fill="white"/>
</svg>
