<svg width="24" height="24" viewBox="0 0 24 24" fill="none" xmlns="http://www.w3.org/2000/svg">
<path d="M16.2856 8.99992C16.2856 9.63109 15.774 10.1427 15.1428 10.1427C14.5117 10.1427 13.9999 9.63109 13.9999 8.99992C13.9999 8.36875 14.5117 7.85718 15.1428 7.85718C15.774 7.85718 16.2856 8.36875 16.2856 8.99992Z" fill="white"/>
<path d="M16.2856 13.2858C16.2856 13.917 15.774 14.4286 15.1428 14.4286C14.5117 14.4286 13.9999 13.917 13.9999 13.2858C13.9999 12.6546 14.5117 12.1431 15.1428 12.1431C15.774 12.1431 16.2856 12.6546 16.2856 13.2858Z" fill="white"/>
<path d="M16.5713 3.0001H7.42854C6.51937 3.0001 5.64724 3.36142 5.00428 4.00438C4.36133 4.64733 4.00001 5.51941 4.00001 6.42884V17.3343C3.99802 18.0924 4.29955 18.8199 4.83725 19.3544L5.35142 19.8686C5.90208 20.4186 6.64865 20.7278 7.42711 20.7278C8.20557 20.7278 8.95215 20.4186 9.5028 19.8686L9.71147 19.6599L9.92013 19.8686H9.91993C10.4708 20.4186 11.2174 20.7278 11.9956 20.7278C12.7741 20.7278 13.5207 20.4186 14.0715 19.8686L14.2802 19.6599L14.4888 19.8686H14.4886C15.0393 20.4186 15.7859 20.7278 16.5643 20.7278C17.3428 20.7278 18.0894 20.4186 18.64 19.8686L19.3228 19.1858C19.7539 18.7589 19.9974 18.1781 20 17.5715V6.42874C20 5.51936 19.6387 4.64723 18.9957 4.00427C18.3528 3.36132 17.4807 3 16.5715 3L16.5713 3.0001ZM17.714 17.5714L17.0312 18.2542C16.7769 18.5079 16.3654 18.5079 16.1113 18.2542L15.2541 17.397V17.3972C14.9936 17.1369 14.6407 16.9908 14.2726 16.9908C13.9047 16.9908 13.5515 17.1369 13.2913 17.3972L12.4341 18.2544V18.2542C12.1798 18.5079 11.7684 18.5079 11.5142 18.2542L10.657 17.397V17.3972C10.3967 17.1369 10.0436 16.9908 9.67566 16.9908C9.30756 16.9908 8.9546 17.1369 8.69414 17.3972L7.83696 18.2544V18.2542C7.58285 18.5079 7.1713 18.5079 6.91702 18.2542L6.40284 17.74C6.31336 17.6246 6.2715 17.4795 6.28565 17.3342V6.42873C6.28565 6.1256 6.40603 5.83481 6.62047 5.62058C6.83471 5.40614 7.12548 5.28576 7.42842 5.28576H16.5712C16.8741 5.28576 17.1649 5.40614 17.3791 5.62058C17.5936 5.83482 17.7139 6.12559 17.7139 6.42873L17.714 17.5714Z" fill="white"/>
<path d="M11.4285 7.85718H9.14274C8.73438 7.85718 8.35714 8.07501 8.15306 8.42855C7.94898 8.7821 7.94898 9.21777 8.15306 9.57129C8.35714 9.92484 8.73443 10.1427 9.14274 10.1427H11.4285C11.8368 10.1427 12.2141 9.92483 12.4182 9.57129C12.6222 9.21774 12.6222 8.78206 12.4182 8.42855C12.2141 8.075 11.8368 7.85718 11.4285 7.85718Z" fill="white"/>
<path d="M11.4285 12.1428H9.14274C8.73438 12.1428 8.35714 12.3607 8.15306 12.7142C7.94898 13.0677 7.94898 13.5034 8.15306 13.8569C8.35714 14.2105 8.73443 14.4283 9.14274 14.4283H11.4285C11.8368 14.4283 12.2141 14.2105 12.4182 13.8569C12.6222 13.5034 12.6222 13.0677 12.4182 12.7142C12.2141 12.3606 11.8368 12.1428 11.4285 12.1428Z" fill="white"/>
</svg>
