<svg width="16" height="16" viewBox="0 0 16 16" fill="none" xmlns="http://www.w3.org/2000/svg">
<path fill-rule="evenodd" clip-rule="evenodd" d="M7.28453 3.38048C7.10124 3.14885 6.81771 3 6.5 3H4C3.4485 3 3 3.4485 3 4V7.5C3 7.81771 3.14885 8.10124 3.38048 8.28453C3.55093 8.4194 3.76621 8.5 4 8.5H6.5C6.73379 8.5 6.94907 8.4194 7.11952 8.28453C7.15517 8.25632 7.18886 8.22574 7.22034 8.19302C7.39344 8.01316 7.5 7.76881 7.5 7.5V4C7.5 3.76621 7.4194 3.55093 7.28453 3.38048ZM8.77966 7.80698C8.60656 7.98684 8.5 8.23119 8.5 8.5V12C8.5 12.2338 8.5806 12.4491 8.71547 12.6195C8.89876 12.8511 9.18229 13 9.5 13H12C12.5515 13 13 12.5515 13 12V8.5C13 8.18229 12.8511 7.89876 12.6195 7.71547C12.4491 7.5806 12.2338 7.5 12 7.5H9.5C9.26621 7.5 9.05093 7.5806 8.88048 7.71547C8.84483 7.74368 8.81114 7.77426 8.77966 7.80698ZM8.71547 3.38048C8.5806 3.55093 8.5 3.76621 8.5 4V5.5C8.5 5.77919 8.61494 6.03199 8.8 6.21356C8.82553 6.23861 8.8524 6.26231 8.88048 6.28453C9.05093 6.4194 9.26621 6.5 9.5 6.5H12C12.2338 6.5 12.4491 6.4194 12.6195 6.28453C12.8511 6.10124 13 5.81771 13 5.5V4C13 3.4485 12.5515 3 12 3H9.5C9.18229 3 8.89876 3.14885 8.71547 3.38048ZM7.28453 12.6195C7.4194 12.4491 7.5 12.2338 7.5 12V10.5C7.5 10.2208 7.38506 9.96801 7.2 9.78644C7.17447 9.76139 7.1476 9.73769 7.11952 9.71547C6.94907 9.5806 6.73379 9.5 6.5 9.5H4C3.76621 9.5 3.55093 9.5806 3.38048 9.71547C3.14885 9.89876 3 10.1823 3 10.5V12C3 12.5515 3.4485 13 4 13H6.5C6.81771 13 7.10124 12.8511 7.28453 12.6195ZM4.3 4.3V7.2H6.2V4.3H4.3ZM9.8 4.3V5.2H11.7V4.3H9.8ZM4.3 10.8V11.7H6.2V10.8H4.3ZM9.8 8.8V11.7H11.7V8.8H9.8Z" fill="#A9A4B7"/>
</svg>
