<svg width="16" height="16" viewBox="0 0 16 16" fill="none" xmlns="http://www.w3.org/2000/svg">
<path fill-rule="evenodd" clip-rule="evenodd" d="M6.52333 6.62343C6.69797 6.5047 6.82219 6.32433 6.88799 6.22501ZM6.88799 6.22501C6.9719 6.09834 7.05796 5.9476 7.1413 5.79342ZM7.1413 5.79342C7.256 5.58123 7.38372 5.32806 7.51025 5.07726ZM7.51025 5.07726C7.5655 4.96775 7.62052 4.85869 7.67412 4.75369ZM7.67412 4.75369C7.79986 4.50741 7.91965 4.27972 8.03008 4.08784ZM8.03008 4.08784C8.13709 4.28119 8.25284 4.5104 8.37423 4.75825C8.42603 4.86404 8.47919 4.97391 8.53256 5.08425C8.65482 5.33697 8.77825 5.59212 8.88935 5.80607C8.97007 5.96152 9.05358 6.11361 9.13537 6.24161C9.19947 6.34194 9.32077 6.52446 9.49367 6.64606L9.4937 6.64609C9.66343 6.76545 9.87558 6.82024 9.99208 6.84836C10.1416 6.88446 10.3164 6.91538 10.4953 6.94304C10.7416 6.98112 11.0321 7.01825 11.3213 7.05521C11.4481 7.07142 11.5746 7.08759 11.6971 7.10379C11.9527 7.13763 12.1933 7.17192 12.4049 7.20829C12.2597 7.34707 12.0921 7.49872 11.9126 7.65802C11.8226 7.73791 11.729 7.82016 11.6351 7.90268C11.4206 8.09127 11.2045 8.28124 11.0254 8.44756C10.8954 8.56835 10.7698 8.69034 10.6678 8.80328C10.59 8.88934 10.442 9.05774 10.3709 9.26027L10.3709 9.26032C10.2989 9.46542 10.3111 9.68953 10.3191 9.80483C10.3295 9.95551 10.3531 10.1265 10.381 10.298C10.4193 10.5341 10.4724 10.8108 10.5249 11.0846C10.5478 11.204 10.5706 11.3229 10.5921 11.4376C10.6382 11.6844 10.6786 11.9153 10.7074 12.1184C10.5011 12.0215 10.267 11.9013 10.0183 11.77C9.91039 11.7131 9.79915 11.6537 9.68762 11.5942C9.43303 11.4583 9.17692 11.3217 8.95571 11.2112C8.79496 11.1308 8.63534 11.0554 8.49258 10.9986C8.37957 10.9536 8.17731 10.8774 7.97171 10.8758H7.97167C7.76613 10.8743 7.56271 10.9473 7.449 10.9905C7.30534 11.0451 7.1445 11.1181 6.98243 11.1959C6.7594 11.303 6.50105 11.4357 6.2442 11.5676C6.13166 11.6254 6.01941 11.6831 5.91055 11.7384C5.66009 11.8655 5.42429 11.982 5.21664 12.0756C5.24886 11.8734 5.2931 11.6437 5.34324 11.3984C5.36662 11.284 5.39145 11.1654 5.41639 11.0464C5.47357 10.7734 5.53136 10.4976 5.57364 10.2621C5.60436 10.0911 5.63087 9.9205 5.64385 9.77001C5.65378 9.65494 5.66978 9.43097 5.60127 9.22463C5.53357 9.02074 5.38817 8.84986 5.31188 8.76262C5.21172 8.64806 5.08823 8.52412 4.96024 8.40134C4.78399 8.23226 4.57108 8.03896 4.35974 7.84708C4.26729 7.76315 4.17515 7.67949 4.0865 7.59825C3.90964 7.43616 3.74469 7.28194 3.60188 7.14093C3.81443 7.10772 4.05612 7.07705 4.31295 7.04707C4.43563 7.03275 4.56242 7.01853 4.68946 7.00427C4.9792 6.97176 5.27031 6.9391 5.51726 6.9048C5.69664 6.87989 5.87186 6.85166 6.02198 6.81786C6.13899 6.79152 6.35182 6.74003 6.5233 6.62346M3.17278 6.65415C3.17281 6.65416 3.17319 6.65487 3.17386 6.65626C3.17309 6.65484 3.17276 6.65414 3.17278 6.65415ZM5.16542 12.6535C5.16532 12.6527 5.16523 12.6519 5.16513 12.651C5.17127 12.6755 5.16869 12.6806 5.16542 12.6535ZM10.7486 12.6953C10.7449 12.7223 10.7424 12.7172 10.7489 12.6928C10.7488 12.6937 10.7487 12.6945 10.7486 12.6953ZM13.0381 7.36243C13.0381 7.36243 13.0374 7.36211 13.0362 7.36143C13.0376 7.36209 13.0382 7.36243 13.0381 7.36243ZM12.8415 6.72973C12.8421 6.72835 12.8425 6.72765 12.8426 6.72765C12.8426 6.72765 12.8422 6.72833 12.8415 6.72973ZM8.34669 3.62594C8.34662 3.62663 8.34133 3.63194 8.33101 3.63981C8.34159 3.62919 8.34676 3.62526 8.34669 3.62594ZM7.73669 3.63488C7.72652 3.62685 7.72132 3.62147 7.72127 3.62078C7.72121 3.6201 7.7263 3.62411 7.73669 3.63488ZM7.33871 2.65221C7.42919 2.56134 7.67763 2.32572 8.04415 2.32852L8.0442 2.32852C8.41101 2.33134 8.65576 2.57106 8.74481 2.66344C8.86758 2.79081 8.97695 2.947 9.06989 3.09461C9.25858 3.39427 9.45409 3.78016 9.63154 4.1425C9.69108 4.26407 9.74851 4.38281 9.80401 4.49755C9.92138 4.74022 10.0301 4.965 10.1318 5.16088C10.2052 5.3021 10.2658 5.41035 10.3138 5.4858C10.316 5.48634 10.3183 5.48689 10.3206 5.48744C10.4136 5.5099 10.5435 5.53386 10.7092 5.55948C10.9369 5.59468 11.1964 5.62784 11.4753 5.66346C11.6066 5.68024 11.7422 5.69756 11.8808 5.7159C12.2967 5.77096 12.738 5.83509 13.0903 5.9178C13.2635 5.95849 13.4484 6.01105 13.6084 6.08358C13.6886 6.11993 13.7868 6.17198 13.8798 6.24711C13.9698 6.3198 14.098 6.44893 14.1644 6.64891L14.1644 6.64895C14.2316 6.85146 14.205 7.03411 14.1731 7.15094C14.1406 7.26964 14.089 7.37079 14.0438 7.447C13.9537 7.59883 13.8312 7.74615 13.7132 7.87502C13.473 8.13744 13.1489 8.43275 12.8418 8.70521C12.7391 8.79638 12.6383 8.88492 12.5409 8.97055C12.3345 9.15198 12.1428 9.3204 11.9782 9.47334C11.8652 9.57827 11.7782 9.66382 11.7174 9.72997C11.7244 9.8151 11.7395 9.92958 11.7629 10.0738C11.7979 10.2895 11.8445 10.5325 11.895 10.7951C11.9188 10.9195 11.9435 11.0482 11.9683 11.1805C12.0418 11.5739 12.115 11.9977 12.1416 12.3476C12.1546 12.5196 12.1597 12.7103 12.1355 12.8861C12.1183 13.0115 12.0598 13.3637 11.7432 13.5789C11.5773 13.6917 11.4058 13.7204 11.2919 13.7268C11.1745 13.7334 11.0658 13.7194 10.979 13.7027C10.8062 13.6693 10.6254 13.6058 10.4606 13.539C10.1262 13.4035 9.73224 13.2021 9.36484 13.0082C9.24227 12.9435 9.12284 12.8797 9.00724 12.818C8.76197 12.6871 8.53395 12.5655 8.32992 12.4635C8.18151 12.3893 8.063 12.3344 7.97485 12.2994C7.96992 12.2974 7.96521 12.2956 7.96075 12.2938C7.95622 12.2955 7.95144 12.2973 7.94642 12.2992C7.85764 12.3329 7.73818 12.386 7.58852 12.4579C7.38278 12.5567 7.15271 12.6749 6.90525 12.802C6.78862 12.8619 6.66812 12.9238 6.54447 12.9866C6.17383 13.1748 5.7766 13.3701 5.43999 13.5005C5.27413 13.5647 5.09232 13.6255 4.91907 13.6561C4.83203 13.6716 4.72306 13.6839 4.60579 13.6754C4.49206 13.6673 4.32089 13.636 4.1566 13.5204C3.84307 13.2999 3.79056 12.9463 3.77545 12.8208C3.75424 12.6446 3.76254 12.454 3.77854 12.2823C3.81108 11.9328 3.89144 11.5102 3.97159 11.118C3.99855 10.9861 4.02544 10.8578 4.05141 10.7339C4.10628 10.472 4.15705 10.2298 4.19569 10.0146C4.2215 9.87089 4.23856 9.75673 4.24698 9.67172C4.18736 9.60476 4.102 9.51806 3.99106 9.41163C3.82903 9.25619 3.6403 9.08487 3.43697 8.90029C3.34101 8.81317 3.24179 8.72311 3.1406 8.63037C2.8382 8.35323 2.51906 8.05292 2.28325 7.78677C2.16745 7.65608 2.04739 7.50679 1.95978 7.35346C1.9158 7.27649 1.86593 7.17446 1.83543 7.05516C1.8054 6.93769 1.78195 6.75468 1.85254 6.55343L1.85255 6.55339C1.92224 6.35477 2.05234 6.22787 2.14339 6.15669C2.23751 6.08311 2.33645 6.03264 2.41722 5.99754C2.57838 5.92752 2.76402 5.87782 2.93793 5.8398C3.29147 5.76252 3.73377 5.70518 4.15063 5.65652C4.28946 5.64031 4.4253 5.62508 4.55684 5.61032C4.83629 5.57898 5.09639 5.54981 5.32469 5.51811C5.49082 5.49504 5.62107 5.47308 5.71451 5.45204C5.71701 5.45148 5.71944 5.45093 5.72182 5.45038C5.77124 5.37561 5.83382 5.26809 5.90972 5.12767C6.01476 4.93337 6.12729 4.71028 6.24876 4.46945C6.3062 4.35557 6.36564 4.23772 6.42724 4.11708C6.61081 3.75751 6.81283 3.37474 7.00653 3.07808C7.10195 2.93195 7.2139 2.77756 7.33871 2.65221Z" fill="#A9A4B7"/>
</svg>
