<svg width="16" height="16" viewBox="0 0 16 16" fill="none" xmlns="http://www.w3.org/2000/svg">
<path d="M7.99549 4C7.96617 4 7.90752 4.02644 7.8782 4.05769C7.84887 4.05769 7.13271 4.80048 6.64211 5.53846C6.61278 5.59976 6.61278 5.65986 6.64211 5.72115C6.67143 5.78245 6.72895 5.84615 6.78647 5.84615H7.41805V8C7.41805 9.17428 6.85414 9.79688 6.23609 10.2212C5.61805 10.6454 5 10.7788 5 10.7788L5.21654 11.9904C5.21654 11.9904 6.04211 11.8269 6.86767 11.2596C7.69323 10.6923 8.57293 9.625 8.57293 8V5.84615H9.20451C9.26203 5.84615 9.31955 5.8113 9.34887 5.75C9.3782 5.6887 9.3782 5.62861 9.34887 5.56731C8.88647 4.82933 8.14211 4.08894 8.11278 4.05769C8.08346 4.02644 8.02481 4 7.99549 4ZM8.95188 9.38462C8.80752 9.84615 8.60564 10.2476 8.37444 10.5865C9.12556 11.4171 10.1011 11.8462 10.7654 12L11 10.7981C10.9132 10.7668 9.61617 10.4615 8.95188 9.38462Z" fill="#A9A4B7"/>
<path fill-rule="evenodd" clip-rule="evenodd" d="M2.6861 2.6861C3.13953 2.23267 3.70125 2 4.34249 2H11.6575C12.2987 2 12.8605 2.23267 13.3139 2.6861C13.7673 3.13952 14 3.70124 14 4.34249V11.6575C14 12.2987 13.7673 12.8605 13.3139 13.3139C12.8605 13.7673 12.2987 14 11.6575 14H4.34249C3.70124 14 3.13953 13.7673 2.68611 13.3139C2.23267 12.8605 2 12.2988 2 11.6575V4.34249C2 3.70125 2.23268 3.13953 2.6861 2.6861ZM3.41341 3.41341C3.67394 3.15288 3.97405 3.02857 4.34249 3.02857H11.6575C12.0259 3.02857 12.3261 3.15288 12.5866 3.41341C12.8471 3.67395 12.9714 3.97405 12.9714 4.34249V11.6575C12.9714 12.0259 12.8471 12.326 12.5866 12.5866C12.326 12.8471 12.0259 12.9714 11.6575 12.9714H4.34249C3.97405 12.9714 3.67395 12.8471 3.4134 12.5866C3.15288 12.3261 3.02857 12.026 3.02857 11.6575V4.34249C3.02857 3.97405 3.15288 3.67394 3.41341 3.41341Z" fill="white"/>
</svg>
