<svg width="16" height="16" viewBox="0 0 16 16" fill="none" xmlns="http://www.w3.org/2000/svg">
<path d="M4.71859 4.04167C4.87052 4.04167 5.01623 3.98679 5.12366 3.88912C5.2311 3.79144 5.29145 3.65897 5.29145 3.52083C5.29145 3.3827 5.2311 3.25022 5.12366 3.15255C5.01623 3.05487 4.87052 3 4.71859 3H3.57286C3.42093 3 3.27522 3.05487 3.16779 3.15255C3.06036 3.25022 3 3.3827 3 3.52083V12.4792C3 12.6173 3.06036 12.7498 3.16779 12.8475C3.27522 12.9451 3.42093 13 3.57286 13H4.71859C4.87052 13 5.01623 12.9451 5.12366 12.8475C5.2311 12.7498 5.29145 12.6173 5.29145 12.4792C5.29145 12.341 5.2311 12.2086 5.12366 12.1109C5.01623 12.0132 4.87052 11.9583 4.71859 11.9583H4.14573V4.04167H4.71859ZM12.8953 7.69792L11.2798 5.61458C11.1922 5.5023 11.0593 5.42612 10.9101 5.40269C10.7608 5.37927 10.6075 5.41051 10.4835 5.48958C10.4216 5.52906 10.3688 5.57929 10.3284 5.6374C10.2879 5.6955 10.2604 5.76032 10.2477 5.82812C10.2349 5.89591 10.237 5.96533 10.2539 6.03238C10.2708 6.09943 10.3021 6.16277 10.3461 6.21875L11.3314 7.47917H6.69692C6.54499 7.47917 6.39928 7.53404 6.29184 7.63172C6.18441 7.72939 6.12406 7.86187 6.12406 8C6.12406 8.13813 6.18441 8.27061 6.29184 8.36828C6.39928 8.46596 6.54499 8.52083 6.69692 8.52083H11.2798L10.2487 9.77083C10.2035 9.82555 10.1707 9.88782 10.152 9.95407C10.1333 10.0203 10.1292 10.0893 10.1399 10.157C10.1505 10.2247 10.1757 10.2898 10.214 10.3487C10.2524 10.4075 10.3031 10.459 10.3632 10.5C10.4624 10.5676 10.583 10.6042 10.707 10.6042C10.7959 10.6042 10.8836 10.5853 10.9632 10.5492C11.0427 10.513 11.1119 10.4605 11.1652 10.3958L12.8838 8.3125C12.9572 8.22441 12.9979 8.11739 12.9999 8.00691C13.002 7.89643 12.9653 7.78822 12.8953 7.69792Z" fill="white"/>
</svg>
