<svg width="24" height="24" viewBox="0 0 24 24" fill="none" xmlns="http://www.w3.org/2000/svg">
<path d="M10.8782 19.742C10.8782 20.4413 10.3112 21.0081 9.6119 21.0081C8.91279 21.0081 8.34576 20.4413 8.34576 19.742C8.34576 19.0427 8.91279 18.4758 9.6119 18.4758C10.3112 18.4758 10.8782 19.0427 10.8782 19.742Z" fill="white"/>
<path d="M19.0381 19.742C19.0381 20.4413 18.4713 21.0081 17.772 21.0081C17.0727 21.0081 16.5059 20.4413 16.5059 19.742C16.5059 19.0427 17.0727 18.4758 17.772 18.4758C18.4713 18.4758 19.0381 19.0427 19.0381 19.742Z" fill="white"/>
<path d="M4.12525 5.25108H4.88502C5.13821 5.25108 5.33526 5.41987 5.41968 5.64499L8.17711 13.9174C8.62735 15.2961 9.92159 16.2246 11.3848 16.2246H16.0274C17.4623 16.2246 18.7567 15.3241 19.207 13.9455L20.8953 9.07778C21.2329 8.12115 20.7265 7.07991 19.7699 6.7704C19.6009 6.686 19.4041 6.65793 19.1789 6.65793H8.12088L7.55818 4.91345C7.16427 3.78785 6.09498 3 4.88517 3H4.1254C3.50638 3 3 3.50638 3 4.1254C3 4.74443 3.50638 5.251 4.1254 5.251L4.12525 5.25108ZM18.588 8.90881L17.0967 13.2139C16.9279 13.6641 16.5059 13.9736 16.0274 13.9736H11.3848C10.9065 13.9736 10.4843 13.6641 10.3155 13.2139L8.88055 8.90881H18.588Z" fill="white"/>
</svg>
