<svg width="24" height="24" viewBox="0 0 24 24" fill="none" xmlns="http://www.w3.org/2000/svg">
<path d="M20.7494 8.31201H12.625C12.1784 8.31201 11.7658 8.55025 11.5426 8.93691C11.3194 9.32357 11.3194 9.80007 11.5426 10.1867C11.7658 10.5736 12.1784 10.8118 12.625 10.8118H20.7494C21.196 10.8118 21.6086 10.5736 21.8318 10.1867C22.055 9.80003 22.055 9.32354 21.8318 8.93691C21.6086 8.55027 21.1959 8.31201 20.7494 8.31201Z" fill="white"/>
<path d="M20.7494 14H12.625C12.1784 14 11.7658 14.2382 11.5426 14.6249C11.3194 15.0116 11.3194 15.4881 11.5426 15.8747C11.7658 16.2616 12.1784 16.4998 12.625 16.4998H20.7494C21.196 16.4998 21.6086 16.2616 21.8318 15.8747C22.055 15.488 22.055 15.0115 21.8318 14.6249C21.6086 14.2383 21.1959 14 20.7494 14Z" fill="white"/>
<path d="M20.7494 19H12.625C12.1784 19 11.7658 19.2382 11.5426 19.6249C11.3194 20.0116 11.3194 20.4881 11.5426 20.8747C11.7658 21.2616 12.1784 21.4998 12.625 21.4998H20.7494C21.196 21.4998 21.6086 21.2616 21.8318 20.8747C22.055 20.488 22.055 20.0115 21.8318 19.6249C21.6086 19.2383 21.1959 19 20.7494 19Z" fill="white"/>
<path d="M20.7494 3H14.8124C14.366 3 13.9533 3.23824 13.73 3.6249C13.5068 4.01157 13.5068 4.48806 13.73 4.87469C13.9534 5.26137 14.366 5.49959 14.8124 5.49959H20.7494C21.196 5.49959 21.6086 5.26136 21.8318 4.87469C22.055 4.48802 22.055 4.01153 21.8318 3.6249C21.6086 3.23822 21.196 3 20.7494 3Z" fill="white"/>
<path d="M2.36628 8.10275L4.01934 9.75581C4.39533 10.1312 4.90515 10.3419 5.43637 10.3419C5.96777 10.3419 6.47736 10.1312 6.85356 9.75581L10.697 5.91547C11.0128 5.59964 11.1362 5.13908 11.0206 4.70753C10.9049 4.27595 10.5679 3.93878 10.1363 3.82322C9.70476 3.70748 9.24422 3.83085 8.92839 4.1469L5.43786 7.63721L4.13483 6.33418C3.819 6.01834 3.35844 5.89498 2.92689 6.0105C2.49531 6.12624 2.15836 6.46322 2.04258 6.89481C1.92706 7.32638 2.05042 7.78693 2.36626 8.10275H2.36628Z" fill="white"/>
<path d="M9 17.5C9 19.1569 7.65685 20.5 6 20.5C4.34315 20.5 3 19.1569 3 17.5C3 15.8431 4.34315 14.5 6 14.5C7.65685 14.5 9 15.8431 9 17.5Z" stroke="white" stroke-width="2"/>
</svg>
