<svg width="24" height="24" viewBox="0 0 24 24" fill="none" xmlns="http://www.w3.org/2000/svg">
<path d="M18.1875 4H5.8125C5.06658 4 4.3511 4.29643 3.82376 4.82376C3.29622 5.35131 3 6.06658 3 6.8125V16.9375C3 17.6834 3.29624 18.3987 3.82376 18.9262C4.3511 19.4536 5.06658 19.75 5.8125 19.75H18.1875C18.9334 19.75 19.6489 19.4536 20.1762 18.9262C20.7038 18.3987 21 17.6834 21 16.9375V6.8125C21 6.06658 20.7038 5.35131 20.1762 4.82376C19.6489 4.29642 18.9334 4 18.1875 4ZM18.7499 16.9375C18.7499 17.0866 18.6907 17.2298 18.5854 17.3352C18.4798 17.4407 18.3368 17.5 18.1875 17.5H5.81249C5.50173 17.5 5.25004 17.2481 5.25004 16.9375V10.75H18.75L18.7499 16.9375ZM18.7499 8.5H5.24995V6.8124C5.24995 6.50184 5.50165 6.24995 5.8124 6.24995H18.1874C18.3367 6.24995 18.4797 6.3092 18.5853 6.41474C18.6906 6.5201 18.7499 6.66331 18.7499 6.81241L18.7499 8.5Z" fill="white"/>
<path d="M8.34377 15.25H10.3125C10.7145 15.25 11.0858 15.0356 11.2869 14.6876C11.4878 14.3395 11.4878 13.9106 11.2869 13.5627C11.0858 13.2144 10.7145 13 10.3125 13H8.34377C7.94179 13 7.57043 13.2144 7.36954 13.5627C7.16865 13.9107 7.16865 14.3396 7.36954 14.6876C7.57043 15.0355 7.94184 15.25 8.34377 15.25Z" fill="white"/>
</svg>
