<svg width="24" height="24" viewBox="0 0 24 24" fill="none" xmlns="http://www.w3.org/2000/svg">
<path d="M3 5.59989V17.5999C3 18.5548 3.37918 19.4703 4.0545 20.1454C4.72961 20.8207 5.6453 21.1999 6.6 21.1999H18C18.7956 21.1999 19.5588 20.8839 20.1213 20.3212C20.684 19.7587 21 18.9955 21 18.1999V9.79989C21 9.00425 20.684 8.24129 20.1213 7.67857C19.5588 7.11607 18.7956 6.79989 18 6.79989V5C18 4.20436 17.684 3.44118 17.1213 2.87868C16.5588 2.31596 15.7956 2 15 2H6.6C5.64536 2 4.72961 2.37918 4.0545 3.0545C3.37923 3.72961 3 4.64509 3 5.6V5.59989ZM6.65395 4.4H14.9998C15.1589 4.4 15.3116 4.4632 15.424 4.57557C15.5366 4.68816 15.5998 4.8407 15.5998 4.99996V6.80006L6.5998 6.79985C6.25974 6.80174 5.93476 6.65881 5.7058 6.40707C5.47707 6.15554 5.36574 5.81843 5.39986 5.48002C5.43836 5.17679 5.58777 4.8985 5.81943 4.69905C6.05087 4.49962 6.34824 4.39311 6.65375 4.40002L6.65395 4.4ZM5.40005 8.99C5.7851 9.12811 6.19088 9.19905 6.59995 9.19989H17.9999C18.159 9.19989 18.3117 9.26309 18.4241 9.37567C18.5367 9.48826 18.5999 9.64081 18.5999 9.79985V18.1999C18.5999 18.3591 18.5367 18.5117 18.4241 18.6242C18.3117 18.7366 18.159 18.7998 17.9999 18.7998H6.59995C6.28166 18.7998 5.97654 18.6734 5.75137 18.4485C5.52642 18.2233 5.40002 17.9182 5.40002 17.5999L5.40005 8.99Z" fill="white"/>
<path d="M16.8 13.9999C16.8 14.6626 16.2627 15.1998 15.5999 15.1998C14.9372 15.1998 14.4 14.6626 14.4 13.9999C14.4 13.3372 14.9372 12.7998 15.5999 12.7998C16.2627 12.7998 16.8 13.3372 16.8 13.9999Z" fill="white"/>
</svg>
