<svg width="24" height="24" viewBox="0 0 24 24" fill="none" xmlns="http://www.w3.org/2000/svg">
<path d="M18.1875 8.54776V6.8125C18.1875 6.06658 17.8913 5.3511 17.3637 4.82376C16.8364 4.29622 16.1209 4 15.375 4H5.8125C5.06658 4 4.3511 4.29624 3.82376 4.82376C3.29622 5.3511 3 6.06658 3 6.8125V17.5C3 18.395 3.35548 19.2535 3.98859 19.8864C4.62151 20.5195 5.47977 20.875 6.375 20.875H17.625C18.5202 20.875 19.3785 20.5195 20.0114 19.8864C20.6445 19.2535 21 18.395 21 17.5V11.875C20.9998 11.0775 20.7173 10.3059 20.2025 9.69677C19.6877 9.08781 18.9738 8.68075 18.1875 8.54771V8.54776ZM7.5 11.3126V17.5001C7.5 17.9021 7.28557 18.2734 6.93755 18.4743C6.58952 18.6752 6.16065 18.6752 5.81265 18.4743C5.46462 18.2734 5.2502 17.902 5.2502 17.5001V6.8126C5.2502 6.50184 5.5019 6.25015 5.81265 6.25015H15.3752C15.5244 6.25015 15.6675 6.3094 15.773 6.41494C15.8784 6.5203 15.9376 6.66351 15.9376 6.81261V8.50021H10.3126C9.56669 8.50021 8.85142 8.79645 8.32387 9.32397C7.79653 9.85132 7.50011 10.5666 7.50011 11.3127L7.5 11.3126ZM18.75 14.1251V17.5C18.75 17.7984 18.6315 18.0845 18.4206 18.2956C18.2095 18.5065 17.9235 18.625 17.6251 18.625H9.55319C9.68268 18.264 9.74918 17.8836 9.74997 17.5001V11.3126C9.74997 11.0018 10.0019 10.7499 10.3124 10.7499H17.6249C17.9233 10.7499 18.2094 10.8686 18.4205 11.0795C18.6314 11.2904 18.7498 11.5766 18.7498 11.8751L18.75 14.1251Z" fill="white"/>
<path d="M11 16.125C11 15.5037 11.5037 15 12.125 15L16.375 15C16.9963 15 17.5 15.5037 17.5 16.125C17.5 16.7464 16.9963 17.25 16.375 17.25H12.125C11.5037 17.25 11 16.7464 11 16.125Z" fill="white"/>
</svg>
