<svg width="16" height="16" viewBox="0 0 16 16" fill="none" xmlns="http://www.w3.org/2000/svg">
<path fill-rule="evenodd" clip-rule="evenodd" d="M2.6861 2.6861C3.13953 2.23267 3.70125 2 4.34249 2H11.6575C12.2987 2 12.8605 2.23267 13.3139 2.6861C13.7673 3.13952 14 3.70124 14 4.34249V11.6575C14 12.2987 13.7673 12.8605 13.3139 13.3139C12.8605 13.7673 12.2987 14 11.6575 14H4.34249C3.70124 14 3.13953 13.7673 2.68611 13.3139C2.23267 12.8605 2 12.2988 2 11.6575V4.34249C2 3.70125 2.23268 3.13953 2.6861 2.6861ZM3.41341 3.41341C3.67394 3.15288 3.97405 3.02857 4.34249 3.02857H11.6575C12.0259 3.02857 12.3261 3.15288 12.5866 3.41341C12.8471 3.67395 12.9714 3.97405 12.9714 4.34249V11.6575C12.9714 12.0259 12.8471 12.326 12.5866 12.5866C12.326 12.8471 12.0259 12.9714 11.6575 12.9714H4.34249C3.97405 12.9714 3.67395 12.8471 3.4134 12.5866C3.15288 12.3261 3.02857 12.026 3.02857 11.6575V4.34249C3.02857 3.97405 3.15288 3.67394 3.41341 3.41341Z" fill="#A9A4B7"/>
<path fill-rule="evenodd" clip-rule="evenodd" d="M11.2514 7.44558L10.222 4.80972C10.2205 4.80587 10.219 4.80204 10.2174 4.79822C10.2174 4.79822 10.131 4.65639 10.0393 4.6113C9.97872 4.58154 9.87013 4.57143 9.87013 4.57143C9.82663 4.57155 9.78287 4.57954 9.73881 4.5954C9.72577 4.6001 9.71314 4.60541 9.70092 4.61135C9.61699 4.65167 9.55762 4.71402 9.52281 4.79839C9.52124 4.80218 9.5197 4.80598 9.51828 4.8098L8.48889 7.44558H7.28153C7.25202 7.44331 7.22225 7.44471 7.19222 7.44971C7.14243 7.45685 7.09658 7.47316 7.05469 7.49869C7.01253 7.52311 6.97704 7.55497 6.94828 7.59426C6.92999 7.61796 6.91529 7.64306 6.90414 7.6696L6.12987 9.15644L5.35558 7.66953C5.34446 7.6431 5.3298 7.61807 5.31159 7.59444C5.28275 7.555 5.24717 7.52304 5.20485 7.49855C5.16306 7.47316 5.11733 7.45685 5.06765 7.44974C5.03757 7.44469 5.00775 7.4433 4.97821 7.44558H4.25974C4.15646 7.44558 4.0683 7.48064 3.99526 7.55077C3.92223 7.6209 3.88571 7.70555 3.88571 7.80471C3.88571 7.90386 3.92223 7.98851 3.99526 8.05865C4.0683 8.12879 4.15646 8.16384 4.25974 8.16384H4.77663L5.78936 10.1086C5.82179 10.1789 5.87348 10.2332 5.94435 10.2714C5.95812 10.279 5.97237 10.2857 5.98718 10.2915C6.0097 10.3005 6.03285 10.3072 6.0566 10.3117C6.08076 10.3164 6.10518 10.3187 6.12995 10.3187C6.15467 10.3187 6.17905 10.3164 6.2031 10.3117C6.22689 10.3072 6.25001 10.3005 6.27252 10.2915C6.28726 10.2857 6.30149 10.279 6.3152 10.2715C6.38619 10.2333 6.43792 10.179 6.47038 10.1086L7.4831 8.16384H8.7203C8.75669 8.16675 8.79294 8.16413 8.82895 8.15605C8.87649 8.14653 8.92025 8.12821 8.96024 8.10114C9.00254 8.07395 9.03706 8.03976 9.06377 7.9986C9.0834 7.96987 9.09807 7.93917 9.10779 7.90649L9.87013 5.95448L10.6324 7.90631C10.6422 7.9392 10.657 7.97009 10.6768 7.99896C10.7034 8.0399 10.7377 8.07391 10.7798 8.10099C10.8199 8.12818 10.8638 8.14653 10.9115 8.15608C10.9474 8.16415 10.9836 8.16674 11.02 8.16384H11.7403C11.8435 8.16384 11.9317 8.12879 12.0047 8.05865C12.0778 7.98851 12.1143 7.90386 12.1143 7.80471C12.1143 7.70555 12.0778 7.6209 12.0047 7.55077C11.9317 7.48063 11.8435 7.44558 11.7403 7.44558H11.2514ZM4.25974 11.396H11.7403C11.8435 11.396 11.9317 11.4311 12.0047 11.5012C12.0778 11.5713 12.1143 11.656 12.1143 11.7552C12.1143 11.8543 12.0778 11.939 12.0047 12.0091C11.9317 12.0792 11.8435 12.1143 11.7403 12.1143H4.25974C4.15646 12.1143 4.0683 12.0792 3.99526 12.0091C3.92223 11.939 3.88571 11.8543 3.88571 11.7552C3.88571 11.656 3.92223 11.5713 3.99526 11.5012C4.0683 11.4311 4.15646 11.396 4.25974 11.396Z" fill="#A9A4B7"/>
<path d="M3.90031 11.4023C3.99945 11.3071 4.12187 11.2589 4.25977 11.2589H11.7403C11.8782 11.2589 12.0006 11.3071 12.0998 11.4023C12.1991 11.4977 12.2515 11.6178 12.2515 11.7552C12.2515 11.8926 12.1991 12.0127 12.0998 12.1081C12.0006 12.2033 11.8782 12.2515 11.7403 12.2515H4.25977C4.12188 12.2515 3.99945 12.2033 3.9003 12.108C3.80099 12.0127 3.7486 11.8926 3.7486 11.7552C3.7486 11.6178 3.80098 11.4977 3.90031 11.4023Z" fill="#A9A4B7"/>
<path fill-rule="evenodd" clip-rule="evenodd" d="M6.2805 10.439C6.29524 10.4332 6.30946 10.4265 6.32318 10.419C6.34278 10.4113 6.36183 10.4023 6.38028 10.3923C6.47524 10.3411 6.5479 10.2662 6.59345 10.1693L7.56634 8.30102H8.7153C8.76313 8.30427 8.81066 8.30059 8.85746 8.29024C8.92171 8.27717 8.98147 8.25218 9.03579 8.21565C9.09297 8.17865 9.14081 8.13148 9.17795 8.07466C9.20385 8.0365 9.2238 7.99536 9.23746 7.95156L9.87017 6.3315L10.5028 7.95133C10.5165 7.99545 10.5367 8.03683 10.5627 8.07517C10.5997 8.13164 10.6473 8.17856 10.7042 8.21543C10.7587 8.25216 10.8187 8.27718 10.883 8.29028C10.9298 8.30063 10.9773 8.30425 11.0251 8.30102H11.7403C11.8782 8.30102 12.0006 8.25282 12.0998 8.15761C12.1991 8.06222 12.2515 7.94211 12.2515 7.80474C12.2515 7.66738 12.1991 7.54727 12.0998 7.45187C12.0006 7.35667 11.8782 7.30847 11.7403 7.30847H11.3451L10.3503 4.76116L10.35 4.76042C10.348 4.75529 10.3461 4.75045 10.3443 4.74603C10.3415 4.73941 10.338 4.73261 10.3343 4.72649L10.3339 4.72588L10.3328 4.72403L10.329 4.71807C10.3259 4.71315 10.3214 4.70636 10.3159 4.6982C10.3048 4.68198 10.289 4.65978 10.2696 4.63572C10.2346 4.59217 10.1743 4.52488 10.0998 4.48825C10.0513 4.46442 9.99302 4.45187 9.95632 4.44526C9.93611 4.44162 9.91823 4.43909 9.90535 4.43746L9.88972 4.43561L9.88509 4.43513L9.88367 4.43498L9.88287 4.43491C9.87852 4.4345 9.87415 4.43431 9.86978 4.43432C9.80941 4.43449 9.7501 4.44563 9.69241 4.4664C9.67496 4.47267 9.6579 4.47984 9.64129 4.4879C9.55004 4.53218 9.48661 4.59544 9.39021 4.76087C9.00165 5.75577 8.39525 7.30847 8.39525 7.30847H7.28639C7.24785 7.30596 7.20941 7.30798 7.17127 7.31421C7.17127 7.31421 7.04212 7.3473 6.98466 7.38082C6.9272 7.41435 6.87821 7.45827 6.83868 7.51188C6.81514 7.54261 6.79551 7.57562 6.78015 7.61087L6.12991 8.85955L5.47961 7.61076C5.46429 7.57565 5.44473 7.54275 5.42132 7.51214C5.3817 7.45835 5.33258 7.41426 5.27485 7.38062C5.2177 7.34612 5.15528 7.32399 5.08876 7.31425C5.05045 7.30794 5.01192 7.30595 4.9734 7.30847H4.25977C4.12187 7.30847 3.99945 7.35668 3.90031 7.45187C3.801 7.54726 3.7486 7.66737 3.7486 7.80474C3.7486 7.94212 3.80099 8.06222 3.9003 8.1576C3.99945 8.25282 4.12189 8.30102 4.25977 8.30102H4.69346L5.66635 10.1693C5.71178 10.266 5.85779 10.3678 5.95233 10.4189C5.9661 10.4265 5.98035 10.4332 5.99516 10.439C6.01767 10.448 6.04083 10.4547 6.06458 10.4592C6.08874 10.4639 6.11316 10.4662 6.13792 10.4662C6.16265 10.4662 6.18703 10.4639 6.21108 10.4592C6.23487 10.4547 6.25799 10.448 6.2805 10.439Z" fill="#A9A4B7"/>
</svg>
