<svg width="16" height="16" viewBox="0 0 16 16" fill="none" xmlns="http://www.w3.org/2000/svg">
<path d="M8 2C7.50735 2 7.03233 2.05983 6.57886 2.16113C6.4843 2.18233 6.39893 2.2312 6.33454 2.301C6.27016 2.3708 6.22995 2.45808 6.21946 2.55078L6.11999 3.42148C6.08747 3.70681 5.91583 3.95926 5.65686 4.10293C5.39841 4.24632 5.0847 4.2622 4.81113 4.14688H4.81052L3.97761 3.79473C3.88877 3.75718 3.78998 3.74706 3.69488 3.76574C3.59979 3.78442 3.51308 3.83099 3.44674 3.89902C2.79925 4.56188 2.30232 5.36452 2.02011 6.26035C1.992 6.34951 1.99339 6.44486 2.0241 6.53322C2.05482 6.62159 2.11333 6.69863 2.19157 6.75371L2.93051 7.27402C3.17181 7.44438 3.31372 7.71284 3.31372 8C3.31372 8.28731 3.17182 8.556 2.93051 8.72598L2.19157 9.2457C2.11333 9.30078 2.05482 9.37782 2.0241 9.46619C1.99339 9.55456 1.992 9.6499 2.02011 9.73906C2.30229 10.6348 2.79883 11.438 3.44674 12.101C3.51316 12.1689 3.5999 12.2154 3.69499 12.2339C3.79008 12.2525 3.88883 12.2423 3.97761 12.2047L4.81052 11.8525C5.08422 11.737 5.39823 11.7536 5.65686 11.8971C5.91583 12.0407 6.08747 12.2932 6.11999 12.5785L6.21946 13.4492C6.23003 13.5417 6.2702 13.6288 6.33446 13.6985C6.39872 13.7682 6.48389 13.817 6.57825 13.8383C7.03193 13.94 7.50735 14 8 14C8.49265 14 8.96767 13.9402 9.42114 13.8389C9.5157 13.8177 9.60107 13.7688 9.66546 13.699C9.72984 13.6292 9.77005 13.5419 9.78054 13.4492L9.88001 12.5785C9.91253 12.2932 10.0842 12.0407 10.3431 11.8971C10.6016 11.7537 10.9153 11.7372 11.1889 11.8525L12.0224 12.2047C12.1112 12.2423 12.2099 12.2525 12.305 12.2339C12.4001 12.2154 12.4868 12.1689 12.5533 12.101C13.2007 11.4381 13.6977 10.6349 13.9799 9.73906C14.008 9.6499 14.0066 9.55456 13.9759 9.46619C13.9452 9.37782 13.8867 9.30078 13.8084 9.2457L13.0695 8.72598C12.8282 8.556 12.6863 8.28731 12.6863 8C12.6863 7.71269 12.8282 7.444 13.0695 7.27402L13.8084 6.7543C13.8867 6.69922 13.9452 6.62218 13.9759 6.53381C14.0066 6.44544 14.008 6.3501 13.9799 6.26094C13.6977 5.36511 13.2007 4.56188 12.5533 3.89902C12.4868 3.83109 12.4001 3.78463 12.305 3.76605C12.2099 3.74748 12.1112 3.7577 12.0224 3.79531L11.1889 4.14746C10.9153 4.26279 10.6016 4.24632 10.3431 4.10293C10.0842 3.95926 9.91253 3.70681 9.88001 3.42148L9.78054 2.55078C9.76997 2.45827 9.72979 2.37117 9.66554 2.3015C9.60128 2.23182 9.51611 2.18298 9.42175 2.16172C8.96807 2.06005 8.49265 2 8 2ZM8 2.9C8.30439 2.9 8.59669 2.95246 8.88966 3.00195L8.94824 3.51934C9.01319 4.08901 9.35806 4.5957 9.87451 4.88223C10.3913 5.16894 11.0205 5.2019 11.5666 4.97129L12.0621 4.76211C12.4425 5.20082 12.7438 5.69635 12.9542 6.23926L12.5148 6.54863C12.0338 6.88746 11.749 7.42691 11.749 8C11.749 8.57309 12.0338 9.11254 12.5148 9.45137L12.9542 9.76074C12.7438 10.3036 12.4425 10.7992 12.0621 11.2379L11.5666 11.0287C11.0205 10.7981 10.3913 10.8311 9.87451 11.1178C9.35806 11.4043 9.01319 11.911 8.94824 12.4807L8.88966 12.998C8.59672 13.0474 8.30424 13.1 8 13.1C7.69561 13.1 7.4033 13.0475 7.11034 12.998L7.05176 12.4807C6.98681 11.911 6.64194 11.4043 6.12549 11.1178C5.60869 10.8311 4.9795 10.7981 4.43342 11.0287L3.93794 11.2379C3.5574 10.7992 3.25621 10.3037 3.04584 9.76074L3.48518 9.45137C3.96619 9.11254 4.25097 8.57309 4.25097 8C4.25097 7.42691 3.96596 6.88711 3.48518 6.54805L3.04584 6.23867C3.25633 5.69556 3.55786 5.20035 3.93855 4.76152L4.43342 4.9707C4.9795 5.20132 5.60869 5.16894 6.12549 4.88223C6.64194 4.5957 6.98681 4.08901 7.05176 3.51934L7.11034 3.00195C7.40328 2.9526 7.69576 2.9 8 2.9ZM8 5.6C6.6252 5.6 5.50065 6.67985 5.50065 8C5.50065 9.32015 6.6252 10.4 8 10.4C9.3748 10.4 10.4994 9.32015 10.4994 8C10.4994 6.67985 9.3748 5.6 8 5.6ZM8 6.5C8.86827 6.5 9.56209 7.16624 9.56209 8C9.56209 8.83376 8.86827 9.5 8 9.5C7.13173 9.5 6.43791 8.83376 6.43791 8C6.43791 7.16624 7.13173 6.5 8 6.5Z" fill="white"/>
</svg>
