<svg width="24" height="24" viewBox="0 0 24 24" fill="none" xmlns="http://www.w3.org/2000/svg">
<path d="M11.1558 14.8115C11.6312 14.8125 12.0869 14.623 12.4214 14.2855L15.3265 11.3888C15.611 11.1045 15.722 10.69 15.6178 10.3016C15.5139 9.91319 15.2104 9.60972 14.8219 9.50572C14.4335 9.40155 14.0192 9.51258 13.7348 9.79704L11.1558 12.376L10.2642 11.4844L10.2644 11.4845C9.97995 11.2001 9.56563 11.0891 9.17722 11.1932C8.7888 11.2972 8.48533 11.6007 8.38133 11.9891C8.27716 12.3776 8.38819 12.7919 8.67265 13.0763L9.8903 14.294C10.2263 14.6282 10.6819 14.8146 11.1558 14.8115L11.1558 14.8115Z" fill="white"/>
<path d="M3 8.06176C3 8.50924 3.17774 8.93847 3.49416 9.25491C3.81059 9.57135 4.23984 9.74907 4.68731 9.74907H8.34343C8.66182 9.75064 8.96592 9.61724 9.18031 9.38183C9.3947 9.14642 9.49949 8.83136 9.46849 8.51452C9.43298 8.23026 9.2935 7.96917 9.07692 7.7816C8.86035 7.59405 8.58197 7.49341 8.29554 7.4991H6.9682C8.3436 5.9621 10.3466 5.13812 12.4056 5.26252C14.4647 5.38709 16.3536 6.44622 17.5342 8.13786C18.7143 9.8295 19.0563 11.968 18.4624 13.9434C17.8684 15.9187 16.4038 17.5142 14.4864 18.2743C12.5687 19.0347 10.4089 18.8764 8.62258 17.8447C6.83642 16.813 5.61993 15.0211 5.32036 12.9804C5.28466 12.6798 5.12948 12.4063 4.88976 12.2218C4.65003 12.037 4.34597 11.9567 4.0464 11.9989C3.74547 12.0499 3.4771 12.2179 3.29957 12.466C3.12203 12.7142 3.04983 13.0224 3.09868 13.3235C3.40001 15.3505 4.38423 17.214 5.8885 18.6057C7.39276 19.9974 9.32686 20.8341 11.3711 20.9773C13.4153 21.1205 15.4474 20.5618 17.1314 19.3934C18.815 18.2249 20.0495 16.5171 20.6306 14.5518C21.2117 12.5867 21.1048 10.4819 20.3273 8.58556C19.5499 6.68953 18.1486 5.1154 16.3552 4.12375C14.5617 3.13209 12.4834 2.7823 10.4643 3.13209C8.44503 3.48206 6.6057 4.5106 5.25034 6.04765V4.45314C5.25603 4.16673 5.15539 3.88836 4.96785 3.67176C4.7803 3.45518 4.51919 3.3157 4.23492 3.28019C3.9181 3.2492 3.60305 3.35396 3.36761 3.56837C3.13218 3.78279 2.9988 4.08685 3.00037 4.40525L3 8.06176Z" fill="white"/>
</svg>
