<svg width="24" height="24" viewBox="0 0 24 24" fill="none" xmlns="http://www.w3.org/2000/svg">
<path d="M14.5314 8.0625H9.46906C9.06709 8.0625 8.69575 8.27692 8.49466 8.62493C8.29377 8.97296 8.29377 9.40182 8.49466 9.7498C8.69574 10.0978 9.06709 10.3122 9.46906 10.3122H14.5314C14.9334 10.3122 15.3047 10.0978 15.5058 9.7498C15.7067 9.40178 15.7067 8.97292 15.5058 8.62493C15.3047 8.27691 14.9334 8.0625 14.5314 8.0625Z" fill="white"/>
<path d="M14.5314 12.5623H9.46906C9.06709 12.5623 8.69575 12.7767 8.49466 13.1247C8.29377 13.4729 8.29377 13.9018 8.49466 14.2498C8.69574 14.5978 9.06709 14.8122 9.46906 14.8122H14.5314C14.9334 14.8122 15.3047 14.5978 15.5058 14.2498C15.7067 13.9017 15.7067 13.4729 15.5058 13.1247C15.3047 12.7767 14.9334 12.5623 14.5314 12.5623Z" fill="white"/>
<path d="M12.0003 3.00002C7.03911 3.00002 3.00052 6.78549 3.00052 11.4373C3.00406 13.0171 3.47371 14.561 4.35044 15.8752C4.17976 16.2433 3.98142 16.5976 3.75702 16.9356L3.38016 17.498C3.07647 17.9518 2.94797 18.5007 3.01919 19.0421C3.09021 19.5836 3.35563 20.0807 3.76624 20.4409C4.17684 20.8011 4.70438 20.9996 5.25054 20.9994C6.8492 21.0012 8.4098 20.5101 9.71948 19.5932C10.4655 19.7792 11.2314 19.8735 12.0003 19.8745C16.9614 19.8745 21 16.0891 21 11.4373C21 6.78547 16.9615 3 12.0003 3L12.0003 3.00002ZM12.0003 17.6246C11.4204 17.6252 10.8426 17.5563 10.279 17.4192C9.62614 17.2672 8.9393 17.399 8.38922 17.7821C7.46444 18.4138 6.37036 18.7511 5.25056 18.7495L5.62742 18.1871C5.9727 17.6666 6.27011 17.116 6.5161 16.5419C6.76014 15.9524 6.68128 15.2787 6.30795 14.7616C5.62112 13.789 5.25174 12.628 5.25053 11.4374C5.25053 8.02033 8.27384 5.25005 12.0003 5.25005C15.7269 5.25005 18.7502 8.02028 18.7502 11.4374C18.7502 14.8544 15.7269 17.6247 12.0003 17.6247L12.0003 17.6246Z" fill="white"/>
</svg>
