<svg width="25" height="24" viewBox="0 0 25 24" fill="none" xmlns="http://www.w3.org/2000/svg">
<path d="M15.0314 8.0625H9.96906C9.56709 8.0625 9.19575 8.27692 8.99466 8.62493C8.79377 8.97296 8.79377 9.40182 8.99466 9.7498C9.19574 10.0978 9.56709 10.3122 9.96906 10.3122H15.0314C15.4334 10.3122 15.8047 10.0978 16.0058 9.7498C16.2067 9.40178 16.2067 8.97292 16.0058 8.62493C15.8047 8.27691 15.4334 8.0625 15.0314 8.0625Z" fill="#EF3770"/>
<path d="M15.0314 12.562H9.96906C9.56709 12.562 9.19575 12.7764 8.99466 13.1244C8.79377 13.4727 8.79377 13.9015 8.99466 14.2495C9.19574 14.5975 9.56709 14.8119 9.96906 14.8119H15.0314C15.4334 14.8119 15.8047 14.5975 16.0058 14.2495C16.2067 13.9015 16.2067 13.4726 16.0058 13.1244C15.8047 12.7764 15.4334 12.562 15.0314 12.562Z" fill="#EF3770"/>
<path d="M12.5003 3.00002C7.53911 3.00002 3.50052 6.78549 3.50052 11.4373C3.50406 13.0171 3.97371 14.561 4.85044 15.8752C4.67976 16.2433 4.48142 16.5976 4.25702 16.9356L3.88016 17.498C3.57647 17.9518 3.44797 18.5007 3.51919 19.0421C3.59021 19.5836 3.85563 20.0807 4.26624 20.4409C4.67684 20.8011 5.20438 20.9996 5.75054 20.9994C7.3492 21.0012 8.9098 20.5101 10.2195 19.5932C10.9655 19.7792 11.7314 19.8735 12.5003 19.8745C17.4614 19.8745 21.5 16.0891 21.5 11.4373C21.5 6.78547 17.4615 3 12.5003 3L12.5003 3.00002ZM12.5003 17.6246C11.9204 17.6252 11.3426 17.5563 10.779 17.4192C10.1261 17.2672 9.4393 17.399 8.88922 17.7821C7.96444 18.4138 6.87036 18.7511 5.75056 18.7495L6.12742 18.1871C6.4727 17.6666 6.77011 17.116 7.0161 16.5419C7.26014 15.9524 7.18128 15.2787 6.80795 14.7616C6.12112 13.789 5.75174 12.628 5.75053 11.4374C5.75053 8.02033 8.77384 5.25005 12.5003 5.25005C16.2269 5.25005 19.2502 8.02028 19.2502 11.4374C19.2502 14.8544 16.2269 17.6247 12.5003 17.6247L12.5003 17.6246Z" fill="#EF3770"/>
</svg>
