<svg width="24" height="24" viewBox="0 0 24 24" fill="none" xmlns="http://www.w3.org/2000/svg">
<path fill-rule="evenodd" clip-rule="evenodd" d="M12.0012 6C10.0662 6 8.49323 7.57297 8.49323 9.50793C8.49323 10.2248 8.70867 10.8903 9.0784 11.4459C8.72738 11.5943 8.40252 11.7928 8.11312 12.0326C8.14874 11.8516 8.16745 11.6648 8.16745 11.4739C8.16745 9.87346 6.86639 8.5724 5.26594 8.5724C3.66549 8.5724 2.36443 9.87346 2.36443 11.4739C2.36443 11.975 2.49131 12.4467 2.71606 12.8583C1.69754 13.3885 1 14.4539 1 15.68V17.8408C1 18.3585 1.42038 18.7789 1.93801 18.7789H22.062C22.5796 18.7789 23 18.3585 23 17.8408V15.68C23 14.4543 22.3029 13.3892 21.2849 12.8589C21.5093 12.4477 21.6379 11.976 21.6379 11.4739C21.6379 9.87346 20.3368 8.5724 18.7364 8.5724C17.1359 8.5724 15.8349 9.87346 15.8349 11.4739C15.8349 11.6654 15.8536 11.8524 15.8891 12.0334C15.5997 11.7932 15.2749 11.5944 14.9236 11.4458C15.2924 10.8909 15.5091 10.2245 15.5091 9.50793C15.5091 7.57297 13.9361 6 12.0012 6ZM10.3622 9.51037C10.3622 8.61073 11.0944 7.87851 11.994 7.87851C12.8937 7.87851 13.6259 8.61073 13.6259 9.51037C13.6259 10.41 12.8937 11.1422 11.994 11.1422C11.0944 11.1422 10.3622 10.41 10.3622 9.51037ZM4.22886 11.4739C4.22886 10.9086 4.68913 10.4485 5.2543 10.4485C5.81957 10.4485 6.27974 10.9088 6.27974 11.4739C6.27974 12.0392 5.81946 12.4994 5.2543 12.4994C4.68903 12.4994 4.22886 12.0391 4.22886 11.4739ZM17.7084 11.4765C17.7084 10.9112 18.1687 10.451 18.7339 10.451C19.2992 10.451 19.7593 10.9113 19.7593 11.4765C19.7593 12.0418 19.299 12.5019 18.7339 12.5019C18.1686 12.5019 17.7084 12.0417 17.7084 11.4765ZM8.5742 15.016C8.5742 13.9166 9.47008 13.0207 10.5694 13.0207H13.4136C14.5129 13.0207 15.4088 13.9166 15.4088 15.016V16.9053H8.5742V15.016ZM2.8643 15.6821C2.8643 14.9629 3.44965 14.3775 4.16886 14.3775H6.34162C6.47938 14.3775 6.61454 14.3991 6.74291 14.4405C6.71484 14.6279 6.70054 14.8193 6.70054 15.0132V15.0413L6.70088 15.0439V16.9051L2.8643 16.905V15.6821ZM17.2872 15.016C17.2872 14.822 17.2729 14.6307 17.2448 14.4432C17.3732 14.4018 17.5083 14.3803 17.6461 14.3803H19.8189C20.5381 14.3803 21.1234 14.9656 21.1234 15.6848V16.9053H17.2872V15.016Z" fill="white"/>
</svg>
