<svg width="200" height="37" viewBox="0 0 200 37" fill="none" xmlns="http://www.w3.org/2000/svg">
<g clip-path="url(#clip0_709_28801)">
<path d="M198.875 28.6699H1.08075V36.9999H198.875V28.6699Z" fill="#1E98FF"/>
<path d="M0 20.274L6.97031 18.9517C7.10267 22.5217 8.22761 24.2406 10.5878 24.2406C12.6392 24.2406 13.5877 23.293 13.5877 20.5384V0H20.8447V18.8196C20.8447 26.1798 17.8007 29.2209 10.4334 29.2209C2.80137 29.2209 0.573507 24.7695 0 20.274Z" fill="black"/>
<path d="M25.3445 21.6618V7.84473H32.425V21.7941C32.425 23.7995 33.3736 24.5927 34.9177 24.5927C36.969 24.5927 38.2043 23.3367 38.2043 20.4277V7.84473H45.2849V28.6696H38.5351V23.0503H38.3587C37.3219 27.9204 35.0279 29.1764 31.8958 29.1764C27.5061 29.1545 25.3445 26.8406 25.3445 21.6618Z" fill="black"/>
<path d="M48.9025 24.2401L52.7186 21.6619C53.9759 23.9978 55.9612 24.9014 58.564 24.9014C60.5271 24.9014 61.3874 24.3283 61.3874 23.2265C61.3874 21.9703 60.5492 21.3093 58.211 20.8906L55.2995 20.3397C51.3731 19.6346 49.2556 17.3427 49.2556 14.1253C49.2556 9.82807 52.7186 7.33789 58.0126 7.33789C63.2624 7.33789 65.7328 9.4975 67.0563 11.9216L63.3506 14.3016C62.4021 12.1419 60.483 11.4367 58.7184 11.4367C56.8877 11.4367 55.917 12.0979 55.917 13.1777C55.917 14.2134 56.7111 14.8084 58.7184 15.183L61.6742 15.734C66.0417 16.5273 68.1813 18.3123 68.1813 22.1908C68.1813 25.8489 65.8431 29.1545 58.961 29.1545C53.8876 29.1545 50.4466 27.2152 48.9025 24.2401Z" fill="black"/>
<path d="M72.3942 23.0505V12.01H69.5709V7.84505H72.3942V2.37988H79.4749V7.84505H82.8939V12.01H79.4749V22.4114C79.4749 23.7777 80.0262 24.3287 81.0631 24.3287H82.8939V28.67H78.2617C73.806 28.67 72.3942 27.2595 72.3942 23.0505Z" fill="black"/>
<path d="M85.1218 7.84473H92.7979L95.6655 20.9567H95.8419L99.5036 7.84473H105.349L108.878 20.9567H109.055L112.231 7.84473H117.812L111.349 28.6696H105.261L101.555 15.5797H101.378L97.8492 28.6696H91.7612L85.1218 7.84473Z" fill="black"/>
<path d="M118.473 18.2461C118.473 11.591 122.819 7.33789 129.304 7.33789C135.811 7.33789 140.134 11.591 140.134 18.2461C140.134 24.9014 135.789 29.1545 129.304 29.1545C122.796 29.1545 118.473 24.9234 118.473 18.2461ZM132.723 18.2461C132.723 12.8692 131.553 11.4588 129.304 11.4588C127.054 11.4588 125.885 12.8692 125.885 18.2461C125.885 23.6232 127.054 25.0335 129.304 25.0335C131.553 25.0335 132.723 23.6232 132.723 18.2461Z" fill="black"/>
<path d="M143.266 7.84512H149.928V14.7647H150.104C151.097 9.05715 153.016 7.71289 156.104 7.71289H156.479V13.9493H153.06C151.009 13.9493 150.347 14.6104 150.347 17.0785V28.648H143.266V7.84512Z" fill="black"/>
<path d="M168.281 20.34L166.252 22.5877V28.6699H159.236V0.0439453H166.252V16.792L173.486 7.84502H179.794L172.912 15.3376L180.235 28.6699H172.736L168.281 20.34Z" fill="black"/>
<path d="M180.698 24.2401L184.536 21.6619C185.794 23.9978 187.78 24.9014 190.382 24.9014C192.346 24.9014 193.206 24.3283 193.206 23.2265C193.206 21.9703 192.368 21.3093 190.03 20.8906L187.118 20.3397C183.191 19.6346 181.073 17.3427 181.073 14.1253C181.073 9.82807 184.536 7.33789 189.831 7.33789C195.08 7.33789 197.551 9.4975 198.875 11.9216L195.168 14.3016C194.221 12.1419 192.301 11.4367 190.536 11.4367C188.706 11.4367 187.735 12.0979 187.735 13.1777C187.735 14.2134 188.53 14.8084 190.536 15.183L193.493 15.734C197.86 16.5273 200 18.3123 200 22.1908C200 25.8489 197.661 29.1545 190.78 29.1545C185.706 29.1545 182.243 27.2152 180.698 24.2401Z" fill="black"/>
</g>
<defs>
<clipPath id="clip0_709_28801">
<rect width="200" height="37" fill="white"/>
</clipPath>
</defs>
</svg>
