<svg width="168" height="46" viewBox="0 0 168 46" fill="none" xmlns="http://www.w3.org/2000/svg">
<path fill-rule="evenodd" clip-rule="evenodd" d="M4.82118 35.7329C7.83546 36.7037 11.0557 35.1471 11.9775 32.274L15.3878 21.097C16.3096 18.2238 14.5976 15.0784 11.5834 14.1074L11.3317 14.0266C8.31763 13.0556 5.09721 14.612 4.17558 17.4852L0.765253 28.6623C-0.156556 31.5357 1.5554 34.6809 4.56967 35.6519L4.82118 35.7329Z" fill="#084F99"/>
<path fill-rule="evenodd" clip-rule="evenodd" d="M40.8271 3.96245C41.4704 2.38915 42.6598 1.19378 44.0558 0.548787C44.1261 0.516422 44.1954 0.481228 44.2668 0.451693C44.3066 0.434538 44.3475 0.420567 44.3878 0.404296C45.5392 -0.0443869 46.8105 -0.124149 48.032 0.269178L48.2836 0.350355C51.2979 1.32112 52.9031 4.79951 51.8506 8.07984C51.8506 8.07984 43.5938 36.2968 43.5867 36.319C41.429 42.8142 34.5746 46.177 28.675 44.4889C28.675 44.4889 27.0847 44.0113 26.4287 43.5332C32.2922 42.2587 39.6564 6.82505 40.8271 3.96245Z" fill="#5EB7FF"/>
<path fill-rule="evenodd" clip-rule="evenodd" d="M5.77777 39.4643C7.0508 39.8742 8.36247 39.8998 9.60585 39.6078C9.80352 39.566 9.99571 39.5098 10.1849 39.4454C12.6155 38.6653 14.705 36.6541 15.5912 33.8915L22.0251 12.41C23.0869 9.14594 26.402 7.26791 29.4081 8.2362L29.6597 8.3172C32.6739 9.28813 34.2792 12.7664 33.2268 16.0469C33.2268 16.0469 27.1049 36.4026 26.2501 38.0957C20.0033 49.5446 8.26893 43.9505 4.94385 39.1596C5.13428 39.2401 5.32595 39.3188 5.52609 39.3832L5.77777 39.4643Z" fill="#1479FB"/>
<path fill-rule="evenodd" clip-rule="evenodd" d="M143.667 16.9697L143.683 16.8468C143.683 16.7706 143.663 16.6924 143.62 16.6081C143.451 16.2698 142.503 15.5854 140.979 15.453C140.846 15.4415 140.711 15.4357 140.577 15.4357C139.501 15.4357 138.298 15.8825 138.053 16.373L138.032 16.4186L131.811 31.9031L125.82 16.3582C125.569 15.8872 124.147 15.3743 123.086 15.3743C123.026 15.3743 122.929 15.3701 122.822 15.365C122.661 15.3572 122.439 15.3467 122.354 15.3559C120.861 15.515 120.326 16.1619 120.14 16.5332C120.099 16.6159 120.078 16.6917 120.077 16.7653L120.088 16.8918C120.327 17.5038 128.477 38.0541 128.919 39.1674L128.947 39.1982C129.266 39.544 130.804 40.0367 131.817 40.0367C132.825 40.0367 134.28 39.6592 134.597 39.3159L134.625 39.2853L143.649 17.028L143.667 16.9697Z" fill="#2B2B2B"/>
<path fill-rule="evenodd" clip-rule="evenodd" d="M113.041 31.2333C113.041 32.8331 112.644 33.9825 111.924 34.4698C111.311 34.8444 110.159 35.2832 108.09 35.2832L107.855 35.2817C106.092 35.2817 104.73 34.952 103.809 34.3024C103.083 33.7909 102.667 33.0855 102.667 32.3666C102.667 30.1849 103.882 29.7893 107.533 29.7079H113.041V31.2333ZM118.118 39.1815C118.145 39.121 118.173 39.0451 118.173 38.9579V23.3784C118.142 20.4385 117.201 18.3285 115.376 17.1094C113.626 15.9701 111.271 15.3916 108.378 15.3916L107.889 15.3899C104.169 15.3899 100.805 16.7291 99.109 18.8858C99.0821 18.9275 99.0678 18.9649 99.0526 19.0137C98.8594 19.6381 99.6753 20.5933 100.515 21.2163C101.252 21.7636 102.046 22.1033 102.585 22.1033C102.705 22.0792 103.201 21.7512 103.304 21.6519C103.871 21.1046 105.407 19.8274 107.438 19.7851L108.317 19.7626C110 19.7624 111.643 20.541 112.398 21.31C112.843 21.7613 113.053 22.3511 113.042 23.1128V25.4105H105.688C103.133 25.4404 101.159 26.1487 99.8248 27.5157C98.487 28.8566 97.8096 30.5672 97.8096 32.6019C97.8096 34.7323 98.5849 36.5027 100.114 37.8643C101.629 39.317 104.818 39.9931 107.31 40.0217C108.935 40.0217 110.229 39.8183 111.153 39.4171C111.717 39.1849 112.2 38.8734 112.592 38.4897L113.042 38.0495V38.9579C113.042 39.0465 113.071 39.1223 113.099 39.1847C113.363 39.7702 114.585 40.0366 115.608 40.0366C116.63 40.0366 117.851 39.7693 118.118 39.1815Z" fill="#2B2B2B"/>
<path fill-rule="evenodd" clip-rule="evenodd" d="M149.966 24.743C150.26 22.4023 150.983 21.3893 151.977 20.5885C152.992 19.7694 154.221 19.5724 156.001 19.5088C157.508 19.4533 159.386 20.0895 160.263 20.9544C161.108 21.8146 161.6 23.0699 161.728 24.6884L161.751 24.973L149.928 25.0433L149.966 24.743ZM166.6 36.0882C166.771 35.4405 165.94 34.4713 165.093 33.8449C164.362 33.3016 163.59 32.973 162.976 32.9433C162.639 32.9437 162.428 33.1228 162.371 33.1778C160.906 34.518 159.246 35.1945 157.435 35.1945C155.802 35.1945 152.96 34.624 151.873 33.5526C150.798 32.5805 150.129 31.116 150.047 29.542L150.033 29.2587L150.316 29.2629C150.469 29.2654 165.625 29.4964 165.873 29.4964C166.117 29.4937 166.343 29.3879 166.522 29.191C167.207 28.442 167.24 26.3288 167.151 25.1982L167.15 25.18C167.118 21.873 166.077 19.2356 164.059 17.3409C161.976 15.3905 158.41 14.2973 154.762 14.4911C153.292 14.5685 152.164 14.7709 151.105 15.1473C149.857 15.5861 148.717 16.3089 147.715 17.2962C146.73 18.2687 145.911 19.6107 145.285 21.2851C144.659 22.9276 144.342 25.0093 144.342 27.4742C144.342 30.0392 144.705 32.1492 145.424 33.7463C146.089 35.4384 146.97 36.7699 148.046 37.7159C148.584 38.1614 149.186 38.5517 149.783 38.8395C152.38 40.2329 154.787 40.4041 156.546 40.529L156.691 40.5394C156.837 40.544 162.149 40.6842 166.512 36.285C166.571 36.2015 166.589 36.1338 166.6 36.0882Z" fill="#2B2B2B"/>
<path fill-rule="evenodd" clip-rule="evenodd" d="M90.0452 39.2302C90.5048 38.0209 96.8137 17.2329 97.0069 16.5914L97.0239 16.4571C97.0239 16.3816 97.0033 16.3041 96.961 16.2195C96.8559 16.0077 95.9187 15.1594 94.2722 14.9634C94.093 14.9426 93.9098 14.932 93.7291 14.932C92.5762 14.932 91.3209 15.3476 91.0952 15.8039L91.0699 15.8659L86.6255 31.7111L80.8635 15.8161C80.6978 15.341 79.5589 14.8779 78.5631 14.8779C77.5343 14.8779 76.2776 15.3602 76.1179 15.8161L75.9644 15.762L75.9627 15.7669L76.1179 15.8161L71.1651 31.4352L66.4095 15.9612L66.3691 15.8644C66.1352 15.4157 64.8975 14.8779 63.6955 14.8779C63.5847 14.8779 63.1335 14.92 62.8913 14.9426C62.7919 14.9519 62.7096 14.9596 62.6629 14.9634C61.1048 15.0917 60.5621 15.8565 60.4012 16.1793C60.3579 16.266 60.3369 16.3447 60.3369 16.4205L60.3401 16.4815L60.3373 16.498L67.7015 39.1855C67.9286 39.7049 69.7543 40.0357 70.9202 40.0357C72.1171 40.0357 74.0486 39.7168 74.4257 39.2145L78.7005 24.915L83.7756 39.1889C83.9844 39.7021 85.8282 40.0366 87.0041 40.0366C88.3191 40.0366 89.832 39.7541 90.0452 39.2302Z" fill="#2B2B2B"/>
</svg>
